<?xml version="1.0" encoding="UTF-8"?>
<!DOCTYPE svg PUBLIC "-//W3C//DTD SVG 1.1//EN" "http://www.w3.org/Graphics/SVG/1.1/DTD/svg11.dtd">
<!-- Creator: CorelDRAW 2020 (64-Bit Evaluation Version) -->
<svg xmlns="http://www.w3.org/2000/svg" xml:space="preserve" width="100mm" height="92mm" version="1.1" style="shape-rendering:geometricPrecision; text-rendering:geometricPrecision; image-rendering:optimizeQuality; fill-rule:evenodd; clip-rule:evenodd"
viewBox="0 0 5632.57 5181.96"
 xmlns:xlink="http://www.w3.org/1999/xlink"
 xmlns:xodm="http://www.corel.com/coreldraw/odm/2003">
 <defs>
  <style type="text/css">
   <![CDATA[
    .fil5 {fill:none}
    .fil14 {fill:#003333}
    .fil10 {fill:#2A0752}
    .fil12 {fill:#342A83}
    .fil9 {fill:#57331F}
    .fil7 {fill:#AFB9C5}
    .fil8 {fill:#C5CFD6}
    .fil13 {fill:#CC9933}
    .fil11 {fill:#E4E4E4}
    .fil15 {fill:#E87613}
    .fil6 {fill:#F2F2F2}
    .fil16 {fill:#FFA434}
    .fil4 {fill:#AFB9C5;fill-rule:nonzero}
    .fil3 {fill:#C5CFD6;fill-rule:nonzero}
    .fil2 {fill:#C7D1D9;fill-rule:nonzero}
    .fil0 {fill:#F2F2F2;fill-rule:nonzero}
    .fil1 {fill:white;fill-rule:nonzero}
   ]]>
  </style>
    <clipPath id="id0">
     <path d="M850.5 5012.73l4635.94 0 0 -4788.16 -4635.94 0 0 4788.16z"/>
    </clipPath>
 </defs>
 <g id="Layer_x0020_1">
  <metadata id="CorelCorpID_0Corel-Layer"/>
  <g id="_1882765818064">
   <g>
   </g>
   <g style="clip-path:url(#id0)">
    <g id="_1882765816576">
     <path class="fil0" d="M961.21 224.56l4414.52 0c61.13,0 110.71,49.58 110.71,110.71l-0.01 4566.75c0.01,61.12 -49.57,110.7 -110.7,110.7l-4414.52 0.01c-61.13,-0.01 -110.71,-49.58 -110.71,-110.71l-0.01 -4566.74c0.01,-61.14 49.58,-110.71 110.71,-110.71z"/>
     <path class="fil1" d="M4407.02 819.62l747.29 0c61.13,0 110.71,49.58 110.71,110.71l0 899.51c0,61.14 -49.58,110.71 -110.71,110.71l-747.29 0c-61.13,0 -110.71,-49.58 -110.71,-110.71l0.01 -899.51c-0.01,-61.13 49.57,-110.71 110.7,-110.71z"/>
     <circle id="Avatar_7" class="fil2" cx="4780.67" cy="1248.62" r="221.42"/>
     <path class="fil2" d="M4476.22 1525.39l608.9 0c22.92,-0.01 41.52,18.59 41.52,41.51l0 0c0,22.92 -18.59,41.52 -41.52,41.52l-608.9 0c-22.92,0 -41.52,-18.59 -41.52,-41.52l0.01 0c-0.01,-22.92 18.59,-41.52 41.51,-41.52z"/>
     <path class="fil2" d="M4586.92 1663.78l387.48 0c22.92,0 41.52,18.59 41.52,41.52l0 0c0,22.92 -18.59,41.52 -41.52,41.52l-387.48 -0.01c-22.92,0.01 -41.52,-18.59 -41.52,-41.51l0.01 0c-0.01,-22.92 18.59,-41.52 41.51,-41.52z"/>
     <path id="Header" class="fil3" d="M850.49 335.27c0,-61.14 49.57,-110.71 110.71,-110.71l4414.52 0c61.14,0 110.7,49.57 110.7,110.71l0 262.93 -4635.94 0 0 -262.93z"/>
     <circle id="buttons" class="fil0" cx="1030.4" cy="418.3" r="55.35"/>
     <circle id="buttons_2" class="fil0" cx="1196.46" cy="418.3" r="55.35"/>
     <circle id="buttons_3" class="fil0" cx="1362.53" cy="418.3" r="55.35"/>
     <path class="fil1" d="M5154.72 2051.26c60.94,0.22 110.3,49.71 110.3,110.71l0 2463.27c0,61.13 -49.58,110.71 -110.71,110.71l-747.29 0.01c-60.86,-0.01 -110.26,-49.14 -110.7,-109.9l0 -2464.5c0.21,-60.8 49.48,-110.08 110.29,-110.3l748.1 0z"/>
     <path class="fil2" d="M4960.93 2300.36c30.4,0.2 55,24.9 55,55.35l0 249.09c0,30.56 -24.78,55.35 -55.35,55.35l-359.81 0.01c-30.41,-0.01 -55.09,-24.54 -55.35,-54.88l0 -250.05c0.25,-30.34 24.94,-54.87 55.35,-54.87l360.16 0z"/>
     <path class="fil4" d="M4600.76 2770.87l359.81 0c30.57,-0.01 55.35,24.78 55.35,55.35l0 235.26c0,30.56 -24.78,55.35 -55.35,55.35l-359.81 0.01c-30.41,-0.01 -55.09,-24.54 -55.35,-54.88l0 -236.21c0.25,-30.35 24.94,-54.88 55.35,-54.88l0 0.01z"/>
     <path class="fil2" d="M4600.76 3227.54l359.81 0c30.57,0 55.35,24.78 55.35,55.35l0 235.26c0,30.56 -24.78,55.35 -55.35,55.35l-359.81 0.01c-30.41,-0.01 -55.09,-24.54 -55.35,-54.88l0 -236.2c0.25,-30.35 24.94,-54.88 55.35,-54.88z"/>
     <path class="fil2" d="M4600.76 4140.89l359.81 0c30.57,0 55.35,24.79 55.35,55.35l0 235.26c0,30.56 -24.78,55.35 -55.35,55.35l-359.81 0.01c-30.41,-0.01 -55.09,-24.54 -55.35,-54.88l0 -236.2c0.25,-30.35 24.94,-54.88 55.35,-54.88z"/>
     <path class="fil3" d="M4600.76 3684.22l359.81 0c30.57,-0.01 55.35,24.78 55.35,55.35l0 235.26c0,30.56 -24.78,55.35 -55.35,55.35l-359.81 0.01c-30.41,-0.01 -55.09,-24.54 -55.35,-54.88l0 -236.2c0.25,-30.35 24.94,-54.88 55.35,-54.88l0 0.01z"/>
     <path class="fil1" d="M4130.73 833.47c30.34,0.25 54.87,24.94 54.87,55.35l0 539.71c0,30.56 -24.78,55.35 -55.35,55.35l-3002.99 0c-30.56,0 -55.35,-24.79 -55.35,-55.35l-0.01 -269.86 0 -270.21c0.2,-30.25 24.65,-54.74 54.88,-54.99l3003.93 0z"/>
     <path class="fil2" d="M3466.35 1028.59c22.76,0.19 41.16,18.71 41.16,41.51l-0.01 14.53c0.01,22.92 -18.59,41.52 -41.51,41.52l-2228.02 0c-22.8,0 -41.31,-18.4 -41.51,-41.16l0 -15.24c0.19,-22.64 18.51,-40.97 41.16,-41.16l2228.73 0z"/>
     <path class="fil2" d="M1237.98 1191.19l1468.22 0c22.93,-0.01 41.53,18.59 41.53,41.51l-0.01 14.54c0.01,22.8 -18.39,41.31 -41.15,41.51l-1468.59 0c-22.8,0.01 -41.31,-18.4 -41.51,-41.16l0 -15.25c0.19,-22.76 18.71,-41.16 41.51,-41.16l-0.01 0.01z"/>
     <path id="Background_11" class="fil2" d="M3949.71 1158.67c0,-53.36 -43.52,-96.87 -96.87,-96.87 -53.36,0 -96.87,43.52 -96.87,96.87 0,53.35 43.52,96.87 96.87,96.87 53.35,0 96.87,-43.52 96.87,-96.87z"/>
     <path id="Indicator_3" class="fil0" d="M3894.36 1158.67c0,-22.87 -18.65,-41.51 -41.51,-41.51 -22.87,0 -41.52,18.64 -41.52,41.51 0,22.87 18.65,41.51 41.52,41.51 22.86,0 41.51,-18.64 41.51,-41.51z"/>
     <path class="fil1" d="M4130.73 1594.59c30.34,0.26 54.87,24.94 54.87,55.35l0 429c0,30.56 -24.78,55.35 -55.35,55.35l-3002.99 0c-30.56,0 -55.35,-24.79 -55.35,-55.35l-0.01 -214.5 0 -214.85c0.2,-30.25 24.65,-54.73 54.88,-54.99l3003.93 0z"/>
     <path class="fil2" d="M3467.38 1756.5c22.19,0.19 40.13,18.24 40.13,40.47l0 0c0,22.35 -18.13,40.48 -40.48,40.48l-2230.1 0c-22.34,0 -40.47,-18.13 -40.47,-40.48l0 -0.35c0.19,-22.07 18.05,-39.93 40.13,-40.12l2230.79 0z"/>
     <path class="fil2" d="M1236.94 1891.43l1470.3 0c22.36,0 40.49,18.13 40.49,40.48l-0.01 0c0.01,22.35 -18.13,40.48 -40.48,40.48l-1470.3 0c-22.34,0 -40.47,-18.13 -40.47,-40.48l0 -0.35c0.19,-22.19 18.24,-40.13 40.48,-40.13l-0.01 0z"/>
     <path id="Background_12" class="fil2" d="M3949.71 1864.44c0,-53.36 -43.52,-96.87 -96.87,-96.87 -53.36,0 -96.87,43.51 -96.87,96.87 0,53.36 43.52,96.87 96.87,96.87 53.35,0 96.87,-43.51 96.87,-96.87z"/>
     <path id="Indicator_4" class="fil0" d="M3894.36 1864.44c0,-22.87 -18.65,-41.51 -41.51,-41.51 -22.87,0 -41.52,18.64 -41.52,41.51 0,22.87 18.65,41.51 41.52,41.51 22.86,0 41.51,-18.64 41.51,-41.51z"/>
     <path class="fil1" d="M4130.73 2245.01c30.34,0.26 54.87,24.94 54.87,55.35l0 429c0,30.56 -24.78,55.35 -55.35,55.35l-3002.99 0.01c-30.56,-0.01 -55.35,-24.8 -55.35,-55.36l-0.01 -214.5 0 -214.85c0.2,-30.25 24.65,-54.73 54.88,-54.99l3003.93 0z"/>
     <path class="fil2" d="M3467.38 2406.92c22.19,0.19 40.13,18.24 40.13,40.48l0 0c0,22.34 -18.13,40.48 -40.48,40.48l-2230.1 0c-22.34,0 -40.47,-18.13 -40.47,-40.48l0 -0.35c0.19,-22.19 18.24,-40.13 40.48,-40.13l2230.44 0z"/>
     <path class="fil2" d="M1236.94 2541.84l1470.3 0c22.36,-0.01 40.49,18.12 40.49,40.47l-0.01 0.01c0.01,22.34 -18.13,40.47 -40.48,40.47l-1470.3 0.01c-22.34,-0.01 -40.47,-18.13 -40.47,-40.48l0 -0.34c0.19,-22.19 18.24,-40.13 40.48,-40.13l-0.01 0.01z"/>
     <path id="Background_13" class="fil2" d="M3949.71 2514.85c0,-53.35 -43.52,-96.86 -96.87,-96.86 -53.36,0 -96.87,43.51 -96.87,96.86 0,53.36 43.52,96.87 96.87,96.87 53.35,0 96.87,-43.52 96.87,-96.87z"/>
     <path id="Indicator_5" class="fil4" d="M3894.36 2514.85c0,-22.87 -18.65,-41.51 -41.51,-41.51 -22.87,0 -41.52,18.64 -41.52,41.51 0,22.87 18.65,41.51 41.52,41.51 22.86,0 41.51,-18.64 41.51,-41.51z"/>
     <path class="fil1" d="M1127.27 4196.25l3002.99 0c30.57,-0.01 55.35,24.78 55.35,55.35l0 429c0,30.56 -24.78,55.35 -55.35,55.35l-3002.99 0.01c-30.56,-0.01 -55.35,-24.79 -55.35,-55.36l-0.01 -214.5 0 -214.85c0.2,-30.25 24.65,-54.74 54.88,-55l0.47 0z"/>
     <path class="fil2" d="M3467.56 4358.17c22.11,0.27 39.95,18.29 39.95,40.46l0 0.01c0,22.34 -18.13,40.48 -40.48,40.48l-2230.1 0c-22.34,0 -40.47,-18.13 -40.47,-40.48l0 -0.34c0.19,-21.96 17.87,-39.75 39.78,-40.12l2231.31 0z"/>
     <path class="fil2" d="M1236.94 4493.09l1470.3 0c22.36,-0.01 40.49,18.12 40.49,40.47l-0.01 0.01c0.01,22.34 -18.13,40.47 -40.48,40.47l-1470.3 0.01c-22.34,-0.01 -40.47,-18.13 -40.47,-40.48l0 -0.34c0.19,-22.19 18.24,-40.13 40.48,-40.13l-0.01 0.01z"/>
     <path id="Background_14" class="fil2" d="M3949.71 4466.09c0,-53.35 -43.52,-96.87 -96.87,-96.87 -53.36,0 -96.87,43.52 -96.87,96.87 0,53.36 43.52,96.87 96.87,96.87 53.35,0 96.87,-43.52 96.87,-96.87z"/>
     <path id="Indicator_6" class="fil0" d="M3894.36 4466.09c0,-22.87 -18.65,-41.51 -41.51,-41.51 -22.87,0 -41.52,18.64 -41.52,41.51 0,22.87 18.65,41.51 41.52,41.51 22.86,0 41.51,-18.64 41.51,-41.51z"/>
     <path class="fil1" d="M4130.73 3545.83c30.34,0.26 54.87,24.94 54.87,55.35l0 429c0,30.56 -24.78,55.35 -55.35,55.35l-3002.99 0.01c-30.56,-0.01 -55.35,-24.79 -55.35,-55.36l-0.01 -214.5 0 -214.85c0.2,-30.25 24.65,-54.74 54.88,-55l3003.93 0z"/>
     <path class="fil2" d="M1236.94 3707.75l2230.1 0c22.35,-0.01 40.48,18.12 40.48,40.47l0 0.01c0,22.34 -18.13,40.48 -40.48,40.48l-2230.1 0c-22.34,0 -40.47,-18.13 -40.47,-40.48l0 -0.34c0.19,-22.08 18.05,-39.94 40.13,-40.13l0.34 0z"/>
     <path class="fil2" d="M1236.94 3842.68l1470.3 0c22.36,-0.01 40.49,18.12 40.49,40.47l-0.01 0.01c0.01,22.34 -18.13,40.47 -40.48,40.47l-1470.3 0.01c-22.34,-0.01 -40.47,-18.13 -40.47,-40.48l0 -0.34c0.19,-22.19 18.24,-40.13 40.48,-40.13l-0.01 0.01z"/>
     <path id="Background_15" class="fil2" d="M3949.71 3815.68c0,-53.35 -43.52,-96.87 -96.87,-96.87 -53.36,0 -96.87,43.52 -96.87,96.87 0,53.36 43.52,96.87 96.87,96.87 53.35,0 96.87,-43.52 96.87,-96.87z"/>
     <path id="Indicator_7" class="fil0" d="M3894.36 3815.68c0,-22.87 -18.65,-41.51 -41.51,-41.51 -22.87,0 -41.52,18.64 -41.52,41.51 0,22.87 18.65,41.51 41.52,41.51 22.86,0 41.51,-18.64 41.51,-41.51z"/>
     <path class="fil1" d="M4130.73 2895.42c30.34,0.26 54.87,24.94 54.87,55.35l0 429c0,30.56 -24.78,55.35 -55.35,55.35l-3002.99 0.01c-30.56,-0.01 -55.35,-24.8 -55.35,-55.36l-0.01 -214.49 0 -214.85c0.2,-30.25 24.65,-54.74 54.88,-55l3003.93 0z"/>
     <path class="fil2" d="M1236.94 3057.33l2230.1 0c22.35,-0.01 40.48,18.12 40.48,40.47l0 0.01c0,22.34 -18.13,40.48 -40.48,40.48l-2230.1 0c-22.34,0 -40.47,-18.13 -40.47,-40.48l0 -0.34c0.19,-22.08 18.05,-39.94 40.13,-40.13l0.34 0z"/>
     <path class="fil2" d="M1236.94 3192.26l1470.3 0c22.36,0 40.49,18.13 40.49,40.48l-0.01 0.01c0.01,22.34 -18.13,40.47 -40.48,40.47l-1470.3 0.01c-22.34,-0.01 -40.47,-18.13 -40.47,-40.48l0 -0.34c0.19,-22.19 18.24,-40.13 40.48,-40.13l-0.01 0z"/>
     <path id="Background_16" class="fil2" d="M3949.71 3165.27c0,-53.35 -43.52,-96.87 -96.87,-96.87 -53.36,0 -96.87,43.52 -96.87,96.87 0,53.36 43.52,96.87 96.87,96.87 53.35,0 96.87,-43.52 96.87,-96.87z"/>
     <path id="Indicator_8" class="fil0" d="M3894.36 3165.27c0,-22.87 -18.65,-41.51 -41.51,-41.51 -22.87,0 -41.52,18.64 -41.52,41.51 0,22.87 18.65,41.51 41.52,41.51 22.86,0 41.51,-18.64 41.51,-41.51z"/>
    </g>
   </g>
   <polygon class="fil5" points="850.5,5012.73 5486.44,5012.73 5486.44,224.56 850.5,224.56 "/>
   <g id="Chart_2">
    <path id="Value_9" class="fil6" d="M551.51 1264.72c-22.03,23.31 -53.23,37.94 -87.94,37.94 -66.69,0 -120.75,-53.71 -120.75,-119.97 0,-66.26 54.06,-119.97 120.75,-119.97l0 -222.8c-189.72,0 -345,154.27 -345,342.76 0,188.49 155.28,342.76 345,342.76 99.65,0 189.71,-41.89 251.11,-108.52l-163.17 -152.21z"/>
    <path id="Value_10" class="fil7" d="M461.34 839.93l0 222.8c66.26,0 119.97,53.71 119.97,119.97l222.8 0c0,-188.49 -154.28,-342.76 -342.76,-342.76z"/>
    <path id="Value_11" class="fil8" d="M581.65 1182.69c0,38.08 -17.95,71.93 -45.8,93.78l137.05 174.47c79.79,-62.46 131.2,-159.28 131.2,-268.25l-222.45 0z"/>
   </g>
   <g id="Lower_x0020_Body_x002f_Sitting">
    <g id="Lower_x0020_Body_x002f_Sitting_x002f_Baggy_x0020_Pants">
     <g id="Seat">
      <path id="Seat_2" class="fil8" d="M413.54 3129.09c-131.69,0 -238.44,106.75 -238.44,238.45l0 1371.06c0,131.7 106.75,238.45 238.44,238.45l1713.83 0c131.7,0 238.44,-106.75 238.44,-238.45l0 -1371.06c0,-131.7 -106.75,-238.45 -238.44,-238.45l-1713.83 0zm238.44 417.28c-32.92,0 -59.61,26.69 -59.61,59.61l0 894.17c0,32.92 26.69,59.61 59.61,59.61l1236.93 0c32.92,0 59.62,-26.69 59.62,-59.61l0 -894.17c0,-32.92 -26.69,-59.61 -59.62,-59.61l-1236.93 0z"/>
     </g>
     <path id="SKIN" class="fil9" d="M3843.56 4902.52c-293.82,-358.8 -492.62,-624.8 -596.43,-797.98 -177.71,-296.56 -323.16,-560.43 -369.07,-661.23 -109.46,-240.37 252,-352.93 333.8,-240.81 123.81,169.69 388.23,703.67 793.26,1601.92l-161.56 98.1z"/>
     <path id="LegLower" class="fil10" d="M3241.47 4798.21l-546.83 -1376.48c-116.95,-250.92 447.85,-415.86 533.79,-299.08 195.13,265.11 658.94,1310.95 717.08,1389.93l-704.04 285.63z"/>
     <path id="SKIN_0" class="fil9" d="M1785.09 4522.16c106.52,-155.38 493.97,-678.12 704.99,-894.41 60.64,-62.16 119.82,-121.81 175.78,-177.4 166.35,-165.24 497.61,112.49 331.56,262.99 -413.51,374.81 -1016.84,880.79 -1067.24,925.9 -70.65,63.23 -212.04,-19.45 -145.09,-117.09z"/>
     <g id="Left_x0020__x005b_shoe_x005d_">
      <path id="shoe" class="fil11" d="M1854.11 4458.2c-10.33,-14.07 -30.31,-17.4 -43.66,-6.17 -24.37,20.49 -59.41,52.05 -72.06,73.96 -20.15,34.9 -47.18,108.6 -47.18,108.6 40.49,23.38 727.93,420.27 727.93,420.27 0,0 82.53,-77.42 25.72,-120.19 -56.83,-42.79 -93.77,-72.16 -93.77,-72.16l-251.26 -346.16c-4.93,-6.79 -14.5,-8.18 -21.14,-3.05l-52.2 40.19c0,0 -71.85,-6.26 -107.23,-26.69 -21.55,-12.45 -47.85,-45.02 -65.14,-68.6z"/>
     </g>
     <g id="Right_x0020__x005b_shoe_x005d_">
      <path id="shoe_2" class="fil11" d="M3758.48 4832.25c-15.97,-7.02 -34.96,0.09 -40.91,16.5 -10.85,29.91 -25.41,74.78 -25.41,100.07 0,40.31 13.43,117.65 13.43,117.65 46.77,0 840.55,0 840.55,0 0,0 32.77,-108.31 -37.83,-116.96 -70.59,-8.63 -117.28,-15.59 -117.28,-15.59l-390.68 -174.17c-7.67,-3.43 -16.64,0.16 -19.85,7.93l-25.11 60.93c0,0 -65.35,30.49 -106.2,30.49 -24.87,0 -63.95,-15.07 -90.71,-26.84z"/>
     </g>
     <path id="Leg_x0020_and_x0020_Butt" class="fil12" d="M2497.88 3490.48c0,0 -681.73,-111.06 -913.28,-151.89 -439.98,-77.58 -568.28,-314.34 -492.42,-830.92l810.66 0c160.92,46.47 1344.72,574.79 1344.72,574.79 142,70.49 115.56,278.32 89.61,346.8 -1.6,4.19 -718.14,1230.54 -718.14,1230.54l-663.14 -422.46 543.24 -697.08c0,0 21.52,-43.34 -1.25,-49.78z"/>
    </g>
   </g>
   <g id="_1882765811920">
    <path class="fil13" d="M2016.44 285.81c27.73,45.55 55.27,90.35 61.71,152.07 1.32,12.63 50.4,81.94 26.88,98.63 -5.12,12.19 -10.9,27.66 0.2,37.5 24.54,20.8 50.6,39.92 73.61,62.4 36.7,35.86 30.88,61.61 3.02,74.99 -15.51,7.24 -36.66,11.29 -28.65,24.58 23.18,30.77 17.43,53.01 -15.33,68.11 19.06,14 27.12,28.76 8.97,45.3 -19.03,27.25 -14.29,46.79 17.76,57.47 25.35,59.6 -12.14,103.31 -70.14,111.78 -46.46,6.79 -104.9,15.6 -139.29,28.04 -93.3,73.83 -141.16,171.07 -136.65,205.49 -128.78,-51.34 -247.57,-92.8 -376.36,-144.14 20.33,-47.41 76.55,-176.65 59.33,-247.26 -72.29,-141.82 -118.51,-299.04 -135.15,-473.73 39.56,-152.63 110.56,-252.89 225.24,-280.33 161.84,-43.57 350.46,21.34 424.85,179.08z"/>
    <path class="fil14" d="M1838.24 703.16c-9.47,-30.18 -18.93,-60.37 -28.41,-90.55 6.83,-40.91 18.07,-77.88 48.31,-97.94 72.86,-37.43 77.68,-95.94 61.92,-160.82 17.8,-79.12 59.29,-71.33 115.07,-11.1 12.88,15.05 17.85,21.42 30.73,36.47 50.79,-57.6 154.63,-80.71 16.97,-246.05 -55.55,-43.07 -118.31,-64.14 -192.16,-51.28 -57.92,-0.37 -128.21,-13.77 -223.4,-23.2 -76.68,15.13 -153.52,-2.73 -229.68,105.92 -54.17,78.21 -81.77,156.28 -89.43,234.23 -11.43,54.03 22.07,193.58 142.27,498.11 34.3,39.33 60.36,45.1 66.11,-31.76 2.06,-48.86 4.12,-97.71 6.18,-146.56 8.38,-244.45 340.3,-23.53 184.21,192.62 109.18,70.98 251.38,121.69 335.98,114.16 83.06,-7.39 104.5,-54.56 93.1,-120.87 -6.71,-4.34 -36.05,-16.46 -24.32,-60.92 -28.01,31.24 -23.14,51.48 -3.62,54.53 -0.43,7.98 -14.28,12.76 -18.72,6.65 -23.26,-32.58 -21.23,-77.94 5.5,-110.8 11.13,-11.69 21.38,-25.12 33.45,-23.74 -1.48,-19.47 -4.03,-32.69 -15.94,-43.96 -54.61,36.63 -55.19,91.48 -65.42,157.35 -58.47,-4.86 -109.68,-14.55 -173.08,-70.58 -22.31,-39.56 -53.3,-70.35 -75.61,-109.91z"/>
   </g>
   <path id="SKIN_1" class="fil13" d="M404.06 3219.73c43.67,-88.59 261.87,-1228.86 261.87,-1228.86l326.33 1.23c0,0 -372.82,1207.89 -395.81,1264.87 -29.86,74.01 20.87,181.53 55.27,254.45 5.32,11.28 10.25,21.72 14.43,31.1 -47.73,21.35 -70.65,-4.46 -94.83,-31.67 -27.3,-30.74 -56.18,-63.26 -124.19,-31.62 -26.27,12.22 -51.13,26.66 -75.43,40.79 -83.9,48.76 -160.98,93.57 -265.83,28.87 -16.62,-10.25 -34.84,-48.86 9.18,-79.04 109.65,-75.18 267.67,-206.78 289.02,-250.1zm2748.42 -444.3l-422.17 -411.83 -140.22 242.61 439.01 258.83c110.07,173.39 174.72,248.31 193.95,224.76 16.2,-19.87 8.78,-41.64 1.94,-61.68 -5.33,-15.62 -10.31,-30.2 -3.47,-42.02 15.6,-26.99 103.73,-11.54 186.75,6.72 83.01,18.24 63.79,-22.54 46.15,-43.82 -78.45,-63.32 -179.1,-121.17 -301.93,-173.57z"/>
   <path id="Clothes_x0020_Back" class="fil15" d="M1660.33 1065.14l128.86 -22.11c203.01,717.6 1246.04,1206.74 1310.06,1474.99 23.49,98.39 -47.31,148.12 -10.74,178.07l-167.51 122.62c-28.36,-33.1 -88.89,27.44 -215.3,-14.9 -126.41,-42.33 -1045.37,-888.98 -1045.37,-1738.68z"/>
   <path id="Clothes_x0020_Front" class="fil16" d="M1431.13 915.32c-32.84,-2.3 -61.32,22.46 -63.63,55.31l-6.1 87.29c-242.52,186.64 -843.61,744.33 -1000.24,1782.52 -16.45,109.06 13.3,167.47 37.08,214.14 16.26,31.93 29.73,58.36 23.68,91.76l219.22 60.51c0,-24.65 27.63,-43.42 63.27,-67.61 51.83,-35.19 120.6,-81.88 146.04,-174.95 24.11,-88.21 59.4,-198.4 101.57,-320.98 3.98,162.34 34.77,311.63 101.84,435.3 167.32,308.51 1134.24,-29.84 1235.25,-344.55 53.91,-167.94 -22.58,-308.93 -123.74,-495.41 -128.42,-236.7 -296.58,-490.37 -288.26,-1021.77l10.73 -40.88c2.29,-32.84 -22.46,-61.33 -55.31,-63.63l-401.39 -197.04z"/>
   <rect class="fil5" width="5632.57" height="5181.96"/>
  </g>
 </g>
</svg>
