<?xml version="1.0" encoding="UTF-8"?>
<!DOCTYPE svg PUBLIC "-//W3C//DTD SVG 1.1//EN" "http://www.w3.org/Graphics/SVG/1.1/DTD/svg11.dtd">
<!-- Creator: CorelDRAW 2020 (64-Bit Evaluation Version) -->
<svg xmlns="http://www.w3.org/2000/svg" xml:space="preserve" width="38.4774mm" height="84.6502mm" version="1.1" style="shape-rendering:geometricPrecision; text-rendering:geometricPrecision; image-rendering:optimizeQuality; fill-rule:evenodd; clip-rule:evenodd"
viewBox="0 0 1209.84 2661.65"
 xmlns:xlink="http://www.w3.org/1999/xlink"
 xmlns:xodm="http://www.corel.com/coreldraw/odm/2003">
 <defs>
  <style type="text/css">
   <![CDATA[
    .fil2 {fill:none}
    .fil1 {fill:#003333}
    .fil0 {fill:#CC9933}
   ]]>
  </style>
   <clipPath id="id0">
    <path d="M-0 0l1209.84 0 0 2661.65 -1209.84 0 0 -2661.65z"/>
   </clipPath>
 </defs>
 <g id="Layer_x0020_1">
  <metadata id="CorelCorpID_0Corel-Layer"/>
  <g>
  </g>
  <g style="clip-path:url(#id0)">
   <g>
    <g id="_1869204308608">
     <path class="fil0" d="M895.9 783.61c31.48,117.81 63,233.82 37.37,373.37 -5.25,28.56 57.74,212.23 -4.63,233.69 -38.42,28.58 -52.56,56.53 -23.72,82.4 40.41,61.44 85.27,120.18 121.25,184.32 57.39,102.32 28.02,155.06 -41.7,166.45 -38.69,5.88 -87.68,1.15 -78.69,35.46 31.02,82.44 4.07,127.52 -77.52,139.54 32.79,43.02 40.94,80.59 -9.52,105.16 -59.3,47.5 -61.5,93.42 1.91,137.51 17.22,147.08 -93.21,218.8 -225.92,200 -106.29,-15.05 -240.17,-33.4 -323.62,-28.26 -203.99,115.7 -227.73,174.12 -279.06,241.31 -249.42,-195.62 -498.83,-391.24 -748.25,-586.86 75.16,-90.93 144.18,-188.69 151.92,-354.68 -67.17,-357.7 -67.23,-732.37 8.85,-1126.32 185.17,-309.31 405.52,-483.48 674.77,-469.77 383.12,8.72 755.04,272.7 816.55,666.68z"/>
     <path class="fil1" d="M236 1584.29c-1.32,-72.32 -2.63,-144.63 -3.95,-216.95 41.33,-85.35 89.84,-159.2 169.1,-183.73 183.95,-35.14 232.23,-160.39 239.48,-312.88 90.04,-162.09 176.03,-118.25 259.57,49.82 18.54,41.31 37.08,82.61 55.63,123.92 148.56,-93.62 379.51,-101.52 184.09,-552.94 -94.11,-130.28 -218.19,-216.94 -388.49,-236.35 -126.83,-38.13 -272.39,-112.84 -475.12,-194.89 -177.96,-16.22 -335.01,-104.93 -572.11,84.31 -169.24,136.66 -280.11,290.12 -347.14,456.19 -59.91,111.17 -76.35,438.87 -8.96,1184.4 49.91,108.39 103.35,137.83 165.5,-27.06 36.01,-105.84 72.01,-211.68 108.02,-317.53 175.94,-530.85 761.66,167.72 279.95,541.27 193.77,226.08 473.01,428.97 663.45,466.99 186.98,37.32 264.4,-52.34 282.13,-205.15 -11.92,-13.84 -61.62,-61.53 -7.24,-151.49 -81.58,50.46 -82.29,99.52 -41.45,118.8 -8.21,49.82 -28.62,38.53 -53.83,3.18 -30.03,-86.46 6.66,-180.7 86.49,-235.53 31.95,-18.47 70.75,-39.11 96.33,-28.29 -5.77,-37.63 -11.53,-75.26 -17.3,-112.89 -143.41,45.17 -180.03,165.12 -244.94,303.01 -125.12,-48.33 -231.22,-102.6 -334.19,-266.37 -23.45,-101.16 -71.57,-188.69 -95.02,-289.86z"/>
    </g>
   </g>
  </g>
  <polygon class="fil2" points="-0,0 1209.84,0 1209.84,2661.65 -0,2661.65 "/>
 </g>
</svg>
