<?xml version="1.0" encoding="UTF-8"?>
<!DOCTYPE svg PUBLIC "-//W3C//DTD SVG 1.1//EN" "http://www.w3.org/Graphics/SVG/1.1/DTD/svg11.dtd">
<!-- Creator: CorelDRAW 2020 (64-Bit Evaluation Version) -->
<svg xmlns="http://www.w3.org/2000/svg" xml:space="preserve" width="90.1404mm" height="91.9996mm" version="1.1" style="shape-rendering:geometricPrecision; text-rendering:geometricPrecision; image-rendering:optimizeQuality; fill-rule:evenodd; clip-rule:evenodd"
viewBox="0 0 4108.61 4193.36"
 xmlns:xlink="http://www.w3.org/1999/xlink"
 xmlns:xodm="http://www.corel.com/coreldraw/odm/2003">
 <defs>
  <style type="text/css">
   <![CDATA[
    .fil3 {fill:#003333}
    .fil0 {fill:#C21B15}
    .fil1 {fill:#C7D1D9}
    .fil2 {fill:#CC9933}
    .fil4 {fill:#FF4133}
   ]]>
  </style>
 </defs>
 <g id="Layer_x0020_1">
  <metadata id="CorelCorpID_0Corel-Layer"/>
  <g id="_1882765574576">
   <path id="Coat_x0020_Back" class="fil0" d="M2236.67 3128.16l485.17 -83.21c363.81,314.27 684.29,687.05 982.3,1094.93l-1441.28 39.86c-32.25,-380.2 -36.62,-700.02 -26.19,-1051.58z"/>
   <polygon id="Shirt" class="fil1" points="3040.99,4176.81 2940.6,3023.17 1702.37,2828.99 1067.4,4100.64 "/>
   <g>
    <path class="fil2" d="M3490.98 670.54c89.89,138.32 179.08,274.32 204.62,464.57 5.22,38.94 163.26,248.76 92.05,302.52 -14.73,38.15 -31.2,86.52 4.04,115.92 77.74,62.09 160.06,118.82 233.24,186.24 116.71,107.55 101.06,187.7 16.16,231.59 -47.31,23.78 -112.31,38.24 -86.35,78.6 74.47,93.02 58.7,162.31 -41.2,211.98 60.21,41.57 86.45,86.47 31.84,139.24 -56.35,85.97 -39.92,145.96 60.12,176.07 83.81,181.96 -28.15,320.51 -206.71,351.99 -143.03,25.2 -322.92,57.74 -428.11,99.34 -281.75,236.72 -420.9,541.71 -403.82,647.73 -402.84,-147.03 -773.87,-264.45 -1176.7,-411.47 58.54,-148.45 220.64,-553.12 160.98,-769.86 -236.37,-431.91 -393.56,-913.8 -460.88,-1452.39 108.46,-475.49 318.86,-791.9 670.92,-887.17 496.43,-149.42 1085.49,34.16 1329.8,515.11z"/>
    <path class="fil3" d="M2977.94 1977.08c-32.02,-92.46 -64.03,-184.93 -96.04,-277.39 17.38,-127.11 48.8,-242.43 140.46,-307.22 221.87,-122.33 231.45,-303.67 176.84,-502.84 47.85,-246.23 176.83,-225.91 354.75,-44.76 41.17,45.36 57.13,64.59 98.31,109.95 151.82,-182.7 470.77,-263.59 30.14,-762.27 -175.67,-128.11 -371.6,-187.54 -598.78,-141.1 -179.12,4.13 -397.67,-30.92 -692.83,-51.45 -235.69,53.76 -474.89,5.5 -700.5,348.33 -160.38,246.73 -238.63,490.6 -255.22,732.31 -30.44,168.1 85.81,596.49 485.1,1527.14 109.63,118.48 190.73,133.94 201.52,-104.2 1.93,-151.23 3.86,-302.46 5.79,-453.7 3.71,-756.55 1049.99,-103.64 587.03,578.81 344.03,209.53 788.26,353.41 1049.15,322.46 256.15,-30.4 318.13,-178.19 276.86,-382.16 -21.13,-12.81 -112.96,-47.64 -80.72,-186.14 -83.77,99.11 -66.86,161.25 -6.25,168.93 -0.62,24.72 -42.98,40.74 -57.26,22.25 -74.88,-98.62 -72.74,-239.06 6.95,-343.06 33.35,-37.16 63.81,-79.6 101.26,-76.41 -6.34,-60.06 -15.44,-100.69 -53.27,-134.47 -165.51,118.23 -162.32,287.86 -188,492.43 -181.2,-9.69 -340.42,-35.01 -541.54,-202.48 -72.58,-120.29 -171.18,-212.69 -243.75,-332.98z"/>
   </g>
   <path id="Coat_x0020_Front" class="fil4" d="M-0 4043.24c484.92,-746.81 979.4,-1156.25 1608.79,-1214.25 0.1,0 0.21,0 0.32,0 33.61,0 64.19,2.25 91.91,6.57l410.93 23.43c0,0 1174.78,1382.5 355.22,1333.07l-2467.16 -148.82z"/>
  </g>
 </g>
</svg>
