<?xml version="1.0" encoding="UTF-8"?>
<!DOCTYPE svg PUBLIC "-//W3C//DTD SVG 1.1//EN" "http://www.w3.org/Graphics/SVG/1.1/DTD/svg11.dtd">
<!-- Creator: CorelDRAW 2020 (64-Bit Evaluation Version) -->
<svg xmlns="http://www.w3.org/2000/svg" xml:space="preserve" width="100mm" height="92mm" version="1.1" style="shape-rendering:geometricPrecision; text-rendering:geometricPrecision; image-rendering:optimizeQuality; fill-rule:evenodd; clip-rule:evenodd"
viewBox="0 0 105303.06 96878.82"
 xmlns:xlink="http://www.w3.org/1999/xlink"
 xmlns:xodm="http://www.corel.com/coreldraw/odm/2003">
 <defs>
  <style type="text/css">
   <![CDATA[
    .fil14 {fill:none}
    .fil11 {fill:#003333}
    .fil12 {fill:#181F31}
    .fil8 {fill:#1820BF}
    .fil10 {fill:#2B44FF}
    .fil6 {fill:#C5CFD6}
    .fil7 {fill:#CC9933}
    .fil9 {fill:#E4E4E4}
    .fil13 {fill:#F2F2F2}
    .fil2 {fill:#56919C;fill-opacity:0.250980}
    .fil0 {fill:#89C5CC;fill-opacity:0.250980}
    .fil5 {fill:#C1DEE2;fill-opacity:0.250980}
    .fil3 {fill:#56919C;fill-opacity:0.501961}
    .fil1 {fill:#89C5CC;fill-opacity:0.501961}
    .fil4 {fill:#C1DEE2;fill-opacity:0.501961}
   ]]>
  </style>
 </defs>
 <g id="Layer_x0020_1">
  <metadata id="CorelCorpID_0Corel-Layer"/>
  <g id="_1882761516112">
   <g>
    <path id="Fill_x0020_5" class="fil0" d="M63841.77 3221.64c-405.21,404.68 -247.88,1842.17 -256.31,2374.37 -13.16,828.42 38.65,1648.94 107.62,2474.31 46.65,552.74 308.01,5825.79 1035.97,5420.9 410.26,-228.19 153.01,-1753.61 152.16,-2236.32 -1.47,-1072.51 -46.33,-2142.5 -117.62,-3212.69 -66.55,-993.64 -108.15,-1975.8 -70.13,-2971.34 9.37,-242.93 236.72,-2939.43 -851.69,-1849.23z"/>
    <path id="Fill_x0020_7" class="fil1" d="M81485.72 2571.82c-3480.58,27.59 -6959.9,199.44 -10438.9,304.43 -1674.21,50.86 -3347.16,115.2 -5019.38,207.97 -570.01,31.59 -1792.26,-151 -2266.86,152.69 -1054.08,674.15 645.72,831.68 1098.73,815.26 6885.24,-249.57 13772.48,-578.54 20663.41,-594.01 3380.33,-7.37 6758.88,88.67 10139.63,67.29 1292.17,-8.32 2723.03,-565.16 3049.37,939.09 368.24,1697.17 -54.86,3586.94 -169.96,5292.53 -76.87,1138.54 -49.49,2253.59 1.68,3391.29 33.07,728.59 -52.76,1549.75 76.24,2265.07 123.94,688.79 618.97,1101.68 1072.83,330.23 271.26,-461.02 136.26,-1599.24 154.27,-2133.23 24.33,-719.11 1.58,-1438.23 1.58,-2157.66 -0.32,-1755.93 247.57,-3504.49 214.92,-5260.1 -21.17,-1132.11 -81.19,-3184.15 -1508.99,-3456.15 -1572.17,-299.59 -3504.8,1.58 -5113.83,-16.74 -3986.67,-45.7 -7966.7,-179.02 -11954.74,-147.95z"/>
    <path id="Fill_x0020_9" class="fil0" d="M71894.93 13553.98c-1312.5,0 -2625.1,8 -3937.49,29.7 -1125.58,18.53 -2895.1,-215.98 -3942.65,186.7 -717.32,275.58 -907.61,1076.41 0,1289.75 989.95,232.51 2481.68,-147.95 3517.75,-166.27 5193.44,-91.61 10437.11,-211.24 15623.5,117.52 4859.95,307.59 9813.4,606.02 14680.19,281.26 409.52,-27.38 2497.89,-110.46 1544.9,-893.29 -555.79,-456.91 -2809.38,-156.59 -3531.76,-178.49 -2548.44,-76.77 -5099.51,-93.83 -7647.11,-190.39 -2514.53,-95.51 -5017.9,-378.04 -7533.28,-448.17 -2922.16,-81.4 -5850.74,-28.33 -8774.06,-28.33z"/>
    <path id="face" class="fil0" d="M70581.59 6089.04c2045.62,89.4 4069.65,3056.11 1999.81,4489.7 -1941.89,1345.56 -5580.85,-129 -4501.07,-2737.67 -155.32,376.98 196.28,-409.84 200.71,-415 205.24,-241.88 573.9,-509.77 826.94,-700.37 289.58,-218.4 591.28,-458.38 940.46,-567.9 229.24,-71.92 193.23,198.39 533.15,-68.76m-996.27 -1069.98c-957.31,373.72 -1394.21,795.35 -2052.36,1558.59 -455.12,527.99 -1035.45,805.99 -1030.29,1519.42 1.05,157.95 203.97,331.49 239.04,483.76 48.44,210.18 -7.69,479.55 30.64,702.9 396.15,2305.19 3146.35,3082.33 5159.53,2647 1753.4,-379.09 3065.06,-2062.36 2658.9,-3892.95 -409.1,-1842.59 -3141.4,-3747.84 -5005.48,-3018.72z"/>
    <path id="Fill_x0020_13" class="fil0" d="M68732.57 8236.91c0,829.16 1309.86,829.16 1309.86,0 0,-819.78 -1309.86,-855.17 -1309.86,0z"/>
    <path id="Fill_x0020_15" class="fil1" d="M70371.4 8068.95c0,658.88 1040.6,658.88 1040.6,0 0,-651.4 -1040.6,-679.2 -1040.6,0z"/>
    <path id="Fill_x0020_17" class="fil0" d="M70693.63 9427.99c-333.28,127.94 -755.87,-137.63 -1029.76,37.28 -484.5,310.43 1.26,590.86 260.94,715.64 1169.6,561.16 1377.47,-986.27 768.82,-752.92z"/>
    <path id="Fill_x0020_19" class="fil0" d="M88553.77 7590.14c-34.75,14.74 -158.9,67.18 0,0zm-5092.67 -744.39c-875.49,197.65 -1614.51,1015.12 -2565.5,905.61 -728.7,-83.72 -1222.15,-787.14 -1941.58,-889.07 -920.35,-130.79 -3425.19,1968.64 -2108.17,2328.78 768.29,210.08 1194.56,-1193.93 1873.24,-1268.59 537.15,-59.08 1267.22,599.6 1823.64,693.42 1038.08,174.8 1750.98,-396.99 2662.27,-765.87 990.06,-400.47 1553.43,-39.59 2414.49,405.73 679.73,351.4 1320.08,580.33 2097.74,435.22 729.96,-135.95 1647.15,-886.86 2381.74,-809.68 719.64,75.4 1233.31,826.42 1973.48,896.23 305.27,28.64 759.55,132.68 708.37,-338.13 -40.96,-377.09 -461.86,-313.17 -725.12,-450.28 -676.78,-352.66 -1309.97,-976.9 -2126.81,-923.72 -614.55,40.23 -1173.71,471.86 -1740.13,678.47 -1854.49,676.36 -2897.1,-1308.71 -4727.69,-898.13z"/>
    <path id="Fill_x0020_21" class="fil2" d="M85010.11 18789.23c-3577.25,32.96 -7166.72,86.03 -10733.86,372.67 -845.9,68.03 -9481.59,883.49 -9464.96,942.25 30.01,108.36 1140.96,274.53 1134.01,300.01 -74.98,-185.44 -245.99,-262.52 -513.35,-230.3 8190.16,0 16354.41,-733.33 24555.52,-601.39 2060.57,32.96 4128.93,19.27 6188.13,84.24 513.88,16.22 1787.84,384.46 2191.46,152.37 1059.66,-609.07 -865.38,-679.42 -1184.03,-704.9 -4035.95,-322.96 -8125.71,-355.4 -12172.93,-314.96z"/>
    <path id="Fill_x0020_23" class="fil3" d="M63751 20527.25c-534.94,536.31 -42.44,2465.25 -21.27,3190.26 30.64,1048.08 5.37,2103.74 97.3,3149.09 105.09,1194.14 267.89,2466.62 581.06,3625.16 172.59,638.24 778.4,1652.52 1018.39,493.03 171.33,-828.63 -88.77,-1927.47 -179.44,-2771.26 -121.1,-1128.95 -150.48,-2242.96 -154.8,-3377.49 -4.11,-988.37 -23.17,-1981.07 -104.25,-2966.28 -42.12,-511.46 -299.38,-2275.07 -1237,-1342.51z"/>
    <path id="Fill_x0020_25" class="fil3" d="M77206.1 30350.98c-2538.54,43.49 -5082.66,103.41 -7616.89,261.78 -1038.81,65.29 -2076.89,162.17 -3111.49,271.89 -211.13,22.32 -2548.65,117.2 -1504.25,979.95 471.34,389.52 2410.7,-149.11 3051.26,-205.24 1077.15,-94.25 2154.08,-155.85 3234.59,-201.44 2503.16,-106.36 5013.9,-200.18 7519.59,-156.59 4576.26,79.4 9123.04,114.89 13700.35,12.53 650.25,-14.32 5745.44,121.94 5918.56,-554.74 139.21,-545.26 -1682.85,-295.16 -2015.08,-285.37 -1218.57,36.54 -2437.34,28.01 -3656.54,21.8 -5164.8,-26.43 -10359.29,-231.98 -15520.09,-144.58z"/>
    <path id="Fill_x0020_27" class="fil2" d="M97535.17 19622.7c80.56,2260.22 465.44,4517.82 588.43,6784.99 56.23,1036.29 122.36,2071.63 173.12,3108.34 16.53,334.65 -118.15,1140.33 277.16,1332.72 542.52,263.78 615.6,-267.89 717.11,-627.4 293.37,-1038.81 94.77,-2387.96 68.34,-3455.2 -25.8,-1033.02 -27.69,-2068.26 -103.93,-3099.6 -77.92,-1053.45 -290,-2087.32 -388.57,-3137.19 -41.49,-444.06 104.04,-1183.08 -367.3,-1458.66 -407.52,-238.3 -982.16,62.13 -964.37,552z"/>
    <path id="face_2" class="fil2" d="M72582.98 23382.44c9.48,7.58 19.06,15.06 28.85,22.43 -9.79,-7.37 -19.38,-14.85 -28.85,-22.43m-2157.45 -669.62c804.41,229.77 1465.08,144.27 2233.69,729.75 636.98,485.76 1290.38,1196.14 1501.73,1981.17 488.29,1813.85 -1166.86,2808.01 -2718.29,2827.6 -1589.23,19.9 -3941.6,-348.66 -3860.2,-2385.54 62.55,-1565.01 1205.51,-3092.22 2843.08,-3152.98m56.65 -1025.13c-2086.05,103.83 -3768.8,2446.61 -3750.79,4418.41 21.9,2389.96 2729.77,3005.88 4653.66,3022.3 2171.03,18.53 4335.85,-1480.56 3754.26,-3922.12 -466.18,-1955.9 -2651.11,-3622.64 -4657.13,-3518.6z"/>
    <path id="Fill_x0020_31" class="fil3" d="M68383.7 24896.49c0,666.67 1052.93,666.67 1052.93,0 0,-658.57 -1052.93,-686.89 -1052.93,0z"/>
    <path id="Fill_x0020_33" class="fil2" d="M70592.44 24604.17c0,671.73 1061.45,671.73 1061.45,0 0,-664.04 -1061.45,-692.58 -1061.45,0z"/>
    <path id="Fill_x0020_35" class="fil2" d="M69374.82 26124.32c-685.31,684.15 1722.13,1883.66 2290.24,931.93 466.39,-781.98 -549.16,-522.62 -909.08,-564.85 -391.31,-46.12 -1061.88,-685.63 -1381.15,-367.09z"/>
    <path id="Fill_x0020_37" class="fil2" d="M88624.32 24617.86c-65.92,27.69 -65.92,27.69 0,0zm-9041.32 -1113.79c-693.84,130.05 -2971.34,898.45 -3001.98,1721.6 -56.13,1496.57 2174.19,-36.22 2658.48,-233.14 1315.55,-534.73 2006.97,556.21 3328.74,613.6 1147.8,50.02 2203.36,-932.35 3284.61,-816.2 1133.06,121.73 1678.21,1326.92 2985.76,687.1 692.16,-338.44 674.68,-860.54 -101.93,-909.71 -469.55,-29.59 -791.98,164.38 -1281.64,-37.59 -765.55,-315.8 -1073.78,-829.89 -1989.81,-748.18 -691.31,61.81 -1315.97,451.22 -1990.86,602.12 -1544.8,345.18 -2401.75,-1158.75 -3891.37,-879.6z"/>
    <path id="point" class="fil2" d="M93954.55 25267.68c-47.81,20.01 -47.81,20.01 0,0zm175.01 -623.08c7.69,3.37 59.92,75.92 0,0zm-795.46 -475.76c-29.91,23.17 -29.91,23.17 0,0zm17.16 -5.9c154.37,92.46 1394.63,940.36 493.87,1140.22 -457.44,101.3 -835.79,-818.73 -493.87,-1140.22m-410.47 -939.3c-1986.65,905.82 151.22,4147.36 1710.23,2830.44 656.04,-554.32 742.39,-1674.53 104.04,-2252.01 -382.14,-345.92 -1295.33,-815.68 -1814.27,-578.43z"/>
    <path id="Fill_x0020_41" class="fil0" d="M74291.21 35997.64c-2479.15,0.74 -4979.89,-51.18 -7455.77,95.62 -416.47,24.75 -2003.6,-54.65 -2218.42,380.88 -392.57,796.62 1240.47,401.31 1477.72,377.41 4929.45,-493.56 10078.56,-209.45 15024.22,-68.76 4044.9,114.89 8068,186.18 12108.06,394.89 1061.88,54.55 2122.91,114.99 3184.05,179.23 345.92,20.74 1216.57,250.09 1289.44,-302.43 67.5,-511.25 -1018.39,-395.62 -1289.65,-410.05 -2157.24,-113.62 -4312.79,-232.51 -6469.5,-353.92 -5190.7,-292.53 -10451.33,-293.8 -15650.14,-292.85z"/>
    <path id="Fill_x0020_43" class="fil1" d="M64537.4 36883.45c-462.91,460.28 -245.99,2217.89 -258.83,2798.85 -22.75,1016.07 -70.55,2031.4 -92.03,3047.05 -22.32,1061.67 8.74,2128.28 71.4,3188.47 26.22,445.12 391.83,2596.35 967,1365.15 256.94,-550.21 -6.21,-2082.47 -2.32,-2705.87 7.16,-1134.32 68.24,-2264.02 124.68,-3397.08 48.65,-973.95 50.44,-1948.74 92.98,-2923 13.27,-310.64 50.23,-2329.51 -902.87,-1373.57z"/>
    <path id="Fill_x0020_45" class="fil1" d="M98117.5 45958.99c-2412.7,247.36 -4864.05,130.68 -7285.71,313.17 -2087.11,157.43 -4172.42,221.77 -6265.01,266.21 -4738.22,99.83 -9484.86,197.55 -14209.49,592.33 -1076.72,89.93 -2151.97,185.54 -3231.86,233.67 -539.78,24.01 -2805.69,-221.77 -2974.39,347.5 -287.16,969.53 2135.55,585.7 2658.17,570.43 1149.28,-32.85 2293.18,-116.15 3439.09,-203.45 4817.62,-366.98 9653.34,-476.71 14481.38,-629.19 2625.31,-82.98 5232.72,-275.16 7852.55,-449.75 1305.86,-87.09 2615.1,-89.93 3920.75,-174.38 341.81,-22.22 1551.11,21.38 1796.89,-253.46 168.7,-188.81 211.34,-649.61 -182.38,-613.07z"/>
    <path id="Fill_x0020_47" class="fil0" d="M97299.61 37048.25c82.77,2313.82 213.66,4625.54 291.69,6939.05 23.38,695.74 -186.81,1942.63 200.71,2556.44 622.97,986.48 1109.26,-57.71 1223.31,-672.57 360.14,-1940.21 -26.96,-4083.55 -127.63,-6035.97 -38.23,-744.6 193.13,-2402.28 -166.91,-3068.95 -342.87,-634.98 -1451.71,-571.06 -1421.17,282z"/>
    <path id="hola_x0020_:_x0029_" class="fil1" d="M93249.13 40343.71c924.46,250.31 1059.35,2259.7 16.43,2408.49 -1552.38,221.24 -873.49,-1994.33 -16.43,-2408.49m-258.94 -799.25c-282,-8.85 -932.67,-86.56 -1106.42,143 -145.32,192.07 1.47,597.17 -15.48,780.09 -61.08,653.72 -592.65,1031.34 -354.98,1803.31 161.22,523.88 593.17,1016.07 1119.69,1197.93 2778,960.26 2744.2,-4407.35 357.19,-3924.33z"/>
    <path id="Fill_x0020_51" class="fil1" d="M67909.84 39905.02c-6.95,8.74 -13.9,17.48 -20.64,26.54 6.74,-9.06 13.69,-17.8 20.64,-26.54m2181.88 -1160.86c-10.74,-92.98 -21.9,-185.97 -32.64,-278.95 1506.26,710.9 2704.71,2033.51 2204.41,3808.71 -381.41,1354.3 -1760.14,1834.7 -3044.73,1500.36 -1421.8,-370.35 -2101.22,-1542.27 -1718.02,-2981.34 177.01,-664.04 720.27,-1556.38 1422.12,-1769.83 326.86,-99.41 1049.66,154.06 1168.86,-278.95m-880.86 -562.21c-380.99,25.69 -751.86,184.39 -1062.82,401.52 291.06,-246.3 678.99,-392.78 1062.82,-401.52m11.06 -874.75c-941.2,28.85 -1558.06,598.54 -2116.17,1282.7 -175.22,214.71 -767.66,784.3 -694.26,1073.78 57.92,228.82 209.76,563.37 529.36,308.12 -1673.69,3335.47 2649.95,6180.66 5289.27,3861.04 2463.35,-2164.72 19.27,-6627.14 -3008.19,-6525.63z"/>
    <path id="Fill_x0020_53" class="fil1" d="M68366.75 40405.73c0,444.06 689.52,444.06 689.52,0 0,-444.27 -689.52,-444.27 -689.52,0z"/>
    <path id="Fill_x0020_55" class="fil0" d="M69543.41 40481.55c0,451.43 700.48,451.43 700.48,0 0,-451.54 -700.48,-451.54 -700.48,0z"/>
    <path id="Fill_x0020_57" class="fil0" d="M70077.29 42066.89c-327.6,26.43 -1527.42,-84.77 -1738.03,202.18 -351.92,479.87 209.55,496.61 485.45,548.42 248.52,46.54 1328.82,20.32 1480.98,-200.5 134.58,-195.02 103.09,-578.43 -228.4,-550.1z"/>
    <path id="Fill_x0020_59" class="fil1" d="M84533.3 40822.52c-56.34,23.48 -56.34,23.48 0,0zm-4533.51 -331.49c-738.7,54.34 -1364.1,479.13 -2070.36,648.56 -753.65,181.12 -1079.99,-151.74 -1765.41,-369.61 -712.9,-226.61 -1220.15,-137 -1793.21,349.82 -324.54,275.79 -1037.02,910.98 -834,1401.16 464.6,1121.69 1516.47,-703.42 2011.29,-788.4 771.77,-132.37 1458.45,542.42 2348.57,349.5 806.52,-174.91 1522.05,-728.7 2364.26,-734.59 704.48,-5.16 1368.31,380.46 2063.62,473.65 1061.77,142.48 1758.77,-234.72 2740.2,-514.41 851.06,-242.51 1447.5,77.29 2248.12,346.55 365.72,122.78 1586.29,569.9 1361.67,-240.72 -63.5,-229.14 -1672.11,-638.66 -1921.46,-717.22 -879.39,-278 -1436.23,-169.85 -2274.12,149.64 -698.48,266.52 -1286.28,396.36 -2035.3,249.88 -825.37,-161.85 -1575.76,-669.83 -2443.87,-603.81z"/>
   </g>
   <g>
    <path id="Fill_x0020_173" class="fil0" d="M17926.37 52626.78c-2169.77,24.22 -4338.49,104.36 -6504.25,241.35 -2059.2,130.68 -4293.73,31.49 -6319.55,430.69 -575.38,113.31 -1352.3,637.5 -587.49,1214.25 537.57,405.31 2504.63,-60.87 3146.46,-100.46 2364.26,-145.21 4729.9,-319.38 7097.43,-402.89 2241.48,-79.29 4482.86,-107.2 6725.29,-129.52 342.34,-3.37 910.56,-113.1 1251.53,-13.69 489.87,142.69 373.72,181.65 410.37,803.36 66.34,1126.64 48.23,2257.38 25.69,3385.07 -21.59,1091.36 -61.81,2182.41 -57.92,3274.19 2.84,778.93 -246.2,2326.67 144.48,3003.14 562.84,973.84 1146.22,-83.72 1188.24,-730.8 80.66,-1237.52 44.54,-2490.21 44.75,-3729.31 0.32,-1162.97 8.85,-2326.25 -32.22,-3488.59 -29.8,-839.79 90.14,-2305.61 -362.14,-3068.95 -460.7,-777.66 -1569.86,-610.02 -2379.43,-647.09 -1262.58,-57.92 -2527.59,-53.92 -3791.23,-40.75z"/>
    <path id="Fill_x0020_171" class="fil0" d="M4120.72 54030.16c2.32,2185.14 -250.52,4355.97 -321.38,6538.69 -32.43,1003.75 -98.35,2105.75 155.53,3090.86 256.31,994.8 1070.2,1210.35 1164.02,99.72 189.86,-2248.64 143.42,-4580.47 290.95,-6847.33 52.34,-800.3 392.04,-2266.96 74.98,-3016.41 -279.16,-660.25 -1365.36,-786.72 -1364.1,134.47z"/>
    <path id="Fill_x0020_175" class="fil1" d="M24468.01 63662.55c-3768.27,498.93 -7707.66,317.07 -11502.99,395.62 -1820.69,37.59 -3641.06,39.91 -5462.18,58.97 -635.61,6.42 -2249.48,-235.14 -2799.27,122.15 -875.28,568.74 74.13,1007.65 653.83,1020.18 3593.57,78.56 7227.48,-86.56 10820.31,-204.5 1614.3,-53.07 3233.86,-78.77 4843.94,-215.98 991.11,-84.56 2074.26,-166.48 3036.73,-432.8 205.03,-56.97 651.72,-45.18 697.53,-324.86 28.33,-172.8 -22.85,-455.12 -287.9,-418.79z"/>
    <path id="Fill_x0020_177" class="fil0" d="M8798.28 66839.22c-1047.34,6.21 -4203.38,-480.39 -4637.13,540.84 -578.22,1362.1 1677.58,1044.29 2284.23,1028.5 1378,-35.17 2754.73,-39.07 4133.04,-38.33 1352.2,0.53 2704.5,-8.32 4056.48,-40.54 391.73,-9.16 1303.44,153.43 1529,-318.44 171.22,-358.35 35.7,-641.19 -280,-831.05 -760.18,-456.7 -2734.51,-191.86 -3624.11,-233.04 -1152.12,-52.86 -2308.14,-107.94 -3461.52,-107.94z"/>
    <path id="Fill_x0020_179" class="fil1" d="M21539.64 67091.32c-598.54,35.59 -1809.21,-211.13 -2345.42,62.87 -609.39,311.49 -394.68,798.83 131.31,1013.12 364.45,148.27 1859.23,70.55 2214.1,-101.3 369.82,-179.23 788.19,-1023.02 0,-974.69z"/>
    <path id="Fill_x0020_181" class="fil1" d="M28101.6 54244.66c-639.29,175.43 -445.43,3804.6 -461.86,4379.76 -45.07,1576.39 -222.29,3558.93 301.38,5077.08 334.02,967.63 975.63,836.32 866.22,-182.49 -95.83,-894.23 -260.73,-1778.25 -332.02,-2678.17 -161.01,-2036.67 -380.46,-4209.07 -228.19,-6247.42 64.97,118.47 671.2,1216.99 813.89,1134.85 -42.96,25.69 -699.32,-1552.17 -959.42,-1483.61z"/>
    <path id="Fill_x0020_183" class="fil0" d="M35292.32 52907.84c-1293.65,19.27 -2587.4,42.23 -3880.63,78.13 -1028.5,28.43 -2644.37,-140.47 -3587.25,292.32 -1123.06,514.83 -590.33,1662.31 464.39,1686.43 933.2,21.8 1928.2,-188.7 2869.61,-220.93 2543.07,-87.3 5090.67,-105.51 7634.79,-127.42 2301.08,-19.9 4699.89,225.56 6980.65,-120.05 338.23,3003.98 -576.64,6020.7 -265.57,9059.33 48.23,471.55 26.64,1137.9 627.29,1245.42 758.08,135.74 789.14,-615.18 817.99,-1152.75 82.03,-1534.79 37.59,-3071.06 149.95,-4607.85 104.04,-1424.43 309.06,-2880.04 135.74,-4306.68 -213.03,-1755.4 -1054.29,-1614.82 -2541.17,-1687.59 -3140.66,-154.16 -6261.74,-184.49 -9405.77,-138.37z"/>
    <path id="Fill_x0020_185" class="fil0" d="M30956.78 63574.72c-659.41,16.74 -1754.03,-186.49 -2176.51,445.64 -439.43,657.83 81.93,1231.41 720.9,1366.41 756.5,159.74 1742.77,-59.29 2527.91,-61.6 817.57,-2.63 1635.25,6.74 2452.82,9.79 3505.01,13.69 7024.98,66.76 10527.78,-78.03 489.13,-20.32 1877.55,143.74 2215.89,-325.6 300.64,-415.95 90.46,-789.14 -305.48,-1001.22 -648.98,-348.03 -1982.22,-215.56 -2704.18,-243.14 -891.71,-34.01 -1784.78,-45.07 -2676.8,-58.97 -3521.55,-54.34 -7061.31,-140.37 -10582.33,-53.28z"/>
    <path id="Fill_x0020_187" class="fil0" d="M33921.7 66615.14c-1311.55,22.32 -2711.24,-35.28 -4009.94,163.85 -1141.8,174.8 -1282.49,1278.59 -53.28,1407.8 1129.69,118.78 2499.26,-102.99 3634.32,-175.86 403.21,-26.01 871.91,10.74 1065.04,-435.11 201.76,-465.44 -183.86,-912.03 -636.14,-960.68z"/>
    <path id="Fill_x0020_189" class="fil0" d="M43837.98 66731.08c-700.05,17.48 -2744.93,-283.58 -3091.8,516.09 -577.38,1331.24 2191.15,825.58 2722.19,805.99 669.41,-24.75 3278.19,366.03 3278.61,-699.53 0.53,-1044.82 -2267.81,-638.56 -2909,-622.55z"/>
    <path id="Fill_x0020_191" class="fil2" d="M4007.41 73346.53c1.79,2421.76 -149,4866.37 71.82,7282.13 91.4,999.12 75.82,2913.21 654.56,3760.06 410.79,601.18 980.58,559.16 1204.88,-162.8 149.95,-482.71 -89.82,-1447.81 -116.68,-1964.22 -25.8,-495.35 -55.81,-990.69 -78.77,-1486.46 -59.08,-1276.9 -54.13,-2551.6 -36.65,-3829.14 14.95,-1095.99 278.74,-2545.91 30.22,-3599.57 -232.09,-982.06 -1729.39,-1211.83 -1729.39,0z"/>
    <path id="Fill_x0020_193" class="fil2" d="M28347.27 71215.93c-4201.7,105.3 -8413.08,11.27 -12611.09,219.14 -2070.36,102.57 -4132.72,327.91 -6192.77,552.21 -1011.96,110.46 -2023.5,224.4 -3033.68,348.87 -305.06,37.49 -2838.23,135.63 -1885.45,1099.05 416.05,420.79 1740.24,-18.64 2264.02,-80.77 1014.38,-119.73 2030.77,-223.98 3046.42,-331.39 1933.05,-204.6 3868.2,-398.15 5809.46,-505.67 4571.73,-253.46 9162.42,-177.44 13738.47,-346.24 1238.15,-45.49 2472.31,-78.24 3710.67,-29.59 325.28,12.74 2714.82,134.26 1677.27,-748.49 -490.71,-417.21 -2340.36,-201.87 -2953.33,-214.5 -1189.92,-24.54 -2380.48,7.48 -3569.98,37.38z"/>
    <path id="Wireframy_x0020_Stuff" class="fil2" d="M34075.23 75296.11c-20.64,-1118.95 -41.49,-2238.11 -92.56,-3355.9 -53.49,-1177.39 1550.48,-1355.67 2025.93,-402.57 342.55,686.15 282.32,1853.44 230.72,2854.13 -20.85,403.1 -40.44,779.35 -31.38,1085.89 20.32,702.69 72.03,1429.49 124.47,2165.66 131.73,1853.02 268.1,3767.01 -78.45,5516.2 -168.38,850.11 -885.18,1296.6 -1362.52,833.58 -0.74,0.74 -1.26,1.79 -2,2.74 -179.65,264.63 -738.17,264.1 -1149.8,263.57 -113.41,0 -215.66,-0.32 -295.48,5.16 -1127.37,76.66 -2233.9,206.08 -3351.59,373.4 -2226.42,333.81 -4433.47,538.94 -6684.01,594.54 -1527.11,37.91 -3056.42,50.55 -4585.84,63.08 -2929.11,24.54 -5859.48,48.65 -8779.33,249.15 -984.16,67.39 -1953.69,183.44 -2921.95,368.88 -82.45,15.58 -174.17,36.01 -271.47,57.6 -719.96,160.27 -1762.04,392.04 -1833.43,-614.02 -84.66,-1194.35 2503.69,-1350.72 3835.35,-1431.17 203.45,-12.32 377.51,-22.85 508.19,-34.86 4044.06,-376.14 8151.62,-317.91 12212.73,-260.41 196.81,2.74 393.62,5.58 590.22,8.42 316.75,4.42 633.5,9.58 950.36,14.74 1738.87,28.43 3475.74,57.07 5213.87,-48.97 791.25,-48.44 1592.5,-73.4 2395.33,-98.14 1281.01,-39.91 2565.39,-79.61 3818.29,-215.34 -189.02,-732.59 -221.98,-1596.92 -253.15,-2411.97 -12.11,-317.07 -24.01,-626.97 -44.65,-918.24 -109.94,-1552.9 -138.79,-3108.86 -167.85,-4665.14z"/>
    <path id="Fill_x0020_199" class="fil4" d="M37475.99 72802.75c-567.69,77.08 -1041.13,563.16 -787.67,1179.29 319.07,775.77 1269.74,472.6 1897.77,423.32 1996.23,-156.27 4080.49,156.16 6052.71,-79.5 538.52,-64.45 1319.76,-357.82 836.32,-1081.57 -363.4,-543.68 -1687.9,-448.38 -2250.96,-500.51 -1925.26,-178.17 -3825.45,-130.58 -5748.18,58.97z"/>
    <path id="Fill_x0020_201" class="fil5" d="M40845.06 76187.61c-774.08,51.91 -2576.34,11.06 -2902.57,891.92 -585.27,1580.28 1706.86,1023.34 2404.91,933.51 810.83,-104.36 2721.98,175.12 3153.62,-610.97 772.08,-1405.9 -1977.06,-1261.43 -2655.95,-1214.46z"/>
    <path id="Fill_x0020_203" class="fil4" d="M38854.2 79655.45c-367.3,367.3 -367.72,1023.44 0,1390.95 450.28,449.75 1431.6,356.56 2023.29,389.2 825.26,46.12 3195.74,482.71 3605.47,-489.13 553.05,-1311.34 -1593.55,-1283.64 -2299.61,-1358.09 -815.99,-86.14 -2652.69,-609.49 -3329.16,67.08z"/>
    <path id="Fill_x0020_205" class="fil0" d="M9923.13 57210.84c0,1409.69 2201.68,1409.69 2201.68,0 0,-1402.22 -2201.68,-1423.59 -2201.68,0z"/>
    <path id="Fill_x0020_207" class="fil0" d="M14099.34 57226.84c0,1611.56 2508,1608.29 2508,0 0,-1606.19 -2508,-1622.51 -2508,0z"/>
    <path id="Fill_x0020_209" class="fil0" d="M11572.81 59369.55c-1218.78,336.65 -95.83,1369.78 470.07,1605.77 899.71,374.98 2127.54,651.62 3027.25,89.09 358.03,-223.87 648.67,-521.04 386.36,-955.31 -279.68,-462.6 -662.15,-256.83 -1087.99,-214.29 -539.05,54.34 -974.79,45.81 -1495.51,-127 -388.57,-129 -876.23,-514.93 -1300.18,-398.26z"/>
    <path id="Fill_x0020_211" class="fil0" d="M33684.98 57300.03c0,953.41 1480.56,953.41 1480.56,0 0,-953.52 -1480.56,-953.52 -1480.56,0z"/>
    <path id="Fill_x0020_213" class="fil0" d="M36959.27 57443.45c0,1059.45 1644.83,1059.66 1644.83,0 0,-1059.45 -1644.83,-1059.45 -1644.83,0z"/>
    <path id="Fill_x0020_215" class="fil0" d="M36837.43 59742.53c-863.91,111.62 -3362.85,364.77 -3502.8,1429.8 -215.56,1643.04 2522.43,313.17 3147.4,184.18 796.09,-164.27 1506.78,-121.31 2301.29,-89.4 436.38,17.27 1016.7,88.14 970.79,-576.43 -74.87,-1091.36 -2161.45,-1045.03 -2916.68,-948.15z"/>
    <path id="Fill_x0020_217" class="fil2" d="M15114.46 74894.59c-626.34,167.12 -1445.5,1249.63 -1014.6,1912.41 706.58,1086.73 1017.96,-581.8 1313.66,-742.6 537.99,-292.01 974.69,775.77 1536.9,215.66 887.07,-884.02 -1277.54,-1534.9 -1835.96,-1385.47z"/>
    <path id="eye" class="fil3" d="M22289.92 74091.45c-742.6,6.74 -2310.35,1058.09 -2421.34,1834.48 -66.03,461.23 239.78,904.55 737.12,910.66 677.1,8.32 892.23,-872.01 1479.19,-1056.19 633.08,-198.6 539.15,258.83 1085.99,495.77 400.15,173.54 900.66,100.99 1039.76,-390.99 262.2,-928.04 -1157.49,-1808.47 -1920.73,-1793.73z"/>
    <path id="Fill_x0020_221" class="fil3" d="M16605.24 78536.6c-1187.82,695.95 766.61,2188.09 1444.34,2374.9 1022.7,281.26 3081.48,-244.2 3324.21,-1493.72 96.25,-497.35 -214.82,-947.83 -763.45,-858.75 -452.07,73.4 -741.75,640.03 -1160.44,843.37 -565.06,273.68 -1067.35,255.25 -1547.11,-157.11 -391.31,-336.23 -600.75,-1115.05 -1297.54,-708.69z"/>
    <path id="Fill_x0020_223" class="fil5" d="M17466.09 88821.87c-1061.14,226.3 -2140.07,74.34 -3206.48,287.16 -1087.57,217.03 -1737.29,627.92 -2747.57,213.98 -47.7,-20.11 -95.09,-40.12 -142.37,-60.23 -782.09,-336.65 -1601.66,-436.38 -2419.97,100.46 -484.5,317.59 -1954.95,1416.43 -1777.83,2086.9 384.04,1453.18 2038.77,-825.89 2460.62,-1047.87 804.73,-423.74 1356.09,117.41 2184.51,270.21 992.17,182.91 1790.47,-341.29 2725.14,-550.1 1092.94,-244.3 2322.56,-329.28 3434.78,-460.07 439.11,-51.49 2103.22,295.9 2253.49,-250.94 258.1,-939.3 -2346.99,-677.94 -2764.31,-589.49z"/>
    <path id="Fill_x0020_225" class="fil4" d="M25122.99 91749.19c69.5,52.44 13.9,10.21 0,0zm2972.39 -2984.08c908.77,-92.25 3815.45,-741.23 4412.51,197.55 388.67,611.49 -228.19,2868.35 -816.84,3160.46 -470.6,233.14 -1565.96,-24.75 -2082.26,-43.07 -960.36,-33.7 -1922.73,-48.65 -2882.14,-108.67 -321.7,-20.01 -1356.94,39.17 -1609.03,-245.67 -297.8,-336.13 -284.74,-2128.6 -354.66,-2573.19 835.26,270.42 2458.93,-298.74 3332.42,-387.41m1940.1 -920.56c-1163.49,50.44 -2326.99,137.84 -3481.85,293.9 -643.72,87.09 -1296.18,318.44 -1890.72,428.16 -191.55,35.17 -502.82,-62.97 -737.65,50.65 -687,331.81 -85.51,2575.19 80.03,3174.36 254.52,920.77 894.55,1069.98 1791.84,1156.54 1181.4,114.57 2387.12,78.56 3572.41,64.13 1142.43,-14.22 2682.91,238.93 3324,-907.19 414.47,-741.33 858.75,-2467.25 504.61,-3293.35 -465.97,-1086.94 -2205.89,-1007.33 -3162.67,-967.21z"/>
    <path id="quare" class="fil0" d="M43066.11 92365.74c-62.44,79.82 -62.44,79.82 0,0zm254.94 -307.48c-19.27,29.27 -108.78,123.63 0,0zm-2775.05 -84.56c513.04,-96.35 1026.18,-191.86 1539.53,-285.58 -486.29,680.68 -998.38,399.41 -1829.11,340.23 96.67,-18.32 193.23,-36.33 289.58,-54.65m-2447.24 -240.83c130.05,-43.49 260.2,-86.77 390.25,-130.37 -4.11,98.98 17.16,191.76 63.6,278 -222.51,-24.22 -444.91,-50.02 -667.09,-77.29 71.08,-23.48 142.37,-46.86 213.24,-70.34m-1133.8 -837.37c-7.48,-178.49 261.15,-55.92 415.21,-67.92 -296.74,261.15 -435.32,284 -415.21,67.92m4055.43 -2025.61c39.17,-49.91 90.88,-47.28 155.11,7.48 -70.03,23.48 -340.55,138.37 -155.11,-7.48m2630.15 -309.28c6.84,0 153.01,197.02 0,0zm-73.71 -64.66c38.12,29.38 38.12,29.38 0,0zm-328.44 -38.44c537.78,90.98 496.93,722.06 0,0zm-6317.66 -42.96c-109.62,90.98 -71.92,2.84 0,0zm2056.36 -1343.46c-912.98,53.07 -2588.77,-0.32 -3351.27,486.08 -995.01,634.87 -471.34,2820.54 -382.46,3778.8 131.63,1416.12 797.99,1819.53 2131.97,1968.01 1591.76,177.54 3227.01,210.5 4827.09,168.59 1440.86,-37.91 2261.59,-533.47 2525.59,-2050.67 80.77,-464.28 285.9,-1182.45 279.37,-1626.93 -4.32,-308.33 -158.06,-449.01 -216.29,-711.22 -330.65,-1493.09 -884.23,-1670.42 -2414.49,-1735.29 -1126.32,-47.91 -2294.24,-335.28 -3399.5,-277.37z"/>
   </g>
   <path id="Fill_x0020_79" class="fil4" d="M42024.66 26866.18c-1607.98,21.9 -5579.06,434.38 -6169.39,1776.04 -448.17,1018.18 882.97,794.51 1596.39,424.16 965.1,-501.24 1811.53,-801.04 3007.46,-953.52 4555.41,-581.17 8932.65,1502.99 13444.57,1766.35 1708.96,100.04 3771.64,164.9 5403.31,-225.35 1161.91,-278.11 1313.66,-884.23 -12.64,-976.37 -1126.53,-78.66 -2373.53,168.7 -3528.71,161.75 -4780.02,-28.96 -9029.21,-2036.46 -13741,-1973.06z"/>
   <path id="Wireframy_x0020_Stuff_2" class="fil1" d="M24578.37 6343.04c1.79,113.31 3.37,219.56 5.69,317.7 53.07,2138.92 22.43,4387.56 -151.43,6521.52 -60.02,736.91 -596.02,1670.63 -1207.51,655.09 -268.94,-446.7 -231.03,-1363.57 -203.55,-2038.25 7.48,-181.12 14.22,-344.34 14.22,-476.71 -0.42,-752.6 38.86,-1513.1 78.56,-2275.7 77.5,-1490.67 155.64,-2989.13 -65.18,-4453.16 -4.42,-29.59 -8.74,-57.92 -12.53,-85.51 -96.14,-643.72 -102.57,-688.26 -810.73,-673.52 -295.16,6.11 -590.33,14.11 -885.18,22.01 -290.32,7.79 -580.54,15.8 -870.86,21.8 -288.43,6.11 -576.74,11.58 -864.96,17.16 -904.13,17.27 -1808.16,34.75 -2711.98,67.82 -150.69,5.58 -432.16,40.86 -787.14,85.4 -710.16,88.88 -1714.76,215.03 -2560.02,214.29 0.21,3.58 0.53,7.27 0.84,10.95 0.42,6.63 0.95,13.06 0.95,19.69 9.48,466.81 -110.67,987.53 -231.56,1510.99 -100.88,438.38 -202.5,878.65 -228.4,1289.65 -62.13,978.58 -62.97,1967.38 -63.39,2956.38 -1.05,1204.25 -1.9,2408.39 -113.31,3593.68 -5.48,57.92 -8.74,118.99 -12.22,180.81 -0.21,8.32 -0.63,16.53 -1.26,24.75 38.33,-5.9 75.5,-10 111.31,-12.32 609.39,-38.65 1223.73,-42.02 1837.33,-45.6 338.44,-1.9 676.36,-3.58 1013.02,-11.58 604.76,-13.9 1216.99,-13.16 1831.64,-12.64 1356.51,1.58 2725.35,3.05 4052.27,-153.22 392.04,-50.76 529.15,451.75 353.19,712.38 -157.43,233.46 -590.86,271.26 -908.13,298.85 -80.66,7.16 -153.85,13.37 -213.03,22.11 -856.01,126.78 -1723.18,171.01 -2586.88,209.34 -906.98,40.23 -1814.79,70.13 -2722.29,95.4 -216.08,6.21 -504.3,35.28 -823.89,67.39 -844.11,85.3 -1906.62,192.7 -2433.87,-45.81 -566.85,-256.52 -553.58,-541.15 -322.23,-761.55 -101.51,-223.35 -117.41,-549.16 -130.05,-804.3 -4.74,-97.3 -9.06,-184.39 -17.27,-251.36 -125.63,-1015.02 -201.76,-2017.29 -203.45,-3041.05 -3.58,-2005.6 0.42,-4088.6 555.26,-6029.86 -222.19,-97.3 -356.24,-240.83 -355.71,-447.43 2.63,-1041.66 3244.07,-988.59 4785.18,-963.31 275.58,4.32 496.71,8 635.19,4.32 1122.53,-29.27 2245.27,-33.17 3368.01,-26.96 237.25,1.26 501.24,-14.43 774.82,-30.43 581.9,-34.22 1206.98,-70.76 1709.49,45.81 1320.4,306.64 1351.99,2409.44 1371.05,3674.97z"/>
   <path id="Wireframy_x0020_Stuff_3" class="fil0" d="M32836.13 2896.36c1225.83,-64.87 2452.4,-79.61 3679.82,-84.24 1299.44,-6.42 2600.67,16.74 3899.58,56.76l30.12 0.95c575.48,17.27 3774.48,113.31 2304.77,910.56 -85.72,46.54 -182.07,85.19 -287.48,117.62 62.34,369.19 69.82,750.07 59.81,933.72 -37.91,696.26 -62.87,1393.48 -88.14,2090.48 -16.74,472.39 -33.7,944.78 -54.76,1416.96 -57.71,1304.28 -112.88,2608.88 -157.74,3914.11 -5.58,160.17 2.84,369.61 12.43,603.18 31.06,771.98 72.87,1806.58 -346.24,2189.04 -368.03,335.71 -619.39,268.42 -788.93,40.23 -1052.93,306.01 -3215.43,206.6 -4303,156.69 -261.89,-12.22 -461.54,-21.48 -568.22,-21.48 -190.6,0.32 -544.73,24.01 -991.85,54.13 -1862.28,124.89 -5337.92,358.56 -5344.97,-559.48 -0.74,-88.35 27.8,-167.43 81.93,-238.51 -147.53,-150.37 -280.21,-371.3 -365.51,-647.19 -306.01,-990.16 -334.76,-2058.36 -357.5,-3084.96 -32.22,-1449.71 -32.43,-2901.1 -32.64,-4351.96 -0.32,-745.44 -0.53,-1490.67 -4.95,-2235.27 -199.13,-267.36 -80.87,-573.16 167.43,-786.3 528.73,-453.86 1841.12,-459.33 2790.85,-463.44 255.47,-1.05 484.71,-2 665.2,-11.58zm-1994.55 11178.13c1181.4,-252.2 3172.25,-171.01 4238.66,-127.42 279.37,11.27 495.24,20.01 616.76,19.48 1089.36,-4 2178.93,11.16 3267.34,54.65 112.88,4.42 279.68,0.21 476.6,-4.84 394.99,-9.9 910.45,-22.96 1348.09,25.69 -5.9,-59.5 -9.79,-113.62 -12.32,-160.48 -48.97,-969 -13.48,-1946.21 21.59,-2918.05l0 0c7.48,-206.6 14.95,-412.89 21.59,-618.66 23.48,-726.59 54.44,-1452.97 85.61,-2179.14l0 0 0 -0.42c19.48,-457.23 38.75,-914.45 56.65,-1371.57 7.69,-200.6 -3.9,-473.44 -16.74,-779.98l0 0c-26.64,-623.82 -58.76,-1388.84 53.07,-1976.64 -403.21,-7.48 -815.99,-36.01 -1194.98,-62.23 -364.88,-25.38 -697.95,-48.23 -959.94,-48.54 -332.23,0 -664.46,-0.95 -996.59,-2l0 0 0 0 0 0c-920.56,-2.84 -1840.59,-5.69 -2761.15,12.64 -87.3,1.79 -174.59,3.26 -261.99,5.16l0 0 0 0c-1267.43,24.43 -2545.28,49.18 -3801.97,216.08 -73.71,9.79 -162.27,28.54 -260.1,51.49 137.74,576.01 70.24,1387.58 11.27,2098.27 -28.85,345.08 -55.6,666.57 -55.92,925.72 -1.79,1611.35 40.75,3216.27 83.29,4819.72l0 0.11 0 0c16.11,606.65 32.12,1212.78 45.7,1819.01 1.9,72.45 0,139.63 -4.53,201.97z"/>
   <path id="Fill_x0020_135" class="fil5" d="M17394.49 14905.96c-805.67,470.6 -371.19,2353.21 -92.03,3004.09 458.7,1070.72 1389.68,1908.41 2394.17,2463.99 2030.24,1122.95 4956.72,824.73 6492.14,2771.89 16.01,20.11 546.52,545.58 667.41,-134.89 99.2,-558.42 -891.5,-1411.27 -1275.54,-1690.96 -1091.89,-796.09 -2492.1,-1052.71 -3754.9,-1450.44 -1346.83,-423.95 -2825.07,-1205.72 -3389.71,-2594.25 -199.87,-491.77 181.33,-3087.06 -1041.55,-2369.42z"/>
   <path id="Fill_x0020_137" class="fil4" d="M35809.68 15811.15c-738.28,203.45 -249.88,1219.3 -251.15,1727.71 -1.26,634.66 -204.29,1298.7 -595.38,1805.11 -991.53,1283.96 -2933.43,1476.45 -4389.24,1844.7 -1057.14,267.36 -3586.2,840.95 -3685.08,2270.76 -110.46,1596.5 2122.17,-346.45 2310.88,-425.95 2087,-765.55 4786.76,-913.4 6397.69,-2598.46 665.09,-695.74 1057.87,-1623.98 1120.42,-2582.14 35.07,-539.68 41.17,-2301.19 -908.13,-2041.72z"/>
   <path id="Fill_x0020_139" class="fil0" d="M20556.63 29972.2c-17.27,-2953.86 2809.59,-4740.64 5365.82,-5412.89 3072.53,-809.57 5934.67,1343.46 6296.81,4440.21 382.25,3268.4 -2081.1,5899.5 -5329.49,6043.76 -2857.71,126.78 -6314.81,-1919.15 -6333.14,-5071.08zm6863.34 -3992.67c166.06,225.88 316.33,586.43 -18.53,782.82 -322.23,187.65 -483.03,-37.91 -644.98,-265.05 -102.25,-143.53 -205.03,-287.48 -348.97,-328.23 -373.62,-104.99 -973.63,287.79 -1284.91,516.72 -126.15,92.98 -305.91,293.16 -516.09,527.25 -668.67,744.7 -1645.15,1832.17 -2184.72,896.34 -2152.29,3716.57 3213.53,6498.04 6264.69,5091.4 3350.95,-1544.59 2698.81,-7191.88 -1266.48,-7221.26z"/>
   <path id="Fill_x0020_141" class="fil1" d="M24607.75 28983.4c0,677.84 1070.72,677.84 1070.72,0 0,-670.46 -1070.72,-699.11 -1070.72,0z"/>
   <path id="Fill_x0020_143" class="fil0" d="M26491.62 28856.2c0,830.42 1312.08,830.42 1312.08,0 0,-821.15 -1312.08,-856.22 -1312.08,0z"/>
   <path id="Fill_x0020_145" class="fil0" d="M25143.53 30791.25c-1073.04,631.4 1995.7,1885.45 2116.7,603.81 52.23,-553.05 -483.13,-403.94 -840.21,-444.38 -341.5,-39.17 -952.47,-347.92 -1276.48,-159.43z"/>
   <path id="Fill_x0020_147" class="fil4" d="M24678.09 35269.26c46.65,1612.08 24.11,3223.43 329.91,4812.98 58.23,301.8 98.46,1397.06 337.18,1621.35 586.96,551.68 596.54,-505.67 619.5,-910.98 81.4,-1451.39 -71.18,-2948.17 -104.67,-4402.72 -7.37,-313.28 75.61,-961.52 -72.03,-1264.69 -234.72,-480.92 -1132.85,-623.92 -1109.89,144.05z"/>
   <path id="Fill_x0020_149" class="fil5" d="M23530.39 33962.03c-2352.47,2640.37 -5591.91,2445.87 -8855.46,2677.23 -1724.44,122.05 -3467.95,372.98 -4855.21,1488.14 -645.51,519.14 -1201.82,1168.97 -1575.86,1909.46 -163.33,323.81 -938.57,2191.99 225.66,1748.87 412.89,-157.32 819.36,-1392.63 1086.41,-1758.14 508.72,-695.95 1159.6,-1270.59 1940.31,-1644.1 1506.04,-720.38 3304.41,-708.06 4937.45,-799.46 1706.96,-95.62 3539.03,-185.02 5108.15,-927.3 738.17,-349.29 1430.54,-784.61 2024.56,-1345.88 212.5,-200.6 667.62,-541.36 701.32,-848.22 38.86,-350.55 -297.9,-992.38 -737.33,-500.61z"/>
   <path id="Fill_x0020_151" class="fil0" d="M11654.63 42066.05c-2209.78,73.92 -4416.83,163.22 -6623.46,303.17 -452.07,28.64 -1959.9,-62.87 -1575.86,863.91 307.8,742.6 2146.71,251.36 2754.73,215.34 2299.4,-136.58 4608.27,-183.96 6903.04,-390.78 515.35,-46.33 2845.39,-28.12 1883.03,-941.41 -457.65,-434.8 -2709.03,-71.61 -3341.48,-50.23z"/>
   <path id="Fill_x0020_153" class="fil0" d="M2052.15 43131.82c-696.58,914.87 -376.46,3138.35 -323.81,4238.13 50.97,1065.67 -156.06,3014.09 1235.1,3179.52 -441.85,-57.92 335.28,26.75 461.75,33.49 282.32,15.16 566.11,20.01 848.95,23.17 653.51,7.16 1307.23,-1.58 1960.43,-14.74 1479.72,-29.27 2963.33,-72.55 4441.37,-154.27 621.29,-34.43 3991.3,-5.69 4124.72,-651.09 170.49,-824.73 -3060.74,-358.03 -3639.27,-331.7 -1408.64,64.55 -2819.7,78.24 -4229.6,96.56 -698.79,9.16 -1398.32,16.22 -2097.11,2.63 -288.74,-5.79 -1431.38,112.67 -1606.82,-79.93 -149.64,-163.75 -32.96,-1670.63 -36.01,-1901.25 -10.32,-751.23 -9.48,-1504.15 17.27,-2255.28 18.01,-505.56 291.27,-1467.61 68.55,-1942.53 -216.71,-461.86 -847.9,-619.5 -1225.52,-242.72z"/>
   <path id="Fill_x0020_155" class="fil1" d="M13430.67 43174.57c40.33,1673.79 52.76,3380.97 448.17,5017.8 131.63,544.52 315.8,1667.9 863.06,1949.9 574.22,295.9 1070.2,-126.47 1107.58,-695.74 47.39,-715.32 -335.81,-1654.63 -414.37,-2388.69 -91.72,-856.43 -145.11,-1713.7 -176.49,-2574.45 -23.69,-647.3 173.12,-1617.88 -444.06,-2035.19 -554.32,-374.98 -1402,2.63 -1383.89,726.38z"/>
   <path id="Fill_x0020_157" class="fil0" d="M17828.12 42766.1c-687.21,684.68 -380.14,2852.03 -294.11,3731.73 62.87,644.14 768.08,3813.66 1824.69,2160.82 467.44,-731.01 -126.47,-2664.17 -122.15,-3516.7 2.53,-542.94 194.71,-1229.31 102.04,-1750.98 -122.68,-689.21 -887.07,-1247.42 -1510.47,-624.87z"/>
   <path id="Wireframy_x0020_Stuff_4" class="fil0" d="M22586.77 42200.94c2064.26,-212.92 4131.04,-372.67 6206.56,-392.46 99.62,-0.84 204.5,-2.11 313.49,-3.37 1422.54,-18.11 3560.4,-45.28 4517.82,1023.12 521.57,581.8 757.76,1481.51 963.84,2265.81 38.33,146.06 75.71,288.53 113.62,423.95 32.43,115.62 74.66,247.57 120.26,390.25 215.03,673.31 505.88,1584.28 210.92,2148.18 -161.75,309.38 -422.16,573.06 -817.57,463.54 -92.14,-25.69 -164.48,-58.34 -221.45,-96.98 151.53,163.75 218.61,397.31 120.26,625.61 -190.07,441.54 -790.72,451.01 -1263.95,458.28 -114.57,1.68 -221.98,3.58 -313.91,11.27 -1576.07,131.31 -3159.41,218.93 -4741.17,232.83 -752.92,6.42 -1506.04,0.32 -2259.17,-5.58 -775.24,-6.42 -1550.38,-12.95 -2325.62,-5.16 -562.53,5.37 -1135.59,58.97 -1708.75,112.46 -723.75,67.5 -1447.6,135 -2151.55,106.15 -526.41,-21.59 -1088.73,-193.86 -955.31,-874.54 108.99,-555.58 631.82,-603.91 1100.42,-647.4 40.65,-3.58 81.08,-7.48 120.78,-11.58 1491.83,-151.85 2984.71,-205.66 4484.33,-200.18 3150.35,10.85 6298.18,-5.48 9448.53,-21.9 129.63,10.85 251.36,60.23 351.82,135.53 -113.31,-137.53 -111.2,-320.96 -108.88,-515.99 1.26,-88.24 2.32,-179.23 -7.16,-269.15 -19.38,-181.12 -37.17,-361.4 -54.65,-541.36 -58.23,-594.86 -116.15,-1185.19 -229.56,-1783.2 -17.27,-90.46 -33.7,-189.76 -50.97,-294.95 -103.2,-620.97 -239.78,-1443.92 -733.54,-1779.31 -496.61,-337.18 -1470.24,-320.96 -2229.06,-308.22 -205.03,3.26 -394.15,6.42 -554,2.21 -2024.87,-52.34 -4061.54,91.72 -6076.93,274.95 -154.8,14.11 -309.91,27.48 -465.23,41.17 -766.82,66.66 -1537.64,133.95 -2293.4,270.84 -138.37,25.38 -349.5,98.98 -591.91,183.75 -644.98,224.82 -1509.41,526.41 -1803.31,194.18 -973.11,-1100.63 3303.67,-1552.59 3884.42,-1612.72z"/>
   <path id="Line" class="fil5" d="M44548.57 39694.83c89.93,115.41 89.93,115.41 0,0zm-13969.29 -6819.53c-1253.84,736.91 1066.72,2899.31 1657.79,3233.54 1330.08,752.6 3158.14,866.22 4643.23,1077.67 1879.87,268.1 3925.49,366.88 5732.07,982.69 769.66,262.42 1258.79,672.04 1762.88,1301.44 255.25,319.28 870.33,1693.8 1430.23,1368.31 1127.48,-655.3 -1910.62,-3405.61 -2580.03,-3701.4 -1521.84,-672.15 -3320.63,-860.43 -4948.09,-1121.48 -1512.89,-242.83 -3058.32,-423.32 -4533.93,-851.48 -811.47,-235.14 -1388.1,-614.76 -1855.86,-1341.46 -291.58,-452.8 -530.62,-1402.64 -1308.29,-947.83z"/>
   <path id="Wireframy_x0020_Stuff_5" class="fil0" d="M49798.87 41322.19c-1445.39,32.12 -2888.15,143.42 -4330.48,254.52 -809.25,62.23 -1618.4,124.57 -2427.66,173.01 -253.15,15.27 -506.72,28.85 -760.08,42.44l-0.32 0 0 0c-712.9,38.44 -1426.96,76.87 -2136.6,148.69 -107.83,10.85 -232.83,21.17 -368.77,32.22 -602.75,49.49 -1424.33,116.89 -1949.58,336.86 -481.45,-364.24 -1224.46,-54.65 -1236.05,594.54 -19.9,1182.13 -9.06,2343.62 135.21,3518.7 33.49,272.73 205.76,1653.57 580.75,2372.37 -133.42,679.1 445.43,869.17 983.95,921.19 2086.16,201.44 4273.94,45.07 6431.91,-108.99 1097.78,-78.56 2187.78,-156.27 3252.81,-186.49 354.13,-10 713.01,-13.9 1073.88,-18.01 1177.71,-13.16 2377.85,-26.54 3517.96,-249.36 45.81,-8.95 94.98,-17.8 146.48,-27.06 450.8,-80.56 1072.3,-192.07 1119.79,-688.26 28.33,-297.69 -139.63,-570.22 -420.69,-608.55 19.27,-248.09 -11.9,-518.72 -34.75,-717.64l-0.32 0c-5.16,-46.33 -10,-88.88 -13.9,-126.26 -68.24,-689.74 -240.09,-1375.15 -409.73,-2051.72l0 0 0 0c-38.23,-152.27 -76.24,-303.9 -112.88,-454.91 -40.65,-167.43 -78.24,-366.77 -118.89,-581.27 -143.32,-758.08 -323.6,-1710.33 -802.73,-2152.61 -502.19,-463.65 -1320.08,-443.33 -1975.27,-426.79 -48.97,1.26 -97.09,2.63 -144.05,3.37zm2543.6 6581.97c-171.33,-448.7 -221.56,-1055.24 -269.15,-1631.99l0 0c-29.91,-361.82 -58.97,-712.16 -116.15,-1003.96 -43.28,-218.93 -78.56,-449.75 -114.36,-684.36l0 0c-87.09,-570.01 -177.44,-1162.23 -391.52,-1661.58 -286.42,-668.99 -541.36,-643.51 -1144.64,-582.96 -112.25,11.27 -236.51,23.69 -375.3,33.17 -614.65,41.81 -1228.89,94.88 -1843.12,148.16l0 0c-294.74,25.59 -589.38,51.07 -884.12,75.19 -1260.79,103.62 -2522.64,183.44 -3784.49,263.05l0 0c-737.23,46.65 -1474.66,92.98 -2211.79,144.48 -578.75,40.23 -1143.38,150.06 -1705.7,259.57 -445.22,86.88 -889.39,173.43 -1337.45,224.61 -6.53,153.22 -19.38,307.06 -31.8,453.54 -16.74,199.65 -32.22,385.62 -28.75,537.89 14.64,675.31 74.13,1346.4 133.95,2018.55 9.27,103.3 18.22,206.6 27.27,310.22 10.74,123.84 37.59,283.05 66.97,459.75 45.81,273.26 98.35,588.01 110.15,877.81 54.65,-0.32 109.09,0 162.27,0 69.08,0.21 136.79,0.53 201.76,-0.63 1588.92,-27.69 3176.68,-75.92 4764.65,-136.89 202.6,-7.79 405.31,-15.8 608.02,-23.48 1416.64,-55.07 2833.39,-110.46 4251.3,-126.78 563.27,-6.42 1133.8,11.37 1706.44,29.17 736.38,22.64 1475.61,45.6 2205.57,17.48z"/>
   <g>
    <path id="Seat_2" class="fil6" d="M91906.3 57675.22c2413.44,0 4369.87,1956.43 4369.87,4369.76l0 25126.68c0,2413.44 -1956.43,4369.76 -4369.87,4369.76l-31408.22 0c-2413.44,0 -4369.76,-1956.32 -4369.76,-4369.76l0 -25126.68c0,-2413.34 1956.32,-4369.76 4369.76,-4369.76l31408.22 0zm-4369.87 7647.21c603.28,0 1092.52,489.13 1092.52,1092.52l0 16386.84c0,603.28 -489.24,1092.41 -1092.52,1092.41l-22668.59 0c-603.18,0 -1092.41,-489.13 -1092.41,-1092.41l0 -16386.84c0,-603.39 489.24,-1092.52 1092.41,-1092.52l22668.59 0z"/>
    <path id="SKIN" class="fil7" d="M29046.38 90175.86c5384.78,-6575.44 9028.16,-11450.23 10930.35,-14624.17 3256.92,-5434.8 5922.56,-10270.63 6763.72,-12117.96 2006.02,-4405.14 -4618.07,-6467.82 -6117.27,-4413.15 -2269.07,3109.81 -7114.91,12895.73 -14537.61,29357.44l2960.81 1797.84z"/>
    <path id="LegLower" class="fil8" d="M40080.56 88264.08l10021.38 -25225.77c2143.44,-4598.48 -8207.43,-7621.1 -9782.44,-5481.13 -3576.2,4858.58 -12075.94,24024.89 -13141.51,25472.39l12902.57 5234.51z"/>
    <path id="SKIN_0" class="fil7" d="M66770.78 83205.21c-1952.32,-2847.5 -9052.69,-12427.45 -12920.05,-16391.26 -1111.26,-1139.06 -2195.78,-2232.32 -3221.43,-3251.13 -3048.42,-3028.2 -9119.25,2061.62 -6076.2,4819.83 7578.13,6868.92 18634.96,16141.7 19558.57,16968.43 1294.81,1158.75 3885.89,-356.45 2659.11,-2145.87z"/>
    <path id="shoe" class="fil9" d="M65505.88 82032.98c189.33,-257.78 555.58,-319.07 800.2,-113.1 446.59,375.51 1088.73,954.05 1320.61,1355.57 369.19,639.61 864.75,1990.12 864.75,1990.12 -742.18,428.48 -13340.42,7702.08 -13340.42,7702.08 0,0 -1512.47,-1418.75 -471.34,-2202.62 1041.34,-784.09 1718.44,-1322.4 1718.44,-1322.4l4604.69 -6343.88c90.35,-124.68 265.78,-150.06 387.52,-56.13l956.68 736.59c0,0 1316.81,-114.68 1965.17,-489.13 394.89,-227.98 876.96,-825.05 1193.72,-1257.11z"/>
    <path id="shoe_2" class="fil9" d="M30605.6 88887.89c292.85,-128.68 640.77,1.58 749.76,302.33 198.81,548.21 465.65,1370.52 465.65,1833.96 0,738.81 -245.99,2155.97 -245.99,2155.97 -857.17,0 -15404.36,0 -15404.36,0 0,0 -600.54,-1985.07 693.21,-2143.34 1293.75,-158.17 2149.45,-285.79 2149.45,-285.79l7159.77 -3191.84c140.58,-62.76 304.96,3.05 363.72,145.32l460.17 1116.42c0,0 1197.61,558.95 1946.21,558.95 455.86,0 1172.02,-276.21 1662.42,-491.98z"/>
    <path id="Leg_x0020_and_x0020_Butt" class="fil10" d="M53707.83 64298.37c0,0 12493.68,-2035.4 16737.08,-2783.69 8063.16,-1421.7 10414.47,-5760.81 9024.26,-15227.67l-14856.37 0c-2949.12,851.59 -24643.87,10533.78 -24643.87,10533.78 -2602.35,1291.75 -2117.86,5100.67 -1642.31,6355.57 29.17,76.66 13160.88,22551.28 13160.88,22551.28l12153.03 -7742.3 -9955.56 -12774.74c0,0 -394.47,-794.41 22.85,-912.24z"/>
    <path id="SKIN_1" class="fil7" d="M96996.02 56114.11c-1018.6,-1496.67 -6910.62,-17410.49 -6910.62,-17410.49l-4837.31 702.37c0,0 7788.64,16898.72 8351.16,17874.35 730.8,1266.9 84.45,3347.79 -353.82,4758.75 -67.82,218.19 -130.68,420.58 -182.6,601.18 920.66,266 1270.9,-261.15 1640.1,-816.63 417.11,-627.4 858.33,-1291.33 2173.24,-890.76 507.98,154.9 995.96,353.71 1472.77,547.89 1647.05,671.1 3160.25,1287.44 4898.07,-153.95 275.47,-228.72 507.67,-975.95 -368.14,-1411.17 -2181.67,-1084.83 -5384.88,-3069.79 -5882.86,-3801.55zm-52487.47 -7396.49l8244.28 -6989.6 2253.17 4614.8 -8356.54 4170.42c-2233.79,3029.15 -3511.33,4316.37 -3832.82,3861.04 -270.94,-383.62 -107.3,-771.98 43.38,-1130.11 117.41,-278.53 226.93,-538.84 117.1,-763.66 -250.62,-513.46 -1881.66,-343.5 -3422.56,-116.04 -1541.01,227.56 -1137.59,-493.45 -787.98,-860.01 1515.31,-1056.93 3429.3,-1986.02 5741.97,-2786.85z"/>
    <g>
     <path class="fil7" d="M61227.2 7688.91c-250.73,796.3 -501.03,1580.39 -367.51,2542.54 27.38,197.02 -458.59,1434.33 -38.44,1599.76 123.52,166.06 269.47,379.51 137.53,570.74 -294.85,408.15 -619.18,796.41 -884.55,1224.36 -423.11,682.68 -238.09,1052.19 235.35,1151.07 262.84,51.7 599.39,34.01 527.57,266 -236.93,554.53 -66.03,870.96 488.4,977.63 -237.14,284.42 -304.12,538.94 33.7,722.17 391.31,342.66 392.57,657.41 -54.34,939.94 -161.75,1000.8 572.01,1524.47 1485.3,1435.7 731.44,-71.08 1652.63,-156.48 2222,-96.35 1694.75,771.98 2786.85,2070.15 2847.39,2610.36 1764.56,-1263.32 3414.35,-2339.1 5178.91,-3602.31 -486.82,-644.35 -1826.06,-2397.43 -1829.11,-3535.13 566.53,-2426.39 679.31,-4989.05 276.95,-7706.29 -1173.81,-2171.14 -2628.79,-3428.46 -4474.43,-3415.4 -2622.99,-55.07 -5245.99,1639.04 -5784.72,4315.21z"/>
     <path class="fil11" d="M65500.72 13363.06c30.64,-494.19 61.29,-988.48 92.03,-1482.67 -257.15,-596.12 -566.85,-1115.79 -1101.58,-1307.34 -1247.74,-295.48 -1540.37,-1166.65 -1544.27,-2211.79 -567.27,-1135.59 -1168.55,-861.48 -1790.26,263.05 -139.32,276.95 -191.02,392.36 -330.23,669.41 -987.95,-684.89 -2652.69,-646.56 -1180.87,-3675.6 682.68,-862.85 1557.33,-1418.43 2727.98,-1500.15 878.86,-222.82 1896.82,-690.16 3308.1,-1190.56 1222.04,-57.6 2322.77,-617.39 3887.79,748.07 1116.53,985.43 1828.9,2068.26 2237.58,3224.27 376.46,778.29 390.78,3024.62 -293.58,8103.6 -373.83,726.38 -748.18,911.71 -1123.9,-234.72 -214.5,-734.7 -429.11,-1469.4 -643.61,-2204.1 -1044.29,-3683.61 -5259.78,918.87 -2077,3618.21 -1393.05,1488.25 -3363.8,2792.32 -4677.67,2995.24 -1290.07,199.23 -1792.78,-437.22 -1868.29,-1487.62 85.72,-91.19 486.18,-385.51 141.11,-1017.12 542.84,369.61 544.73,695.53 259.57,815.15 36.54,119.73 264.84,140.37 309.38,30.85 231.35,-582.43 30.43,-1264.27 -499.24,-1663.26 -212.92,-135.84 -419,-301.48 -597.28,-235.14 -50.65,-301.48 -61.29,-511.88 77.29,-727.85 967.31,351.92 1181.92,1183.29 1584.5,2145.87 870.33,-293.06 1612.3,-632.45 2365.63,-1721.71 190.7,-685 546.1,-1269.22 736.81,-1954.11z"/>
    </g>
    <path id="Coat_x0020_Back" class="fil6" d="M69867.21 18983.61l-3270.4 1011.54c-4065.86,10157.32 -9857,17982.08 -19988.52,26282.91l2505.27 4322.69c8904.32,-5245.15 17333.31,-9319.85 20753.65,-17190.51 1148.01,-2641.63 93.83,-11268.06 0,-14426.62z"/>
    <path id="Shirt" class="fil12" d="M80162.38 47569.92c0,0 -12879.3,1365.57 -20274.95,0 -610.97,-112.78 -707.43,-1135.59 -423.84,-1829.54 4411.25,-10808.94 7117.75,-18214.69 7117.75,-25722.38 1418.75,-298.32 4568.15,-1842.17 4568.15,-1842.17 5438.9,7736.93 7938.8,16613.98 9012.89,29394.09z"/>
    <path id="Coat_x0020_Front" class="fil13" d="M72708.18 17527.27c-137.32,-19.27 -74.98,11.27 -206.39,0l-2266.86 0c-113.94,669.94 -280.53,3152.56 -523.88,6772.78 -884.12,13155.09 -2777.37,41330.19 -6807.11,52112.48l27804.64 0c-586.64,-12258.54 -5106.25,-26917.99 -9788.13,-39365.65 3454.78,3437.3 7489.57,9199.28 10750.39,18791.02l5208.08 -1336.82c-5307.48,-22870.56 -20857.48,-34665.45 -23874.84,-36770.57 -29.59,-68.13 -58.76,-135.84 -88.03,-203.23l-207.87 0z"/>
   </g>
   <rect class="fil14" x="0" y="-0" width="105303.06" height="96878.82"/>
  </g>
 </g>
</svg>
