<?xml version="1.0" encoding="UTF-8"?>
<!DOCTYPE svg PUBLIC "-//W3C//DTD SVG 1.1//EN" "http://www.w3.org/Graphics/SVG/1.1/DTD/svg11.dtd">
<!-- Creator: CorelDRAW 2020 (64-Bit Evaluation Version) -->
<svg xmlns="http://www.w3.org/2000/svg" xml:space="preserve" width="100.2mm" height="92.2mm" version="1.1" style="shape-rendering:geometricPrecision; text-rendering:geometricPrecision; image-rendering:optimizeQuality; fill-rule:evenodd; clip-rule:evenodd"
viewBox="0 0 4048.26 3725.05"
 xmlns:xlink="http://www.w3.org/1999/xlink"
 xmlns:xodm="http://www.corel.com/coreldraw/odm/2003">
 <defs>
  <style type="text/css">
   <![CDATA[
    .str0 {stroke:white;stroke-width:8.08;stroke-miterlimit:22.9256}
    .fil18 {fill:none}
    .fil15 {fill:#003333}
    .fil9 {fill:#191847}
    .fil10 {fill:#393F82}
    .fil0 {fill:#B9FFE7}
    .fil8 {fill:#CC9933}
    .fil11 {fill:#E4E4E4}
    .fil7 {fill:#C5CFD6;fill-rule:nonzero}
    .fil12 {fill:black;fill-opacity:0.101961}
    .fil3 {fill:#56919C;fill-opacity:0.250980}
    .fil1 {fill:#89C5CC;fill-opacity:0.250980}
    .fil5 {fill:#C1DEE2;fill-opacity:0.250980}
    .fil6 {fill:#56919C;fill-opacity:0.501961}
    .fil2 {fill:#89C5CC;fill-opacity:0.501961}
    .fil4 {fill:#C1DEE2;fill-opacity:0.501961}
    .fil16 {fill:#9999FF}
    .fil14 {fill:#C5CFD6}
    .fil13 {fill:#CC9933}
    .fil17 {fill:#F2F2F2}
   ]]>
  </style>
   <clipPath id="id0">
    <path d="M4.04 4.04l4040.18 0 0 3716.96 -4040.18 0 0 -3716.96z"/>
   </clipPath>
 </defs>
 <g id="Layer_x0020_1">
  <metadata id="CorelCorpID_0Corel-Layer"/>
  <g>
  </g>
  <g style="clip-path:url(#id0)">
   <g>
    <path id="Background_x0020_Shape" class="fil0" d="M163.2 2346.86c85.21,-829.86 947.43,-357.1 1512.68,-613.65 565.26,-256.55 1234.01,-1451.36 1676.6,-866.08 442.58,585.27 -28.32,2000.06 -1043.43,2319.33 -1015.11,319.27 -2231.06,-9.74 -2145.85,-839.6z"/>
    <path id="Fill_x0020_41" class="fil1" d="M1701.76 158.21c-75.91,0.02 -152.49,-1.57 -228.31,2.93 -12.75,0.76 -61.36,-1.67 -67.94,11.66 -12.02,24.39 37.99,12.29 45.25,11.55 150.95,-15.11 308.63,-6.41 460.08,-2.1 123.86,3.52 247.06,5.7 370.77,12.09 32.52,1.67 65.01,3.52 97.5,5.49 10.6,0.64 37.25,7.66 39.48,-9.26 2.07,-15.66 -31.18,-12.12 -39.49,-12.56 -66.06,-3.48 -132.07,-7.12 -198.11,-10.84 -158.95,-8.96 -320.04,-9 -479.24,-8.97z"/>
    <path id="Fill_x0020_43" class="fil2" d="M1403.09 185.33c-14.18,14.1 -7.53,67.92 -7.93,85.71 -0.69,31.11 -2.16,62.2 -2.82,93.3 -0.68,32.52 0.27,65.17 2.19,97.64 0.81,13.63 12,79.51 29.61,41.8 7.87,-16.85 -0.19,-63.77 -0.07,-82.86 0.22,-34.74 2.09,-69.33 3.82,-104.03 1.49,-29.82 1.54,-59.67 2.85,-89.51 0.41,-9.51 1.54,-71.33 -27.65,-42.06z"/>
    <path id="Fill_x0020_45" class="fil2" d="M2431.38 463.25c-73.88,7.57 -148.95,4 -223.1,9.59 -63.91,4.82 -127.77,6.79 -191.85,8.15 -145.09,3.06 -290.44,6.05 -435.12,18.14 -32.97,2.76 -65.9,5.68 -98.96,7.16 -16.53,0.74 -85.92,-6.79 -91.09,10.64 -8.8,29.69 65.4,17.93 81.4,17.47 35.19,-1.01 70.22,-3.56 105.32,-6.23 147.53,-11.24 295.6,-14.6 443.45,-19.26 80.39,-2.54 160.24,-8.42 240.46,-13.77 39.99,-2.67 80.08,-2.76 120.07,-5.34 10.46,-0.68 47.5,0.65 55.02,-7.76 5.17,-5.78 6.48,-19.89 -5.58,-18.77z"/>
    <path id="Fill_x0020_47" class="fil1" d="M2406.33 190.38c2.53,70.86 6.54,141.64 8.93,212.49 0.72,21.31 -5.72,59.49 6.15,78.28 19.08,30.21 33.97,-1.77 37.46,-20.59 11.03,-59.41 -0.83,-125.05 -3.91,-184.83 -1.17,-22.8 5.91,-73.56 -5.11,-93.98 -10.5,-19.45 -44.45,-17.49 -43.52,8.63z"/>
    <path id="hola_x0020_:_x0029_" class="fil2" d="M2282.3 291.29c28.31,7.66 32.44,69.2 0.5,73.75 -47.53,6.78 -26.75,-61.07 -0.5,-73.75m-7.93 -24.48c-8.64,-0.27 -28.56,-2.65 -33.88,4.38 -4.45,5.88 0.04,18.29 -0.47,23.89 -1.87,20.02 -18.15,31.58 -10.87,55.22 4.94,16.04 18.16,31.12 34.28,36.68 85.07,29.4 84.03,-134.96 10.94,-120.17z"/>
    <path id="Fill_x0020_51" class="fil2" d="M1506.36 277.86c-0.21,0.27 -0.43,0.54 -0.63,0.81 0.21,-0.27 0.42,-0.55 0.63,-0.81m66.81 -35.55c-0.33,-2.85 -0.67,-5.7 -1,-8.54 46.13,21.77 82.83,62.27 67.51,116.63 -11.68,41.47 -53.9,56.18 -93.24,45.94 -43.54,-11.34 -64.35,-47.23 -52.61,-91.3 5.42,-20.33 22.06,-47.66 43.55,-54.2 10.01,-3.04 32.14,4.72 35.79,-8.54m-26.98 -17.22c-11.66,0.78 -23.02,5.64 -32.54,12.29 8.91,-7.54 20.79,-12.03 32.54,-12.29m0.34 -26.79c-28.82,0.88 -47.71,18.33 -64.8,39.28 -5.37,6.58 -23.51,24.01 -21.26,32.88 1.77,7.01 6.42,17.25 16.21,9.43 -51.25,102.14 81.15,189.27 161.97,118.23 75.43,-66.29 0.59,-202.94 -92.12,-199.83z"/>
    <path id="Fill_x0020_53" class="fil2" d="M1520.35 293.19c0,13.6 21.11,13.6 21.11,0 0,-13.6 -21.11,-13.6 -21.11,0z"/>
    <path id="Fill_x0020_55" class="fil1" d="M1556.38 295.51c0,13.83 21.45,13.83 21.45,0 0,-13.83 -21.45,-13.83 -21.45,0z"/>
    <path id="Fill_x0020_57" class="fil1" d="M1572.73 344.06c-10.04,0.81 -46.77,-2.59 -53.23,6.19 -10.78,14.69 6.42,15.21 14.87,16.79 7.61,1.43 40.69,0.62 45.35,-6.14 4.12,-5.97 3.16,-17.71 -6.99,-16.85z"/>
    <path id="Fill_x0020_59" class="fil2" d="M2015.4 305.95c-1.73,0.72 -1.73,0.72 0,0zm-138.82 -10.15c-22.62,1.66 -41.77,14.67 -63.4,19.86 -23.08,5.55 -33.07,-4.65 -54.06,-11.32 -21.83,-6.94 -37.36,-4.2 -54.91,10.71 -9.94,8.45 -31.76,27.9 -25.54,42.91 14.23,34.35 46.44,-21.54 61.59,-24.14 23.63,-4.06 44.66,16.61 71.92,10.7 24.7,-5.35 46.61,-22.31 72.4,-22.49 21.57,-0.16 41.9,11.65 63.19,14.5 32.51,4.36 53.86,-7.19 83.91,-15.75 26.06,-7.43 44.33,2.37 68.84,10.61 11.2,3.76 48.58,17.45 41.7,-7.37 -1.95,-7.02 -51.21,-19.56 -58.84,-21.96 -26.93,-8.51 -43.98,-5.2 -69.64,4.58 -21.39,8.16 -39.39,12.14 -62.33,7.65 -25.27,-4.95 -48.25,-20.51 -74.84,-18.49z"/>
    <path id="Fill_x0020_173" class="fil1" d="M1715.15 692.04c-66.44,0.74 -132.86,3.2 -199.18,7.39 -63.06,4 -131.48,0.97 -193.52,13.19 -17.62,3.47 -41.41,19.52 -17.99,37.18 16.46,12.41 76.7,-1.86 96.35,-3.08 72.4,-4.44 144.84,-9.78 217.34,-12.33 68.63,-2.43 137.27,-3.28 205.94,-3.97 10.48,-0.11 27.88,-3.46 38.33,-0.42 15,4.37 11.45,5.56 12.56,24.6 2.03,34.5 1.47,69.12 0.79,103.65 -0.66,33.42 -1.89,66.83 -1.77,100.27 0.08,23.85 -7.54,71.25 4.42,91.96 17.24,29.82 35.1,-2.56 36.39,-22.37 2.47,-37.9 1.36,-76.26 1.37,-114.2 0.01,-35.61 0.27,-71.23 -0.99,-106.83 -0.91,-25.72 2.76,-70.6 -11.09,-93.98 -14.11,-23.81 -48.07,-18.68 -72.86,-19.81 -38.66,-1.77 -77.4,-1.65 -116.09,-1.25z"/>
    <path id="Fill_x0020_171" class="fil1" d="M1292.39 735.01c0.07,66.92 -7.67,133.39 -9.84,200.23 -1,30.74 -3.01,64.48 4.76,94.65 7.85,30.46 32.77,37.06 35.65,3.05 5.81,-68.86 4.39,-140.26 8.91,-209.68 1.6,-24.51 12,-69.42 2.29,-92.37 -8.55,-20.22 -41.81,-24.09 -41.77,4.12z"/>
    <path id="Fill_x0020_175" class="fil2" d="M1915.47 1029.98c-115.39,15.28 -236.02,9.71 -352.24,12.12 -55.76,1.15 -111.5,1.22 -167.26,1.81 -19.47,0.2 -68.89,-7.2 -85.72,3.74 -26.8,17.41 2.27,30.85 20.02,31.24 110.05,2.41 221.32,-2.65 331.34,-6.26 49.43,-1.62 99.03,-2.41 148.33,-6.61 30.35,-2.59 63.52,-5.1 92.99,-13.25 6.28,-1.75 19.95,-1.38 21.36,-9.95 0.87,-5.29 -0.7,-13.94 -8.82,-12.83z"/>
    <path id="Fill_x0020_177" class="fil1" d="M1435.63 1127.25c-32.07,0.19 -128.72,-14.71 -142,16.56 -17.7,41.71 51.37,31.98 69.95,31.49 42.2,-1.08 84.35,-1.2 126.56,-1.17 41.41,0.01 82.82,-0.25 124.22,-1.24 12,-0.28 39.92,4.69 46.82,-9.75 5.24,-10.97 1.09,-19.64 -8.57,-25.45 -23.28,-13.98 -83.74,-5.87 -110.98,-7.13 -35.28,-1.62 -70.68,-3.31 -106,-3.31z"/>
    <path id="Fill_x0020_179" class="fil2" d="M1825.8 1134.98c-18.33,1.09 -55.4,-6.47 -71.82,1.92 -18.66,9.54 -12.08,24.46 4.02,31.02 11.16,4.55 56.93,2.16 67.8,-3.1 11.32,-5.49 24.14,-31.33 0,-29.84z"/>
    <path id="Fill_x0020_181" class="fil2" d="M2026.74 741.59c-19.57,5.37 -13.64,116.5 -14.14,134.11 -1.38,48.27 -6.81,108.98 9.23,155.47 10.23,29.63 29.88,25.61 26.53,-5.59 -2.94,-27.38 -7.98,-54.46 -10.17,-82.01 -4.93,-62.37 -11.65,-128.89 -6.99,-191.31 1.99,3.63 20.56,37.27 24.93,34.75 -1.32,0.78 -21.42,-47.53 -29.38,-45.43z"/>
    <path id="Fill_x0020_183" class="fil1" d="M2246.93 700.65c-39.61,0.59 -79.23,1.3 -118.83,2.39 -31.49,0.87 -80.97,-4.3 -109.85,8.95 -34.39,15.76 -18.08,50.91 14.22,51.65 28.58,0.66 59.05,-5.78 87.88,-6.77 77.87,-2.67 155.89,-3.23 233.79,-3.9 70.47,-0.61 143.92,6.9 213.77,-3.68 10.35,91.99 -17.66,184.37 -8.13,277.41 1.47,14.44 0.81,34.85 19.21,38.14 23.21,4.15 24.17,-18.84 25.05,-35.3 2.51,-47 1.15,-94.04 4.59,-141.1 3.18,-43.62 9.46,-88.19 4.15,-131.88 -6.52,-53.75 -32.28,-49.45 -77.81,-51.68 -96.17,-4.72 -191.75,-5.65 -288.02,-4.24z"/>
    <path id="Fill_x0020_185" class="fil1" d="M2114.17 1027.29c-20.19,0.51 -53.71,-5.71 -66.65,13.64 -13.46,20.15 2.5,37.71 22.08,41.84 23.16,4.89 53.37,-1.81 77.41,-1.89 25.03,-0.08 50.07,0.21 75.11,0.3 107.33,0.42 215.12,2.04 322.38,-2.39 14.98,-0.62 57.49,4.4 67.85,-9.97 9.2,-12.74 2.77,-24.16 -9.36,-30.66 -19.87,-10.66 -60.7,-6.61 -82.81,-7.45 -27.31,-1.04 -54.65,-1.38 -81.97,-1.81 -107.84,-1.66 -216.23,-4.3 -324.05,-1.63z"/>
    <path id="Fill_x0020_187" class="fil1" d="M2204.96 1120.39c-40.16,0.69 -83.02,-1.08 -122.79,5.02 -34.96,5.35 -39.27,39.15 -1.63,43.11 34.59,3.64 76.53,-3.16 111.29,-5.39 12.34,-0.8 26.7,0.33 32.61,-13.32 6.18,-14.25 -5.63,-27.93 -19.48,-29.42z"/>
    <path id="Fill_x0020_189" class="fil1" d="M2508.62 1123.95c-21.44,0.54 -84.06,-8.69 -94.68,15.81 -17.68,40.76 67.1,25.28 83.36,24.68 20.5,-0.76 100.39,11.21 100.4,-21.43 0.01,-31.99 -69.45,-19.55 -89.08,-19.06z"/>
    <path id="Fill_x0020_191" class="fil3" d="M1288.92 1326.52c0.06,74.16 -4.56,149.02 2.2,222.99 2.8,30.6 2.32,89.21 20.04,115.14 12.58,18.41 30.03,17.12 36.89,-4.99 4.59,-14.78 -2.75,-44.33 -3.57,-60.15 -0.79,-15.17 -1.71,-30.33 -2.42,-45.52 -1.81,-39.1 -1.66,-78.13 -1.12,-117.25 0.46,-33.56 8.53,-77.96 0.93,-110.23 -7.11,-30.08 -52.96,-37.11 -52.96,0z"/>
    <path id="Fill_x0020_193" class="fil3" d="M2034.26 1261.28c-128.67,3.22 -257.63,0.35 -386.18,6.71 -63.4,3.14 -126.55,10.04 -189.63,16.91 -30.99,3.38 -61.96,6.87 -92.9,10.68 -9.34,1.15 -86.91,4.15 -57.73,33.65 12.74,12.89 53.29,-0.57 69.33,-2.47 31.06,-3.66 62.19,-6.86 93.29,-10.15 59.19,-6.26 118.45,-12.19 177.9,-15.48 140,-7.76 280.57,-5.44 420.7,-10.6 37.91,-1.4 75.7,-2.4 113.63,-0.91 9.96,0.39 83.13,4.11 51.36,-22.92 -15.03,-12.78 -71.66,-6.18 -90.44,-6.57 -36.44,-0.75 -72.89,0.23 -109.32,1.14z"/>
    <path id="Wireframy_x0020_Stuff" class="fil3" d="M2209.66 1386.23c-0.63,-34.26 -1.27,-68.53 -2.83,-102.77 -1.64,-36.05 47.48,-41.51 62.04,-12.33 10.49,21.01 8.64,56.76 7.06,87.4 -0.64,12.35 -1.24,23.87 -0.96,33.25 0.62,21.52 2.21,43.78 3.81,66.32 4.04,56.74 8.21,115.36 -2.4,168.92 -5.16,26.03 -27.11,39.7 -41.72,25.52 -0.02,0.02 -0.04,0.06 -0.06,0.09 -5.5,8.1 -22.6,8.08 -35.21,8.07 -3.47,0 -6.6,-0.01 -9.05,0.16 -34.52,2.35 -68.41,6.31 -102.63,11.43 -68.18,10.23 -135.76,16.5 -204.68,18.21 -46.77,1.16 -93.59,1.55 -140.43,1.93 -89.69,0.75 -179.43,1.49 -268.84,7.63 -30.14,2.06 -59.82,5.62 -89.47,11.3 -2.53,0.48 -5.33,1.1 -8.31,1.76 -22.04,4.91 -53.96,12.01 -56.14,-18.8 -2.59,-36.58 76.67,-41.36 117.44,-43.82 6.23,-0.38 11.56,-0.7 15.56,-1.07 123.84,-11.52 249.62,-9.73 373.98,-7.98 6.02,0.08 12.05,0.17 18.07,0.26 9.7,0.13 19.4,0.29 29.1,0.45 53.25,0.88 106.43,1.75 159.66,-1.5 24.23,-1.48 48.76,-2.25 73.35,-3 39.23,-1.22 78.56,-2.44 116.93,-6.6 -5.79,-22.43 -6.8,-48.9 -7.75,-73.86 -0.37,-9.71 -0.74,-19.2 -1.37,-28.12 -3.37,-47.56 -4.25,-95.2 -5.14,-142.86z"/>
    <path id="Fill_x0020_199" class="fil4" d="M2313.8 1309.87c-17.38,2.36 -31.88,17.24 -24.12,36.11 9.77,23.76 38.89,14.47 58.12,12.96 61.13,-4.79 124.95,4.78 185.34,-2.44 16.49,-1.98 40.42,-10.96 25.61,-33.12 -11.13,-16.65 -51.69,-13.73 -68.93,-15.32 -58.96,-5.46 -117.14,-4 -176.03,1.81z"/>
    <path id="Fill_x0020_201" class="fil5" d="M2416.97 1413.52c-23.7,1.59 -78.89,0.34 -88.88,27.32 -17.92,48.39 52.27,31.34 73.64,28.58 24.83,-3.2 83.35,5.36 96.57,-18.71 23.64,-43.05 -60.54,-38.62 -81.33,-37.19z"/>
    <path id="Fill_x0020_203" class="fil4" d="M2356.01 1519.72c-11.25,11.25 -11.26,31.34 0,42.6 13.79,13.77 43.84,10.92 61.96,11.92 25.27,1.41 97.86,14.78 110.41,-14.98 16.94,-40.16 -48.8,-39.31 -70.42,-41.59 -24.98,-2.63 -81.23,-18.66 -101.94,2.06z"/>
    <path id="Fill_x0020_205" class="fil1" d="M1470.08 832.41c0,43.17 67.42,43.17 67.42,0 0,-42.94 -67.42,-43.59 -67.42,0z"/>
    <path id="Fill_x0020_207" class="fil1" d="M1597.96 832.9c0,49.35 76.8,49.25 76.8,0 0,-49.18 -76.8,-49.68 -76.8,0z"/>
    <path id="Fill_x0020_209" class="fil1" d="M1520.59 898.52c-37.32,10.31 -2.94,41.95 14.4,49.17 27.55,11.48 65.15,19.95 92.7,2.73 10.97,-6.86 19.86,-15.95 11.83,-29.25 -8.57,-14.16 -20.28,-7.86 -33.32,-6.56 -16.51,1.66 -29.85,1.41 -45.8,-3.89 -11.9,-3.95 -26.83,-15.76 -39.81,-12.19z"/>
    <path id="Fill_x0020_211" class="fil1" d="M2197.71 835.15c0,29.2 45.34,29.2 45.34,0 0,-29.2 -45.34,-29.2 -45.34,0z"/>
    <path id="Fill_x0020_213" class="fil1" d="M2297.98 839.54c0,32.44 50.36,32.45 50.36,0 0,-32.44 -50.36,-32.44 -50.36,0z"/>
    <path id="Fill_x0020_215" class="fil1" d="M2294.25 909.94c-26.46,3.42 -102.98,11.17 -107.26,43.78 -6.6,50.32 77.24,9.59 96.38,5.64 24.38,-5.03 46.14,-3.71 70.47,-2.74 13.36,0.53 31.13,2.7 29.73,-17.66 -2.29,-33.42 -66.19,-32 -89.32,-29.03z"/>
    <path id="Fill_x0020_217" class="fil3" d="M1629.04 1373.93c-19.18,5.12 -44.26,38.27 -31.07,58.56 21.64,33.28 31.17,-17.82 40.22,-22.74 16.48,-8.94 29.85,23.76 47.07,6.6 27.16,-27.07 -39.12,-47 -56.22,-42.43z"/>
    <path id="eye" class="fil6" d="M1848.77 1349.34c-22.74,0.21 -70.75,32.4 -74.15,56.17 -2.02,14.12 7.34,27.7 22.57,27.89 20.74,0.25 27.32,-26.71 45.3,-32.35 19.38,-6.08 16.51,7.93 33.25,15.18 12.25,5.32 27.58,3.09 31.84,-11.97 8.03,-28.42 -35.44,-55.38 -58.82,-54.93z"/>
    <path id="Fill_x0020_221" class="fil6" d="M1674.69 1485.46c-36.37,21.31 23.47,67 44.23,72.72 31.32,8.61 94.36,-7.48 101.8,-45.74 2.95,-15.23 -6.58,-29.02 -23.38,-26.29 -13.85,2.25 -22.72,19.6 -35.54,25.82 -17.3,8.38 -32.69,7.81 -47.38,-4.81 -11.98,-10.29 -18.39,-34.15 -39.73,-21.7z"/>
    <path id="Fill_x0020_223" class="fil5" d="M1701.06 1800.41c-32.5,6.93 -65.54,2.28 -98.19,8.8 -33.3,6.65 -53.2,19.23 -84.14,6.55 -1.46,-0.61 -2.91,-1.23 -4.36,-1.85 -23.95,-10.31 -49.05,-13.36 -74.1,3.08 -14.84,9.72 -59.87,43.37 -54.44,63.9 11.76,44.5 62.43,-25.29 75.35,-32.09 24.64,-12.97 41.53,3.6 66.89,8.27 30.38,5.6 54.83,-10.45 83.45,-16.85 33.47,-7.48 71.12,-10.08 105.18,-14.09 13.45,-1.58 64.4,9.06 69.01,-7.68 7.9,-28.77 -71.87,-20.76 -84.65,-18.06z"/>
    <path id="Fill_x0020_225" class="fil4" d="M1935.53 1890.05c2.13,1.6 0.42,0.31 0,0zm91.02 -91.38c27.83,-2.83 116.84,-22.7 135.12,6.05 11.91,18.73 -6.99,87.83 -25.01,96.78 -14.41,7.14 -47.95,-0.76 -63.76,-1.32 -29.41,-1.03 -58.88,-1.49 -88.26,-3.33 -9.85,-0.61 -41.55,1.2 -49.27,-7.52 -9.12,-10.29 -8.72,-65.18 -10.86,-78.8 25.57,8.28 75.3,-9.15 102.04,-11.86m59.41 -28.19c-35.63,1.55 -71.26,4.22 -106.62,9 -19.71,2.67 -39.69,9.75 -57.9,13.11 -5.87,1.08 -15.4,-1.93 -22.59,1.55 -21.03,10.16 -2.62,78.86 2.46,97.2 7.79,28.2 27.39,32.77 54.87,35.42 36.18,3.51 73.1,2.41 109.4,1.96 34.98,-0.43 82.16,7.32 101.79,-27.78 12.69,-22.7 26.3,-75.55 15.45,-100.85 -14.27,-33.29 -67.55,-30.85 -96.85,-29.62z"/>
    <path id="quare" class="fil1" d="M2484.98 1908.93c-1.91,2.44 -1.91,2.44 0,0zm7.81 -9.42c-0.59,0.9 -3.33,3.79 0,0zm-84.98 -2.59c15.71,-2.95 31.42,-5.87 47.14,-8.75 -14.89,20.84 -30.57,12.23 -56.01,10.42 2.96,-0.56 5.91,-1.11 8.86,-1.67m-74.94 -7.37c3.98,-1.33 7.97,-2.66 11.95,-3.99 -0.13,3.03 0.53,5.87 1.95,8.51 -6.82,-0.74 -13.62,-1.53 -20.43,-2.37 2.17,-0.72 4.36,-1.43 6.53,-2.15m-34.72 -25.65c-0.23,-5.46 8,-1.71 12.71,-2.08 -9.09,8 -13.33,8.7 -12.71,2.08m124.19 -62.02c1.2,-1.53 2.78,-1.45 4.75,0.23 -2.14,0.72 -10.43,4.23 -4.75,-0.23m80.54 -9.47c0.21,0 4.69,6.03 0,0zm-2.26 -1.98c1.17,0.9 1.17,0.9 0,0zm-10.06 -1.18c16.47,2.78 15.22,22.11 0,0zm-193.46 -1.31c-3.35,2.78 -2.2,0.08 0,0zm62.97 -41.14c-27.96,1.62 -79.28,-0.01 -102.62,14.88 -30.47,19.44 -14.43,86.37 -11.71,115.71 4.03,43.36 24.44,55.72 65.29,60.27 48.74,5.43 98.82,6.44 147.82,5.16 44.12,-1.16 69.25,-16.33 77.34,-62.79 2.48,-14.22 8.76,-36.21 8.56,-49.82 -0.13,-9.44 -4.84,-13.75 -6.63,-21.78 -10.12,-45.72 -27.07,-51.15 -73.94,-53.14 -34.49,-1.47 -70.25,-10.27 -104.1,-8.5z"/>
    <ellipse id="Ballsy_x0020_Ball" class="fil7" cx="1546.58" cy="2862.01" rx="760.94" ry="726.35"/>
    <path id="SKIN" class="fil8" d="M2729.6 2823.28c36.75,128.74 128.33,372.78 254.95,653.02l120.33 -35.11c-105.27,-644.87 -192.87,-1071.8 -243.06,-1201.75 -33.15,-85.85 -283.99,-75.79 -255.13,96.96 12.1,72.44 59.98,266.43 122.91,486.88zm-494.55 -456.75c-196.22,40.65 -603.05,184.36 -719.23,230.28 -73.01,28.85 -25.94,126.73 36.35,118.17 10.54,-1.45 47.87,-5.62 103.55,-11.85 178.85,-20.01 547.16,-61.21 826.51,-101.42 147.09,-21.17 67.96,-296.69 -84.76,-267.53 -51.38,9.81 -106.03,20.66 -162.42,32.35z"/>
    <path id="Leg_x0020_Back" class="fil9" d="M2869.52 2166.67c-20.06,-65.47 -931.98,-297.83 -931.98,-297.83l-74.73 0 0 69.64 628.39 319.89c-0.83,10.32 -0.33,21.23 1.7,32.74 -4.54,237.14 96.97,414.3 197.45,589.71 65.72,114.69 130.99,228.65 165.91,358.13l230.87 -34.44c-6.72,-17.2 -17.36,-94.75 -31.9,-200.78 -36.66,-267.35 -98.16,-715.78 -184.42,-834.42 -0.29,-0.42 -0.6,-0.83 -0.92,-1.24 -0.11,-0.46 -0.24,-0.93 -0.38,-1.39z"/>
    <path id="Leg_x0020_Front" class="fil10" d="M1915.02 2448.34c-57.5,-11.51 -110.45,-21.78 -155.74,-29.72 -292.66,-51.33 -377.99,-207.98 -327.53,-549.78l539.2 0c88.08,25.3 545.82,217.26 783.33,319.36 157.19,67.58 107.63,311.18 18.61,374.57 -0.48,3.89 -2.08,6.53 -4.94,7.71 -337.49,139.88 -625.28,129.44 -810.09,122.74 -77.41,-2.81 -136.74,-4.96 -174.1,4.86l-58.53 -184.64 189.8 -65.1z"/>
    <path id="shoe" class="fil11" d="M1577.48 2587.23c-0.46,-11.56 -10.21,-20.8 -21.71,-19.58 -20.99,2.23 -51.96,6.59 -67.03,13.95 -24.02,11.72 -66.22,42.2 -66.22,42.2 13.6,27.87 244.35,500.97 244.35,500.97 0,0 74.09,-11.96 58.71,-56.54 -15.37,-44.59 -24.79,-74.44 -24.79,-74.44l-9.77 -283.48c-0.19,-5.57 -4.94,-9.87 -10.5,-9.53l-43.61 2.74c0,0 -37.17,-30.09 -49.04,-54.44 -7.22,-14.82 -9.62,-42.49 -10.38,-61.87z"/>
    <path id="shoe_2" class="fil11" d="M2954.32 3413.29c-10.59,-4.65 -23.18,0.06 -27.13,10.94 -7.19,19.84 -16.85,49.59 -16.85,66.36 0,26.73 8.9,78.01 8.9,78.01 31.01,0 557.38,0 557.38,0 0,0 21.74,-71.83 -25.08,-77.56 -46.81,-5.72 -77.77,-10.34 -77.77,-10.34l-259.07 -115.5c-5.09,-2.27 -11.04,0.11 -13.16,5.26l-16.65 40.4c0,0 -43.33,20.22 -70.42,20.22 -16.49,0 -42.41,-9.99 -60.15,-17.8z"/>
    <path id="Shade" class="fil12" d="M1475.85 1938.01c19.89,-228.38 55.39,-443.82 114.09,-646.33 -12.87,216.57 -16.44,485.22 26.83,646.33l-140.92 0z"/>
    <path id="Fill_x0020_5" class="fil1" d="M2848.84 104.89c-12.41,12.39 -7.59,56.41 -7.85,72.71 -0.4,25.36 1.18,50.49 3.3,75.77 1.43,16.93 9.43,178.4 31.72,166 12.56,-6.99 4.69,-53.7 4.66,-68.48 -0.05,-32.85 -1.42,-65.61 -3.6,-98.38 -2.04,-30.43 -3.31,-60.5 -2.15,-90.99 0.29,-7.44 7.25,-90.01 -26.08,-56.62z"/>
    <path id="Fill_x0020_7" class="fil2" d="M3389.14 84.99c-106.58,0.84 -213.13,6.11 -319.66,9.32 -51.27,1.56 -102.5,3.53 -153.7,6.37 -17.45,0.97 -54.88,-4.63 -69.42,4.67 -32.27,20.64 19.78,25.47 33.65,24.96 210.84,-7.64 421.74,-17.72 632.75,-18.19 103.51,-0.23 206.97,2.72 310.5,2.06 39.57,-0.25 83.39,-17.31 93.38,28.76 11.28,51.97 -1.68,109.84 -5.2,162.07 -2.35,34.86 -1.52,69.01 0.05,103.85 1.01,22.31 -1.62,47.46 2.34,69.36 3.79,21.09 18.95,33.74 32.85,10.11 8.31,-14.12 4.17,-48.98 4.72,-65.33 0.74,-22.02 0.05,-44.04 0.05,-66.07 -0.01,-53.77 7.58,-107.32 6.58,-161.07 -0.65,-34.67 -2.49,-97.51 -46.21,-105.84 -48.15,-9.17 -107.32,0.05 -156.6,-0.51 -122.08,-1.4 -243.96,-5.48 -366.08,-4.53z"/>
    <path id="Fill_x0020_9" class="fil1" d="M3095.45 421.28c-40.19,0 -80.39,0.25 -120.58,0.91 -34.47,0.57 -88.65,-6.61 -120.73,5.72 -21.97,8.44 -27.8,32.96 0,39.5 30.31,7.12 75.99,-4.53 107.72,-5.09 159.04,-2.81 319.61,-6.47 478.43,3.6 148.82,9.42 300.5,18.56 449.53,8.61 12.54,-0.84 76.49,-3.38 47.31,-27.35 -17.02,-14 -86.03,-4.8 -108.15,-5.47 -78.04,-2.35 -156.16,-2.87 -234.17,-5.83 -77,-2.93 -153.66,-11.58 -230.69,-13.72 -89.48,-2.49 -179.16,-0.87 -268.68,-0.87z"/>
    <path id="face" class="fil1" d="M3055.23 192.69c62.64,2.74 124.62,93.58 61.24,137.48 -59.46,41.2 -170.9,-3.95 -137.83,-83.83 -4.76,11.54 6.02,-12.55 6.15,-12.71 6.28,-7.41 17.57,-15.61 25.32,-21.45 8.86,-6.69 18.1,-14.04 28.8,-17.39 7.02,-2.2 5.91,6.08 16.33,-2.1m-30.51 -32.77c-29.32,11.44 -42.7,24.35 -62.85,47.73 -13.93,16.17 -31.71,24.68 -31.55,46.53 0.03,4.84 6.25,10.15 7.32,14.82 1.48,6.44 -0.23,14.68 0.94,21.52 12.13,70.59 96.35,94.39 158,81.06 53.69,-11.61 93.86,-63.15 81.42,-119.21 -12.52,-56.43 -96.2,-114.77 -153.28,-92.44z"/>
    <path id="Fill_x0020_13" class="fil1" d="M2567.44 422.2c0,25.39 40.11,25.39 40.11,0 0,-25.11 -40.11,-26.19 -40.11,0z"/>
    <path id="Fill_x0020_15" class="fil2" d="M2617.63 417.06c0,20.18 31.86,20.18 31.86,0 0,-19.95 -31.86,-20.8 -31.86,0z"/>
    <path id="Fill_x0020_17" class="fil1" d="M2627.49 458.67c-10.21,3.92 -23.15,-4.21 -31.53,1.14 -14.84,9.51 0.04,18.1 7.99,21.91 35.82,17.19 42.18,-30.2 23.54,-23.06z"/>
    <path id="Fill_x0020_19" class="fil1" d="M3605.58 238.66c-1.06,0.45 -4.86,2.06 0,0zm-155.95 -22.79c-26.81,6.05 -49.44,31.09 -78.56,27.73 -22.31,-2.56 -37.42,-24.1 -59.46,-27.23 -28.18,-4 -104.89,60.28 -64.56,71.31 23.53,6.44 36.58,-36.56 57.36,-38.85 16.45,-1.81 38.81,18.36 55.84,21.23 31.79,5.36 53.62,-12.16 81.53,-23.45 30.32,-12.27 47.57,-1.22 73.94,12.42 20.82,10.76 40.43,17.77 64.24,13.33 22.35,-4.17 50.44,-27.16 72.93,-24.8 22.04,2.31 37.76,25.31 60.43,27.45 9.34,0.88 23.26,4.06 21.69,-10.35 -1.25,-11.55 -14.14,-9.59 -22.2,-13.79 -20.73,-10.8 -40.11,-29.91 -65.13,-28.29 -18.82,1.23 -35.94,14.45 -53.29,20.77 -56.79,20.71 -88.72,-40.07 -144.78,-27.5z"/>
    <path id="Fill_x0020_21" class="fil3" d="M3497.06 581.6c-109.54,1.01 -219.46,2.63 -328.69,11.41 -25.9,2.08 -290.34,27.05 -289.84,28.85 0.92,3.32 34.94,8.41 34.73,9.19 -2.29,-5.68 -7.53,-8.04 -15.72,-7.05 250.8,0 500.8,-22.46 751.94,-18.42 63.1,1.01 126.44,0.59 189.5,2.58 15.73,0.5 54.75,11.78 67.11,4.67 32.45,-18.65 -26.5,-20.8 -36.26,-21.58 -123.59,-9.89 -248.82,-10.88 -372.76,-9.65z"/>
    <path id="Fill_x0020_23" class="fil6" d="M2846.06 634.82c-16.38,16.42 -1.3,75.49 -0.65,97.69 0.94,32.1 0.16,64.42 2.98,96.43 3.22,36.57 8.21,75.53 17.8,111.01 5.28,19.54 23.84,50.6 31.18,15.09 5.25,-25.38 -2.72,-59.02 -5.49,-84.86 -3.7,-34.57 -4.61,-68.68 -4.74,-103.42 -0.13,-30.26 -0.71,-60.66 -3.2,-90.83 -1.28,-15.66 -9.17,-69.67 -37.88,-41.11z"/>
    <path id="Fill_x0020_25" class="fil6" d="M3258.09 935.64c-77.74,1.33 -155.64,3.17 -233.25,8.02 -31.81,2 -63.6,4.96 -95.28,8.32 -6.47,0.68 -78.04,3.59 -46.07,30.01 14.44,11.93 73.82,-4.57 93.44,-6.29 32.98,-2.89 65.96,-4.77 99.05,-6.17 76.65,-3.26 153.54,-6.13 230.27,-4.79 140.14,2.43 279.37,3.51 419.54,0.38 19.91,-0.44 175.93,3.73 181.23,-16.99 4.27,-16.7 -51.53,-9.04 -61.71,-8.74 -37.31,1.12 -74.63,0.86 -111.97,0.67 -158.16,-0.81 -317.23,-7.1 -475.26,-4.43z"/>
    <path id="Fill_x0020_27" class="fil3" d="M3880.6 607.12c2.47,69.21 14.25,138.35 18.02,207.77 1.72,31.74 3.75,63.44 5.3,95.19 0.51,10.25 -3.62,34.92 8.49,40.81 16.61,8.08 18.85,-8.2 21.96,-19.21 8.99,-31.81 2.9,-73.13 2.09,-105.8 -0.79,-31.63 -0.84,-63.34 -3.18,-94.92 -2.39,-32.26 -8.88,-63.92 -11.9,-96.07 -1.27,-13.6 3.19,-36.22 -11.25,-44.66 -12.48,-7.3 -30.08,1.9 -29.53,16.9z"/>
    <path id="face_2" class="fil3" d="M3116.52 722.25c0.29,0.23 0.58,0.46 0.88,0.69 -0.3,-0.23 -0.59,-0.46 -0.88,-0.69m-66.07 -20.5c24.63,7.03 44.86,4.42 68.4,22.35 19.51,14.87 39.52,36.63 45.99,60.67 14.95,55.54 -35.73,85.99 -83.24,86.59 -48.66,0.61 -120.7,-10.68 -118.21,-73.05 1.92,-47.92 36.92,-94.69 87.06,-96.55m1.74 -31.39c-63.88,3.18 -115.41,74.92 -114.86,135.3 0.67,73.19 83.59,92.05 142.5,92.55 66.48,0.57 132.78,-45.34 114.97,-120.1 -14.28,-59.9 -81.18,-110.94 -142.61,-107.75z"/>
    <path id="Fill_x0020_31" class="fil6" d="M2987.93 768.61c0,20.42 32.24,20.42 32.24,0 0,-20.16 -32.24,-21.03 -32.24,0z"/>
    <path id="Fill_x0020_33" class="fil3" d="M3055.56 759.66c0,20.57 32.5,20.57 32.5,0 0,-20.33 -32.5,-21.21 -32.5,0z"/>
    <path id="Fill_x0020_35" class="fil3" d="M3018.28 806.21c-20.98,20.95 52.74,57.68 70.13,28.54 14.28,-23.95 -16.82,-16.01 -27.84,-17.3 -11.98,-1.41 -32.52,-21 -42.29,-11.24z"/>
    <path id="Fill_x0020_37" class="fil3" d="M3607.74 760.08c-2.02,0.85 -2.02,0.85 0,0zm-276.87 -34.11c-21.25,3.98 -90.99,27.51 -91.93,52.72 -1.72,45.82 66.57,-1.11 81.41,-7.14 40.29,-16.37 61.46,17.03 101.94,18.79 35.15,1.53 67.47,-28.55 100.58,-25 34.7,3.73 51.39,40.64 91.43,21.05 21.19,-10.37 20.66,-26.35 -3.12,-27.86 -14.38,-0.91 -24.25,5.03 -39.25,-1.15 -23.44,-9.67 -32.88,-25.41 -60.93,-22.91 -21.17,1.89 -40.3,13.82 -60.96,18.44 -47.31,10.57 -73.55,-35.48 -119.17,-26.93z"/>
    <path id="point" class="fil3" d="M3770.96 779.98c-1.47,0.61 -1.47,0.61 0,0zm5.36 -19.08c0.23,0.1 1.83,2.32 0,0zm-24.36 -14.57c-0.92,0.71 -0.92,0.71 0,0zm0.53 -0.18c4.73,2.83 42.7,28.79 15.12,34.92 -14.01,3.1 -25.59,-25.07 -15.12,-34.92m-12.57 -28.77c-60.84,27.74 4.63,127 52.37,86.67 20.09,-16.97 22.73,-51.28 3.19,-68.96 -11.7,-10.59 -39.67,-24.98 -55.56,-17.71z"/>
    <path id="Fill_x0020_41_0" class="fil1" d="M3168.83 1108.56c-75.91,0.02 -152.49,-1.57 -228.31,2.93 -12.75,0.76 -61.35,-1.67 -67.93,11.66 -12.02,24.39 37.99,12.29 45.25,11.55 150.95,-15.11 308.63,-6.41 460.07,-2.1 123.86,3.52 247.06,5.7 370.78,12.09 32.52,1.67 65.01,3.52 97.5,5.49 10.6,0.64 37.25,7.66 39.48,-9.26 2.07,-15.66 -31.19,-12.12 -39.49,-12.56 -66.06,-3.48 -132.07,-7.12 -198.11,-10.84 -158.95,-8.96 -320.04,-9 -479.24,-8.97z"/>
    <path id="Fill_x0020_43_1" class="fil2" d="M2870.15 1135.68c-14.18,14.1 -7.53,67.92 -7.93,85.71 -0.69,31.11 -2.16,62.21 -2.82,93.31 -0.68,32.51 0.27,65.17 2.19,97.64 0.8,13.63 12,79.5 29.61,41.8 7.87,-16.85 -0.19,-63.77 -0.07,-82.86 0.22,-34.74 2.09,-69.33 3.82,-104.03 1.49,-29.82 1.54,-59.68 2.84,-89.51 0.41,-9.51 1.54,-71.33 -27.64,-42.06z"/>
    <path id="Fill_x0020_45_2" class="fil2" d="M3898.44 1413.59c-73.88,7.57 -148.95,4 -223.1,9.59 -63.91,4.82 -127.77,6.79 -191.85,8.15 -145.09,3.06 -290.44,6.05 -435.12,18.14 -32.97,2.75 -65.9,5.68 -98.97,7.15 -16.53,0.74 -85.91,-6.79 -91.08,10.64 -8.8,29.69 65.39,17.94 81.4,17.47 35.19,-1.01 70.22,-3.56 105.31,-6.23 147.53,-11.24 295.61,-14.6 443.45,-19.27 80.4,-2.54 160.24,-8.42 240.46,-13.77 39.99,-2.67 80.08,-2.76 120.06,-5.34 10.47,-0.68 47.5,0.65 55.02,-7.76 5.17,-5.78 6.48,-19.89 -5.58,-18.77z"/>
    <path id="Fill_x0020_47_3" class="fil1" d="M3873.39 1140.72c2.54,70.86 6.54,141.64 8.93,212.49 0.72,21.31 -5.72,59.49 6.15,78.28 19.08,30.21 33.97,-1.77 37.46,-20.59 11.03,-59.41 -0.82,-125.05 -3.91,-184.83 -1.17,-22.8 5.91,-73.56 -5.11,-93.98 -10.5,-19.44 -44.45,-17.49 -43.52,8.63z"/>
    <path id="hola_x0020_:_x0029__4" class="fil2" d="M3749.36 1241.64c28.31,7.66 32.44,69.2 0.5,73.75 -47.54,6.78 -26.75,-61.07 -0.5,-73.75m-7.93 -24.48c-8.64,-0.27 -28.56,-2.65 -33.88,4.38 -4.45,5.88 0.04,18.29 -0.47,23.89 -1.87,20.02 -18.15,31.58 -10.87,55.22 4.93,16.04 18.16,31.12 34.28,36.68 85.07,29.41 84.03,-134.96 10.94,-120.17z"/>
    <path id="Fill_x0020_51_5" class="fil2" d="M2973.41 1228.21c-0.21,0.27 -0.42,0.54 -0.63,0.81 0.21,-0.27 0.42,-0.55 0.63,-0.81m66.82 -35.55c-0.33,-2.85 -0.67,-5.7 -1,-8.54 46.13,21.77 82.83,62.27 67.51,116.63 -11.68,41.47 -53.9,56.18 -93.24,45.94 -43.54,-11.34 -64.35,-47.23 -52.61,-91.3 5.42,-20.33 22.06,-47.66 43.55,-54.19 10.01,-3.05 32.14,4.71 35.79,-8.54m-26.98 -17.22c-11.66,0.79 -23.02,5.64 -32.54,12.29 8.91,-7.54 20.79,-12.03 32.54,-12.29m0.34 -26.79c-28.82,0.88 -47.71,18.33 -64.8,39.28 -5.37,6.58 -23.51,24.01 -21.26,32.88 1.77,7.01 6.42,17.25 16.21,9.43 -51.25,102.14 81.15,189.27 161.97,118.23 75.43,-66.29 0.59,-202.93 -92.12,-199.83z"/>
    <path id="Fill_x0020_53_6" class="fil2" d="M2987.41 1243.54c0,13.6 21.11,13.6 21.11,0 0,-13.6 -21.11,-13.6 -21.11,0z"/>
    <path id="Fill_x0020_55_7" class="fil1" d="M3023.44 1245.86c0,13.83 21.45,13.83 21.45,0 0,-13.83 -21.45,-13.83 -21.45,0z"/>
    <path id="Fill_x0020_57_8" class="fil1" d="M3039.79 1294.41c-10.04,0.81 -46.77,-2.6 -53.23,6.19 -10.78,14.69 6.42,15.21 14.87,16.79 7.61,1.43 40.69,0.63 45.35,-6.14 4.12,-5.97 3.16,-17.71 -6.99,-16.84z"/>
    <path id="Fill_x0020_59_9" class="fil2" d="M3482.46 1256.3c-1.73,0.72 -1.73,0.72 0,0zm-138.82 -10.15c-22.62,1.66 -41.77,14.67 -63.4,19.86 -23.08,5.55 -33.07,-4.65 -54.06,-11.32 -21.83,-6.94 -37.36,-4.19 -54.91,10.71 -9.94,8.45 -31.76,27.9 -25.54,42.91 14.23,34.35 46.44,-21.54 61.59,-24.14 23.63,-4.06 44.66,16.61 71.92,10.7 24.69,-5.36 46.61,-22.31 72.4,-22.5 21.57,-0.16 41.9,11.65 63.19,14.5 32.51,4.36 53.86,-7.19 83.91,-15.75 26.06,-7.43 44.32,2.37 68.84,10.61 11.2,3.77 48.58,17.46 41.7,-7.37 -1.95,-7.02 -51.21,-19.56 -58.84,-21.96 -26.93,-8.51 -43.98,-5.2 -69.64,4.58 -21.39,8.16 -39.39,12.14 -62.32,7.65 -25.27,-4.95 -48.26,-20.51 -74.84,-18.49z"/>
    <path id="Fill_x0020_5_10" class="fil1" d="M63.14 336.58c-12.41,12.39 -7.59,56.41 -7.85,72.71 -0.4,25.37 1.18,50.49 3.3,75.77 1.43,16.92 9.43,178.39 31.72,165.99 12.56,-6.99 4.68,-53.7 4.66,-68.48 -0.05,-32.85 -1.42,-65.61 -3.6,-98.38 -2.04,-30.43 -3.31,-60.5 -2.15,-90.98 0.29,-7.44 7.25,-90.01 -26.08,-56.63z"/>
    <path id="Fill_x0020_7_11" class="fil2" d="M603.44 316.69c-106.58,0.84 -213.12,6.1 -319.66,9.32 -51.27,1.56 -102.5,3.53 -153.7,6.37 -17.45,0.97 -54.88,-4.62 -69.42,4.68 -32.28,20.64 19.77,25.47 33.65,24.96 210.84,-7.64 421.74,-17.72 632.76,-18.19 103.51,-0.23 206.97,2.72 310.5,2.06 39.57,-0.25 83.39,-17.3 93.38,28.76 11.28,51.97 -1.68,109.84 -5.21,162.07 -2.35,34.87 -1.52,69.01 0.06,103.85 1.01,22.31 -1.62,47.46 2.33,69.36 3.8,21.09 18.96,33.74 32.85,10.11 8.3,-14.12 4.17,-48.97 4.72,-65.33 0.74,-22.02 0.05,-44.04 0.05,-66.07 -0.01,-53.77 7.58,-107.32 6.58,-161.07 -0.65,-34.67 -2.48,-97.51 -46.2,-105.84 -48.15,-9.17 -107.33,0.05 -156.6,-0.51 -122.08,-1.4 -243.96,-5.48 -366.08,-4.53z"/>
    <path id="Fill_x0020_9_12" class="fil1" d="M309.75 652.98c-40.2,0 -80.39,0.25 -120.58,0.91 -34.47,0.57 -88.65,-6.61 -120.73,5.72 -21.97,8.44 -27.79,32.96 0,39.49 30.31,7.12 76,-4.53 107.72,-5.09 159.03,-2.81 319.61,-6.47 478.43,3.6 148.82,9.42 300.5,18.56 449.54,8.61 12.54,-0.84 76.49,-3.39 47.31,-27.36 -17.02,-14 -86.03,-4.8 -108.15,-5.47 -78.04,-2.35 -156.15,-2.87 -234.17,-5.83 -77,-2.93 -153.66,-11.58 -230.68,-13.72 -89.49,-2.49 -179.17,-0.87 -268.68,-0.87z"/>
    <path id="face_13" class="fil1" d="M269.54 424.39c62.64,2.74 124.62,93.58 61.24,137.48 -59.46,41.21 -170.9,-3.95 -137.83,-83.83 -4.76,11.55 6.01,-12.55 6.15,-12.71 6.29,-7.4 17.57,-15.61 25.33,-21.45 8.86,-6.69 18.1,-14.04 28.79,-17.39 7.02,-2.2 5.92,6.07 16.33,-2.1m-30.51 -32.77c-29.32,11.45 -42.69,24.35 -62.84,47.73 -13.94,16.17 -31.71,24.68 -31.55,46.53 0.03,4.83 6.25,10.15 7.32,14.81 1.49,6.44 -0.23,14.69 0.94,21.52 12.13,70.59 96.35,94.39 158,81.06 53.69,-11.61 93.86,-63.15 81.42,-119.21 -12.53,-56.43 -96.2,-114.77 -153.28,-92.44z"/>
    <path id="Fill_x0020_13_14" class="fil1" d="M212.91 490.16c0,25.39 40.11,25.39 40.11,0 0,-25.1 -40.11,-26.18 -40.11,0z"/>
    <path id="Fill_x0020_15_15" class="fil2" d="M263.1 485.02c0,20.18 31.86,20.18 31.86,0 0,-19.95 -31.86,-20.8 -31.86,0z"/>
    <path id="Fill_x0020_17_16" class="fil1" d="M272.97 526.63c-10.21,3.92 -23.15,-4.21 -31.53,1.14 -14.84,9.51 0.04,18.1 7.99,21.91 35.82,17.19 42.18,-30.2 23.55,-23.05z"/>
    <path id="Fill_x0020_19_17" class="fil1" d="M819.88 470.36c-1.07,0.45 -4.87,2.06 0,0zm-155.95 -22.8c-26.81,6.05 -49.44,31.09 -78.56,27.73 -22.31,-2.56 -37.42,-24.1 -59.46,-27.22 -28.18,-4.01 -104.88,60.28 -64.56,71.31 23.53,6.44 36.58,-36.56 57.37,-38.85 16.45,-1.81 38.81,18.36 55.84,21.24 31.78,5.35 53.62,-12.16 81.53,-23.45 30.32,-12.27 47.57,-1.21 73.94,12.42 20.82,10.76 40.42,17.77 64.23,13.33 22.35,-4.17 50.44,-27.16 72.94,-24.79 22.04,2.31 37.76,25.31 60.43,27.44 9.35,0.88 23.26,4.06 21.69,-10.35 -1.26,-11.55 -14.14,-9.59 -22.2,-13.79 -20.73,-10.8 -40.12,-29.91 -65.13,-28.29 -18.82,1.23 -35.95,14.45 -53.29,20.78 -56.79,20.71 -88.71,-40.07 -144.77,-27.51z"/>
    <path id="Fill_x0020_21_18" class="fil3" d="M711.37 813.29c-109.54,1.01 -219.46,2.63 -328.69,11.41 -25.91,2.08 -290.35,27.05 -289.84,28.85 0.92,3.32 34.94,8.41 34.73,9.19 -2.29,-5.68 -7.53,-8.04 -15.72,-7.05 250.8,0 500.81,-22.46 751.94,-18.42 63.1,1.01 126.44,0.59 189.5,2.58 15.73,0.5 54.74,11.78 67.11,4.67 32.45,-18.65 -26.5,-20.81 -36.26,-21.59 -123.59,-9.89 -248.82,-10.88 -372.76,-9.65z"/>
    <path id="Fill_x0020_23_19" class="fil6" d="M60.37 866.52c-16.38,16.42 -1.3,75.49 -0.65,97.69 0.94,32.1 0.17,64.42 2.98,96.43 3.22,36.57 8.21,75.54 17.79,111.01 5.29,19.54 23.84,50.6 31.19,15.09 5.25,-25.37 -2.72,-59.02 -5.5,-84.86 -3.7,-34.57 -4.61,-68.69 -4.74,-103.43 -0.13,-30.26 -0.71,-60.66 -3.19,-90.83 -1.29,-15.66 -9.17,-69.67 -37.88,-41.11z"/>
    <path id="Fill_x0020_25_20" class="fil6" d="M472.39 1167.34c-77.74,1.33 -155.64,3.17 -233.24,8.02 -31.81,2 -63.6,4.96 -95.28,8.32 -6.46,0.69 -78.04,3.59 -46.06,30.01 14.44,11.93 73.82,-4.57 93.44,-6.29 32.98,-2.88 65.96,-4.77 99.05,-6.17 76.65,-3.25 153.53,-6.13 230.27,-4.79 140.13,2.43 279.37,3.51 419.53,0.38 19.91,-0.44 175.94,3.73 181.24,-16.99 4.27,-16.7 -51.53,-9.04 -61.71,-8.74 -37.32,1.12 -74.64,0.86 -111.97,0.67 -158.16,-0.81 -317.22,-7.11 -475.26,-4.43z"/>
    <path id="Fill_x0020_27_21" class="fil3" d="M1094.91 838.82c2.47,69.21 14.25,138.34 18.02,207.77 1.72,31.74 3.75,63.44 5.3,95.19 0.51,10.25 -3.62,34.92 8.49,40.81 16.61,8.08 18.85,-8.2 21.96,-19.21 8.99,-31.81 2.9,-73.13 2.09,-105.8 -0.79,-31.63 -0.85,-63.34 -3.18,-94.92 -2.39,-32.26 -8.88,-63.92 -11.9,-96.07 -1.27,-13.6 3.19,-36.22 -11.25,-44.66 -12.48,-7.3 -30.08,1.9 -29.53,16.9z"/>
    <path id="face_2_22" class="fil3" d="M330.82 953.95c0.29,0.23 0.59,0.46 0.89,0.68 -0.3,-0.23 -0.59,-0.46 -0.89,-0.68m-66.06 -20.51c24.63,7.03 44.86,4.42 68.4,22.35 19.51,14.88 39.52,36.63 45.99,60.67 14.95,55.54 -35.73,85.99 -83.24,86.59 -48.67,0.61 -120.7,-10.68 -118.21,-73.05 1.92,-47.92 36.91,-94.69 87.06,-96.55m1.73 -31.39c-63.88,3.18 -115.41,74.92 -114.86,135.3 0.67,73.19 83.6,92.04 142.51,92.55 66.48,0.57 132.77,-45.33 114.97,-120.1 -14.28,-59.9 -81.19,-110.94 -142.61,-107.75z"/>
    <path id="Fill_x0020_31_23" class="fil6" d="M202.23 1000.31c0,20.42 32.24,20.42 32.24,0 0,-20.17 -32.24,-21.04 -32.24,0z"/>
    <path id="Fill_x0020_33_24" class="fil3" d="M269.86 991.36c0,20.57 32.51,20.57 32.51,0 0,-20.33 -32.51,-21.21 -32.51,0z"/>
    <path id="Fill_x0020_35_25" class="fil3" d="M232.58 1037.91c-20.98,20.95 52.74,57.68 70.13,28.54 14.28,-23.95 -16.82,-16.01 -27.84,-17.3 -11.98,-1.41 -32.52,-21 -42.29,-11.24z"/>
    <path id="Fill_x0020_37_26" class="fil3" d="M822.04 991.78c-2.02,0.85 -2.02,0.85 0,0zm-276.87 -34.11c-21.25,3.98 -90.99,27.51 -91.93,52.72 -1.72,45.82 66.58,-1.11 81.41,-7.14 40.28,-16.37 61.46,17.03 101.93,18.79 35.15,1.53 67.47,-28.56 100.58,-25 34.7,3.73 51.39,40.63 91.43,21.04 21.19,-10.36 20.66,-26.35 -3.12,-27.86 -14.38,-0.91 -24.25,5.03 -39.25,-1.15 -23.44,-9.67 -32.88,-25.41 -60.93,-22.91 -21.17,1.89 -40.3,13.82 -60.96,18.44 -47.31,10.57 -73.55,-35.48 -119.16,-26.94z"/>
    <path id="point_27" class="fil3" d="M985.26 1011.68c-1.47,0.61 -1.47,0.61 0,0zm5.36 -19.08c0.24,0.1 1.84,2.32 0,0zm-24.36 -14.57c-0.91,0.71 -0.91,0.71 0,0zm0.53 -0.18c4.72,2.83 42.7,28.8 15.12,34.92 -14.01,3.1 -25.59,-25.07 -15.12,-34.92m-12.57 -28.77c-60.83,27.74 4.63,127 52.37,86.68 20.09,-16.98 22.73,-51.28 3.19,-68.96 -11.7,-10.59 -39.67,-24.98 -55.56,-17.72z"/>
    <path id="Fill_x0020_41_28" class="fil1" d="M383.13 1340.25c-75.92,0.02 -152.5,-1.57 -228.31,2.93 -12.75,0.76 -61.36,-1.67 -67.93,11.67 -12.02,24.39 37.99,12.29 45.25,11.55 150.95,-15.11 308.63,-6.42 460.07,-2.1 123.86,3.51 247.06,5.7 370.78,12.09 32.52,1.67 65.01,3.52 97.5,5.49 10.59,0.64 37.25,7.66 39.48,-9.26 2.07,-15.66 -31.19,-12.12 -39.49,-12.56 -66.06,-3.48 -132.07,-7.12 -198.11,-10.84 -158.95,-8.96 -320.04,-9 -479.24,-8.97z"/>
    <path id="Fill_x0020_43_29" class="fil2" d="M84.45 1367.38c-14.17,14.09 -7.53,67.92 -7.93,85.7 -0.69,31.12 -2.16,62.21 -2.82,93.31 -0.69,32.51 0.27,65.17 2.19,97.64 0.8,13.63 12,79.51 29.61,41.8 7.87,-16.85 -0.19,-63.77 -0.07,-82.86 0.22,-34.73 2.09,-69.33 3.82,-104.03 1.49,-29.82 1.55,-59.68 2.85,-89.51 0.41,-9.51 1.54,-71.33 -27.65,-42.06z"/>
    <path id="Fill_x0020_45_30" class="fil2" d="M1112.74 1645.29c-73.88,7.57 -148.95,4 -223.11,9.59 -63.91,4.82 -127.77,6.79 -191.84,8.15 -145.09,3.06 -290.45,6.05 -435.13,18.14 -32.97,2.75 -65.9,5.68 -98.96,7.16 -16.53,0.73 -85.92,-6.79 -91.08,10.64 -8.8,29.69 65.39,17.94 81.4,17.47 35.19,-1.01 70.22,-3.56 105.31,-6.23 147.53,-11.24 295.61,-14.6 443.45,-19.27 80.4,-2.54 160.24,-8.42 240.46,-13.77 39.99,-2.66 80.08,-2.76 120.06,-5.34 10.47,-0.68 47.5,0.65 55.02,-7.77 5.16,-5.78 6.47,-19.89 -5.58,-18.77z"/>
    <path id="Fill_x0020_47_31" class="fil1" d="M1087.7 1372.42c2.53,70.85 6.54,141.64 8.93,212.49 0.72,21.31 -5.72,59.49 6.14,78.29 19.08,30.21 33.97,-1.77 37.46,-20.6 11.03,-59.41 -0.82,-125.04 -3.91,-184.83 -1.17,-22.8 5.91,-73.56 -5.11,-93.98 -10.5,-19.44 -44.45,-17.49 -43.52,8.64z"/>
    <path id="hola_x0020_:_x0029__32" class="fil2" d="M963.66 1473.34c28.31,7.67 32.44,69.2 0.51,73.75 -47.54,6.78 -26.75,-61.07 -0.51,-73.75m-7.93 -24.48c-8.63,-0.27 -28.56,-2.65 -33.88,4.38 -4.45,5.88 0.04,18.29 -0.48,23.89 -1.87,20.02 -18.15,31.58 -10.87,55.22 4.94,16.04 18.16,31.11 34.28,36.68 85.07,29.4 84.04,-134.96 10.94,-120.18z"/>
    <path id="Fill_x0020_51_33" class="fil2" d="M187.72 1459.9c-0.21,0.27 -0.42,0.54 -0.63,0.82 0.21,-0.28 0.42,-0.55 0.63,-0.82m66.82 -35.55c-0.33,-2.85 -0.67,-5.7 -1,-8.54 46.13,21.77 82.82,62.27 67.5,116.63 -11.68,41.47 -53.9,56.18 -93.24,45.94 -43.54,-11.34 -64.34,-47.23 -52.61,-91.3 5.42,-20.33 22.05,-47.66 43.55,-54.19 10.01,-3.04 32.14,4.71 35.8,-8.54m-26.98 -17.22c-11.66,0.79 -23.02,5.65 -32.54,12.3 8.91,-7.54 20.79,-12.03 32.54,-12.3m0.34 -26.79c-28.82,0.88 -47.71,18.33 -64.8,39.28 -5.37,6.58 -23.51,24.02 -21.26,32.88 1.77,7.01 6.42,17.25 16.21,9.43 -51.25,102.14 81.15,189.27 161.97,118.23 75.43,-66.29 0.59,-202.93 -92.12,-199.83z"/>
    <path id="Fill_x0020_53_34" class="fil2" d="M201.71 1475.24c0,13.6 21.11,13.6 21.11,0 0,-13.61 -21.11,-13.61 -21.11,0z"/>
    <path id="Fill_x0020_55_35" class="fil1" d="M237.74 1477.56c0,13.83 21.45,13.83 21.45,0 0,-13.83 -21.45,-13.83 -21.45,0z"/>
    <path id="Fill_x0020_57_36" class="fil1" d="M254.09 1526.1c-10.03,0.81 -46.77,-2.6 -53.22,6.19 -10.78,14.69 6.42,15.21 14.86,16.8 7.61,1.43 40.69,0.62 45.35,-6.14 4.12,-5.97 3.16,-17.71 -6.99,-16.84z"/>
    <path id="Fill_x0020_59_37" class="fil2" d="M696.77 1488c-1.73,0.72 -1.73,0.72 0,0zm-138.82 -10.15c-22.62,1.66 -41.77,14.67 -63.4,19.86 -23.08,5.54 -33.07,-4.65 -54.07,-11.32 -21.83,-6.94 -37.36,-4.19 -54.91,10.71 -9.94,8.45 -31.76,27.9 -25.54,42.91 14.23,34.35 46.44,-21.54 61.59,-24.14 23.63,-4.06 44.66,16.61 71.92,10.7 24.69,-5.36 46.6,-22.31 72.4,-22.5 21.57,-0.16 41.9,11.65 63.19,14.5 32.51,4.36 53.86,-7.19 83.91,-15.75 26.06,-7.43 44.32,2.36 68.84,10.61 11.2,3.76 48.58,17.45 41.7,-7.37 -1.95,-7.02 -51.21,-19.56 -58.84,-21.97 -26.93,-8.51 -43.98,-5.2 -69.64,4.58 -21.39,8.16 -39.39,12.14 -62.32,7.65 -25.28,-4.95 -48.26,-20.51 -74.84,-18.49z"/>
    <g id="_1882765545008">
     <path id="SKIN_38" class="fil13" d="M2867.42 1099.81l-358.85 269.8 167.53 126.2 245.1 -296.89c143.45,-63.98 207.37,-104.16 191.73,-120.52 -13.18,-13.8 -30.47,-10.45 -46.39,-7.37 -12.41,2.4 -23.98,4.65 -32.15,-1.5 -18.64,-14.04 2.99,-77.17 26.14,-136.27 23.16,-59.1 -9.83,-48.95 -27.89,-38.07 -56.71,51.42 -111.78,119.62 -165.22,204.62zm-1731.38 707.75l-237.69 13.19c-56.43,429.16 -94.77,666.17 -115.01,711.06 -14.85,32.92 -131.03,137.14 -212.19,197.57 -32.58,24.25 -17.38,51.92 -4.36,58.73 82.17,42.98 139.49,6.44 201.89,-33.33 18.06,-11.52 36.55,-23.3 56.19,-33.51 50.84,-26.41 73.97,-3.73 95.83,17.72 19.36,18.98 37.71,36.98 73.42,19.07 -3.5,-6.72 -7.61,-14.21 -12.05,-22.29 -28.68,-52.23 -70.99,-129.27 -50.67,-185.21 10.43,-28.71 78.65,-276.38 204.64,-743z"/>
     <path id="Coat_x0020_Back" class="fil14" d="M1537.92 792.49l91.79 -39.69c257.12,142.93 458.97,590 613.4,617.34 146,25.85 318.12,-77.3 520.41,-209.08l104.18 129.07c-148.86,259.86 -533.22,543.87 -732.14,486.04 -318.04,-92.46 -526.14,-654.04 -597.64,-983.67z"/>
     <g>
      <path class="fil8" d="M1455.38 193.87c30.44,14.86 60.5,29.38 85.09,60.18 5.03,6.3 55.02,26.55 48.16,43.54 1.44,8.27 3.64,18.53 12.96,19.98 20.24,2.72 40.73,4.01 60.73,8.15 31.91,6.61 37.62,22.37 27.31,39.07 -5.82,9.18 -15.74,18.59 -6.9,22.96 22.94,8.51 27.48,22.37 15.14,41.67 14.99,0.96 24.35,6.09 20.31,21.15 -0.84,21.09 8.39,29.91 29.18,24.65 33.97,23.18 28.9,59.4 0.79,83.8 -22.52,19.55 -50.75,44.28 -64.88,62.71 -24.6,71.44 -16.88,139.83 -2.68,156.69 -86.45,16.67 -164.17,35.18 -250.62,51.85 -5.37,-32.32 -19.58,-120.68 -52.97,-152.54 -87.24,-51.07 -165.81,-119.31 -234.55,-207.02 -31.13,-95.17 -27.51,-173.1 24.41,-227.06 71.61,-78.74 194.71,-108.64 288.52,-49.77z"/>
      <path class="fil15" d="M1503.06 478.08c-15.4,-12.9 -30.8,-25.79 -46.21,-38.69 -10.36,-24.21 -17.01,-47.84 -7.72,-68.93 26.14,-44.97 8.67,-77.91 -21.98,-107.21 -17.58,-48.4 7.27,-58.45 57.73,-45.35 12.04,3.64 16.88,5.34 28.92,8.97 7.43,-48.2 55.04,-96.13 -75.21,-137.39 -44.46,-4 -85.23,6.23 -120.32,38.41 -31.1,19.64 -73.28,36.56 -127.41,64.12 -35.82,34.36 -83.03,51.13 -86.53,135.31 -2.17,60.38 9.81,111.58 32.42,155.89 12.4,32.81 78.11,95.95 246.71,217.62 31.82,9.28 47.73,3.43 24.48,-39.63 -15.64,-26.83 -31.27,-53.66 -46.9,-80.49 -79.26,-133.58 173.91,-129.15 164.48,39.9 82.7,0.55 176.1,-21.04 218.76,-54.05 41.89,-32.41 37.19,-64.97 8.38,-96.52 -5.07,-0.02 -24.92,3.54 -33.87,-24.25 -4.28,26.29 5.26,35.45 16.74,30.4 2.5,4.42 -3.26,11.71 -7.73,9.97 -23.6,-9.45 -38.06,-34.41 -35.01,-61.13 1.94,-10.06 2.82,-20.75 9.76,-24.15 -7.46,-9.91 -13.36,-16.1 -23.58,-18.05 -16.65,38.3 1.83,67.83 18.92,106.55 -32.93,17.43 -63.63,29.79 -116.73,21.55 -25.48,-13.51 -52.6,-19.36 -78.08,-32.88z"/>
     </g>
     <path id="Shirt" class="fil16" d="M1409.63 2055.89c0,0 575.81,-143.56 847.09,-211.2 38.72,-9.66 17.99,-61.69 5.61,-87.48 -142.77,-297.56 -479.17,-572.82 -590.5,-1019.32l-253.54 24c-124.01,363.61 -97.75,766.67 -8.67,1294z"/>
     <path id="Coat_x0020_Front" class="fil17" d="M1405.32 765.13l-2.79 0.69c-466.91,462.09 -672.35,1049.16 -616.3,1761.2l185.91 -10.76c84.69,-161.38 175.97,-413.66 273.82,-756.88 -7.9,194.02 -0.34,389.11 31.32,567.48l762.52 -190.12c57.99,-396.29 -540.52,-1395.05 -540.52,-1395.05l-52.64 13.13 -41.31 10.3z"/>
    </g>
   </g>
  </g>
  <polygon class="fil18 str0" points="4.04,4.04 4044.22,4.04 4044.22,3721.01 4.04,3721.01 "/>
 </g>
</svg>
