<?xml version="1.0" encoding="UTF-8"?>
<!DOCTYPE svg PUBLIC "-//W3C//DTD SVG 1.1//EN" "http://www.w3.org/Graphics/SVG/1.1/DTD/svg11.dtd">
<!-- Creator: CorelDRAW 2020 (64-Bit Evaluation Version) -->
<svg xmlns="http://www.w3.org/2000/svg" xml:space="preserve" width="100.2mm" height="92.2mm" version="1.1" style="shape-rendering:geometricPrecision; text-rendering:geometricPrecision; image-rendering:optimizeQuality; fill-rule:evenodd; clip-rule:evenodd"
viewBox="0 0 3737.25 3438.86"
 xmlns:xlink="http://www.w3.org/1999/xlink"
 xmlns:xodm="http://www.corel.com/coreldraw/odm/2003">
 <defs>
  <style type="text/css">
   <![CDATA[
    .str0 {stroke:white;stroke-width:7.46;stroke-miterlimit:22.9256}
    .fil16 {fill:none}
    .fil14 {fill:#003333}
    .fil9 {fill:#191847}
    .fil10 {fill:#393F82}
    .fil0 {fill:#B9FFE7}
    .fil12 {fill:#C21B15}
    .fil8 {fill:#CC9933}
    .fil11 {fill:#E4E4E4}
    .fil15 {fill:#FF4133}
    .fil7 {fill:#C5CFD6;fill-rule:nonzero}
    .fil13 {fill:black;fill-opacity:0.101961}
    .fil3 {fill:#56919C;fill-opacity:0.250980}
    .fil1 {fill:#89C5CC;fill-opacity:0.250980}
    .fil5 {fill:#C1DEE2;fill-opacity:0.250980}
    .fil6 {fill:#56919C;fill-opacity:0.501961}
    .fil2 {fill:#89C5CC;fill-opacity:0.501961}
    .fil4 {fill:#C1DEE2;fill-opacity:0.501961}
   ]]>
  </style>
   <clipPath id="id0">
    <path d="M3.73 3.73l3729.79 0 0 3431.4 -3729.79 0 0 -3431.4z"/>
   </clipPath>
 </defs>
 <g id="Layer_x0020_1">
  <metadata id="CorelCorpID_0Corel-Layer"/>
  <g>
  </g>
  <g style="clip-path:url(#id0)">
   <g>
    <path id="Background_x0020_Shape" class="fil0" d="M150.66 2166.56c78.66,-766.11 874.64,-329.66 1396.47,-566.51 521.83,-236.84 1139.21,-1339.86 1547.79,-799.54 408.58,540.31 -26.15,1846.41 -963.27,2141.14 -937.12,294.74 -2059.66,-9 -1980.99,-775.09z"/>
    <path id="Fill_x0020_41" class="fil1" d="M1571.02 146.05c-70.08,0.02 -140.78,-1.45 -210.77,2.7 -11.77,0.69 -56.64,-1.54 -62.72,10.77 -11.1,22.52 35.07,11.34 41.77,10.67 139.36,-13.96 284.92,-5.92 424.73,-1.94 114.35,3.24 228.08,5.26 342.29,11.16 30.02,1.54 60.01,3.25 90.01,5.07 9.78,0.59 34.38,7.07 36.45,-8.55 1.91,-14.45 -28.79,-11.18 -36.46,-11.59 -60.98,-3.21 -121.92,-6.57 -182.89,-10 -146.73,-8.27 -295.46,-8.31 -442.42,-8.28z"/>
    <path id="Fill_x0020_43" class="fil2" d="M1295.29 171.09c-13.08,13.01 -6.95,62.7 -7.32,79.12 -0.63,28.73 -1.99,57.43 -2.6,86.14 -0.63,30.01 0.24,60.17 2.01,90.13 0.74,12.58 11.08,73.4 27.34,38.6 7.27,-15.55 -0.18,-58.87 -0.06,-76.49 0.21,-32.07 1.93,-64 3.52,-96.03 1.38,-27.53 1.42,-55.09 2.63,-82.63 0.38,-8.78 1.42,-65.85 -25.53,-38.83z"/>
    <path id="Fill_x0020_45" class="fil2" d="M2244.59 427.65c-68.21,6.99 -137.51,3.7 -205.97,8.85 -59,4.45 -117.95,6.27 -177.11,7.53 -133.95,2.82 -268.14,5.58 -401.7,16.74 -30.44,2.54 -60.84,5.24 -91.36,6.61 -15.26,0.68 -79.32,-6.27 -84.08,9.82 -8.12,27.41 60.37,16.56 75.14,16.13 32.49,-0.93 64.83,-3.29 97.22,-5.76 136.19,-10.37 272.89,-13.48 409.38,-17.78 74.22,-2.35 147.93,-7.78 221.99,-12.71 36.92,-2.46 73.93,-2.54 110.84,-4.93 9.66,-0.63 43.85,0.6 50.8,-7.17 4.77,-5.33 5.98,-18.36 -5.15,-17.33z"/>
    <path id="Fill_x0020_47" class="fil1" d="M2221.47 175.75c2.34,65.41 6.03,130.76 8.24,196.17 0.66,19.67 -5.28,54.91 5.67,72.26 17.61,27.89 31.36,-1.63 34.58,-19.01 10.18,-54.85 -0.76,-115.44 -3.61,-170.64 -1.08,-21.05 5.46,-67.91 -4.72,-86.75 -9.69,-17.95 -41.04,-16.14 -40.17,7.97z"/>
    <path id="hola_x0020_:_x0029_" class="fil2" d="M2106.95 268.91c26.14,7.08 29.95,63.88 0.47,68.08 -43.88,6.25 -24.69,-56.38 -0.47,-68.08m-7.31 -22.6c-7.97,-0.25 -26.37,-2.45 -31.27,4.04 -4.11,5.43 0.04,16.88 -0.44,22.05 -1.72,18.48 -16.75,29.16 -10.04,50.98 4.56,14.81 16.77,28.73 31.66,33.86 78.53,27.15 77.57,-124.59 10.1,-110.94z"/>
    <path id="Fill_x0020_51" class="fil2" d="M1390.63 256.51c-0.2,0.25 -0.4,0.5 -0.59,0.76 0.19,-0.26 0.39,-0.51 0.59,-0.76m61.68 -32.81c-0.31,-2.63 -0.62,-5.26 -0.92,-7.89 42.58,20.1 76.46,57.49 62.32,107.67 -10.78,38.29 -49.76,51.87 -86.08,42.42 -40.19,-10.47 -59.4,-43.6 -48.57,-84.28 5,-18.77 20.36,-44 40.2,-50.04 9.24,-2.8 29.67,4.36 33.04,-7.88m-24.9 -15.9c-10.77,0.73 -21.25,5.21 -30.04,11.35 8.23,-6.97 19.19,-11.1 30.04,-11.35m0.31 -24.73c-26.6,0.82 -44.05,16.93 -59.82,36.26 -4.95,6.07 -21.7,22.17 -19.63,30.35 1.64,6.47 5.93,15.93 14.96,8.71 -47.31,94.29 74.92,174.72 149.53,109.15 69.64,-61.2 0.54,-187.35 -85.04,-184.48z"/>
    <path id="Fill_x0020_53" class="fil2" d="M1403.55 270.67c0,12.55 19.49,12.55 19.49,0 0,-12.56 -19.49,-12.56 -19.49,0z"/>
    <path id="Fill_x0020_55" class="fil1" d="M1436.81 272.81c0,12.76 19.8,12.76 19.8,0 0,-12.77 -19.8,-12.77 -19.8,0z"/>
    <path id="Fill_x0020_57" class="fil1" d="M1451.9 317.62c-9.27,0.75 -43.18,-2.39 -49.14,5.72 -9.95,13.57 5.93,14.04 13.73,15.5 7.03,1.32 37.57,0.57 41.87,-5.67 3.81,-5.51 2.91,-16.36 -6.46,-15.55z"/>
    <path id="Fill_x0020_59" class="fil2" d="M1860.56 282.45c-1.59,0.66 -1.59,0.66 0,0zm-128.16 -9.37c-20.88,1.54 -38.56,13.54 -58.53,18.34 -21.3,5.12 -30.53,-4.29 -49.91,-10.45 -20.15,-6.4 -34.49,-3.87 -50.69,9.89 -9.18,7.8 -29.32,25.75 -23.58,39.61 13.14,31.71 42.87,-19.88 56.86,-22.29 21.81,-3.74 41.23,15.34 66.39,9.88 22.8,-4.95 43.02,-20.6 66.83,-20.77 19.91,-0.15 38.68,10.76 58.34,13.39 30.01,4.02 49.72,-6.63 77.46,-14.54 24.06,-6.86 40.92,2.19 63.55,9.8 10.34,3.47 44.85,16.11 38.5,-6.81 -1.79,-6.47 -47.27,-18.06 -54.32,-20.28 -24.86,-7.85 -40.6,-4.8 -64.28,4.23 -19.75,7.54 -36.36,11.21 -57.54,7.07 -23.34,-4.57 -44.55,-18.93 -69.09,-17.07z"/>
    <path id="Fill_x0020_173" class="fil1" d="M1583.38 638.87c-61.34,0.69 -122.65,2.96 -183.87,6.83 -58.21,3.69 -121.38,0.88 -178.65,12.17 -16.27,3.21 -38.23,18.03 -16.61,34.33 15.2,11.46 70.8,-1.72 88.95,-2.85 66.83,-4.1 133.71,-9.02 200.64,-11.38 63.36,-2.24 126.73,-3.03 190.12,-3.66 9.68,-0.09 25.74,-3.2 35.38,-0.39 13.84,4.04 10.57,5.14 11.6,22.71 1.88,31.85 1.37,63.82 0.73,95.7 -0.61,30.85 -1.75,61.69 -1.64,92.56 0.08,22.02 -6.96,65.77 4.08,84.9 15.92,27.53 32.4,-2.37 33.59,-20.66 2.28,-34.99 1.26,-70.4 1.27,-105.43 0.01,-32.87 0.25,-65.76 -0.91,-98.62 -0.84,-23.74 2.55,-65.18 -10.23,-86.76 -13.03,-21.98 -44.38,-17.25 -67.27,-18.29 -35.7,-1.64 -71.46,-1.53 -107.18,-1.16z"/>
    <path id="Fill_x0020_171" class="fil1" d="M1193.11 678.55c0.06,61.77 -7.08,123.14 -9.09,184.84 -0.92,28.38 -2.78,59.53 4.4,87.38 7.25,28.12 30.25,34.22 32.91,2.82 5.37,-63.56 4.05,-129.49 8.22,-193.57 1.48,-22.62 11.08,-64.08 2.12,-85.27 -7.89,-18.66 -38.6,-22.24 -38.56,3.8z"/>
    <path id="Fill_x0020_175" class="fil2" d="M1768.31 950.85c-106.53,14.11 -217.89,8.97 -325.19,11.19 -51.47,1.06 -102.93,1.13 -154.41,1.67 -17.97,0.18 -63.59,-6.65 -79.13,3.45 -24.75,16.08 2.09,28.49 18.48,28.85 101.59,2.22 204.32,-2.45 305.88,-5.78 45.63,-1.5 91.42,-2.23 136.94,-6.11 28.02,-2.39 58.64,-4.71 85.84,-12.24 5.8,-1.61 18.43,-1.28 19.72,-9.18 0.8,-4.88 -0.65,-12.86 -8.14,-11.84z"/>
    <path id="Fill_x0020_177" class="fil1" d="M1325.33 1040.66c-29.6,0.18 -118.82,-13.58 -131.09,15.29 -16.34,38.51 47.42,29.52 64.58,29.07 38.95,-0.99 77.87,-1.11 116.84,-1.09 38.23,0.01 76.46,-0.23 114.68,-1.15 11.07,-0.26 36.85,4.33 43.23,-9 4.84,-10.13 1.01,-18.12 -7.92,-23.49 -21.49,-12.91 -77.3,-5.43 -102.45,-6.59 -32.57,-1.49 -65.25,-3.05 -97.86,-3.05z"/>
    <path id="Fill_x0020_179" class="fil2" d="M1685.53 1047.78c-16.92,1.01 -51.15,-5.97 -66.31,1.78 -17.22,8.8 -11.15,22.58 3.72,28.64 10.3,4.19 52.56,1.99 62.59,-2.86 10.45,-5.07 22.28,-28.92 0,-27.56z"/>
    <path id="Fill_x0020_181" class="fil2" d="M1871.03 684.61c-18.07,4.96 -12.59,107.55 -13.05,123.81 -1.27,44.56 -6.28,100.61 8.52,143.53 9.44,27.36 27.58,23.64 24.49,-5.15 -2.71,-25.28 -7.37,-50.27 -9.39,-75.71 -4.55,-57.57 -10.75,-118.99 -6.45,-176.61 1.84,3.35 18.98,34.41 23.01,32.08 -1.22,0.73 -19.77,-43.88 -27.12,-41.94z"/>
    <path id="Fill_x0020_183" class="fil1" d="M2074.31 646.82c-36.57,0.55 -73.14,1.2 -109.7,2.21 -29.07,0.81 -74.76,-3.96 -101.41,8.27 -31.74,14.55 -16.69,47 13.13,47.67 26.38,0.62 54.51,-5.33 81.12,-6.24 71.89,-2.47 143.91,-2.98 215.83,-3.61 65.05,-0.56 132.86,6.38 197.34,-3.39 9.56,84.92 -16.31,170.21 -7.51,256.1 1.37,13.33 0.76,32.17 17.74,35.21 21.43,3.84 22.32,-17.39 23.12,-32.59 2.32,-43.39 1.06,-86.82 4.24,-130.26 2.94,-40.27 8.74,-81.42 3.84,-121.75 -6.02,-49.62 -29.8,-45.65 -71.84,-47.71 -88.79,-4.36 -177.02,-5.21 -265.9,-3.91z"/>
    <path id="Fill_x0020_185" class="fil1" d="M1951.75 948.37c-18.64,0.47 -49.59,-5.28 -61.53,12.59 -12.42,18.6 2.31,34.81 20.38,38.63 21.39,4.52 49.27,-1.67 71.46,-1.74 23.12,-0.08 46.23,0.19 69.34,0.27 99.09,0.39 198.6,1.89 297.61,-2.2 13.83,-0.58 53.08,4.06 62.64,-9.21 8.5,-11.76 2.56,-22.31 -8.63,-28.3 -18.35,-9.84 -56.04,-6.1 -76.45,-6.87 -25.21,-0.96 -50.45,-1.27 -75.67,-1.67 -99.55,-1.54 -199.62,-3.97 -299.16,-1.5z"/>
    <path id="Fill_x0020_187" class="fil1" d="M2035.56 1034.32c-37.08,0.63 -76.64,-1 -113.36,4.63 -32.28,4.95 -36.26,36.15 -1.51,39.8 31.94,3.36 70.65,-2.91 102.74,-4.97 11.4,-0.73 24.65,0.31 30.11,-12.3 5.7,-13.16 -5.2,-25.78 -17.99,-27.16z"/>
    <path id="Fill_x0020_189" class="fil1" d="M2315.89 1037.59c-19.79,0.5 -77.59,-8.01 -87.4,14.59 -16.32,37.63 61.94,23.34 76.95,22.79 18.93,-0.7 92.67,10.35 92.69,-19.78 0.01,-29.54 -64.11,-18.05 -82.24,-17.6z"/>
    <path id="Fill_x0020_191" class="fil3" d="M1189.9 1224.61c0.04,68.47 -4.22,137.57 2.03,205.86 2.58,28.25 2.14,82.36 18.5,106.3 11.61,17 27.72,15.81 34.07,-4.6 4.24,-13.64 -2.54,-40.93 -3.3,-55.53 -0.73,-14 -1.58,-28 -2.23,-42.02 -1.67,-36.1 -1.53,-72.13 -1.04,-108.25 0.43,-30.98 7.88,-71.97 0.85,-101.76 -6.56,-27.76 -48.88,-34.25 -48.88,0z"/>
    <path id="Fill_x0020_193" class="fil3" d="M1877.98 1164.38c-118.78,2.98 -237.84,0.32 -356.51,6.2 -58.53,2.89 -116.83,9.27 -175.07,15.61 -28.61,3.13 -57.2,6.34 -85.76,9.86 -8.62,1.06 -80.24,3.84 -53.3,31.07 11.76,11.9 49.2,-0.53 64.01,-2.28 28.67,-3.38 57.41,-6.33 86.12,-9.37 54.65,-5.78 109.35,-11.25 164.23,-14.29 129.24,-7.16 259.02,-5.02 388.38,-9.79 35,-1.29 69.89,-2.21 104.9,-0.83 9.19,0.35 76.74,3.8 47.41,-21.17 -13.87,-11.79 -66.16,-5.7 -83.49,-6.06 -33.64,-0.69 -67.29,0.21 -100.92,1.06z"/>
    <path id="Wireframy_x0020_Stuff" class="fil3" d="M2039.9 1279.73c-0.59,-31.63 -1.17,-63.27 -2.62,-94.87 -1.51,-33.28 43.84,-38.32 57.27,-11.38 9.69,19.4 7.98,52.4 6.53,80.68 -0.59,11.4 -1.15,22.04 -0.89,30.7 0.58,19.87 2.04,40.42 3.52,61.22 3.73,52.38 7.58,106.49 -2.22,155.94 -4.76,24.03 -25.03,36.66 -38.52,23.57 -0.02,0.02 -0.03,0.05 -0.05,0.07 -5.08,7.48 -20.87,7.46 -32.51,7.45 -3.21,0 -6.1,-0.01 -8.36,0.15 -31.87,2.17 -63.15,5.83 -94.74,10.56 -62.94,9.44 -125.33,15.24 -188.95,16.81 -43.17,1.07 -86.4,1.43 -129.64,1.79 -82.81,0.69 -165.65,1.37 -248.19,7.03 -27.82,1.91 -55.23,5.19 -82.6,10.43 -2.33,0.44 -4.93,1.02 -7.68,1.63 -20.35,4.53 -49.82,11.08 -51.83,-17.36 -2.39,-33.77 70.78,-38.19 108.42,-40.46 5.75,-0.35 10.67,-0.65 14.36,-0.98 114.33,-10.63 230.44,-8.99 345.25,-7.36 5.56,0.08 11.12,0.16 16.68,0.24 8.96,0.12 17.91,0.27 26.87,0.42 49.15,0.81 98.25,1.61 147.39,-1.38 22.37,-1.37 45.02,-2.07 67.71,-2.78 36.21,-1.12 72.52,-2.25 107.94,-6.08 -5.34,-20.71 -6.28,-45.15 -7.15,-68.19 -0.34,-8.96 -0.68,-17.72 -1.26,-25.96 -3.11,-43.9 -3.92,-87.89 -4.75,-131.88z"/>
    <path id="Fill_x0020_199" class="fil4" d="M2136.04 1209.24c-16.05,2.17 -29.43,15.92 -22.26,33.34 9.02,21.93 35.9,13.36 53.65,11.97 56.43,-4.42 115.34,4.42 171.1,-2.24 15.22,-1.82 37.31,-10.12 23.64,-30.58 -10.27,-15.37 -47.72,-12.67 -63.63,-14.14 -54.43,-5.04 -108.15,-3.69 -162.5,1.67z"/>
    <path id="Fill_x0020_201" class="fil5" d="M2231.28 1304.93c-21.88,1.47 -72.83,0.31 -82.05,25.21 -16.55,44.68 48.25,28.93 67.98,26.4 22.93,-2.95 76.95,4.95 89.15,-17.28 21.83,-39.74 -55.89,-35.65 -75.08,-34.33z"/>
    <path id="Fill_x0020_203" class="fil4" d="M2175 1402.96c-10.38,10.38 -10.4,28.93 0,39.32 12.73,12.72 40.47,10.08 57.2,11.01 23.33,1.3 90.34,13.64 101.93,-13.83 15.63,-37.07 -45.05,-36.29 -65.01,-38.39 -23.07,-2.43 -74.99,-17.23 -94.11,1.9z"/>
    <path id="Fill_x0020_205" class="fil1" d="M1357.14 768.47c0,39.85 62.24,39.85 62.24,0 0,-39.64 -62.24,-40.25 -62.24,0z"/>
    <path id="Fill_x0020_207" class="fil1" d="M1475.19 768.92c0,45.56 70.9,45.46 70.9,0 0,-45.41 -70.9,-45.87 -70.9,0z"/>
    <path id="Fill_x0020_209" class="fil1" d="M1403.77 829.49c-34.46,9.52 -2.71,38.72 13.29,45.4 25.43,10.6 60.14,18.43 85.58,2.51 10.12,-6.33 18.34,-14.73 10.92,-27 -7.91,-13.07 -18.72,-7.25 -30.76,-6.06 -15.24,1.54 -27.56,1.29 -42.28,-3.59 -10.99,-3.64 -24.77,-14.55 -36.75,-11.26z"/>
    <path id="Fill_x0020_211" class="fil1" d="M2028.87 770.99c0,26.95 41.85,26.95 41.85,0 0,-26.96 -41.85,-26.96 -41.85,0z"/>
    <path id="Fill_x0020_213" class="fil1" d="M2121.43 775.04c0,29.95 46.5,29.96 46.5,0 0,-29.94 -46.5,-29.94 -46.5,0z"/>
    <path id="Fill_x0020_215" class="fil1" d="M2117.99 840.03c-24.42,3.16 -95.06,10.31 -99.02,40.42 -6.09,46.45 71.31,8.85 88.97,5.2 22.51,-4.64 42.6,-3.43 65.06,-2.53 12.33,0.49 28.74,2.49 27.45,-16.3 -2.12,-30.85 -61.11,-29.54 -82.46,-26.8z"/>
    <path id="Fill_x0020_217" class="fil3" d="M1503.89 1268.38c-17.7,4.72 -40.86,35.32 -28.68,54.06 19.98,30.72 28.78,-16.45 37.13,-20.99 15.21,-8.26 27.56,21.93 43.45,6.09 25.08,-24.99 -36.12,-43.39 -51.91,-39.16z"/>
    <path id="eye" class="fil6" d="M1706.74 1245.67c-20.99,0.19 -65.32,29.91 -68.46,51.85 -1.87,13.04 6.78,25.57 20.84,25.75 19.15,0.24 25.22,-24.65 41.81,-29.85 17.9,-5.62 15.24,7.31 30.7,14.01 11.31,4.91 25.46,2.85 29.39,-11.06 7.41,-26.23 -32.72,-51.12 -54.29,-50.7z"/>
    <path id="Fill_x0020_221" class="fil6" d="M1546.03 1371.33c-33.58,19.67 21.67,61.85 40.83,67.14 28.92,7.95 87.12,-6.9 93.98,-42.22 2.72,-14.06 -6.07,-26.79 -21.58,-24.28 -12.78,2.07 -20.97,18.09 -32.8,23.84 -15.97,7.74 -30.17,7.22 -43.74,-4.45 -11.06,-9.5 -16.99,-31.52 -36.68,-20.03z"/>
    <path id="Fill_x0020_223" class="fil5" d="M1570.37 1662.09c-30,6.4 -60.5,2.1 -90.65,8.12 -30.74,6.14 -49.11,17.75 -77.67,6.05 -1.35,-0.57 -2.69,-1.13 -4.02,-1.7 -22.11,-9.52 -45.28,-12.34 -68.41,2.84 -13.7,8.98 -55.27,40.04 -50.26,58.99 10.86,41.08 57.63,-23.34 69.56,-29.62 22.75,-11.98 38.34,3.32 61.75,7.63 28.05,5.17 50.61,-9.65 77.04,-15.55 30.9,-6.9 65.66,-9.31 97.11,-13.01 12.41,-1.45 59.46,8.37 63.7,-7.09 7.3,-26.56 -66.35,-19.16 -78.14,-16.66z"/>
    <path id="Fill_x0020_225" class="fil4" d="M1786.83 1744.85c1.96,1.48 0.39,0.29 0,0zm84.03 -84.36c25.69,-2.61 107.86,-20.96 124.74,5.59 10.99,17.28 -6.45,81.09 -23.09,89.34 -13.3,6.59 -44.27,-0.7 -58.86,-1.22 -27.15,-0.95 -54.36,-1.37 -81.48,-3.07 -9.09,-0.56 -38.36,1.11 -45.48,-6.94 -8.42,-9.5 -8.05,-60.17 -10.03,-72.75 23.61,7.65 69.51,-8.44 94.21,-10.95m54.84 -26.02c-32.89,1.42 -65.78,3.89 -98.43,8.3 -18.2,2.47 -36.64,9 -53.45,12.1 -5.41,1 -14.21,-1.78 -20.85,1.44 -19.42,9.38 -2.42,72.8 2.26,89.73 7.19,26.03 25.28,30.24 50.65,32.69 33.4,3.24 67.48,2.22 100.99,1.82 32.29,-0.41 75.85,6.75 93.97,-25.65 11.72,-20.95 24.28,-69.74 14.27,-93.1 -13.17,-30.73 -62.36,-28.48 -89.41,-27.34z"/>
    <path id="quare" class="fil1" d="M2294.07 1762.28c-1.76,2.25 -1.76,2.25 0,0zm7.2 -8.7c-0.54,0.83 -3.07,3.5 0,0zm-78.44 -2.39c14.5,-2.73 29.01,-5.43 43.52,-8.07 -13.75,19.24 -28.23,11.29 -51.71,9.62 2.73,-0.52 5.46,-1.03 8.18,-1.55m-69.18 -6.81c3.68,-1.23 7.36,-2.46 11.03,-3.69 -0.12,2.8 0.49,5.42 1.8,7.86 -6.29,-0.69 -12.58,-1.42 -18.86,-2.19 2.01,-0.66 4.02,-1.32 6.03,-1.98m-32.05 -23.67c-0.21,-5.05 7.38,-1.58 11.74,-1.92 -8.39,7.38 -12.31,8.03 -11.74,1.92m114.65 -57.26c1.11,-1.41 2.57,-1.34 4.38,0.21 -1.98,0.67 -9.63,3.92 -4.38,-0.21m74.35 -8.75c0.19,0 4.33,5.57 0,0zm-2.08 -1.83c1.07,0.83 1.07,0.83 0,0zm-9.29 -1.09c15.2,2.57 14.05,20.41 0,0zm-178.6 -1.21c-3.1,2.57 -2.03,0.08 0,0zm58.14 -37.98c-25.81,1.5 -73.19,-0.01 -94.74,13.74 -28.13,17.95 -13.32,79.74 -10.81,106.82 3.72,40.04 22.56,51.43 60.27,55.64 45,5.02 91.23,5.95 136.46,4.77 40.73,-1.08 63.94,-15.09 71.4,-57.97 2.28,-13.13 8.08,-33.43 7.9,-46 -0.13,-8.71 -4.47,-12.7 -6.12,-20.1 -9.35,-42.21 -25,-47.22 -68.26,-49.05 -31.84,-1.36 -64.86,-9.48 -96.1,-7.84z"/>
    <g id="_1927877654848">
     <ellipse id="Ballsy_x0020_Ball" class="fil7" cx="1427.76" cy="2642.14" rx="702.48" ry="670.55"/>
     <path id="SKIN" class="fil8" d="M2519.9 2606.38c33.93,118.85 118.47,344.14 235.36,602.85l111.08 -32.41c-97.18,-595.33 -178.06,-989.46 -224.39,-1109.42 -30.61,-79.26 -262.17,-69.97 -235.53,89.51 11.17,66.88 55.38,245.96 113.47,449.47zm-456.56 -421.66c-181.14,37.53 -556.72,170.19 -663.98,212.59 -67.4,26.64 -23.95,117 33.56,109.09 9.73,-1.34 44.19,-5.19 95.59,-10.94 165.11,-18.47 505.13,-56.51 763.01,-93.63 135.79,-19.54 62.74,-273.89 -78.25,-246.98 -47.43,9.05 -97.88,19.07 -149.94,29.86z"/>
     <path id="Leg_x0020_Back" class="fil9" d="M2649.06 2000.21c-18.52,-60.44 -860.38,-274.95 -860.38,-274.95l-68.99 0 0 64.29 580.12 295.31c-0.77,9.53 -0.31,19.6 1.57,30.22 -4.19,218.92 89.52,382.47 182.28,544.4 60.67,105.88 120.93,211.08 153.17,330.61l213.13 -31.79c-6.21,-15.88 -16.02,-87.47 -29.45,-185.36 -33.84,-246.81 -90.62,-660.79 -170.25,-770.32 -0.27,-0.38 -0.55,-0.76 -0.85,-1.14 -0.1,-0.43 -0.22,-0.86 -0.35,-1.28z"/>
     <path id="Leg_x0020_Front" class="fil10" d="M1767.9 2260.24c-53.08,-10.63 -101.96,-20.11 -143.78,-27.44 -270.17,-47.39 -348.95,-192.01 -302.37,-507.54l497.78 0c81.31,23.36 503.89,200.57 723.15,294.82 145.11,62.38 99.37,287.27 17.18,345.8 -0.44,3.59 -1.92,6.03 -4.56,7.12 -311.56,129.13 -577.24,119.5 -747.86,113.31 -71.46,-2.59 -126.23,-4.58 -160.72,4.49l-54.03 -170.46 175.22 -60.1z"/>
     <path id="shoe" class="fil11" d="M1456.29 2388.46c-0.42,-10.67 -9.43,-19.2 -20.04,-18.08 -19.38,2.06 -47.97,6.09 -61.88,12.88 -22.18,10.82 -61.13,38.96 -61.13,38.96 12.55,25.73 225.57,462.48 225.57,462.48 0,0 68.4,-11.04 54.2,-52.19 -14.19,-41.17 -22.89,-68.72 -22.89,-68.72l-9.01 -261.7c-0.17,-5.14 -4.56,-9.12 -9.69,-8.79l-40.26 2.53c0,0 -34.31,-27.78 -45.28,-50.26 -6.67,-13.68 -8.88,-39.23 -9.58,-57.11z"/>
     <path id="shoe_2" class="fil11" d="M2727.35 3151.06c-9.78,-4.3 -21.4,0.06 -25.05,10.1 -6.64,18.31 -15.55,45.78 -15.55,61.26 0,24.68 8.22,72.02 8.22,72.02 28.63,0 514.56,0 514.56,0 0,0 20.07,-66.31 -23.15,-71.6 -43.21,-5.29 -71.79,-9.54 -71.79,-9.54l-239.17 -106.62c-4.7,-2.1 -10.19,0.1 -12.15,4.86l-15.37 37.29c0,0 -40.01,18.67 -65.01,18.67 -15.22,0 -39.15,-9.22 -55.53,-16.43z"/>
     <path id="SKIN_0" class="fil8" d="M2590.8 1314.04l-360.21 49.13 64.63 161.38 292.28 -115.88c125.98,12.43 186.9,9.44 182.76,-8.98 -3.49,-15.53 -16.89,-20.21 -29.22,-24.53 -9.6,-3.36 -18.57,-6.5 -21.72,-14.36 -7.19,-17.96 33.76,-55.18 74.12,-88.82 40.36,-33.65 13.27,-39.84 -3.76,-39.34 -60.52,14.18 -126.81,41.32 -198.86,81.4zm-1752.42 884.79c26.74,-54.24 260.67,-752.28 260.67,-752.28l199.77 0.75c0,0 -328.59,739.44 -342.66,774.32 -18.28,45.3 12.77,111.13 33.83,155.77 3.26,6.91 6.28,13.3 8.84,19.04 -29.22,13.07 -43.26,-2.73 -58.05,-19.38 -16.71,-18.82 -34.4,-38.73 -76.02,-19.37 -16.09,7.49 -31.31,16.33 -46.17,24.98 -51.36,29.85 -98.55,57.28 -162.74,17.67 -10.17,-6.28 -21.33,-29.92 5.62,-48.39 67.12,-46.02 163.86,-126.58 176.93,-153.1z"/>
     <path id="Clothes_x0020_Back" class="fil12" d="M1646.25 812.95l156.42 10.42c38.53,348.52 248.35,568.65 718.15,494.13l62.41 448.81c-439.09,56.74 -824.17,-119.05 -903.1,-595.02 -20.42,-123.22 -36.56,-251.44 -33.87,-358.34z"/>
     <path id="Shade" class="fil13" d="M1362.47 1789.12c18.35,-210.83 51.14,-409.72 105.32,-596.67 -11.88,199.93 -15.17,447.94 24.77,596.67l-130.09 0z"/>
     <g>
      <path class="fil8" d="M1888.98 294.96c17.33,27.67 34.52,54.88 38.94,92.61 0.91,7.72 31.48,49.77 17.21,60.17 -3.04,7.5 -6.46,17.02 0.41,22.95 15.18,12.55 31.28,24.05 45.53,37.63 22.74,21.67 19.37,37.48 2.43,45.88 -9.44,4.55 -22.35,7.19 -17.35,15.27 14.43,18.66 11.08,32.31 -8.86,41.81 11.78,8.43 16.82,17.4 5.84,27.66 -11.44,16.83 -8.38,28.75 11.31,35.04 15.98,36.29 -6.64,63.33 -42.08,68.97 -28.39,4.51 -64.09,10.35 -85.05,18.23 -56.54,45.91 -85.1,105.8 -82.07,126.84 -79.23,-30.44 -152.26,-54.91 -231.48,-85.35 12.08,-29.18 45.5,-108.72 34.42,-151.81 -45.34,-86.26 -74.84,-182.14 -86.37,-288.94 23.05,-93.73 65.74,-155.65 135.72,-173.33 98.73,-27.91 214.69,10.38 261.43,106.36z"/>
      <path class="fil14" d="M1783.11 551.8c-6.03,-18.4 -12.05,-36.81 -18.08,-55.21 3.86,-25.1 10.46,-47.81 28.82,-60.33 44.31,-23.47 46.82,-59.32 36.67,-98.92 10.29,-48.57 35.74,-44.11 70.35,-7.67 8,9.11 11.09,12.97 19.09,22.08 30.65,-35.65 94.04,-50.59 8.5,-150.74 -34.33,-25.94 -72.91,-38.35 -118.02,-29.92 -35.46,0.22 -78.59,-7.44 -136.93,-12.49 -46.82,9.85 -93.99,-0.49 -139.78,66.6 -32.56,48.29 -48.86,96.29 -52.94,144.07 -6.58,33.17 14.99,118.32 90.91,303.82 21.3,23.81 37.29,27.14 40.23,-19.95 0.88,-29.92 1.77,-59.84 2.66,-89.76 3.25,-149.7 208.12,-17.01 114.24,116.5 67.38,42.61 154.81,72.56 206.54,67.3 50.79,-5.16 63.54,-34.2 56.06,-74.7 -4.14,-2.6 -22.2,-9.8 -15.36,-37.1 -16.9,19.34 -13.77,31.69 -1.8,33.41 -0.21,4.89 -8.64,7.92 -11.41,4.21 -14.49,-19.77 -13.6,-47.55 2.52,-67.87 6.72,-7.24 12.89,-15.54 20.29,-14.78 -1.06,-11.91 -2.72,-19.98 -10.09,-26.79 -33.15,22.84 -33.08,56.42 -38.84,96.82 -35.82,-2.53 -67.25,-8.06 -106.49,-41.87 -13.96,-24.04 -33.17,-42.66 -47.13,-66.7z"/>
     </g>
     <path id="Clothes" class="fil15" d="M865.79 2108.43c108.6,-577.83 337.81,-1024.86 687.65,-1341.1l15.01 0 0.51 0 0.13 0.15 236.99 54.28c0,284.68 63.33,497.39 124.22,701.89 26.3,88.31 52.13,175.1 72.22,265.48l-640.05 0c-9.01,103.56 -14.55,210 -17.44,319.31l-479.24 0z"/>
    </g>
    <path id="Fill_x0020_5" class="fil1" d="M2629.98 96.83c-11.46,11.44 -7.01,52.08 -7.25,67.12 -0.37,23.42 1.1,46.62 3.05,69.94 1.32,15.63 8.71,164.69 29.28,153.25 11.6,-6.46 4.32,-49.58 4.3,-63.22 -0.04,-30.32 -1.31,-60.57 -3.33,-90.82 -1.88,-28.09 -3.05,-55.85 -1.98,-83.99 0.26,-6.87 6.69,-83.1 -24.07,-52.28z"/>
    <path id="Fill_x0020_7" class="fil2" d="M3128.77 78.46c-98.4,0.78 -196.76,5.64 -295.1,8.6 -47.33,1.44 -94.62,3.26 -141.9,5.88 -16.11,0.9 -50.67,-4.27 -64.09,4.32 -29.8,19.06 18.26,23.51 31.06,23.04 194.64,-7.06 389.35,-16.36 584.14,-16.79 95.56,-0.21 191.07,2.51 286.64,1.9 36.53,-0.23 76.98,-15.97 86.21,26.55 10.41,47.97 -1.55,101.39 -4.81,149.62 -2.17,32.19 -1.4,63.71 0.05,95.87 0.94,20.6 -1.49,43.82 2.16,64.04 3.5,19.47 17.5,31.14 30.33,9.34 7.66,-13.03 3.85,-45.22 4.36,-60.3 0.68,-20.33 0.04,-40.66 0.04,-61 -0.01,-49.64 7,-99.07 6.08,-148.7 -0.6,-32.01 -2.3,-90.01 -42.66,-97.71 -44.45,-8.47 -99.08,0.04 -144.57,-0.47 -112.71,-1.29 -225.21,-5.06 -337.95,-4.18z"/>
    <path id="Fill_x0020_9" class="fil1" d="M2857.64 388.92c-37.11,0 -74.21,0.23 -111.31,0.84 -31.82,0.52 -81.85,-6.1 -111.46,5.28 -20.28,7.79 -25.66,30.43 0,36.45 27.98,6.58 70.15,-4.18 99.44,-4.7 146.82,-2.59 295.05,-5.97 441.67,3.32 137.39,8.69 277.41,17.13 415,7.95 11.57,-0.77 70.62,-3.12 43.67,-25.25 -15.71,-12.92 -79.42,-4.43 -99.84,-5.05 -72.04,-2.17 -144.16,-2.66 -216.18,-5.38 -71.08,-2.7 -141.85,-10.69 -212.96,-12.67 -82.61,-2.3 -165.4,-0.8 -248.04,-0.8z"/>
    <path id="face" class="fil1" d="M2820.51 177.89c57.83,2.53 115.05,86.39 56.53,126.92 -54.9,38.04 -157.77,-3.65 -127.25,-77.4 -4.39,10.66 5.55,-11.58 5.68,-11.73 5.8,-6.84 16.22,-14.41 23.38,-19.8 8.19,-6.17 16.72,-12.96 26.59,-16.06 6.47,-2.03 5.46,5.61 15.07,-1.94m-28.16 -30.25c-27.06,10.57 -39.42,22.49 -58.02,44.07 -12.87,14.93 -29.27,22.78 -29.12,42.95 0.02,4.47 5.77,9.37 6.75,13.68 1.37,5.94 -0.22,13.56 0.87,19.87 11.2,65.16 88.94,87.14 145.86,74.83 49.57,-10.72 86.65,-58.3 75.17,-110.05 -11.56,-52.09 -88.81,-105.95 -141.5,-85.34z"/>
    <path id="Fill_x0020_13" class="fil1" d="M2370.19 389.76c0,23.44 37.03,23.44 37.03,0 0,-23.17 -37.03,-24.17 -37.03,0z"/>
    <path id="Fill_x0020_15" class="fil2" d="M2416.53 385.01c0,18.63 29.42,18.63 29.42,0 0,-18.42 -29.42,-19.2 -29.42,0z"/>
    <path id="Fill_x0020_17" class="fil1" d="M2425.63 423.43c-9.42,3.62 -21.37,-3.89 -29.11,1.06 -13.7,8.78 0.03,16.71 7.37,20.23 33.06,15.86 38.94,-27.88 21.73,-21.29z"/>
    <path id="Fill_x0020_19" class="fil1" d="M3328.58 220.33c-0.99,0.41 -4.5,1.89 0,0zm-143.97 -21.05c-24.75,5.58 -45.64,28.7 -72.53,25.6 -20.6,-2.36 -34.55,-22.25 -54.88,-25.13 -26.02,-3.7 -96.83,55.65 -59.6,65.83 21.72,5.94 33.77,-33.75 52.96,-35.86 15.18,-1.67 35.82,16.95 51.55,19.6 29.35,4.94 49.5,-11.22 75.26,-21.65 27.99,-11.32 43.91,-1.12 68.26,11.47 19.21,9.93 37.32,16.4 59.3,12.3 20.64,-3.85 46.57,-25.07 67.33,-22.89 20.34,2.13 34.86,23.37 55.79,25.34 8.63,0.81 21.47,3.74 20.03,-9.57 -1.16,-10.66 -13.05,-8.85 -20.5,-12.73 -19.13,-9.97 -37.04,-27.62 -60.12,-26.11 -17.37,1.14 -33.18,13.34 -49.19,19.18 -52.43,19.12 -81.9,-37 -133.65,-25.39z"/>
    <path id="Fill_x0020_21" class="fil3" d="M3228.4 536.91c-101.12,0.94 -202.6,2.44 -303.44,10.54 -23.91,1.92 -268.04,24.98 -267.57,26.63 0.85,3.06 32.26,7.76 32.06,8.48 -2.11,-5.24 -6.95,-7.42 -14.51,-6.51 231.53,0 462.33,-20.73 694.17,-17 58.25,0.94 116.72,0.55 174.93,2.38 14.53,0.46 50.54,10.87 61.96,4.31 29.95,-17.22 -24.47,-19.2 -33.48,-19.93 -114.09,-9.13 -229.7,-10.04 -344.12,-8.91z"/>
    <path id="Fill_x0020_23" class="fil6" d="M2627.41 586.05c-15.12,15.17 -1.2,69.69 -0.6,90.19 0.87,29.63 0.15,59.47 2.75,89.03 2.97,33.75 7.58,69.72 16.43,102.48 4.89,18.04 22.01,46.71 28.79,13.93 4.84,-23.43 -2.51,-54.49 -5.08,-78.34 -3.42,-31.91 -4.25,-63.41 -4.37,-95.48 -0.12,-27.94 -0.66,-56 -2.95,-83.85 -1.19,-14.46 -8.46,-64.32 -34.97,-37.95z"/>
    <path id="Fill_x0020_25" class="fil6" d="M3007.78 863.76c-71.77,1.23 -143.69,2.93 -215.33,7.41 -29.36,1.84 -58.71,4.57 -87.96,7.68 -5.97,0.63 -72.05,3.32 -42.53,27.7 13.33,11.01 68.15,-4.21 86.26,-5.8 30.45,-2.66 60.9,-4.4 91.44,-5.69 70.77,-3.01 141.74,-5.66 212.58,-4.43 129.37,2.25 257.91,3.25 387.3,0.35 18.38,-0.41 162.42,3.45 167.31,-15.68 3.94,-15.41 -47.57,-8.34 -56.97,-8.06 -34.44,1.03 -68.9,0.79 -103.36,0.62 -146.01,-0.75 -292.86,-6.56 -438.75,-4.09z"/>
    <path id="Fill_x0020_27" class="fil3" d="M3582.47 560.48c2.28,63.89 13.16,127.72 16.64,191.8 1.59,29.3 3.46,58.57 4.89,87.87 0.47,9.46 -3.34,32.23 7.84,37.67 15.34,7.46 17.4,-7.58 20.27,-17.74 8.29,-29.36 2.68,-67.51 1.93,-97.67 -0.73,-29.21 -0.78,-58.48 -2.94,-87.63 -2.2,-29.77 -8.2,-59 -10.98,-88.69 -1.17,-12.55 2.94,-33.44 -10.38,-41.23 -11.52,-6.74 -27.76,1.75 -27.26,15.61z"/>
    <path id="face_2" class="fil3" d="M2877.09 666.76c0.27,0.21 0.54,0.43 0.81,0.63 -0.27,-0.21 -0.54,-0.43 -0.81,-0.63m-60.99 -18.93c22.74,6.49 41.42,4.07 63.14,20.63 18.01,13.73 36.48,33.82 42.45,56.01 13.8,51.28 -32.98,79.38 -76.84,79.94 -44.93,0.56 -111.42,-9.86 -109.13,-67.44 1.77,-44.24 34.08,-87.42 80.38,-89.13m1.6 -28.98c-58.98,2.93 -106.54,69.16 -106.03,124.9 0.62,67.57 77.17,84.98 131.55,85.44 61.38,0.53 122.57,-41.85 106.13,-110.87 -13.18,-55.3 -74.94,-102.42 -131.66,-99.47z"/>
    <path id="Fill_x0020_31" class="fil6" d="M2758.38 709.56c0,18.85 29.77,18.85 29.77,0 0,-18.62 -29.77,-19.42 -29.77,0z"/>
    <path id="Fill_x0020_33" class="fil3" d="M2820.81 701.3c0,19 30.01,19 30.01,0 0,-18.77 -30.01,-19.57 -30.01,0z"/>
    <path id="Fill_x0020_35" class="fil3" d="M2786.39 744.28c-19.37,19.34 48.68,53.25 64.75,26.34 13.18,-22.1 -15.52,-14.77 -25.7,-15.97 -11.06,-1.3 -30.02,-19.38 -39.04,-10.38z"/>
    <path id="Fill_x0020_37" class="fil3" d="M3330.57 701.68c-1.86,0.79 -1.86,0.79 0,0zm-255.59 -31.49c-19.61,3.68 -84,25.4 -84.86,48.67 -1.59,42.31 61.46,-1.03 75.15,-6.59 37.19,-15.12 56.74,15.72 94.1,17.35 32.45,1.41 62.29,-26.36 92.86,-23.07 32.03,3.44 47.44,37.51 84.41,19.42 19.57,-9.57 19.07,-24.33 -2.88,-25.72 -13.27,-0.84 -22.39,4.64 -36.23,-1.06 -21.64,-8.93 -30.36,-23.46 -56.25,-21.16 -19.54,1.75 -37.2,12.76 -56.28,17.03 -43.67,9.76 -67.9,-32.76 -110.01,-24.87z"/>
    <path id="point" class="fil3" d="M3481.25 720.06c-1.35,0.57 -1.35,0.57 0,0zm4.95 -17.61c0.22,0.09 1.7,2.14 0,0zm-22.49 -13.45c-0.84,0.65 -0.84,0.65 0,0zm0.48 -0.17c4.36,2.61 39.42,26.59 13.96,32.24 -12.93,2.86 -23.63,-23.15 -13.96,-32.24m-11.6 -26.56c-56.17,25.61 4.27,117.25 48.35,80.02 18.55,-15.67 20.99,-47.34 2.94,-63.67 -10.81,-9.78 -36.62,-23.06 -51.29,-16.36z"/>
    <path id="Fill_x0020_41_1" class="fil1" d="M2925.38 1023.39c-70.08,0.02 -140.78,-1.45 -210.77,2.7 -11.77,0.7 -56.64,-1.54 -62.71,10.77 -11.1,22.52 35.07,11.35 41.77,10.67 139.36,-13.95 284.92,-5.92 424.72,-1.94 114.36,3.24 228.08,5.26 342.29,11.16 30.02,1.54 60.02,3.25 90.01,5.07 9.78,0.59 34.38,7.07 36.45,-8.55 1.91,-14.45 -28.79,-11.18 -36.45,-11.6 -60.98,-3.21 -121.92,-6.57 -182.89,-10 -146.74,-8.27 -295.46,-8.31 -442.42,-8.28z"/>
    <path id="Fill_x0020_43_2" class="fil2" d="M2649.64 1048.42c-13.08,13.02 -6.95,62.71 -7.31,79.12 -0.64,28.73 -2,57.43 -2.6,86.14 -0.63,30.01 0.24,60.17 2.01,90.13 0.74,12.58 11.08,73.4 27.33,38.6 7.27,-15.56 -0.17,-58.87 -0.06,-76.5 0.21,-32.07 1.93,-64 3.52,-96.03 1.38,-27.53 1.42,-55.09 2.63,-82.63 0.38,-8.78 1.42,-65.85 -25.53,-38.83z"/>
    <path id="Fill_x0020_45_3" class="fil2" d="M3598.94 1304.99c-68.21,6.99 -137.5,3.7 -205.96,8.85 -59,4.45 -117.95,6.27 -177.11,7.53 -133.95,2.82 -268.13,5.58 -401.69,16.74 -30.44,2.54 -60.84,5.24 -91.36,6.61 -15.26,0.68 -79.32,-6.27 -84.08,9.82 -8.12,27.41 60.37,16.56 75.14,16.13 32.49,-0.93 64.82,-3.29 97.22,-5.76 136.19,-10.37 272.9,-13.48 409.39,-17.78 74.22,-2.35 147.93,-7.78 221.99,-12.71 36.92,-2.46 73.93,-2.54 110.84,-4.93 9.66,-0.63 43.85,0.6 50.79,-7.17 4.77,-5.33 5.98,-18.36 -5.15,-17.33z"/>
    <path id="Fill_x0020_47_4" class="fil1" d="M3575.82 1053.09c2.34,65.41 6.03,130.76 8.24,196.17 0.66,19.67 -5.28,54.91 5.68,72.26 17.61,27.89 31.35,-1.63 34.58,-19.01 10.18,-54.85 -0.76,-115.44 -3.61,-170.63 -1.08,-21.05 5.46,-67.92 -4.71,-86.76 -9.69,-17.95 -41.04,-16.14 -40.17,7.97z"/>
    <path id="hola_x0020_:_x0029__5" class="fil2" d="M3461.31 1146.25c26.14,7.08 29.95,63.88 0.47,68.09 -43.88,6.25 -24.69,-56.38 -0.47,-68.09m-7.31 -22.6c-7.97,-0.25 -26.37,-2.45 -31.28,4.04 -4.11,5.43 0.04,16.88 -0.44,22.05 -1.72,18.48 -16.75,29.16 -10.03,50.98 4.55,14.81 16.77,28.73 31.65,33.87 78.53,27.15 77.58,-124.59 10.1,-110.94z"/>
    <path id="Fill_x0020_51_6" class="fil2" d="M2744.98 1133.85c-0.19,0.25 -0.39,0.49 -0.58,0.75 0.19,-0.26 0.39,-0.51 0.58,-0.75m61.68 -32.81c-0.3,-2.63 -0.62,-5.26 -0.92,-7.89 42.58,20.1 76.46,57.49 62.32,107.67 -10.78,38.29 -49.77,51.87 -86.08,42.42 -40.19,-10.47 -59.4,-43.6 -48.57,-84.28 5.01,-18.77 20.36,-44 40.2,-50.03 9.24,-2.81 29.67,4.35 33.04,-7.88m-24.9 -15.9c-10.77,0.73 -21.25,5.21 -30.04,11.35 8.23,-6.97 19.19,-11.11 30.04,-11.35m0.31 -24.73c-26.6,0.82 -44.05,16.93 -59.82,36.26 -4.95,6.07 -21.7,22.17 -19.63,30.35 1.64,6.47 5.93,15.93 14.97,8.71 -47.32,94.29 74.91,174.73 149.52,109.15 69.64,-61.2 0.55,-187.35 -85.04,-184.48z"/>
    <path id="Fill_x0020_53_7" class="fil2" d="M2757.9 1148c0,12.55 19.49,12.55 19.49,0 0,-12.56 -19.49,-12.56 -19.49,0z"/>
    <path id="Fill_x0020_55_8" class="fil1" d="M2791.16 1150.15c0,12.76 19.81,12.76 19.81,0 0,-12.77 -19.81,-12.77 -19.81,0z"/>
    <path id="Fill_x0020_57_9" class="fil1" d="M2806.25 1194.96c-9.26,0.75 -43.18,-2.39 -49.14,5.72 -9.94,13.57 5.93,14.04 13.73,15.5 7.02,1.32 37.57,0.57 41.86,-5.67 3.81,-5.51 2.92,-16.35 -6.45,-15.55z"/>
    <path id="Fill_x0020_59_10" class="fil2" d="M3214.92 1159.78c-1.59,0.66 -1.59,0.66 0,0zm-128.16 -9.37c-20.88,1.54 -38.56,13.54 -58.53,18.34 -21.3,5.11 -30.53,-4.29 -49.91,-10.45 -20.15,-6.4 -34.49,-3.88 -50.69,9.88 -9.18,7.8 -29.32,25.75 -23.58,39.61 13.14,31.71 42.87,-19.88 56.86,-22.29 21.81,-3.74 41.22,15.34 66.39,9.88 22.8,-4.95 43.03,-20.6 66.84,-20.77 19.91,-0.14 38.68,10.76 58.34,13.39 30.01,4.03 49.71,-6.63 77.46,-14.54 24.06,-6.86 40.92,2.19 63.55,9.8 10.34,3.47 44.85,16.11 38.5,-6.81 -1.8,-6.47 -47.27,-18.06 -54.32,-20.28 -24.85,-7.85 -40.6,-4.8 -64.28,4.23 -19.75,7.53 -36.36,11.21 -57.54,7.06 -23.33,-4.57 -44.54,-18.93 -69.09,-17.07z"/>
    <path id="Fill_x0020_5_11" class="fil1" d="M58.3 310.72c-11.46,11.44 -7.01,52.08 -7.25,67.13 -0.37,23.41 1.1,46.61 3.05,69.94 1.32,15.62 8.7,164.69 29.29,153.25 11.6,-6.46 4.32,-49.58 4.3,-63.22 -0.04,-30.32 -1.31,-60.56 -3.33,-90.82 -1.88,-28.09 -3.05,-55.85 -1.98,-84 0.26,-6.86 6.69,-83.1 -24.07,-52.28z"/>
    <path id="Fill_x0020_7_12" class="fil2" d="M557.08 292.36c-98.4,0.78 -196.75,5.64 -295.1,8.6 -47.33,1.44 -94.62,3.26 -141.89,5.88 -16.11,0.89 -50.66,-4.27 -64.09,4.32 -29.79,19.06 18.26,23.51 31.07,23.04 194.64,-7.06 389.34,-16.36 584.14,-16.79 95.56,-0.21 191.07,2.51 286.65,1.9 36.53,-0.23 76.98,-15.97 86.21,26.55 10.41,47.98 -1.56,101.4 -4.81,149.62 -2.17,32.19 -1.39,63.71 0.05,95.87 0.94,20.6 -1.49,43.81 2.16,64.03 3.5,19.47 17.5,31.14 30.33,9.33 7.66,-13.03 3.85,-45.21 4.36,-60.3 0.68,-20.33 0.04,-40.66 0.04,-61 -0.01,-49.64 7,-99.07 6.08,-148.7 -0.6,-32.01 -2.29,-90.01 -42.66,-97.71 -44.44,-8.47 -99.08,0.04 -144.57,-0.47 -112.7,-1.29 -225.21,-5.06 -337.95,-4.18z"/>
    <path id="Fill_x0020_9_13" class="fil1" d="M285.95 602.81c-37.1,0 -74.21,0.23 -111.31,0.84 -31.82,0.52 -81.85,-6.1 -111.45,5.27 -20.28,7.79 -25.66,30.44 0,36.46 27.98,6.57 70.15,-4.18 99.44,-4.7 146.82,-2.59 295.06,-5.97 441.67,3.33 137.39,8.69 277.42,17.13 415,7.95 11.58,-0.77 70.62,-3.12 43.67,-25.25 -15.71,-12.92 -79.42,-4.43 -99.84,-5.05 -72.05,-2.17 -144.16,-2.65 -216.18,-5.38 -71.08,-2.7 -141.86,-10.69 -212.96,-12.67 -82.61,-2.31 -165.4,-0.81 -248.04,-0.81z"/>
    <path id="face_14" class="fil1" d="M248.83 391.78c57.82,2.53 115.04,86.39 56.53,126.92 -54.9,38.04 -157.77,-3.65 -127.24,-77.4 -4.39,10.66 5.55,-11.58 5.67,-11.73 5.8,-6.84 16.22,-14.41 23.37,-19.8 8.19,-6.17 16.72,-12.96 26.59,-16.05 6.47,-2.03 5.46,5.61 15.07,-1.94m-28.17 -30.25c-27.07,10.56 -39.42,22.49 -58.02,44.06 -12.87,14.93 -29.28,22.78 -29.13,42.95 0.03,4.46 5.77,9.37 6.76,13.68 1.37,5.94 -0.22,13.55 0.87,19.86 11.2,65.17 88.94,87.14 145.86,74.83 49.57,-10.72 86.65,-58.3 75.17,-110.05 -11.57,-52.09 -88.81,-105.95 -141.5,-85.34z"/>
    <path id="Fill_x0020_13_15" class="fil1" d="M196.56 452.5c0,23.44 37.03,23.44 37.03,0 0,-23.18 -37.03,-24.17 -37.03,0z"/>
    <path id="Fill_x0020_15_16" class="fil2" d="M242.88 447.75c0,18.63 29.42,18.63 29.42,0 0,-18.41 -29.42,-19.2 -29.42,0z"/>
    <path id="Fill_x0020_17_17" class="fil1" d="M252 486.17c-9.42,3.62 -21.37,-3.89 -29.11,1.06 -13.7,8.78 0.03,16.7 7.37,20.23 33.07,15.87 38.94,-27.88 21.74,-21.29z"/>
    <path id="Fill_x0020_19_18" class="fil1" d="M756.89 434.22c-0.98,0.41 -4.49,1.89 0,0zm-143.97 -21.05c-24.75,5.59 -45.64,28.7 -72.53,25.6 -20.6,-2.37 -34.55,-22.26 -54.88,-25.14 -26.02,-3.7 -96.83,55.66 -59.6,65.83 21.72,5.94 33.77,-33.75 52.96,-35.86 15.18,-1.67 35.82,16.94 51.55,19.6 29.35,4.95 49.5,-11.23 75.27,-21.65 27.98,-11.32 43.91,-1.12 68.26,11.47 19.21,9.93 37.32,16.41 59.3,12.3 20.63,-3.85 46.57,-25.07 67.34,-22.89 20.34,2.13 34.85,23.37 55.78,25.34 8.63,0.81 21.47,3.75 20.03,-9.56 -1.16,-10.66 -13.06,-8.85 -20.5,-12.73 -19.13,-9.97 -37.04,-27.62 -60.12,-26.11 -17.38,1.14 -33.18,13.34 -49.19,19.18 -52.43,19.12 -81.9,-37 -133.65,-25.39z"/>
    <path id="Fill_x0020_21_19" class="fil3" d="M656.71 750.81c-101.13,0.93 -202.6,2.43 -303.44,10.54 -23.91,1.92 -268.04,24.97 -267.57,26.63 0.85,3.07 32.26,7.76 32.06,8.48 -2.12,-5.24 -6.95,-7.42 -14.51,-6.51 231.53,0 462.33,-20.73 694.17,-17 58.26,0.93 116.72,0.54 174.93,2.38 14.53,0.46 50.55,10.88 61.96,4.32 29.95,-17.22 -24.47,-19.2 -33.48,-19.93 -114.09,-9.13 -229.7,-10.05 -344.12,-8.91z"/>
    <path id="Fill_x0020_23_20" class="fil6" d="M55.73 799.95c-15.12,15.16 -1.2,69.69 -0.6,90.19 0.87,29.63 0.15,59.47 2.75,89.03 2.97,33.75 7.58,69.73 16.43,102.48 4.88,18.04 22.01,46.72 28.79,13.94 4.84,-23.43 -2.51,-54.49 -5.08,-78.35 -3.42,-31.91 -4.25,-63.41 -4.38,-95.48 -0.11,-27.94 -0.65,-56.01 -2.94,-83.86 -1.19,-14.46 -8.47,-64.32 -34.97,-37.95z"/>
    <path id="Fill_x0020_25_21" class="fil6" d="M436.1 1077.66c-71.77,1.23 -143.69,2.93 -215.34,7.4 -29.36,1.85 -58.71,4.58 -87.95,7.68 -5.97,0.63 -72.05,3.32 -42.53,27.7 13.33,11.01 68.15,-4.21 86.26,-5.8 30.45,-2.66 60.89,-4.4 91.44,-5.69 70.76,-3.01 141.74,-5.66 212.57,-4.43 129.37,2.24 257.9,3.24 387.3,0.35 18.38,-0.4 162.42,3.45 167.31,-15.68 3.94,-15.41 -47.57,-8.34 -56.97,-8.06 -34.45,1.03 -68.9,0.79 -103.37,0.61 -146.01,-0.75 -292.86,-6.56 -438.74,-4.09z"/>
    <path id="Fill_x0020_27_22" class="fil3" d="M1010.79 774.37c2.28,63.9 13.16,127.72 16.64,191.81 1.58,29.3 3.45,58.57 4.89,87.87 0.47,9.46 -3.34,32.24 7.84,37.68 15.34,7.46 17.4,-7.58 20.27,-17.74 8.29,-29.37 2.68,-67.51 1.93,-97.68 -0.73,-29.2 -0.78,-58.47 -2.94,-87.63 -2.2,-29.77 -8.19,-59 -10.98,-88.68 -1.17,-12.55 2.94,-33.44 -10.39,-41.24 -11.51,-6.74 -27.76,1.76 -27.26,15.6z"/>
    <path id="face_2_23" class="fil3" d="M305.4 880.66c0.27,0.21 0.54,0.43 0.81,0.63 -0.27,-0.21 -0.54,-0.42 -0.81,-0.63m-60.99 -18.93c22.74,6.49 41.42,4.08 63.14,20.63 18.01,13.74 36.48,33.82 42.45,56.01 13.8,51.28 -32.98,79.38 -76.84,79.94 -44.93,0.56 -111.43,-9.86 -109.13,-67.44 1.77,-44.24 34.08,-87.42 80.38,-89.13m1.6 -28.98c-58.98,2.94 -106.55,69.17 -106.03,124.91 0.62,67.56 77.17,84.98 131.55,85.44 61.38,0.53 122.58,-41.85 106.13,-110.87 -13.18,-55.3 -74.94,-102.41 -131.65,-99.47z"/>
    <path id="Fill_x0020_31_24" class="fil6" d="M186.69 923.46c0,18.85 29.77,18.85 29.77,0 0,-18.62 -29.77,-19.42 -29.77,0z"/>
    <path id="Fill_x0020_33_25" class="fil3" d="M249.13 915.19c0,19 30.02,19 30.02,0 0,-18.77 -30.02,-19.57 -30.02,0z"/>
    <path id="Fill_x0020_35_26" class="fil3" d="M214.71 958.17c-19.37,19.34 48.68,53.25 64.75,26.35 13.18,-22.11 -15.52,-14.77 -25.7,-15.97 -11.06,-1.3 -30.02,-19.38 -39.05,-10.38z"/>
    <path id="Fill_x0020_37_27" class="fil3" d="M758.89 915.58c-1.87,0.78 -1.87,0.78 0,0zm-255.6 -31.49c-19.61,3.68 -84,25.4 -84.86,48.67 -1.59,42.3 61.46,-1.03 75.15,-6.59 37.19,-15.12 56.74,15.72 94.11,17.34 32.45,1.41 62.29,-26.35 92.86,-23.07 32.03,3.44 47.44,37.51 84.41,19.42 19.56,-9.56 19.07,-24.32 -2.88,-25.72 -13.27,-0.84 -22.39,4.65 -36.23,-1.06 -21.64,-8.93 -30.36,-23.46 -56.25,-21.16 -19.54,1.75 -37.2,12.76 -56.28,17.03 -43.67,9.76 -67.9,-32.76 -110.01,-24.87z"/>
    <path id="point_28" class="fil3" d="M909.57 933.95c-1.35,0.57 -1.35,0.57 0,0zm4.95 -17.61c0.21,0.09 1.69,2.14 0,0zm-22.49 -13.45c-0.85,0.66 -0.85,0.66 0,0zm0.48 -0.17c4.36,2.61 39.43,26.59 13.96,32.24 -12.93,2.86 -23.63,-23.15 -13.96,-32.24m-11.6 -26.55c-56.17,25.61 4.27,117.25 48.35,80.02 18.55,-15.67 20.99,-47.34 2.94,-63.66 -10.8,-9.78 -36.62,-23.06 -51.28,-16.36z"/>
    <path id="Fill_x0020_41_29" class="fil1" d="M353.7 1237.29c-70.08,0.02 -140.78,-1.45 -210.77,2.7 -11.77,0.69 -56.64,-1.54 -62.72,10.77 -11.1,22.52 35.07,11.35 41.78,10.67 139.35,-13.95 284.92,-5.92 424.72,-1.94 114.35,3.24 228.08,5.26 342.29,11.16 30.02,1.54 60.01,3.25 90.01,5.07 9.78,0.59 34.39,7.07 36.45,-8.55 1.91,-14.45 -28.79,-11.18 -36.45,-11.59 -60.98,-3.21 -121.92,-6.58 -182.89,-10 -146.73,-8.27 -295.45,-8.31 -442.42,-8.28z"/>
    <path id="Fill_x0020_43_30" class="fil2" d="M77.96 1262.32c-13.08,13.01 -6.95,62.7 -7.32,79.12 -0.64,28.73 -1.99,57.43 -2.6,86.14 -0.63,30.01 0.25,60.17 2.02,90.14 0.74,12.58 11.08,73.39 27.33,38.59 7.27,-15.55 -0.17,-58.87 -0.06,-76.49 0.21,-32.07 1.93,-64 3.52,-96.03 1.37,-27.53 1.42,-55.09 2.63,-82.63 0.38,-8.78 1.42,-65.85 -25.52,-38.83z"/>
    <path id="Fill_x0020_45_31" class="fil2" d="M1027.25 1518.89c-68.21,6.99 -137.51,3.69 -205.97,8.85 -59,4.45 -117.95,6.27 -177.11,7.52 -133.95,2.82 -268.13,5.58 -401.69,16.75 -30.44,2.54 -60.84,5.24 -91.36,6.6 -15.26,0.68 -79.32,-6.27 -84.08,9.82 -8.12,27.41 60.37,16.56 75.14,16.13 32.49,-0.93 64.83,-3.28 97.22,-5.75 136.19,-10.38 272.9,-13.48 409.38,-17.79 74.22,-2.35 147.93,-7.77 221.99,-12.71 36.91,-2.46 73.93,-2.54 110.84,-4.92 9.66,-0.63 43.85,0.6 50.8,-7.17 4.77,-5.33 5.98,-18.36 -5.15,-17.33z"/>
    <path id="Fill_x0020_47_32" class="fil1" d="M1004.14 1266.99c2.34,65.41 6.03,130.76 8.24,196.17 0.66,19.67 -5.29,54.91 5.67,72.26 17.61,27.9 31.35,-1.63 34.58,-19.01 10.18,-54.85 -0.76,-115.44 -3.61,-170.63 -1.07,-21.05 5.46,-67.91 -4.71,-86.76 -9.69,-17.95 -41.04,-16.14 -40.17,7.97z"/>
    <path id="hola_x0020_:_x0029__33" class="fil2" d="M889.63 1360.15c26.14,7.08 29.95,63.88 0.46,68.09 -43.88,6.25 -24.69,-56.38 -0.46,-68.09m-7.32 -22.59c-7.97,-0.25 -26.37,-2.45 -31.28,4.04 -4.11,5.43 0.04,16.88 -0.44,22.05 -1.72,18.48 -16.75,29.16 -10.03,50.98 4.56,14.81 16.77,28.73 31.65,33.86 78.53,27.15 77.58,-124.59 10.1,-110.93z"/>
    <path id="Fill_x0020_51_34" class="fil2" d="M173.3 1347.74c-0.19,0.25 -0.39,0.5 -0.58,0.75 0.19,-0.26 0.39,-0.5 0.58,-0.75m61.68 -32.81c-0.3,-2.64 -0.62,-5.26 -0.92,-7.89 42.58,20.1 76.46,57.49 62.32,107.67 -10.78,38.29 -49.76,51.87 -86.07,42.42 -40.19,-10.47 -59.4,-43.6 -48.57,-84.28 5.01,-18.77 20.36,-44 40.2,-50.04 9.24,-2.81 29.67,4.36 33.04,-7.88m-24.9 -15.9c-10.77,0.73 -21.26,5.21 -30.04,11.35 8.23,-6.97 19.19,-11.1 30.04,-11.35m0.31 -24.73c-26.61,0.82 -44.05,16.93 -59.82,36.26 -4.95,6.07 -21.7,22.17 -19.63,30.36 1.64,6.47 5.93,15.93 14.96,8.71 -47.31,94.29 74.91,174.73 149.53,109.15 69.64,-61.19 0.55,-187.35 -85.04,-184.48z"/>
    <path id="Fill_x0020_53_35" class="fil2" d="M186.22 1361.9c0,12.55 19.49,12.55 19.49,0 0,-12.56 -19.49,-12.56 -19.49,0z"/>
    <path id="Fill_x0020_55_36" class="fil1" d="M219.47 1364.04c0,12.76 19.81,12.76 19.81,0 0,-12.76 -19.81,-12.76 -19.81,0z"/>
    <path id="Fill_x0020_57_37" class="fil1" d="M234.57 1408.86c-9.26,0.74 -43.18,-2.4 -49.14,5.72 -9.95,13.57 5.93,14.04 13.73,15.5 7.02,1.32 37.57,0.57 41.87,-5.67 3.81,-5.51 2.91,-16.35 -6.46,-15.55z"/>
    <path id="Fill_x0020_59_38" class="fil2" d="M643.24 1373.68c-1.59,0.66 -1.59,0.66 0,0zm-128.16 -9.37c-20.89,1.54 -38.56,13.54 -58.53,18.34 -21.3,5.12 -30.53,-4.29 -49.91,-10.45 -20.15,-6.41 -34.49,-3.87 -50.69,9.89 -9.18,7.8 -29.31,25.75 -23.58,39.61 13.14,31.71 42.87,-19.88 56.86,-22.29 21.81,-3.74 41.22,15.33 66.39,9.88 22.8,-4.95 43.03,-20.6 66.84,-20.77 19.91,-0.14 38.68,10.76 58.34,13.4 30.01,4.02 49.71,-6.64 77.46,-14.54 24.05,-6.86 40.92,2.18 63.55,9.79 10.34,3.48 44.84,16.12 38.5,-6.8 -1.8,-6.48 -47.28,-18.06 -54.32,-20.28 -24.86,-7.85 -40.6,-4.8 -64.28,4.23 -19.75,7.54 -36.37,11.21 -57.54,7.07 -23.33,-4.58 -44.54,-18.93 -69.08,-17.07z"/>
   </g>
  </g>
  <polygon class="fil16 str0" points="3.73,3.73 3733.52,3.73 3733.52,3435.13 3.73,3435.13 "/>
 </g>
</svg>
