<?xml version="1.0" encoding="UTF-8"?>
<!DOCTYPE svg PUBLIC "-//W3C//DTD SVG 1.1//EN" "http://www.w3.org/Graphics/SVG/1.1/DTD/svg11.dtd">
<!-- Creator: CorelDRAW 2020 (64-Bit Evaluation Version) -->
<svg xmlns="http://www.w3.org/2000/svg" xml:space="preserve" width="100mm" height="92mm" version="1.1" style="shape-rendering:geometricPrecision; text-rendering:geometricPrecision; image-rendering:optimizeQuality; fill-rule:evenodd; clip-rule:evenodd"
viewBox="0 0 5598.83 5150.93"
 xmlns:xlink="http://www.w3.org/1999/xlink"
 xmlns:xodm="http://www.corel.com/coreldraw/odm/2003">
 <defs>
  <style type="text/css">
   <![CDATA[
    .fil30 {fill:none}
    .fil5 {fill:#003333}
    .fil28 {fill:#007718}
    .fil26 {fill:#008400}
    .fil25 {fill:#181658}
    .fil14 {fill:#1820BF}
    .fil21 {fill:#191847}
    .fil29 {fill:#23B04D}
    .fil15 {fill:#2B44FF}
    .fil22 {fill:#393F82}
    .fil27 {fill:#44BD27}
    .fil12 {fill:#4A312C}
    .fil11 {fill:#915B3C}
    .fil2 {fill:#AFB9C5}
    .fil16 {fill:#C21B15}
    .fil9 {fill:#C5CFD6}
    .fil8 {fill:#C7D1D9}
    .fil6 {fill:#CBCBCB}
    .fil4 {fill:#CC9933}
    .fil20 {fill:#D4A181}
    .fil13 {fill:#E4E4E4}
    .fil23 {fill:#E87613}
    .fil10 {fill:#F2F2F2}
    .fil17 {fill:#FF4133}
    .fil24 {fill:#FFA434}
    .fil7 {fill:#AFB9C5;fill-rule:nonzero}
    .fil3 {fill:#C5CFD6;fill-rule:nonzero}
    .fil0 {fill:#F2F2F2;fill-rule:nonzero}
    .fil18 {fill:black;fill-opacity:0.101961}
    .fil1 {fill:black;fill-rule:nonzero;fill-opacity:0.101961}
    .fil19 {fill:white;fill-opacity:0.200000}
   ]]>
  </style>
   <clipPath id="id0">
    <path d="M-0 0l5598.83 0 0 5150.93 -5598.83 0 0 -5150.93z"/>
   </clipPath>
 </defs>
 <g id="Layer_x0020_1">
  <metadata id="CorelCorpID_0Corel-Layer"/>
  <g>
  </g>
  <g style="clip-path:url(#id0)">
   <g>
    <g id="Clock">
     <circle id="Clock_x0020_Frame" class="fil0" cx="1355.52" cy="1129.99" r="842.84"/>
     <path id="Time" class="fil1" d="M1403.22 462.08c0,-26.34 -21.36,-47.7 -47.7,-47.7 -26.35,0 -47.71,21.36 -47.71,47.7 0,26.34 21.36,47.71 47.71,47.71 26.34,0 47.7,-21.37 47.7,-47.71z"/>
     <path id="Time_2" class="fil1" d="M735.31 1130c0,-26.35 -21.37,-47.71 -47.71,-47.71 -26.34,0 -47.7,21.36 -47.7,47.71 0,26.34 21.36,47.7 47.7,47.7 26.34,0 47.71,-21.36 47.71,-47.7z"/>
     <path id="Time_3" class="fil1" d="M2071.13 1130c0,-26.35 -21.37,-47.71 -47.71,-47.71 -26.34,0 -47.7,21.36 -47.7,47.71 0,26.34 21.36,47.7 47.7,47.7 26.34,0 47.71,-21.36 47.71,-47.7z"/>
     <path id="Time_4" class="fil1" d="M1403.22 1797.9c0,-26.34 -21.36,-47.7 -47.7,-47.7 -26.35,0 -47.71,21.36 -47.71,47.7 0,26.34 21.36,47.71 47.71,47.71 26.34,0 47.7,-21.37 47.7,-47.71z"/>
     <polygon id="Hand" class="fil2" points="1355.52,557.5 1387.32,1114.09 1323.72,1114.09 "/>
     <polygon id="Hand_2" class="fil2" points="1636.96,1411.44 1344.6,1164.06 1389.58,1119.08 "/>
     <circle id="Time_5" class="fil3" cx="1355.52" cy="1129.99" r="63.61"/>
    </g>
    <g id="_1882762259456">
     <path class="fil4" d="M2705.82 1179.51c34.1,40.6 67.87,80.48 83.47,140.16 3.19,12.22 61.82,72.95 41.22,92.88 -3.2,12.74 -6.57,28.82 5.83,36.82 27.23,16.76 55.71,31.63 81.69,50.26 41.44,29.73 39.59,55.91 14.23,73.24 -14.16,9.44 -34.33,16.59 -24.46,28.45 27.4,26.76 25.08,49.47 -4.84,69.24 20.83,10.9 30.96,24.19 15.62,43.16 -14.61,29.63 -7.02,48.12 26.07,53.8 33.86,54.76 3.58,103.33 -52.14,120.37 -44.63,13.64 -100.74,31.07 -132.66,48.46 -80.6,86.55 -113.02,189.28 -103.42,222.43 -134.25,-31.11 -257.2,-54.02 -391.45,-85.14 12.85,-49.64 48.7,-185.07 21.17,-251.86 -92.32,-128.5 -161.34,-276.04 -203.92,-445.2 15.96,-155.92 70.67,-265.08 179.24,-309.26 152.48,-67.11 347.57,-31.64 444.34,112.19z"/>
     <path class="fil5" d="M2593.37 1616.36c-13.83,-28.24 -27.67,-56.48 -41.5,-84.72 0.57,-41.22 6.07,-79.23 32.76,-103.49 65.98,-47.72 61.93,-105.93 36.7,-167.32 5.62,-80.41 47.55,-78.98 111.4,-28.17 14.91,12.85 20.75,18.36 35.66,31.21 41.26,-64.22 139.83,-102.52 -20.26,-244.32 -61.06,-33.98 -125.88,-45.26 -196.52,-21.54 -56.97,8.34 -128.06,5.72 -223,10.74 -73.07,26.38 -151.26,20.36 -209.78,138.55 -41.49,84.98 -56.9,165.84 -52.71,243.58 -3.12,54.81 50.75,186.9 214.58,468.1 39.61,33.49 66.08,35.24 60.19,-41.13 -5.31,-48.31 -10.62,-96.62 -15.93,-144.94 -28.46,-241.46 330.85,-74.2 209.92,161.62 117.94,53.36 265.27,81.84 347.27,61.74 80.51,-19.74 94.49,-69.3 73.33,-132.75 -7.24,-3.26 -37.89,-10.77 -33.04,-56.21 -22.83,34.89 -15,54.05 4.63,54.13 0.77,7.91 -12.11,14.67 -17.4,9.34 -27.75,-28.53 -32.57,-73.4 -11.23,-109.7 9.18,-13.16 17.23,-27.89 29.3,-28.34 -4.37,-18.91 -8.87,-31.51 -22.26,-40.8 -48.16,44.2 -40.5,98.18 -40.66,164.44 -58.18,4.01 -109.96,2.17 -180.66,-43.36 -27.87,-35.52 -62.94,-61.13 -90.8,-96.65z"/>
    </g>
    <g id="Lamp">
     <path id="Body_x0020__x0028_Stroke_x0029_" class="fil6" d="M4888.53 273.86c-18.75,-10.03 -41.29,-10.03 -60.03,0l-660.02 353.28 -60.03 -112.16 660.02 -353.28c56.25,-30.1 123.85,-30.1 180.1,0l1582.26 846.91c103.4,55.34 167.97,163.11 167.97,280.41l0 5162.25 -127.22 0 0 -5162.25c0,-70.37 -38.74,-135.05 -100.79,-168.25l-1582.25 -846.91z"/>
     <path class="fil7" d="M6175.79 6388.85l842.84 0c26.35,-0.01 47.71,21.35 47.71,47.7l-0.01 15.91c0.01,26.34 -21.36,47.7 -47.71,47.7l-842.84 0.01c-26.34,-0.01 -47.71,-21.37 -47.71,-47.71l0 -15.9c0,-26.35 21.37,-47.71 47.71,-47.71z"/>
     <g id="Lamp_x0020_Top">
      <path id="Lamp_2" class="fil3" d="M3543.88 351.19c204.94,-204.96 537.21,-204.96 742.16,0l0 0c204.94,204.93 204.94,537.2 0,742.15l-314.86 314.86 -742.16 -742.16 314.85 -314.85z"/>
      <ellipse id="Lamp_3" class="fil0" transform="matrix(0.75909 0.75909 -0.75909 0.75909 3612.67 1028.57)" rx="488.85" ry="96.29"/>
     </g>
    </g>
    <g id="Table">
     <g id="Lamp_4">
      <path class="fil7" d="M3406.87 3801.66l540.69 0c17.57,-0.01 31.81,14.24 31.81,31.8l-0.01 79.51c0.01,17.56 -14.23,31.8 -31.8,31.8l-540.7 0.01c-17.56,-0.01 -31.8,-14.25 -31.8,-31.81l0 -79.5c0,-17.57 14.24,-31.81 31.81,-31.81z"/>
      <path id="Lamp_x0020_Body" class="fil8" d="M3648.86 2640.77l28.36 0 15.9 0 28.36 0c8.23,245.2 46.49,478.43 114.76,699.71l103.37 0c136.12,0 246.49,110.36 246.49,246.49 0,136.12 -110.36,246.49 -246.49,246.49l-524.79 0c-136.12,0 -246.49,-110.36 -246.49,-246.49 0,-136.13 110.36,-246.49 246.49,-246.49l119.27 0c102.41,-331.92 114.76,-699.71 114.76,-699.71z"/>
      <path id="Shade" class="fil9" d="M3114.61 1538.39c0,0 273.35,-26.71 546.7,-26.71 273.35,0 546.7,26.71 546.7,26.71l73.5 1263.53c0,0 -310.1,29.69 -620.2,29.69 -310.1,0 -620.21,-29.69 -620.21,-29.69l73.5 -1263.53z"/>
     </g>
     <polygon id="Table_2" class="fil10" points="2675.35,5598.66 2675.35,4294.64 2675.35,3944.78 3009.31,3944.78 4329.23,3944.78 4663.18,3944.78 4663.18,4294.64 4663.18,5598.66 4329.23,5598.66 4329.23,4294.64 3009.31,4294.64 3009.31,5598.66 "/>
    </g>
    <g id="Master_x002f_Pose_x002f_Standing">
     <g id="Master_x002f_Pose_x002f_Standing_0">
      <g id="Head_x002f_Front">
       <g id="Head_x002f_Front_x002f_Caesar">
        <g id="Head">
         <path id="SKIN" class="fil11" d="M5154.02 1200c-117.14,70.61 -232.25,104.72 -286.27,90.8 -135.47,-34.93 -147.93,-530.55 -43.11,-725.94 104.83,-195.39 643.73,-280.56 670.89,106.58 9.43,134.36 -46.99,254.27 -130.35,352.12l149.47 696.63 -434.16 0 73.53 -520.18z"/>
        </g>
        <path id="Combined_x0020_Shape" class="fil12" d="M5351.84 580.52c-250.54,1.79 -424.85,-8.77 -524.61,-36.19 4.55,-84.91 92.82,-180.89 325.62,-180.89 259.01,0 397.98,150.97 397.98,325.62 0,159.56 -102.72,353.89 -180.9,361.79 -20.24,-4.42 -37.52,-28.78 -54.69,-62.34 32.17,-15.25 54.69,-50.44 54.69,-91.42 0,-54.95 -40.5,-99.49 -90.45,-99.49 -18.14,0 -35.03,5.87 -49.19,15.98 -32.85,-53.01 -74.03,-92.65 -131.71,-88.35l36.18 -108.54 217.08 -18.08 0 -18.09z"/>
       </g>
      </g>
      <g id="Lower_x0020_Body_x002f_Standing">
       <g id="Lower_x0020_Body_x002f_Standing_x002f_Baggy_x0020_Pants">
        <polygon id="SKIN_1" class="fil11" points="5550.84,3221.64 4662.94,5468.9 4067.45,7368.75 3832.29,7368.75 4778.86,3221.64 "/>
        <path id="SKIN_2" class="fil11" d="M5729.61 3221.64c9.46,789.7 147.34,1852.9 169.38,1902.14 22.04,49.22 1520.97,1251.99 1520.97,1251.99l-161.96 173.31c0,0 -1768.61,-1031.21 -1850.45,-1168.75 -81.84,-137.54 -348.29,-1403.19 -562.22,-2158.69l884.29 0z"/>
        <g id="Left_x0020__x005b_Shoe_x005d_">
         <path id="shoe" class="fil13" d="M7393.9 6343.31c5.92,-20.33 27.35,-32.44 47.24,-25.16 36.29,13.26 89.37,34.71 112.88,54.45 37.48,31.46 98.92,104.29 98.92,104.29 -36.49,43.48 -655.84,781.59 -655.84,781.59 0,0 -126.29,-54.06 -79.25,-126.43 47.05,-72.38 77.01,-121.22 77.01,-121.22l142.88 -499.18c2.81,-9.8 13.15,-15.34 22.87,-12.26l76.24 24.19c0,0 79.34,-36.97 111.22,-74.98 19.4,-23.12 35.89,-71.21 45.83,-105.29z"/>
        </g>
        <g id="Right_x0020__x007b_Shoe_x005d_">
         <path id="shoe_2" class="fil13" d="M4113.59 7260.83c19.39,-8.52 42.44,0.11 49.66,20.03 13.17,36.3 30.84,90.77 30.84,121.47 0,48.93 -16.3,142.81 -16.3,142.81 -56.76,0 -1020.3,0 -1020.3,0 0,0 -39.78,-131.48 45.91,-141.98 85.69,-10.48 142.37,-18.92 142.37,-18.92l474.23 -211.42c9.32,-4.17 20.21,0.2 24.09,9.62l30.49 73.96c0,0 79.32,37.01 128.91,37.01 30.19,0 77.62,-18.29 110.11,-32.58z"/>
        </g>
        <polygon id="Pant" class="fil14" points="4953.87,7173.08 3835.83,7051.73 4736.79,3221.64 5665.81,3221.64 "/>
        <path id="Pant_3" class="fil15" d="M7188.69 6096.13l-733.36 868.06c0,0 -1158.66,-1265.45 -1351.01,-1651.43 -192.33,-385.96 -345.8,-2091.12 -345.8,-2091.12l1127.38 0c0,0 83.83,1500.12 113.01,1569.94 29.2,69.81 1189.79,1304.55 1189.79,1304.55z"/>
       </g>
      </g>
      <g id="Upper_x0020_Body">
       <g id="Upper_x0020_Body_x002f_Jacket">
        <path id="SKIN_4" class="fil11" d="M3554.21 3434.34l512.45 -499.92 170.19 294.49 -532.88 314.19c-133.61,210.47 -212.08,301.41 -235.41,272.83 -19.69,-24.11 -10.66,-50.54 -2.35,-74.87 6.47,-18.96 12.5,-36.64 4.21,-50.99 -18.94,-32.79 -125.93,-14.03 -226.69,8.14 -100.78,22.14 -77.46,-27.35 -56.04,-53.18 95.25,-76.87 217.41,-147.1 366.52,-210.68zm3020.54 726.31c-53.02,-107.54 -233.54,-1155.73 -233.54,-1155.73l-378.03 1.49c0,0 350.13,1130.27 378.03,1199.43 36.25,89.83 -25.32,220.35 -67.08,308.87 -6.46,13.69 -12.44,26.37 -17.51,37.75 57.93,25.92 85.76,-5.41 115.1,-38.45 33.14,-37.32 68.21,-76.79 150.76,-38.4 31.89,14.85 62.07,32.38 91.55,49.53 101.85,59.19 195.42,113.58 322.69,35.04 20.17,-12.45 42.29,-59.31 -11.14,-95.95 -133.1,-91.26 -324.91,-251 -350.82,-303.59z"/>
        <path id="Coat_x0020_Back" class="fil16" d="M5266.91 1418.66l-156.42 -26.84c-269.33,672.77 -739.52,1284.07 -1410.58,1833.89l507.1 616.06c670.99,-782.86 1084.6,-1590.57 1059.9,-2423.12z"/>
        <path id="Shirt" class="fil8" d="M5948.81 3384.46l-1392.92 0c0,0 484.07,-1176.98 484.07,-1999.65l420.17 -62.61c330.22,531.09 423.47,1184.97 488.68,2062.25z"/>
        <path id="Coat_x0020_Front" class="fil17" d="M6581.96 3981.42c-152.33,-1718.61 -1112.6,-2659.21 -1112.6,-2659.21l-0.32 0.3c-0.06,-0.1 -0.12,-0.2 -0.18,-0.3l-27.42 0c-49.23,1.7 -149.96,6.11 -149.96,6.11l-101.53 290.15c-16.11,530.64 -188.15,2138.75 -188.15,2138.75l911.75 0c-1.56,73.73 -4.99,148.5 -10.51,224.2l678.93 0z"/>
        <path id="Shade_5" class="fil18" d="M5913.38 3764.34c7.28,-321.09 -21.21,-622.58 -68.73,-895.41 -24.85,323.76 -76.79,713.3 -185.28,895.41l254.01 0z"/>
        <polygon id="Light" class="fil19" points="5711.63,3203.56 5261.39,2994.25 5261.39,3203.56 "/>
       </g>
      </g>
     </g>
    </g>
    <g id="Lower_x0020_Body_x002f_Sitting">
     <g id="Lower_x0020_Body_x002f_Sitting_x002f_Baggy_x0020_Pants">
      <g id="Seat">
       <path id="Seat_2" class="fil9" d="M1023.08 4618.27c-159.85,0 -289.43,129.59 -289.43,289.44l0 1664.27c0,159.86 129.58,289.44 289.43,289.44l2080.34 0c159.86,0 289.44,-129.58 289.44,-289.44l0 -1664.27c0,-159.86 -129.59,-289.44 -289.44,-289.44l-2080.34 0zm289.44 506.53c-39.96,0 -72.36,32.39 -72.36,72.35l0 1085.4c0,39.96 32.4,72.36 72.36,72.36l1501.46 0c39.96,0 72.36,-32.39 72.36,-72.36l0 -1085.4c0,-39.96 -32.39,-72.35 -72.36,-72.35l-1501.46 0z"/>
      </g>
      <path id="SKIN_6" class="fil20" d="M5186.64 6770.97c-356.67,-435.53 -597.98,-758.42 -723.98,-968.64 -215.72,-359.98 -392.28,-680.29 -448,-802.64 -132.87,-291.78 305.88,-428.4 405.18,-292.31 150.3,205.98 471.27,854.16 962.91,1944.51l-196.11 119.08z"/>
      <path id="LegLower" class="fil21" d="M4455.79 6644.34l-663.77 -1670.84c-141.98,-304.58 543.62,-504.8 647.94,-363.05 236.87,321.81 799.86,1591.3 870.43,1687.18l-854.61 346.71z"/>
      <path id="SKIN_7" class="fil20" d="M2687.95 6309.26c129.31,-188.61 599.61,-823.14 855.77,-1085.68 73.61,-75.44 145.45,-147.86 213.37,-215.33 201.92,-200.58 604.02,136.54 402.46,319.23 -501.94,454.97 -1234.29,1069.16 -1295.47,1123.92 -85.77,76.75 -257.38,-23.61 -176.13,-142.13z"/>
      <g id="Left_x0020__x005b_shoe_x005d_">
       <path id="shoe_8" class="fil13" d="M2771.73 6231.62c-12.53,-17.08 -36.79,-21.13 -53,-7.49 -29.58,24.87 -72.11,63.18 -87.47,89.78 -24.46,42.36 -57.26,131.82 -57.26,131.82 49.15,28.38 883.6,510.15 883.6,510.15 0,0 100.18,-93.98 31.22,-145.89 -68.98,-51.94 -113.82,-87.59 -113.82,-87.59l-304.99 -420.19c-5.99,-8.25 -17.61,-9.93 -25.68,-3.71l-63.37 48.78c0,0 -87.21,-7.59 -130.16,-32.39 -26.16,-15.11 -58.09,-54.64 -79.07,-83.27z"/>
      </g>
      <g id="Right_x0020__x005b_shoe_x005d_">
       <path id="shoe_2_9" class="fil13" d="M5083.37 6685.66c-19.39,-8.52 -42.44,0.11 -49.66,20.03 -13.17,36.3 -30.84,90.77 -30.84,121.47 0,48.93 16.3,142.81 16.3,142.81 56.76,0 1020.3,0 1020.3,0 0,0 39.78,-131.48 -45.91,-141.98 -85.7,-10.48 -142.37,-18.92 -142.37,-18.92l-474.22 -211.42c-9.32,-4.16 -20.21,0.2 -24.1,9.62l-30.48 73.96c0,0 -79.32,37.01 -128.91,37.01 -30.19,0 -77.62,-18.29 -110.11,-32.58z"/>
      </g>
      <path id="Leg_x0020_and_x0020_Butt" class="fil22" d="M3553.18 5056.95c0,0 -827.52,-134.81 -1108.59,-184.37 -534.07,-94.17 -689.8,-381.57 -597.73,-1008.62l984.02 0c195.34,56.41 1632.31,697.72 1632.31,697.72 172.36,85.57 140.27,337.84 108.77,420.96 -1.94,5.09 -871.72,1493.7 -871.72,1493.7l-804.97 -512.81 659.41 -846.15c0,0 26.12,-52.61 -1.52,-60.43z"/>
     </g>
    </g>
    <g id="Upper_x0020_Body_10">
     <g id="Upper_x0020_Body_x002f_Jacket_x0020_2">
      <path id="SKIN_11" class="fil4" d="M4410.15 3075.28l-655.49 287.86 209.3 268.13 490.91 -376.39c245.21,-45.04 358.94,-83.73 341.16,-116.08 -14.98,-27.27 -42.85,-28.8 -68.52,-30.22 -20,-1.1 -38.68,-2.13 -48.88,-15.2 -23.28,-29.84 34.19,-122 92.48,-207.13 58.28,-85.14 3.66,-82.06 -28.31,-71.88 -106.95,59.51 -217.82,146.47 -332.64,260.89zm-2934.82 440.7l-370.69 -73.55c-251.41,662.63 -401.29,1025.73 -449.64,1089.34 -35.47,46.64 -254.16,166.77 -402.19,230.94 -59.41,25.74 -46.66,75.96 -29.23,92.02 109.92,101.32 212.11,65.81 323.35,27.15 32.2,-11.19 65.16,-22.65 99.29,-31.13 88.33,-21.93 115.21,23.5 140.61,66.42 22.49,38.01 43.83,74.05 105.63,59.66 -2.82,-12.12 -6.27,-25.7 -9.99,-40.37 -24.09,-94.79 -59.62,-234.61 -6.91,-315.83 27.05,-41.68 226.98,-409.9 599.77,-1104.64z"/>
      <path id="Coat_x0020_Back_12" class="fil23" d="M2482.85 2055.52l156.42 -26.84c340.71,330.51 479.75,1124.54 706.81,1229.64 214.68,99.37 519,3.21 880.72,-126.63l110.77 247.51c-328.66,355.58 -1028.85,655.98 -1312.66,484.5 -453.76,-274.2 -558.5,-1253.51 -542.06,-1808.17z"/>
      <path id="Shirt_13" class="fil8" d="M1800.95 4021.31c0,0 940.82,0 1384.08,0 63.26,0 51.34,-91.32 42.19,-137.41 -105.5,-531.85 -517.41,-1105.15 -517.41,-1862.24l-399.22 -62.6c-330.22,531.09 -444.42,1184.97 -509.63,2062.25z"/>
      <path id="Coat_x0020_Front_14" class="fil24" d="M2289.38 1959.05l-4.56 0c-895.47,551.82 -1436.66,1407.23 -1623.53,2566.21l290.11 56.82c192.17,-223.9 429.34,-590.31 711.5,-1099.26 -86.57,306.58 -149.77,621.02 -169.48,918.36l1245.89 0c241.19,-609.53 -296.42,-2442.13 -296.42,-2442.13l-86.02 0 -67.49 0z"/>
     </g>
    </g>
    <g id="Master_x002f_Pose_x002f_Standing_15">
     <g id="Master_x002f_Pose_x002f_Standing_16">
      <g id="Head_x002f_Front_17">
       <g id="Head_x002f_Front_x002f_Short_x0020_2">
        <g id="Head_18">
         <path id="SKIN_19" class="fil20" d="M312.71 1336.74c117.14,70.61 232.25,104.72 286.27,90.8 135.49,-34.92 147.94,-530.55 43.11,-725.94 -104.83,-195.39 -643.73,-280.55 -670.89,106.58 -9.43,134.36 46.99,254.27 130.34,352.12l-149.46 696.63 434.16 0 -73.54 -520.18z"/>
        </g>
        <path id="Hair" class="fil25" d="M68.18 1247.43c-54.49,-242.42 -209.73,-407.67 -186.02,-516.03 23.7,-108.35 126.38,-134.76 126.38,-134.76 0,0 53.1,-214.82 342.52,-182.74 289.42,32.08 466.06,152.27 389.77,416.75 -70.12,0 -154.77,-25.36 -271.83,18.08 -55.71,20.68 -79.7,128.26 -79.7,128.26l-52.9 0c0,0 -77.01,-127.67 -151.86,-93.83 -74.86,33.84 -34.04,164.39 -34.04,164.39l-26.06 199.87 -56.27 0z"/>
       </g>
      </g>
      <g id="Lower_x0020_Body_x002f_Standing_20">
       <g id="Lower_x0020_Body_x002f_Standing_x002f_Skinny_x0020_Jeans">
        <polygon id="Leg" class="fil26" points="-192.64,3358.38 463.21,5659.91 941.72,7356.26 1290.73,7356.26 782.24,3358.38 "/>
        <path id="Leg_21" class="fil27" d="M-368.04 3358.38c-15.16,1186.24 -66.89,1833.23 -82.82,1941.02 -15.94,107.78 -256.76,793.39 -722.5,2056.86l361.55 0c592.92,-1212.08 923.91,-1897.71 992.96,-2056.86 69.03,-159.16 282.13,-806.16 603.06,-1941.02l-1152.25 0z"/>
        <path id="Shoe" class="fil21" d="M-1205.68 7681.88l18.09 -379.89 379.89 0c270.19,189.95 705.5,307.53 705.5,307.53l0 72.36 -687.42 0 -235.16 -36.18 0 36.18 -180.9 0z"/>
        <path id="Shoe_2" class="fil21" d="M892.75 7681.88l18.1 -379.89 379.88 0c270.19,189.95 705.51,307.53 705.51,307.53l0 72.36 -687.41 0 -235.17 -36.18 0 36.18 -180.9 0z"/>
       </g>
      </g>
      <g id="Upper_x0020_Body_22">
       <g id="Upper_x0020_Body_x002f_Jacket_x0020_2_23">
        <path id="SKIN_24" class="fil20" d="M2127.11 2575.17l-655.48 287.86 209.3 268.13 490.91 -376.38c245.21,-45.04 358.94,-83.74 341.16,-116.08 -14.98,-27.27 -42.86,-28.81 -68.53,-30.22 -20,-1.11 -38.68,-2.13 -48.88,-15.2 -23.28,-29.84 34.19,-122 92.48,-207.13 58.28,-85.14 3.65,-82.06 -28.31,-71.88 -106.94,59.51 -217.82,146.48 -332.64,260.9zm-2934.81 440.7l-370.7 -73.55c-251.4,662.63 -401.29,1025.73 -449.64,1089.34 -35.46,46.64 -254.15,166.77 -402.18,230.94 -59.42,25.74 -46.66,75.96 -29.24,92.02 109.92,101.32 212.11,65.81 323.35,27.15 32.2,-11.2 65.16,-22.65 99.3,-31.14 88.33,-21.93 115.21,23.5 140.61,66.43 22.5,38 43.83,74.04 105.63,59.66 -2.81,-12.12 -6.27,-25.71 -9.99,-40.38 -24.1,-94.79 -59.62,-234.61 -6.91,-315.84 27.05,-41.68 226.97,-409.9 599.78,-1104.64z"/>
        <path id="Coat_x0020_Back_25" class="fil28" d="M199.82 1555.41l156.43 -26.83c340.7,330.5 479.74,1124.53 706.81,1229.63 214.68,99.37 519,3.21 880.72,-126.62l110.76 247.51c-328.65,355.58 -1028.84,655.98 -1312.65,484.49 -453.76,-274.2 -558.51,-1253.51 -542.07,-1808.17z"/>
        <path id="Shirt_26" class="fil8" d="M-482.08 3521.2c0,0 940.82,0 1384.07,0 63.26,0 51.34,-91.32 42.19,-137.41 -105.5,-531.85 -517.41,-1105.15 -517.41,-1862.23l-399.22 -62.61c-330.22,531.08 -444.42,1184.97 -509.63,2062.25z"/>
        <path id="Coat_x0020_Front_27" class="fil29" d="M6.35 1458.95l-4.56 0c-895.47,551.82 -1436.65,1407.22 -1623.53,2566.21l290.11 56.83c192.18,-223.9 429.35,-590.31 711.51,-1099.27 -86.57,306.59 -149.77,621.02 -169.48,918.37l1245.89 0c241.19,-609.54 -296.41,-2442.13 -296.41,-2442.13l-86.02 0 -67.49 0z"/>
       </g>
      </g>
     </g>
    </g>
   </g>
  </g>
  <polygon class="fil30" points="-0,0 5598.83,0 5598.83,5150.93 -0,5150.93 "/>
 </g>
</svg>
