<?xml version="1.0" encoding="UTF-8"?>
<!DOCTYPE svg PUBLIC "-//W3C//DTD SVG 1.1//EN" "http://www.w3.org/Graphics/SVG/1.1/DTD/svg11.dtd">
<!-- Creator: CorelDRAW 2020 (64-Bit Evaluation Version) -->
<svg xmlns="http://www.w3.org/2000/svg" xml:space="preserve" width="100mm" height="92mm" version="1.1" style="shape-rendering:geometricPrecision; text-rendering:geometricPrecision; image-rendering:optimizeQuality; fill-rule:evenodd; clip-rule:evenodd"
viewBox="0 0 3625.09 3335.08"
 xmlns:xlink="http://www.w3.org/1999/xlink"
 xmlns:xodm="http://www.corel.com/coreldraw/odm/2003">
 <defs>
  <style type="text/css">
   <![CDATA[
    .fil4 {fill:none}
    .fil27 {fill:#003333}
    .fil10 {fill:#181F31}
    .fil22 {fill:#1820BF}
    .fil24 {fill:#191847}
    .fil5 {fill:#2A0752}
    .fil23 {fill:#2B44FF}
    .fil8 {fill:#342A83}
    .fil13 {fill:#56919C}
    .fil14 {fill:#77D692}
    .fil12 {fill:#89C5CC}
    .fil0 {fill:#915B3C}
    .fil16 {fill:#A8E5BA}
    .fil11 {fill:#B28B67}
    .fil25 {fill:#C21B15}
    .fil15 {fill:#C7D1D9}
    .fil26 {fill:#CC9933}
    .fil7 {fill:#E4E4E4}
    .fil9 {fill:#E87613}
    .fil28 {fill:#FF4133}
    .fil1 {fill:#FFA434}
    .fil2 {fill:white;fill-opacity:0.000000}
    .fil6 {fill:black;fill-opacity:0.101961}
    .fil17 {fill:#56919C;fill-opacity:0.250980}
    .fil19 {fill:#89C5CC;fill-opacity:0.250980}
    .fil20 {fill:#C1DEE2;fill-opacity:0.250980}
    .fil18 {fill:#89C5CC;fill-opacity:0.501961}
    .fil21 {fill:#C1DEE2;fill-opacity:0.501961}
    .fil3 {fill:black}
   ]]>
  </style>
   <clipPath id="id0">
    <path d="M-0 0l3625.09 0 0 3335.08 -3625.09 0 0 -3335.08z"/>
   </clipPath>
          <clipPath id="id1">
           <path d="M3476.2 460.81c5.11,-14.72 39.93,-60.32 -22.08,-103.76 -11.15,-7.81 -29.55,-0.02 -45.5,-4.96 -12,-3.7 -16.04,-20.45 -29.8,-23.37 -14.27,-3.03 -29.82,10.7 -45.94,9.5 -9.88,-0.74 -25.13,-16.15 -35.42,-16.97 -18.36,-1.48 -35.04,15.85 -52.98,16.97 -10.4,0.64 -22.46,-16.08 -32.79,-16.97 -25.11,-2.16 -47.99,9.56 -70.13,13.11 -20.4,3.27 -29.89,45.08 -44.91,54.95 -47.15,31.01 -84.09,39.67 -122.36,71.5 -45.49,37.82 -54.19,65.97 -73.04,91.18 -18.84,25.21 -30.48,114.02 -19.49,170.94 6.48,33.57 23.38,125.26 61.12,160.77 51.65,48.59 156.73,62.99 166.07,56.5 43.2,-30.03 140.05,-196.1 208.73,-254.78 50.51,-43.16 126.89,-133.43 158.54,-224.61z"/>
          </clipPath>
          <clipPath id="id2">
           <path d="M-0 0l3625.09 0 0 3335.08 -3625.09 0 0 -3335.08z"/>
          </clipPath>
          <clipPath id="id3">
           <path d="M3476.2 460.81c5.11,-14.72 39.93,-60.32 -22.08,-103.76 -11.15,-7.81 -29.55,-0.02 -45.5,-4.96 -12,-3.7 -16.04,-20.45 -29.8,-23.37 -14.27,-3.03 -29.82,10.7 -45.94,9.5 -9.88,-0.74 -25.13,-16.15 -35.42,-16.97 -18.36,-1.48 -35.04,15.85 -52.98,16.97 -10.4,0.64 -22.46,-16.08 -32.79,-16.97 -25.11,-2.16 -47.99,9.56 -70.13,13.11 -20.4,3.27 -29.89,45.08 -44.91,54.95 -47.15,31.01 -84.09,39.67 -122.36,71.5 -45.49,37.82 -54.19,65.97 -73.04,91.18 -18.84,25.21 -30.48,114.02 -19.49,170.94 6.48,33.57 23.38,125.26 61.12,160.77 51.65,48.59 156.73,62.99 166.07,56.5 43.2,-30.03 140.05,-196.1 208.73,-254.78 50.51,-43.16 126.89,-133.43 158.54,-224.61z"/>
          </clipPath>
          <clipPath id="id4">
           <path d="M-0 0l3625.09 0 0 3335.08 -3625.09 0 0 -3335.08z"/>
          </clipPath>
         <clipPath id="id5">
          <path d="M369.79 351.7c6.63,2.23 0,-26.29 -15.85,-36.72 -48.62,-31.99 -193.34,-79.33 -292.31,-58.79 -19.51,4.05 -40.45,9.9 -61.63,17.27l0 953.38c67.44,40.59 116.33,120.8 139.78,145.49 0,0 202.32,203.12 282.41,176.67 14.05,-4.64 -7.01,-172.9 -21.07,-245.02 -14.05,-72.11 -151.86,-200.82 -160.69,-243.23 -5.21,-24.98 -6.07,-68.48 -6.61,-70.46 -13,-89.61 -10.76,-96.89 -29.72,-133.4 -18.96,-36.51 -33.66,-38.66 -29.11,-49.29 22.27,-51.97 93.87,-210.98 110.12,-262.98 19.36,-61.97 10.21,-41.62 30.17,-103.37 8.84,-27.35 20.09,-101.1 54.51,-89.53z"/>
         </clipPath>
         <clipPath id="id6">
          <path d="M-0 0l3625.09 0 0 3335.08 -3625.09 0 0 -3335.08z"/>
         </clipPath>
         <clipPath id="id7">
          <path d="M369.79 351.7c6.63,2.23 0,-26.29 -15.85,-36.72 -48.62,-31.99 -193.34,-79.33 -292.31,-58.79 -19.51,4.05 -40.45,9.9 -61.63,17.27l0 953.38c67.44,40.59 116.33,120.8 139.78,145.49 0,0 202.32,203.12 282.41,176.67 14.05,-4.64 -7.01,-172.9 -21.07,-245.02 -14.05,-72.11 -151.86,-200.82 -160.69,-243.23 -5.21,-24.98 -6.07,-68.48 -6.61,-70.46 -13,-89.61 -10.76,-96.89 -29.72,-133.4 -18.96,-36.51 -33.66,-38.66 -29.11,-49.29 22.27,-51.97 93.87,-210.98 110.12,-262.98 19.36,-61.97 10.21,-41.62 30.17,-103.37 8.84,-27.35 20.09,-101.1 54.51,-89.53z"/>
         </clipPath>
         <clipPath id="id8">
          <path d="M-0 0l3625.09 0 0 3335.08 -3625.09 0 0 -3335.08z"/>
         </clipPath>
 </defs>
 <g id="Layer_x0020_1">
  <metadata id="CorelCorpID_0Corel-Layer"/>
  <g>
  </g>
  <g style="clip-path:url(#id0)">
   <g>
    <g id="_1927884684880">
     <g id="Master_x002f_Pose_x002f_Standing">
      <g id="Master_x002f_Pose_x002f_Standing_0">
       <g id="Head_x002f_Front">
        <g id="Head_x002f_Front_x002f_Turban2">
         <g id="Head">
          <path id="SKIN" class="fil0" d="M3484.78 532.68c68.47,127.62 60.34,451.35 -28.16,474.17 -35.29,9.09 -110.46,-13.19 -186.97,-59.31l48.02 339.77 -283.58 0 97.62 -455.04c-54.44,-63.91 -91.29,-142.22 -85.13,-229.98 17.74,-252.86 369.73,-197.24 438.2,-69.61z"/>
         </g>
         <g id="Turban">
          <path id="Path" class="fil1" d="M3476.2 460.81c5.11,-14.72 39.92,-60.32 -22.08,-103.76 -11.14,-7.81 -29.55,-0.03 -45.5,-4.96 -12,-3.7 -16.04,-20.45 -29.8,-23.37 -14.27,-3.03 -29.82,10.7 -45.94,9.5 -9.88,-0.74 -25.13,-16.14 -35.42,-16.97 -18.36,-1.48 -35.05,15.85 -52.99,16.97 -10.4,0.64 -22.46,-16.08 -32.78,-16.97 -25.12,-2.16 -48,9.55 -70.13,13.1 -20.4,3.27 -29.88,45.08 -44.91,54.96 -47.16,31.01 -84.1,39.68 -122.36,71.5 -45.49,37.83 -54.2,65.97 -73.04,91.18 -18.84,25.21 -30.48,114.02 -19.5,170.94 6.49,33.58 23.37,125.27 61.12,160.77 51.65,48.59 156.74,62.99 166.07,56.5 43.2,-30.03 140.05,-196.1 208.74,-254.79 50.51,-43.16 126.89,-133.43 158.54,-224.6z"/>
         </g>
         <g style="clip-path:url(#id1)">
          <polygon class="fil2" points="2877.49,320.98 3490.55,320.98 3490.55,941.66 2877.49,941.66 "/>
         </g>
         <g style="clip-path:url(#id2)">
         </g>
         <g style="clip-path:url(#id3)">
          <g>
           <path id="1" class="fil3" d="M3182.19 645.08c31.82,-97.67 89.62,-341.54 89.62,-341.54l-34.91 3.66c0,0 -27.66,155.61 -56.09,256.4 -25.99,92.16 -55.88,182.52 -79.37,253.55 -32.46,98.16 -52.73,159.44 -33.69,137.66 2.28,-2.61 4.56,-5.64 6.85,-9.11 0.21,0.46 0.54,0.73 0.99,0.8 -1.34,2.67 0.52,1.46 6.12,-3.72l0.05 -0.04c32.55,-30.18 125.67,-136.51 223.19,-312.74 44.87,-81.1 127.19,-286.56 127.19,-286.56l-32.69 -13.99c0,0 -54.36,162.33 -94.5,241.05 -70.58,138.41 -136.78,241.33 -179.83,304.43 17.84,-35.6 38.84,-83.31 65.03,-142.82 11.53,-26.21 24.07,-54.7 37.8,-85.45 41.86,-93.81 124.84,-330.31 124.84,-330.31l-35.12 0c0,0 -43.77,151.86 -82.58,249.14 -35.48,88.93 -74.65,175.67 -105.44,243.86l0 0c-0.52,1.16 -1.04,2.3 -1.55,3.45 7.76,-23.57 16.18,-49.84 25.45,-78.8 8.73,-27.27 18.22,-56.91 28.66,-88.93z"/>
          </g>
         </g>
         <g style="clip-path:url(#id4)">
          <path class="fil4" d="M3476.2 460.81c5.11,-14.72 39.93,-60.32 -22.08,-103.76 -11.15,-7.81 -29.55,-0.02 -45.5,-4.96 -12,-3.7 -16.04,-20.45 -29.8,-23.37 -14.27,-3.03 -29.82,10.7 -45.94,9.5 -9.88,-0.74 -25.13,-16.15 -35.42,-16.97 -18.36,-1.48 -35.04,15.85 -52.98,16.97 -10.4,0.64 -22.46,-16.08 -32.79,-16.97 -25.11,-2.16 -47.99,9.56 -70.13,13.11 -20.4,3.27 -29.89,45.08 -44.91,54.95 -47.15,31.01 -84.09,39.67 -122.36,71.5 -45.49,37.82 -54.19,65.97 -73.04,91.18 -18.84,25.21 -30.48,114.02 -19.49,170.94 6.48,33.57 23.38,125.26 61.12,160.77 51.65,48.59 156.73,62.99 166.07,56.5 43.2,-30.03 140.05,-196.1 208.73,-254.78 50.51,-43.16 126.89,-133.43 158.54,-224.61z"/>
         </g>
        </g>
       </g>
       <g id="Lower_x0020_Body_x002f_Standing">
        <g id="Lower_x0020_Body_x002f_Standing_x002f_Skirt">
         <path id="Skirt_x0020_Shadow" class="fil5" d="M2578.09 3427.01c0,0 425.18,118.92 733.67,118.92 308.47,0 573.07,-183.14 573.07,-183.14 0,0 -416.08,-122.06 -685.32,-122.06 -269.24,0 -621.42,186.28 -621.42,186.28z"/>
         <path id="SKIN_1" class="fil0" d="M3557.14 3660.2c-2.73,-4.1 -5.05,-8.58 -6.88,-13.41 -37.88,-100.21 -644.77,-1181.15 -705.23,-1378.77l683.26 0c45.98,150.26 252.87,1093.19 281.98,1281.33 91.88,296.75 281.02,1257.83 305.18,1324.4 25.4,70.05 -117.54,143.01 -155.62,56.91 -60.6,-137.02 -205,-516.12 -269.3,-747.61 -60.27,-217.01 -109.35,-412.25 -133.4,-522.85z"/>
         <path id="Shadow" class="fil6" d="M3557.14 3660.2c-2.73,-4.1 -5.05,-8.57 -6.88,-13.41 -37.89,-100.21 -644.77,-1181.15 -705.23,-1378.77l683.26 0c45.98,150.26 252.87,1093.19 281.98,1281.33 91.88,296.75 281.02,1257.83 305.18,1324.4 25.4,70.05 -117.54,143.01 -155.62,56.91 -60.6,-137.02 -205,-516.12 -269.3,-747.61 -60.27,-217.01 -109.35,-412.25 -133.4,-522.85z"/>
         <path id="SKIN_2" class="fil0" d="M2998.13 3792.19c-277.46,70.11 -1292.32,196.9 -1361.97,216.78 -71.65,20.45 -134.46,-127.22 -45.91,-159.21 140.9,-50.9 529.16,-168.51 764.57,-216.5 189.34,-38.6 362.12,-70.11 478.11,-88.55 -9.82,-325.84 -54.74,-1107.81 -25.3,-1276.7l604.56 0c-28.24,161.95 -266.92,1343.67 -311.28,1461.96 -14.08,42.22 -56.09,60.89 -102.79,62.21l0 0z"/>
         <g id="Left_x0020__x005b_shoe_x005d_">
          <path id="shoe" class="fil7" d="M1615.38 3840.39c3.29,-13.43 -4.88,-27.28 -18.51,-29.67 -24.85,-4.35 -61.89,-9.54 -81.63,-6.06 -31.47,5.55 -90.01,26.69 -90.01,26.69 6.44,36.51 115.72,656.31 115.72,656.31 0,0 89.09,10.67 86.11,-45.64 -2.97,-56.3 -3.97,-93.72 -3.97,-93.72l82.2 -329.02c1.62,-6.45 -2.42,-12.97 -8.92,-14.4l-51.02 -11.22c0,0 -32.81,-46.83 -38.43,-78.73 -3.43,-19.41 2.95,-52 8.46,-74.52z"/>
         </g>
         <g id="Right_x0020__x005b_shoe_x005d_">
          <path id="shoe_2" class="fil7" d="M3949.22 4906.3c-12.66,-5.56 -27.72,0.07 -32.43,13.08 -8.6,23.71 -20.14,59.29 -20.14,79.34 0,31.96 10.65,93.28 10.65,93.28 37.08,0 666.44,0 666.44,0 0,0 25.98,-85.88 -29.99,-92.73 -55.97,-6.84 -92.99,-12.35 -92.99,-12.35l-309.75 -138.09c-6.08,-2.72 -13.2,0.13 -15.74,6.29l-19.91 48.3c0,0 -51.81,24.18 -84.2,24.18 -19.72,0 -50.7,-11.95 -71.93,-21.28z"/>
         </g>
         <path id="Skirt" class="fil8" d="M2809.59 2268.02c0,0 399.61,-114.34 756.21,0 82.71,377.36 283.69,527.14 319.03,1105.71 -401.74,199.62 -898,-142.36 -1311.55,52.3 -118.16,-272.28 47.26,-928.02 236.32,-1158.01z"/>
        </g>
       </g>
       <g id="Upper_x0020_Body">
        <g id="Upper_x0020_Body_x002f_Lab_x0020_Coat">
         <path id="SKIN_3" class="fil0" d="M2022.23 2696.74c44.07,-64.75 298.97,-753.24 298.97,-753.24l209.28 30.4c0,0 -336.96,731.09 -361.3,773.29 -31.61,54.81 -3.65,144.84 15.32,205.88 2.93,9.44 5.65,18.19 7.9,26 -39.83,11.51 -54.98,-11.29 -70.96,-35.33 -18.05,-27.14 -37.14,-55.86 -94.02,-38.53 -21.98,6.7 -43.09,15.3 -63.72,23.7 -71.25,29.03 -136.72,55.7 -211.9,-6.67 -11.92,-9.89 -21.96,-42.21 15.93,-61.05 94.39,-46.93 232.97,-132.81 254.51,-164.46zm2270.77 -320l-356.67 -302.39 -97.48 199.66 361.52 180.43c96.64,131.05 151.92,186.74 165.83,167.04 11.72,-16.6 4.64,-33.4 -1.88,-48.9 -5.08,-12.05 -9.82,-23.31 -5.07,-33.03 10.85,-22.21 81.41,-14.87 148.08,-5.02 66.66,9.84 49.21,-21.35 34.09,-37.2 -65.55,-45.73 -148.36,-85.93 -248.41,-120.57z"/>
         <path id="Coat_x0020_Back" class="fil9" d="M3195.9 1090.37l129.68 -42.88c175.9,439.43 438.26,864.6 876.58,1223.73l-108.39 187.01c-385.23,-226.92 -749.88,-403.2 -897.87,-743.71 -49.66,-114.28 -4.05,-487.49 0,-624.14z"/>
         <path id="Shirt" class="fil10" d="M2750.51 2327.1c0,0 557.19,59.08 877.16,0 26.43,-4.88 30.6,-49.13 18.34,-79.16 -190.85,-467.63 -321.72,-875.66 -321.72,-1200.46 -52.52,26.48 -183.85,7.94 -183.85,7.94 -235.3,334.72 -343.46,718.78 -389.92,1271.69z"/>
         <path id="Coat_x0020_Front" class="fil1" d="M3073 1027.36c6.07,-4.09 9.29,-6.13 9.29,-6.13l-0.36 6.13 98.07 0c4.93,28.98 12.13,136.39 22.66,293.01 38.24,569.14 120.15,1788.07 294.49,2254.55l-1202.91 0c25.38,-530.34 220.91,-1164.55 423.46,-1703.08 -149.47,148.71 -324.02,397.99 -465.1,812.96l-225.32 -57.84c229.62,-989.45 902.36,-1499.73 1032.9,-1590.81 1.28,-2.95 2.54,-5.88 3.81,-8.79l8.99 0z"/>
        </g>
       </g>
      </g>
     </g>
     <g id="Master_x002f_Pose_x002f_Standing_4">
      <g id="Master_x002f_Pose_x002f_Standing_5">
       <g id="Head_x002f_Front_6">
        <g id="Head_x002f_Front_x002f_Hijab2">
         <g id="Head_7">
          <path id="SKIN_8" class="fil11" d="M183.42 832.84c80.29,48.4 159.19,71.78 196.23,62.24 92.86,-23.94 101.4,-363.68 29.55,-497.61 -71.86,-133.93 -441.25,-192.31 -459.87,73.06 -6.46,92.1 32.21,174.29 89.35,241.36l-102.45 477.52 297.59 0 -50.4 -356.56z"/>
         </g>
         <path id="Hijab" class="fil12" d="M369.79 351.7c6.63,2.23 0,-26.29 -15.86,-36.72 -48.62,-31.99 -193.34,-79.33 -292.31,-58.78 -66.3,13.76 -148.98,48.3 -201.93,92.34 -47.74,39.7 -91.17,109.68 -108.07,171.17 -17.74,64.56 -24.45,154.39 0,210.72 29.13,67.09 132.27,139.38 135,148.98 3.11,10.96 -9.08,53.77 -18,98.87 -8.92,45.1 -4.86,159.94 0,178.67 7.77,29.93 49.43,44.65 67.6,46.82 100.44,11.97 173.25,136.66 203.56,168.57 0,0 202.32,203.12 282.4,176.67 14.05,-4.64 -7.01,-172.9 -21.06,-245.02 -14.05,-72.12 -151.86,-200.83 -160.69,-243.24 -5.2,-24.98 -6.07,-68.48 -6.62,-70.46 -13,-89.61 -10.76,-96.89 -29.71,-133.4 -18.96,-36.51 -33.66,-38.65 -29.11,-49.29 22.27,-51.97 93.87,-210.98 110.12,-262.97 19.36,-61.97 10.21,-41.62 30.17,-103.38 8.84,-27.35 20.09,-101.1 54.51,-89.53z"/>
        </g>
        <g style="clip-path:url(#id5)">
         <polygon class="fil2" points="-264.3,251.19 426.82,251.19 426.82,1551.37 -264.3,1551.37 "/>
        </g>
        <g style="clip-path:url(#id6)">
        </g>
        <g style="clip-path:url(#id7)">
         <g>
          <path id="1" class="fil3" d="M91.99 558.77c-4.68,-94.31 0,-131.14 21.75,-200.17l-13.42 0c-21.2,27.39 -38.94,111.17 -19.01,200.17l10.67 0zm-262.86 -4.44l0 -0 0 0c-2.34,-5.73 -4.73,-11.59 -7.21,-17.6l-8.52 4.1c26.9,98.4 59.63,174.37 171.99,238.05l8.74 -6.12c-106.27,-74.73 -129.06,-130.49 -164.99,-218.43zm159.33 -117.69c1.12,8.53 2.2,16.85 3.26,24.96l0 0c16.15,124.67 26.4,203.72 116.44,347.1l-10.2 3.12c-98.71,-132.97 -114.35,-241.49 -119.02,-374.42l9.53 -0.76zm-97.21 404.09l-8.73 10.61c43.73,9.15 73.46,41.32 107.55,78.19 36.07,39.01 77,83.29 144.54,111.16l12.54 -7.59c-73.72,-38.33 -108.02,-76.43 -137.97,-109.69 -31,-34.43 -57.34,-63.69 -117.93,-82.67z"/>
         </g>
        </g>
        <g style="clip-path:url(#id8)">
         <path class="fil4" d="M369.79 351.7c6.63,2.23 0,-26.29 -15.85,-36.72 -48.62,-31.99 -193.34,-79.33 -292.31,-58.79 -66.3,13.76 -148.98,48.31 -201.93,92.35 -47.74,39.69 -91.17,109.68 -108.07,171.17 -17.74,64.56 -24.45,154.39 0,210.72 29.12,67.08 132.27,139.38 134.99,148.98 3.11,10.96 -9.08,53.76 -18,98.86 -8.92,45.11 -4.86,159.94 0,178.67 7.77,29.93 49.43,44.65 67.6,46.82 100.45,11.96 173.25,136.66 203.56,168.56 0,0 202.32,203.12 282.41,176.67 14.05,-4.64 -7.01,-172.9 -21.07,-245.02 -14.05,-72.11 -151.86,-200.82 -160.69,-243.23 -5.21,-24.98 -6.07,-68.48 -6.61,-70.46 -13,-89.61 -10.76,-96.89 -29.72,-133.4 -18.96,-36.51 -33.66,-38.66 -29.11,-49.29 22.27,-51.97 93.87,-210.98 110.12,-262.98 19.36,-61.97 10.21,-41.62 30.17,-103.37 8.84,-27.35 20.09,-101.1 54.51,-89.53z"/>
        </g>
       </g>
       <g id="Lower_x0020_Body_x002f_Standing_10">
        <g id="Lower_x0020_Body_x002f_Standing_x002f_Skirt_11">
         <path id="Skirt_x0020_Shadow_12" class="fil13" d="M-542.32 3434.87c0,0 446.2,124.8 769.94,124.8 323.72,0 601.4,-192.19 601.4,-192.19 0,0 -436.65,-128.1 -719.19,-128.1 -282.54,0 -652.14,195.49 -652.14,195.49z"/>
         <path id="SKIN_13" class="fil11" d="M485.12 3679.6c-2.86,-4.3 -5.3,-9 -7.22,-14.08 -39.75,-105.16 -676.63,-1239.53 -740.08,-1446.93l717.04 0c48.25,157.69 265.37,1147.23 295.92,1344.67 96.42,311.42 294.92,1320.01 320.26,1389.88 26.66,73.51 -123.34,150.08 -163.3,59.72 -63.6,-143.79 -215.14,-541.64 -282.62,-784.56 -63.25,-227.74 -114.76,-432.63 -140,-548.69z"/>
         <path id="Shadow_14" class="fil6" d="M485.13 3679.6c-2.87,-4.3 -5.3,-9 -7.22,-14.08 -39.75,-105.16 -676.63,-1239.53 -740.09,-1446.93l717.04 0c48.25,157.69 265.37,1147.23 295.93,1344.67 96.42,311.42 294.92,1320.01 320.26,1389.88 26.66,73.51 -123.34,150.08 -163.31,59.72 -63.6,-143.79 -215.14,-541.64 -282.62,-784.57 -63.26,-227.74 -114.76,-432.63 -139.99,-548.69z"/>
         <path id="SKIN_15" class="fil11" d="M-101.51 3818.1c-291.17,73.58 -1356.22,206.63 -1429.3,227.5 -75.18,21.46 -141.11,-133.51 -48.17,-167.08 147.87,-53.42 555.32,-176.84 802.36,-227.2 198.71,-40.51 380.02,-73.57 501.75,-92.93 -10.3,-341.95 -57.45,-1162.57 -26.54,-1339.81l634.44 0c-29.64,169.96 -280.11,1410.09 -326.66,1534.23 -14.78,44.3 -58.86,63.9 -107.87,65.28l0 0z"/>
         <g id="Left_x0020__x005b_shoe_x005d__16">
          <path id="shoe_17" class="fil7" d="M-1552.62 3868.7c3.45,-14.1 -5.12,-28.63 -19.42,-31.14 -26.09,-4.56 -64.95,-10.01 -85.68,-6.36 -33.03,5.83 -94.46,28.01 -94.46,28.01 6.75,38.32 121.44,688.75 121.44,688.75 0,0 93.49,11.2 90.37,-47.9 -3.12,-59.08 -4.17,-98.36 -4.17,-98.36l86.27 -345.29c1.69,-6.76 -2.54,-13.61 -9.37,-15.11l-53.55 -11.78c0,0 -34.42,-49.14 -40.33,-82.62 -3.6,-20.37 3.1,-54.57 8.88,-78.2z"/>
         </g>
         <g id="Right_x0020__x005b_shoe_x005d__18">
          <path id="shoe_2_19" class="fil7" d="M896.59 4987.29c-13.29,-5.84 -29.09,0.08 -34.04,13.73 -9.03,24.89 -21.14,62.22 -21.14,83.26 0,33.54 11.17,97.89 11.17,97.89 38.91,0 699.38,0 699.38,0 0,0 27.26,-90.12 -31.47,-97.32 -58.74,-7.18 -97.59,-12.97 -97.59,-12.97l-325.06 -144.92c-6.39,-2.85 -13.86,0.14 -16.52,6.59l-20.9 50.69c0,0 -54.37,25.37 -88.36,25.37 -20.7,0 -53.21,-12.54 -75.48,-22.33z"/>
         </g>
         <path id="Skirt_20" class="fil12" d="M-299.38 2218.6c0,0 419.36,-119.99 793.59,0 86.8,396.02 297.71,553.2 334.8,1160.37 -421.59,209.49 -942.39,-149.4 -1376.39,54.88 -124,-285.74 49.6,-973.89 248,-1215.25z"/>
        </g>
       </g>
       <g id="Upper_x0020_Body_21">
        <g id="Upper_x0020_Body_x002f_Jacket_x0020_2">
         <path id="SKIN_22" class="fil11" d="M1427.12 1681.73l-449.31 197.32 143.47 183.79 336.5 -257.99c168.08,-30.87 246.04,-57.4 233.85,-79.57 -10.27,-18.69 -29.38,-19.74 -46.97,-20.71 -13.72,-0.76 -26.51,-1.46 -33.5,-10.42 -15.96,-20.45 23.43,-83.63 63.38,-141.98 39.95,-58.36 2.51,-56.25 -19.4,-49.27 -73.31,40.79 -149.31,100.4 -228.01,178.84zm-2011.7 302.08l-254.09 -50.42c-172.33,454.21 -275.06,703.1 -308.21,746.7 -24.31,31.97 -174.21,114.31 -275.68,158.3 -40.72,17.65 -31.98,52.07 -20.03,63.08 75.34,69.45 145.39,45.11 221.63,18.61 22.08,-7.67 44.67,-15.53 68.06,-21.34 60.55,-15.03 78.97,16.11 96.39,45.53 15.41,26.05 30.04,50.75 72.4,40.89 -1.93,-8.31 -4.3,-17.62 -6.85,-27.68 -16.51,-64.98 -40.87,-160.82 -4.73,-216.49 18.54,-28.57 155.58,-280.96 411.12,-757.18z"/>
         <path id="Coat_x0020_Back_23" class="fil14" d="M106.04 982.72l107.22 -18.39c233.54,226.54 328.85,770.82 484.49,842.86 147.15,68.11 355.75,2.2 603.7,-86.8l75.93 169.65c-225.28,243.73 -705.23,449.65 -899.78,332.1 -311.04,-187.95 -382.83,-859.23 -371.56,-1239.43z"/>
         <path id="Shirt_24" class="fil15" d="M-361.38 2330.19c0,0 644.9,0 948.73,0 43.36,0 35.19,-62.59 28.92,-94.19 -72.32,-364.56 -354.66,-757.54 -354.66,-1276.48l-273.65 -42.91c-226.36,364.04 -304.63,812.25 -349.33,1413.59z"/>
         <path id="Coat_x0020_Front_25" class="fil16" d="M-26.58 916.6l-3.12 0c-613.81,378.25 -984.77,964.59 -1112.87,1759.04l198.86 38.95c131.73,-153.48 294.3,-404.63 487.71,-753.5 -59.34,210.15 -102.66,425.69 -116.17,629.5l854.01 0c165.33,-417.81 -203.19,-1673.98 -203.19,-1673.98l-58.96 0 -46.26 0z"/>
        </g>
       </g>
      </g>
     </g>
     <path id="Image_x0020_Border" class="fil17" d="M1558.36 44.84c138.26,-4.74 276.52,-9.49 414.92,-10.78 75,-0.69 149.59,0.62 224.49,4.92 33.22,1.9 66.4,3.75 99.66,5.15 5.73,0.24 13.64,-0.15 22.39,-0.58 20.57,-1.01 45.7,-2.24 57.51,4.01 66.12,34.97 -68.59,38.81 -84.95,38.53 -36.67,-0.62 -73.3,-2.44 -109.94,-4.24 -32,-1.57 -64.02,-3.16 -96.07,-3.95 -205.57,-5.05 -412.4,4.18 -618.34,13.39 -47.2,2.1 -94.36,4.21 -141.44,6.14 -50,2.06 -99.98,3.38 -149.94,4.7 -71.45,1.9 -142.89,3.8 -214.32,7.82 -27.27,1.54 -54.55,3.15 -81.84,4.78 -39.06,2.33 -78.13,4.65 -117.22,6.71 -30.6,1.61 -61.21,3.19 -91.85,3.96 -5.52,0.13 -12.71,0.9 -20.56,1.73l0 0 0 0c-18.99,2.03 -41.84,4.47 -54.2,-0.58 -14.84,-6.08 -26.85,-14.57 -18.69,-32.58 6.91,-15.22 32.01,-13.39 50.31,-12.05 5,0.37 9.49,0.69 12.95,0.62 58.49,-1.14 116.85,-4.42 175.24,-8 21.35,-1.31 42.7,-2.65 64.04,-3.99l0.01 0 0 0 0 0 0 0c111.15,-6.99 222.18,-13.97 333.61,-15.87 114.8,-1.96 229.52,-5.9 344.25,-9.83zm722.07 909.92l39.75 -0.47c20.53,1.78 29.71,23.33 16.53,39.89 -10.1,12.69 -48.92,13.26 -74.23,13.63 -7.03,0.11 -13,0.2 -17.03,0.52 -66.08,5.31 -132.03,7.7 -198.31,8.34 -139.57,1.32 -278.62,7.3 -417.97,15.25 -142.63,8.14 -285.39,11.18 -428.15,14.25l-0.01 0c-105.03,2.24 -210.07,4.5 -315.06,8.76 -60.13,2.45 -120.27,4.28 -180.42,5.86 -6.47,0.17 -15.07,1.09 -24.8,2.14 -38,4.11 -93.2,10.07 -105.71,-20.12 -11.11,-26.77 4.32,-39.1 26.89,-44.71 -3.56,-15.86 -2.9,-38.15 -2.52,-50.91 0.11,-3.84 0.21,-6.82 0.15,-8.5 -0.57,-16 -0.98,-32.02 -1.37,-48.03 -0.45,-18.14 -0.89,-36.28 -1.59,-54.42 -0.63,-16.45 -1.23,-32.92 -1.82,-49.41 -2.33,-65 -4.65,-130.17 -9.66,-194.9 -2.32,-29.89 -5.97,-59.42 -9.63,-88.9 -5.83,-47.07 -11.66,-94.02 -11.92,-142.07 -0.05,-8.65 -0.49,-19.46 -0.98,-31.65 -2.49,-62.39 -6.43,-161.03 32.29,-191.06 68.29,-39.85 54.8,75.17 48.76,126.49 -0.99,8.48 -1.79,15.23 -1.98,19.25 -3.92,85.35 1.4,166.95 10.01,251.76 5.8,57.28 2.41,114.36 -0.98,171.54 -1.22,20.42 -2.43,40.85 -3.22,61.32 -0.4,10.12 -0.74,20.24 -1.09,30.34 -1.07,31.14 -2.15,62.25 -4.49,93.35 -0.26,3.37 -0.34,9.81 -0.46,18.06 -0.3,23.25 -0.79,60.76 -5.77,83.53 10.59,-0.47 20.88,-0.35 29.37,-0.25 5.42,0.06 10.1,0.1 13.68,0 16.3,-0.51 32.61,-0.98 48.92,-1.45 48.14,-1.42 96.3,-2.83 144.44,-4.64 113.66,-4.27 227.35,-5.7 341.03,-7.13 134.28,-1.69 268.56,-3.37 402.77,-9.75 221.2,-10.51 443.17,-13.21 664.6,-15.91zm41.04 -834.43c-0.12,146.21 11.18,288.4 24.39,434.04 8.17,90.07 14.72,180.49 19.93,270.79 0.25,4.18 0.2,11.15 0.17,19.89l0 0.01c-0.27,49.94 -0.84,157.53 48.51,131.8 37.26,-19.44 22.94,-132.13 15.02,-194.49l0 0c-1.73,-13.67 -3.17,-24.93 -3.68,-32.24 -1.08,-15.6 -2.15,-31.19 -3.22,-46.78 -4.97,-72.39 -9.92,-144.73 -16.45,-217.03l-1.37 -15.26c-7.56,-83.5 -15.11,-166.96 -16.46,-250.87 -0.11,-6.93 0.57,-16.59 1.32,-27.52 2.18,-31.58 5.09,-73.65 -8.04,-90.42 -18.46,-23.6 -60.08,-16.62 -60.11,18.09z"/>
     <path id="Image_x0020_X" class="fil18" d="M1564.68 478.75c176.59,-79.9 355.23,-160.72 538.88,-218.27 13.28,-4.15 21.67,9.53 18.65,21.02 -3.11,11.83 -31.84,21.92 -50.89,28.62 -5.71,2.01 -10.53,3.7 -13.55,5.04 -25.65,11.46 -51.36,22.78 -77.08,34.1 -26.33,11.57 -52.67,23.17 -78.93,34.91 -54.62,24.39 -109.28,48.69 -163.95,72.99 -58.54,26.01 -117.09,52.03 -175.57,78.19 -2.22,0.98 -4.44,1.96 -6.65,2.97 79.51,28.25 158.57,57.77 237.29,88.18 26.91,10.4 53.72,21 80.53,31.61 15.17,6.01 30.33,12.01 45.51,17.97 4.94,1.94 13.55,4.57 23.9,7.74 33.7,10.29 85.86,26.21 89.71,42.3 6.27,26.2 -65.73,0.86 -92.89,-8.71 -3.61,-1.27 -6.42,-2.25 -8.16,-2.81 -40.09,-12.82 -79.69,-27.09 -119.27,-41.37l-5.48 -1.98c-31.38,-11.29 -62.71,-22.72 -94.03,-34.14 -61.2,-22.31 -122.38,-44.63 -183.91,-66.03 -8.69,-3.03 -17.4,-6.05 -26.11,-9.05 -98.73,44.34 -197.28,89.13 -295.49,134.61 -52.67,24.39 -105.03,49.35 -157.27,74.64 -11.4,5.52 -25.52,14.05 -40.87,23.32 -36.75,22.22 -80.51,48.67 -110.61,48.01 -16.14,-0.36 -27.03,-3.81 -28.71,-23.39 -1.74,-20.19 24.17,-30.77 42.8,-38.39 4.46,-1.82 8.49,-3.48 11.64,-5.05 55.83,-27.92 112,-55.14 168.35,-82.01 111.89,-53.36 224.83,-104.6 338.18,-154.83 0.64,-0.29 1.29,-0.57 1.95,-0.86 -62.86,-21.28 -125.88,-42.04 -189.06,-62.37 -6.31,-2.03 -19.25,-5.62 -36.24,-10.32 -80.31,-22.24 -251.37,-69.62 -243.77,-97.3 8.73,-31.66 169.13,26.2 240.12,51.82 13.31,4.8 23.48,8.48 28.92,10.21 84.9,27.04 169.55,54.87 253.76,83.95 26.06,-11.71 52.16,-23.5 78.28,-35.33z"/>
     <path id="Fill_x0020_117" class="fil19" d="M808.01 1174.08c51.7,9.06 88.17,58.66 82.49,110.58 -7.67,70.16 -77.6,102.32 -142.2,93.17 -73.31,-10.39 -88.73,-72.36 -53.21,-131.97 7.87,-13.2 16.91,-28.99 31.2,-35.94 9.83,-4.78 22.35,-0.56 30.26,-4.41 27.74,-13.5 11.07,-35.01 51.45,-31.43m-23.52 -45.82c-63.08,8.05 -179.63,81.05 -173.73,154.08 5.12,8.47 12.82,11.92 23.09,10.39 -2.46,15.82 -1.66,31.47 2.43,46.95 5.99,20.1 17.94,36.58 33.96,49.66 32.98,26.96 78.07,33.58 119.15,28.85 76.68,-8.82 137.13,-61.23 141.44,-141.01 4.21,-77.86 -63.76,-159.36 -146.35,-148.92z"/>
     <path id="Fill_x0020_119" class="fil18" d="M1038.45 1005.62c-32.21,17.06 -83.17,43.29 -102.05,75.69 -19.95,34.24 0.7,71.71 42.74,55.51 33.37,-12.86 54.6,-53.71 90.21,-66.81 31.42,-11.56 44.07,-5.66 77.28,5.83 34.22,11.86 64.12,23.32 101.1,20.41 46.49,-3.65 86.74,-30.61 132.25,-36.73 38.31,-5.17 69.9,9.73 106.59,15.67 42.57,6.88 70.39,-9.24 110.22,-17.63 27.09,-5.7 74.83,17.52 94.6,8.83 44.42,-19.53 -2.58,-43.4 -27.17,-51.31 -41.43,-13.28 -66.93,-1.56 -106.33,9.47 -42.79,11.96 -61.26,2.96 -102.17,-8.03 -82.74,-22.23 -146.67,31.54 -225.1,21.77 -72.6,-9.06 -116.06,-72.98 -192.17,-32.67z"/>
     <path id="Fill_x0020_121" class="fil18" d="M2278.89 1188.37c69.99,65.62 -8.63,158.97 -85.8,106.53 -27.15,-18.45 -27.6,-48.09 -6.46,-74.63 19.34,-24.25 61.81,-33.71 92.25,-31.9l0 0zm-25.94 -53.02c-65.37,12.72 -127.06,42.73 -132.98,118.19 -5.78,73.62 69.75,107.82 133.2,103 142.44,-10.86 132.14,-246.77 -0.22,-221.19l0 0z"/>
     <path id="face_3" class="fil19" d="M1514.08 1473.85c121.82,2.59 260.03,70.02 240.77,212.84 -14.12,104.63 -104.7,189.56 -209.62,196.89 -112.76,7.87 -231.99,-78.68 -247.31,-193.48 -17.23,-129.14 97.05,-218.83 216.16,-216.25m-59.73 -58.15c-49.4,7.37 -96.59,33.32 -140.07,56.54 -16.6,8.88 -100.75,62.96 -34.74,76.4 -159.03,256.47 215.23,494.7 425.66,328.02 94.51,-74.85 144.25,-216.78 83.16,-327.87 -63.16,-114.9 -212.98,-151.27 -334,-133.09z"/>
     <path id="Fill_x0020_231" class="fil18" d="M1425.24 1634.02c0,47.9 74.36,47.9 74.36,0 0,-47.91 -74.36,-47.91 -74.36,0z"/>
     <path id="Fill_x0020_233" class="fil19" d="M1563.09 1641.68c0,51.93 80.62,51.93 80.62,0 0,-51.92 -80.62,-51.92 -80.62,0z"/>
     <path id="Fill_x0020_235" class="fil19" d="M1470.06 1744.39c-10.85,39.39 112.85,59.61 116.97,14.02 1.96,-21.8 -109.42,-41.5 -116.97,-14.02z"/>
     <path id="Fill_x0020_237" class="fil19" d="M1832.66 1720.04c142.34,-17.09 289.09,-9.19 432.11,-5.1 35.8,1.04 71.58,2.05 107.39,2.64 22.75,0.38 71.9,11.3 91.77,0.65 81.34,-43.62 -78.22,-64.7 -100.82,-66.71 -142.26,-11.7 -361.79,-15.88 -504.48,-10.37 -42.2,1.65 -51.32,81.93 -25.97,78.89z"/>
     <path id="Hola_x0020_:_x0029_" class="fil20" d="M2473.14 2427.6c1.22,-149.13 6.57,-299.27 18.03,-447.97 4.67,-60.59 10.28,-121.11 14.91,-181.73 2.19,-28.54 12.33,-68.52 -4.44,-93.57 -17.29,-25.8 -55.22,-31.16 -78.08,-8.29 -27.36,35.41 -19.41,94.85 -22.82,137.7 -5.23,65.88 -11.55,131.71 -14.7,197.72 -6.07,127.77 -7.49,257.78 2.78,385.38 4.85,60.21 15.37,118.96 29.36,177.68 6.36,26.75 57.01,145.81 46.36,162.23 -16.5,25.47 -138.5,15.85 -164.97,16.55 -67.91,1.82 -135.83,3.01 -203.76,4.31 -58.16,1.11 -116.31,1.91 -174.47,2.41 -23.1,0.21 -158.78,-3.9 -128.68,30.33 -336.59,23.45 -679.6,-15.71 -1014.14,-29.12 -16.9,-0.69 -44.54,-5.5 -70.06,-6.87 -3.05,-12.33 -5.57,-23.33 -6.19,-30.99 -4.4,-53.76 -5.54,-107.71 -10.31,-161.45 -8.73,-98.36 -25.64,-195.7 -35.69,-293.88 -10.05,-98.07 -9.03,-196.44 -14.89,-294.76 -1,-16.83 -3.36,-154.83 -38.19,-188.37 16.51,6.26 43.14,7.09 58.46,5.84 124.1,-10 247.29,-31.57 370.32,-50.08 35.19,-5.29 115.07,-1.54 144.27,-19.13 25.26,-15.23 35.27,-68.64 -8.69,-64.32 -122.69,13.14 -244.7,33.54 -366.41,53.62 -32.57,5.36 -65.03,11.11 -97.51,16.97 -21.69,3.93 -78.91,3.63 -95.74,16.69 -20.42,15.87 -22.58,26.67 -15.66,33.85 -9.62,-2.65 -21.16,1.51 -35.01,15.36 -26.19,34.1 -1.57,118.05 1.56,158.03 3.74,47.95 5.59,95.97 7.77,144 4.22,92.94 13.95,184.6 28.91,276.45 16.75,102.87 31.02,206.18 47.82,309.02 4.36,26.77 10.07,52.89 17.35,78.77 -45.27,23.14 -14.49,59.96 21.4,66.49 0.25,0.05 0.52,0.08 0.78,0.13 11.19,27.29 26.84,52.57 39.06,16.01 0.94,-2.81 1.38,-6.26 1.49,-10.14 92.72,10.49 194.65,3.97 285.93,7.7 197.74,8.09 396.69,20.21 594.62,14.06 78.37,-2.44 156.96,-9.4 234.65,-19.85 45.54,-6.12 91.24,-13.44 136.04,-23.58 3.2,-0.73 8.09,-1.49 13.72,-2.42 0.93,-0.03 1.85,-0.05 2.72,-0.05 68.6,-1.04 137.14,-2.88 205.67,-5.74 57.53,-2.39 115.32,-3.62 172.67,-9.03 35.61,-3.36 110.9,-2.75 132.75,-38.57 19.88,-32.56 -13.35,-116.47 -18.07,-153.04 -8.3,-64.43 -11.48,-129.46 -10.95,-194.35z"/>
     <path id="Fill_x0020_241" class="fil19" d="M1778.01 1997c-54.81,4.69 -105.49,30.42 -160.81,30.75 -46.43,0.25 -92.14,-13.62 -138.82,-11.56 -54.76,2.37 -84.9,37.79 -132.86,49.65 -38.19,9.42 -62.25,-19.82 -95.85,-32.74 -42.4,-16.33 -73.73,-7.9 -110.08,16.8 -26.71,18.14 -89,58.87 -88.51,95.58 1.43,111.2 131.16,-42.41 157.3,-44.27 34.75,-2.47 73.59,37.13 110.55,39.39 48.88,2.98 80.21,-28.53 125.23,-40 45.52,-11.61 94.72,2.6 140.36,7.03 52.06,5.03 97.62,-6.57 147.99,-19 48.82,-12.04 90.41,-11.41 140,-1.3 33.47,6.82 116.86,46.52 131.51,-4.51 19.94,-69.5 -187.7,-89.1 -226.01,-85.83z"/>
     <path id="Fill_x0020_243" class="fil18" d="M1794.68 2209.05c-112.3,10.92 -225.3,20.47 -338.12,23.53 -48.87,1.33 -236.71,-19.62 -220.06,42.48 14.29,53.23 269.91,19.71 321.98,15.65 57.48,-4.46 114.86,-10.71 172.06,-17.94 20.27,-2.57 69.22,0.08 83.52,-16.91 13.64,-16.22 6.93,-49.44 -19.38,-46.81z"/>
     <path id="have_x0020_a_x0020_nice_x0020_day_x0020_:_x0029_" class="fil19" d="M1019.92 2491.83c-2.56,1.08 -2.56,1.08 0,0zm23.69 -0.32c28,-0.88 21.99,-15.64 49.92,-7.96 12.88,3.55 14.21,-1.71 24.19,10.6 19.49,24.02 1.15,76.33 -18.07,95.68 -71.11,71.68 -156.47,-95.14 -56.05,-98.32m0 -70.32c-194.69,6.54 -113.24,307.3 56.22,245.9 69.98,-25.35 113.97,-139.57 72.81,-203.77 -20.02,-31.22 -45.56,-36.78 -79.11,-38.94 -7.79,-0.5 -17.59,10.81 -22.44,10.3 -11.56,-1.22 -10.48,-14.13 -27.49,-13.5z"/>
     <path id="espero" class="fil19" d="M1509.21 2502.14c-3.48,-1.07 61.47,17.81 54.37,10.42 15.17,15.77 -5.24,53.07 -22.38,59.57 -41.54,15.77 -64.84,-48.83 -31.98,-69.99m28.82 -81.56c-60.97,8.64 -108.01,34.02 -116.35,101.81 -7.68,62.57 34.59,125.95 101.29,127.16 145.35,2.66 149.77,-247.76 15.06,-228.97z"/>
     <path id="hola" class="fil19" d="M2201.61 2504.88c8.5,111.12 -106.71,9.4 0,0zm-49.45 -118.88c-10.09,17.23 -1.48,35.5 13.72,45.52 -135.91,28.73 -105.13,233.23 33.17,203.03 70.33,-15.38 83.25,-89.33 72.77,-150.39 -4.99,-29.04 -77.35,-170.52 -119.67,-98.16z"/>
     <path id="Fill_x0020_251" class="fil21" d="M2697.31 2530.04c-50.31,6.33 -169.23,45.65 -168.18,87.87 1.6,65.93 102.67,-6.08 125.16,-15.76 120.76,-52.02 277.2,15.39 402.96,29.74 57.66,6.57 170.46,18.72 221.39,-8.62 90.56,-48.63 -118.9,-36.46 -145.57,-38.42 -145,-10.6 -289.25,-73.32 -435.76,-54.8z"/>
     <path id="Fill_x0020_292" class="fil19" d="M1779.95 3724.03c128.5,18.66 262.16,79.09 261.05,228.67 -0.95,125.75 -106.41,259.59 -241.86,252.07 -121.88,-6.74 -236.65,-140.04 -251.91,-254.26 -7.91,-59.19 6.89,-122.89 41.7,-171.58 45.61,-63.78 117.97,-63.68 191.03,-54.9m-60.69 -81.3c-92.94,0.5 -160.94,34.13 -218.45,105.09 -20.63,25.44 -44.63,52.82 -60.33,81.66 -14.67,26.92 -12.1,95.39 38.24,63.29 -12.4,132.56 65.07,261.2 176.43,329.13 121.06,73.84 257.88,59.44 358.62,-44.06 92.22,-94.73 124.68,-254.74 57.21,-371.9 -67.42,-117.09 -223.66,-164.47 -351.72,-163.22z"/>
     <path id="Fill_x0020_294" class="fil19" d="M1997.94 3607.21c-59.5,43.62 -113.84,101.03 -158.95,159.29 -44.11,56.92 -73.27,128.01 -126.26,177.66 -26.75,-29.14 -58.1,-107.86 -111.48,-76.63 -44.3,25.92 -15.77,70.48 5.8,99.74 55.71,75.55 117.56,105.97 189,31.31 64.89,-67.79 101.74,-158.22 162.4,-229.92 26.62,-31.46 67.72,-62.67 88.91,-97.41 19.21,-31.48 -4.55,-97 -49.42,-64.03z"/>
     <polygon id="Leg" class="fil22" points="1229.78,2245.53 1879.74,3965.34 2335.3,5232.94 2595.07,5232.94 1968.85,2245.53 "/>
     <path id="Leg_26" class="fil23" d="M1069.15 2245.53c-7.07,590.1 -1.96,1384.57 -18.42,1421.37 -16.47,36.78 -1024.02,838.2 -1024.02,838.2l133.89 227.68c0,0 1196.21,-771.4 1257.36,-874.17 61.16,-102.78 368.4,-1048.54 528.26,-1613.08l-877.07 0z"/>
     <path id="Shoe" class="fil24" d="M-208.85 4658.31l226.14 -172.11 182.47 217.46c21.05,245.9 162.83,551.56 162.83,551.56l-41.42 34.75 -330.18 -393.5 -92.24 -151.99 -20.71 17.39 -86.89 -103.56z"/>
     <path id="Shoe_2" class="fil24" d="M2311.19 5476.25l13.52 -283.87 283.87 0c201.9,141.94 527.19,229.81 527.19,229.81l0 54.07 -513.67 0 -175.73 -27.04 0 27.04 -135.18 0z"/>
     <path id="SKIN_27" class="fil0" d="M2807.03 2389.29l-431.2 -316.63 -95.31 235.62 427 177.07c120.76,141.85 188.28,200.99 202.57,177.4 12.05,-19.88 2.64,-38.5 -6.04,-55.64 -6.76,-13.37 -13.08,-25.83 -8.44,-37.31 10.61,-26.22 91.73,-23.45 168.59,-17.55 76.87,5.91 54.47,-28.29 35.94,-45.18 -78.47,-46.97 -176.18,-86.23 -293.12,-117.79zm-2261.27 557.92c39.61,-80.36 174.51,-863.62 174.51,-863.62l282.49 1.11c0,0 -261.63,844.6 -282.49,896.27 -27.09,67.13 18.93,164.66 50.13,230.8 4.82,10.23 9.3,19.71 13.09,28.21 -43.29,19.37 -64.1,-4.04 -86.02,-28.73 -24.76,-27.89 -50.97,-57.38 -112.65,-28.7 -23.83,11.1 -46.39,24.2 -68.42,37.02 -76.11,44.23 -146.02,84.88 -241.13,26.18 -15.08,-9.31 -31.6,-44.33 8.32,-71.7 99.46,-68.2 242.79,-187.56 262.15,-226.85z"/>
     <path id="Coat_x0020_Back_28" class="fil25" d="M1523.05 898.25l116.89 -20.05c433.69,374.65 611.82,1094.39 1143.42,1475.67l-127.95 158.61c-922.23,-114.2 -1150.81,-992.11 -1132.36,-1614.23z"/>
     <path id="Shirt_29" class="fil15" d="M1013.5 2367.18c0,0 703.03,0 1034.25,0 47.27,0 38.36,-68.24 31.52,-102.68 -78.84,-397.42 -386.63,-825.83 -386.63,-1391.56l-298.32 -46.78c-246.76,396.86 -332.09,885.48 -380.82,1541.01z"/>
     <path id="Shade_30" class="fil6" d="M897.21 2651.05c60.99,-146.47 123.52,-317.45 183.71,-494.01 22.41,194.45 59.72,389.74 121.84,494.01l-305.54 0z"/>
     <g>
      <path class="fil26" d="M1825.24 306.15c21.66,33.32 43.14,66.09 49.3,111.92 1.26,9.38 39.33,59.93 22.17,72.88 -3.55,9.19 -7.51,20.84 0.98,27.93 18.73,14.96 38.56,28.63 56.19,44.87 28.12,25.91 24.35,45.22 3.89,55.79 -11.4,5.73 -27.06,9.21 -20.8,18.94 17.94,22.41 14.15,39.1 -9.93,51.07 14.51,10.02 20.83,20.83 7.67,33.55 -13.58,20.71 -9.62,35.16 14.49,42.42 20.19,43.84 -6.78,77.22 -49.8,84.81 -34.46,6.07 -77.8,13.91 -103.14,23.93 -67.88,57.03 -101.41,130.51 -97.29,156.06 -97.05,-35.42 -186.45,-63.71 -283.5,-99.14 14.1,-35.77 53.15,-133.26 38.78,-185.48 -56.95,-104.06 -94.82,-220.16 -111.04,-349.92 26.13,-114.56 76.82,-190.79 161.64,-213.74 119.6,-36 261.52,8.23 320.38,124.1z"/>
      <path class="fil27" d="M1701.64 620.92c-7.71,-22.28 -15.43,-44.55 -23.14,-66.83 4.18,-30.62 11.76,-58.41 33.84,-74.02 53.45,-29.47 55.76,-73.16 42.61,-121.15 11.53,-59.32 42.6,-54.43 85.47,-10.78 9.92,10.93 13.76,15.56 23.68,26.49 36.58,-44.02 113.42,-63.5 7.26,-183.65 -42.32,-30.87 -89.53,-45.18 -144.26,-34 -43.15,0.99 -95.81,-7.45 -166.92,-12.39 -56.78,12.95 -114.41,1.33 -168.77,83.92 -38.64,59.44 -57.49,118.2 -61.49,176.43 -7.33,40.5 20.67,143.71 116.87,367.93 26.41,28.54 45.95,32.27 48.55,-25.1 0.46,-36.44 0.93,-72.87 1.4,-109.31 0.89,-182.27 252.97,-24.97 141.43,139.45 82.88,50.48 189.91,85.15 252.77,77.69 61.71,-7.33 76.65,-42.93 66.7,-92.07 -5.09,-3.08 -27.21,-11.48 -19.45,-44.85 -20.18,23.88 -16.11,38.85 -1.5,40.7 -0.15,5.96 -10.35,9.82 -13.8,5.36 -18.04,-23.76 -17.52,-57.6 1.67,-82.66 8.03,-8.95 15.37,-19.18 24.4,-18.41 -1.53,-14.47 -3.72,-24.26 -12.83,-32.39 -39.88,28.48 -39.11,69.35 -45.3,118.64 -43.65,-2.33 -82.01,-8.44 -130.47,-48.78 -17.49,-28.98 -41.24,-51.24 -58.73,-80.22z"/>
     </g>
     <path id="Coat_x0020_Front_31" class="fil28" d="M897.21 2651.06c-46.48,111.65 -92.07,209.05 -135.02,283.87l-221.81 0c-23.86,-771.61 268.27,-1365.33 512.75,-1723.33 -54.28,-3.88 -103.29,-26.6 -134.26,-82.48 -109.04,-196.76 -69.66,-305.08 46.87,-340.69 64.08,-19.58 124.34,-6.22 196.48,9.78 59.03,13.09 126.03,27.94 209.55,27.95 0.03,0 0.05,0 0.08,0 8.1,0 15.46,0.54 22.14,1.58l99 5.64c0,0 401.92,1362.18 221.69,1817.66l-817.48 0z"/>
    </g>
   </g>
  </g>
  <polygon class="fil4" points="-0,0 3625.09,0 3625.09,3335.08 -0,3335.08 "/>
 </g>
</svg>
