<?xml version="1.0" encoding="UTF-8"?>
<!DOCTYPE svg PUBLIC "-//W3C//DTD SVG 1.1//EN" "http://www.w3.org/Graphics/SVG/1.1/DTD/svg11.dtd">
<!-- Creator: CorelDRAW 2020 (64-Bit Evaluation Version) -->
<svg xmlns="http://www.w3.org/2000/svg" xml:space="preserve" width="100.2mm" height="92.2mm" version="1.1" style="shape-rendering:geometricPrecision; text-rendering:geometricPrecision; image-rendering:optimizeQuality; fill-rule:evenodd; clip-rule:evenodd"
viewBox="0 0 3502.71 3223.05"
 xmlns:xlink="http://www.w3.org/1999/xlink"
 xmlns:xodm="http://www.corel.com/coreldraw/odm/2003">
 <defs>
  <style type="text/css">
   <![CDATA[
    .str0 {stroke:white;stroke-width:6.99;stroke-miterlimit:22.9256}
    .fil16 {fill:none}
    .fil4 {fill:none;fill-rule:nonzero}
    .fil17 {fill:#003333}
    .fil11 {fill:#191847}
    .fil12 {fill:#393F82}
    .fil14 {fill:#77D692}
    .fil18 {fill:#A8E5BA}
    .fil8 {fill:#C5CFD6}
    .fil10 {fill:#C7D1D9}
    .fil13 {fill:#CC9933}
    .fil15 {fill:white;fill-opacity:0.000000}
    .fil0 {fill:white;fill-rule:nonzero;fill-opacity:0.000000}
    .fil9 {fill:black;fill-opacity:0.101961}
    .fil6 {fill:#1C9126;fill-opacity:0.400000}
    .fil5 {fill:#28AA4D;fill-opacity:0.400000}
    .fil7 {fill:#43D26C;fill-opacity:0.400000}
    .fil19 {fill:black}
    .fil1 {fill:#1C9126}
    .fil2 {fill:#28AA4D}
    .fil3 {fill:#43D26C}
   ]]>
  </style>
   <clipPath id="id0">
    <path d="M3.5 3.5l3495.72 0 0 3216.06 -3495.72 0 0 -3216.06z"/>
   </clipPath>
    <clipPath id="id1" style="clip-rule:nonzero">
     <path d="M2247.08 3029.44l1146.47 0 0 -2178.29 -1146.47 0 0 2178.29z"/>
    </clipPath>
    <clipPath id="id2" style="clip-rule:nonzero">
     <path d="M3.5 3.5l3495.72 0 0 3216.06 -3495.72 0 0 -3216.06z"/>
    </clipPath>
    <clipPath id="id3" style="clip-rule:nonzero">
     <path d="M2247.08 3029.44l1146.47 0 0 -2178.29 -1146.47 0 0 2178.29z"/>
    </clipPath>
    <clipPath id="id4" style="clip-rule:nonzero">
     <path d="M3.5 3.5l3495.72 0 0 3216.06 -3495.72 0 0 -3216.06z"/>
    </clipPath>
    <clipPath id="id5">
     <path d="M1672.98 991.91c109.67,-1.16 255.92,-24.38 411.97,-123.69l61.28 137.02c-107.64,107.1 -258.99,195.09 -391.32,191.36 -104.29,-2.93 -157.59,-129.4 -81.93,-204.69z"/>
    </clipPath>
    <clipPath id="id6">
     <path d="M3.5 3.5l3495.72 0 0 3216.06 -3495.72 0 0 -3216.06z"/>
    </clipPath>
    <clipPath id="id7">
     <path d="M1672.98 991.91c109.67,-1.16 255.92,-24.38 411.97,-123.69l61.28 137.02c-107.64,107.1 -258.99,195.09 -391.32,191.36 -104.29,-2.93 -157.59,-129.4 -81.93,-204.69z"/>
    </clipPath>
    <clipPath id="id8">
     <path d="M3.5 3.5l3495.72 0 0 3216.06 -3495.72 0 0 -3216.06z"/>
    </clipPath>
    <clipPath id="id9">
     <path d="M101.54 3094.96l1040.02 0 0 -1392.15 -1040.02 0 0 1392.15z"/>
    </clipPath>
    <clipPath id="id10">
     <path d="M3.5 3.5l3495.72 0 0 3216.06 -3495.72 0 0 -3216.06z"/>
    </clipPath>
    <clipPath id="id11">
     <path d="M1377.19 1930.62c-104.26,-13.63 -200.07,-26.16 -256.84,-14.95 -63.7,-207.4 -10.81,-337.99 38.03,-458.54 29.43,-72.66 57.38,-141.67 57.43,-221.65 0.18,-232.92 186.72,-591.44 214.17,-591.44l7.88 0 217.52 0 24.9 0c11.19,144.14 58.96,300.19 107.02,457.26 11.22,36.68 22.47,73.41 33.27,110.06 181.91,41.4 585.82,-102.7 585.82,-102.7 0,0 101.97,211.49 94.28,301.56 -235.11,123.12 -436.61,178.02 -602.63,181.65 5.28,98.75 -6.71,192.72 -46.99,278.59 -53.97,115.05 -278.73,85.68 -473.86,60.17z"/>
    </clipPath>
    <clipPath id="id12">
     <path d="M3.5 3.5l3495.72 0 0 3216.06 -3495.72 0 0 -3216.06z"/>
    </clipPath>
    <clipPath id="id13">
     <path d="M1377.19 1930.62c-104.26,-13.63 -200.07,-26.16 -256.84,-14.95 -63.7,-207.4 -10.81,-337.99 38.03,-458.54 29.43,-72.66 57.38,-141.67 57.43,-221.65 0.18,-232.92 186.72,-591.44 214.17,-591.44l7.88 0 217.52 0 24.9 0c11.19,144.14 58.96,300.19 107.02,457.26 11.22,36.68 22.47,73.41 33.27,110.06 181.91,41.4 585.82,-102.7 585.82,-102.7 0,0 101.97,211.49 94.28,301.56 -235.11,123.12 -436.61,178.02 -602.63,181.65 5.28,98.75 -6.71,192.72 -46.99,278.59 -53.97,115.05 -278.73,85.68 -473.86,60.17z"/>
    </clipPath>
    <clipPath id="id14">
     <path d="M3.5 3.5l3495.72 0 0 3216.06 -3495.72 0 0 -3216.06z"/>
    </clipPath>
 </defs>
 <g id="Layer_x0020_1">
  <metadata id="CorelCorpID_0Corel-Layer"/>
  <g>
  </g>
  <g style="clip-path:url(#id0)">
   <g>
   </g>
   <g style="clip-path:url(#id1)">
    <polygon class="fil0" points="2247.08,851.14 3393.55,851.14 3393.55,3029.44 2247.08,3029.44 "/>
   </g>
   <g style="clip-path:url(#id2)">
   </g>
   <g style="clip-path:url(#id3)">
    <g id="_1927851160768">
     <path id="1" class="fil1" d="M2353.31 853.65c106.38,252.45 287.2,427.85 382.98,690.35 56.79,155.67 80.46,324.93 81.89,498.28 0.79,94.16 -0.86,188.37 -1.3,282.53 -0.42,91.83 -2.93,183.06 -10.72,274.29 -7.85,91.72 -16.62,182.35 -20.5,274.63 -3.02,71.9 -4.4,155.53 -28.8,221.13 -19.4,52.16 -68.73,59.79 -81.81,-3.46 -7.27,-35.16 -6.36,-74.43 -5.55,-110.57 1.02,-46.38 3.72,-92.67 5.1,-139.03 5.54,-186.04 -1.64,-372.12 2.11,-558.24 3.66,-181.85 27.07,-363.49 1.17,-544.12 -21.38,-149.17 -75.71,-277.25 -138.14,-400.05 -60.06,-118.13 -125.43,-233.41 -166.02,-367.79 -11.65,-38.59 -20.67,-78.59 -24.99,-120.08 1.88,-0.88 3.42,-0.17 4.58,2.14z"/>
     <path id="Thi_x0020_Succs_x0021__2" class="fil2" d="M2324.32 1351.7c21.06,15.2 32.83,37.42 47.07,59.34 17.71,27.26 38.52,51.87 56.22,79.15 36.9,56.88 69.33,117.24 102.97,176.42 63.88,112.33 112.37,232.05 136.39,361.99 24.9,134.67 31.61,273.67 42.06,410.36 11.07,144.86 22.23,290.78 23.7,436.2 0.66,65.15 4.18,134.32 -3.65,199.01 -4.88,40.27 -23.08,74.6 -64.1,74.27 -87.14,-0.69 -128.07,-97.1 -145.15,-176.17 -25.16,-116.41 -30.19,-240.08 -26.2,-359.14 4.82,-143.56 29.76,-284.96 40.55,-427.97 11.44,-151.39 4.98,-300.11 -47.14,-442.66 -26.33,-72.03 -56.88,-142.34 -84.32,-213.9 -11.69,-30.47 -21.25,-61.76 -37.03,-90.13 -17.55,-31.56 -39.35,-60.21 -53.1,-94.19 3.91,2.47 7.82,4.95 11.73,7.41z"/>
     <path id="Thi_x0020_Succs_x0021__3" class="fil3" d="M3328.22 1050.68c2.66,-2.36 5.34,-4.73 8.01,-7.1 -7.69,36.91 -21.6,66.9 -32.22,100.64 -9.56,30.33 -14.4,64.66 -20.83,97.82 -15.1,77.88 -32.56,154 -46.84,232.53 -28.25,155.41 -22.91,322.84 -4.38,495.26 17.5,162.88 45.17,325.5 58.36,488.33 10.93,135.05 15.62,274.31 5.2,403.15 -7.09,87.51 -30.31,191.98 -93.59,183.16 -29.79,-4.16 -45.33,-44.97 -51.59,-91.05 -10.06,-74 -12.17,-151.81 -16.09,-225.39 -8.75,-164.25 -10.49,-328 -12.21,-490.56 -1.63,-153.38 -6.14,-309.79 2.86,-459.3 8.69,-144.28 35.85,-274.27 74.68,-394.22 20.46,-63.2 39.95,-127.87 62.93,-188.1 11.02,-28.89 24.48,-54.41 35.51,-83.29 8.87,-23.21 15.92,-47.04 30.2,-61.9z"/>
     <path id="Thi_x0020_Succs_x0021__4" class="fil1" d="M2351.24 1768.87c11.53,-19.31 36.88,44.41 40.75,52.43 -1.64,-3.99 -3.28,-7.97 -4.93,-11.95 22.88,37.99 43.8,77.54 56.81,121.09 12.87,43.12 23.93,87.11 36.01,130.54 22.67,81.47 51.91,160.64 72.45,242.84 20,80.11 25.05,158.87 20.21,241.73 -5.03,86.13 -8.11,173.57 -2.24,259.64 2.81,41.11 16.18,79.4 25.34,118.98 9.18,39.62 16.42,79.77 27.26,118.89 2.5,-5.09 2.81,11.95 2.81,13.24 -0.07,9.78 -1.43,17.97 -4.58,27.24 -8.09,23.83 -23.23,44.08 -46.27,50.65 -41.62,11.88 -80.27,-25.94 -93.69,-65.87 -19.26,-57.3 -29.87,-120.62 -39.05,-180.84 -8.42,-55.21 -10.41,-110.77 -7.91,-166.75 4.93,-110.41 24.92,-219.36 30.34,-329.73 5.89,-120.16 -17.94,-233.06 -37.9,-350.02 -9.61,-56.36 -18.8,-112.18 -37.51,-165.88 -7.58,-21.74 -17.44,-40.93 -27.8,-61 -5.89,-11.43 -17.8,-31.81 -10.1,-45.23z"/>
     <path id="Thi_x0020_Succs_x0021__5" class="fil3" d="M2688.96 1581.19c-4.78,137.65 -13,274.26 -31.38,410.47 -18.75,138.99 -40.3,277.51 -58.34,416.63 -17.57,135.42 -35.97,273.09 -33.53,410.4 1.82,101.13 -14.98,272.24 97.5,322.15 113.91,50.55 138.34,-165.32 145.82,-236.58 14.33,-136.71 9.69,-274.86 2.74,-412.31 -7.15,-141.08 -19.07,-281.44 -33.84,-422 -16.41,-156.13 -29.29,-312.96 -39.62,-469.54 -5.11,-77.44 -6.37,-154.77 -4.96,-232.23 1.32,-73.1 -1.45,-146.95 -27.47,-216.36 -1.36,0.99 -2.72,1.97 -4.08,2.96m-12.84 426.4l0 0 0 0z"/>
     <path id="Thi_x0020_Succs_x0021__6" class="fil1" d="M3236.07 2142.94c-20.49,29.81 -41.13,59.33 -60.48,90.9 -34.61,56.49 -65.92,119.31 -75.33,200.07 -19.71,169.04 -3.9,351.6 -0.08,525.81 0.78,35.6 -3.73,70.12 10.32,104 12.74,30.73 36.55,54.13 59.26,54.01 48.59,-0.28 41.18,-119.13 41.25,-171.45 0.15,-91.68 -10.14,-184.3 -9.26,-275.92 0.89,-90.75 6.41,-181.76 19.59,-267.94 13.34,-87.25 32.87,-171.03 58.65,-249.2 3.58,-10.85 29.25,-94.69 5,-80.24m-48.91 69.95l0 0 0 0z"/>
     <path id="Thi_x0020_Succs_x0021__7" class="fil2" d="M3062.41 1115.75c-31.95,0 -31.75,159.08 -32.72,179.52 -3.47,73.74 -2.65,147.49 -4.85,221.24 -4.81,160.95 -10.71,323.32 -34.92,482.4 -13.03,85.65 -28.14,170.91 -44.39,255.9 -16.29,85.24 -38.17,170.37 -48.89,256.69 -10.3,82.98 -4.48,167.6 -3.07,250.98 1.42,83.9 3.96,167.96 14.95,251.11 2.72,20.53 5.9,40.98 9.31,61.38 2.83,17 1.18,38.08 5.98,54.23 7.7,25.88 40.7,34.36 62.92,30.31 60.13,-10.96 98.52,-86.36 119.06,-141.46 26.23,-70.34 40.15,-146.64 53.88,-220.77 15.56,-83.98 24.68,-169.26 28.96,-254.76 8.69,-173.77 -2.46,-347.74 -14.93,-520.96 -6.94,-96.33 -14.94,-192.25 -27.19,-287.98 -12.2,-95.33 -27.86,-190.23 -38.05,-285.84 -7.4,-69.49 -14.7,-139.06 -19.5,-208.81 -1.15,-16.62 -2.11,-123.18 -26.54,-123.18z"/>
     <path id="Thi_x0020_Succs_x0021__8" class="fil1" d="M3022.4 2272.08c-5.21,-167.01 -72.42,-900.63 -87.72,-1102.6 -3.82,-50.56 -40.64,-261.03 -45.42,-318.34 -12.96,16.2 -11.85,268.33 -11.7,326.27 0.15,57.31 -6.97,113.67 -10.63,170.66 -3.73,58.15 -89.82,809.3 -101,865.18 -22.22,111.17 -37.1,225.26 -48.57,338.95 -11.18,110.8 -28.56,227.69 -13.61,339.07 3.45,25.64 8.89,50.87 17.74,74.42 9.57,25.45 16.13,48.99 23.81,75.62 12.36,42.89 34.72,80.54 69.08,98.25 70.44,36.31 108.27,-45.89 127.44,-117.45 30.63,-114.29 50.28,-230.44 59.5,-350.47 10.19,-132.8 25.24,-265.85 21.07,-399.56z"/>
    </g>
   </g>
   <g style="clip-path:url(#id4)">
    <polygon class="fil4" points="2247.08,3029.44 3393.55,3029.44 3393.55,851.14 2247.08,851.14 "/>
    <path id="Leaf_x0020_Me_x0020_Alone_x0021_" class="fil5" d="M726.4 1515.05c-115.18,-8.63 -243.81,85.81 -299.36,184.09 -44.78,79.24 -37.24,183.29 -9.58,267.47 18.52,56.36 58.96,136.72 126.38,137.49 84.36,0.99 88.43,-104.98 90.05,-166.92 2.17,-82.35 12.41,-154.09 76.26,-210.23 7.88,-6.93 16.15,-13.41 24.42,-19.9 7.34,-5.75 14.68,-11.51 21.75,-17.57 1.13,-0.97 2.27,-1.94 3.41,-2.91 22.58,-19.29 46.29,-39.54 49.17,-71.33 4.18,-46.07 -21.4,-54.37 -60.47,-45.8 -1.26,0.27 -4.68,1.59 -9.33,3.38 -19.96,7.69 -62.52,24.09 -54.47,4.48 3.03,-7.39 14.11,-13.23 28.09,-17.63 36.17,-4 79.31,-8.64 91.72,-5.86 133.85,29.84 185.95,218.28 199.8,338 1.55,13.41 2.79,26.86 3.87,40.33l24.55 0c-1.71,-31.85 -3.95,-63.64 -9.19,-95.13 -19.73,-118.6 -81.41,-292.77 -216.69,-312.02 -5,-0.71 -23.35,-0.84 -45.59,0.49 -10.54,-5.98 -22.34,-9.61 -34.78,-10.44z"/>
    <path id="Leaf_x0020_Me_x0020_Alone_x0021__2" class="fil5" d="M737.94 834.56c5.43,55.09 3.74,110.01 12.14,165.01 6.72,43.96 20.91,86.16 40.28,126.19 18.63,38.51 57.25,71.28 67.3,112.41 6.4,26.21 2.81,63.08 -6.02,88.72 -10.74,31.17 -5.03,28.7 16.37,54.86 41.93,51.25 79.69,103.82 106.39,165.03 38.46,88.18 63.68,191.24 49.4,287.75 -1.82,12.26 -3.97,56.24 -20.91,59.32 0,0 3.09,-127.01 -4.67,-179.67 -29.97,-203.16 -176.26,-337.03 -271.53,-509.46 -5.24,-8.89 -16.29,-30.06 -23.98,-44.03 -12.14,-22.06 -24.33,-64.03 -40.76,-80.38 -11.98,-11.93 -15.06,-9.96 -13.98,-2.37 1.71,12.01 13.82,38.08 17.51,45.32 7.62,14.95 16.01,30.85 23.82,43.96 35.74,60.75 75.63,127.06 112.55,189.67 -159.65,36.24 -272.08,-154.96 -314.92,-280.66 -35.3,-103.57 -77.53,-345.72 86.95,-354.58 70.01,-3.61 156.59,37.09 164.05,112.9z"/>
    <path id="Leaf_x0020_Me_x0020_Alone_x0021__3" class="fil6" d="M1261.63 537.24c-51.86,16.35 -86.34,58.5 -104.06,113.61 -11.59,36.04 -12.92,73.05 -19.36,110.09 -9.69,55.72 -30.54,97.94 -71.28,137.63 -12.62,12.29 -21.92,24.92 -28.53,38.42 -13.12,13.48 -24.54,28.74 -32.94,47.39 -10.72,23.82 -13.76,52.4 -1.38,76.15 3.33,6.39 11.63,19.21 20.24,25.03 -32.22,69.08 -49.93,144.73 -47.93,220.29 1.21,45.61 3.42,539.1 6,584.66 0.7,12.23 4.65,32.43 10.59,11.92 5.44,-18.77 -1.38,-496.08 -2.01,-515.68 -3.07,-95.49 -5.69,-182.32 33.35,-271.54 4.1,-9.35 8.44,-18.63 12.96,-27.83 0.27,-0.16 0.51,-0.34 0.76,-0.52 0.17,0.13 0.33,0.28 0.5,0.41 0.29,-0.51 0.68,-1.13 1.14,-1.82 1.3,-1.35 2.43,-3.05 3.51,-4.95 3.46,-4.83 7.38,-10.51 7.4,-13.62 0,-0.02 -0.01,-0.06 -0.01,-0.09 24.17,-39.72 51.86,-77.26 80.13,-114.06 -0.21,0.27 30.67,-42.07 25.9,-18.65 -2.3,11.28 -25.02,32.77 -34.2,44.72 -20.29,26.59 -44.13,60.28 -63.93,92.86 -2.66,1.54 -6.43,9.11 -9.16,14.75 -1.5,2.86 -2.9,5.74 -4.28,8.25 70.17,23.34 124.76,-23.68 161.99,-78.37 0.04,-0.06 0.08,-0.13 0.13,-0.2 11.33,-15.11 22.93,-30.12 37.43,-42.06 24.19,-19.93 50.09,-23.45 78.6,-33.26 77.76,-26.75 110.83,-128.22 121.33,-203.52 11.85,-84.94 -46.11,-215.19 -147.28,-206.81 -12.66,1.01 -24.53,3.32 -35.6,6.82z"/>
    <path id="Leaf_x0020_Me_x0020_Alone_x0021__4" class="fil7" d="M534.39 123.72c142.87,121.91 222.83,301.71 288.63,471.58 73.5,189.73 128.31,384.19 148.05,586.58 12.97,132.97 28.77,266.52 32.9,400.14 1.46,47.46 0.96,95.17 -2.43,142.55 -0.28,3.89 -7.87,109.69 -26.38,86.87 -10.51,-12.97 7.67,-109.73 8.27,-125.62 3.36,-89.53 -2.07,-178.91 -10.7,-268 -14.19,-146.68 -23.01,-293.08 -51.37,-437.94 -4.23,-21.63 -8.1,-44.4 -15.3,-65.28 -7.66,-22.2 0.37,-12.93 -18.68,-20.27 -18.52,-7.13 -40.32,-3.9 -59.71,-13.2 -76.92,-36.88 -124.36,-145.21 -160.04,-215.88 -40.82,-80.81 -69.11,-168.36 -93.22,-255.11 -17.71,-63.73 -32.01,-127.38 -42.75,-192.59 -3.38,-20.55 -5.43,-42.18 -11.41,-62.14 -1.61,-5.39 -8.08,-14.58 -8.32,-19.46 -0.5,-10.32 5.27,-16.94 5,-25.63 5.91,4.35 11.73,8.82 17.45,13.41z"/>
    <polygon id="Seat_x0020_Stuff" class="fil8" points="1031.5,1973.5 1728.39,1973.5 1819.71,3094.95 782.32,3094.95 "/>
    <polygon id="Seat_x0020_Stuff_2" class="fil9" points="1031.5,1973.5 1245.84,1973.5 1374.12,3094.95 782.32,3094.95 "/>
    <path id="Fill_x0020_1" class="fil10" d="M1823.66 2846.55c0,0 112.83,-271.34 150.77,-257.31 33.05,12.21 190.62,98.71 184.4,115.76 -6.51,17.86 -47.49,71.06 -47.49,71.06 0,0 91.77,76.87 140.77,141.66 25.83,34.15 59.24,113.44 32.32,127.98 -26.92,14.55 -493.83,-141.2 -460.77,-199.15z"/>
    <path id="Fill_x0020_3" class="fil10" d="M2397.24 3073.94c-1.86,-86.3 -0.82,-233.24 27.59,-235.87 35.08,-3.24 214.44,6.79 216.15,24.86 1.79,18.95 23.75,102.73 23.75,102.73 0,0 124.87,11.67 196.92,48.98 37.98,19.67 57.09,76.81 39.04,101.55 -18.05,24.75 -506.34,85.78 -501.4,19.2 0,0 -1.28,-25.45 -2.05,-61.46z"/>
    <path id="Fill_x0020_5" class="fil11" d="M1875.49 2674.41c53.51,110.44 183.27,120.11 265.7,120.11 31.51,0 162.03,-271.01 183.7,-306.71 117.94,-194.16 263.97,-436.78 263.97,-436.78 0,0 -245.75,-160.15 -417.79,-101.02 0,0 -349.09,613.96 -295.58,724.4z"/>
    <path id="Fill_x0020_7" class="fil12" d="M1206.91 1593.64c0,0 -6.13,367.25 185.1,437.68 191.23,70.42 673.82,126.65 961.48,52.6 -59.1,198.26 -20.74,838.87 36.09,944.7 17.99,33.5 227.1,-26.99 298,-61.94 70.9,-34.94 196.25,-1094.66 59.82,-1184.21 -136.42,-89.55 -1004.77,-188.82 -1004.77,-188.82l-535.72 0z"/>
    <path id="SKIN" class="fil13" d="M2138.58 858.28l-313.11 171.93 115.63 124.42 227.52 -208.84c119.85,-33.11 174.66,-57.34 164.42,-72.68 -8.62,-12.93 -22.54,-12.48 -35.35,-12.07 -9.99,0.33 -19.31,0.62 -24.95,-5.44 -12.86,-13.85 11.69,-62.25 36.94,-107.19 25.25,-44.94 -1.75,-41.03 -17.2,-34.56 -50.53,34.3 -101.83,82.44 -153.9,144.43zm314.81 241.24l-137.53 75.75 7.83 138.38c0,0 89.08,-64.46 165.71,-85.88 97.71,-27.31 137.25,-48.17 185,-109.17 25.55,-32.64 47.23,-98.24 22.91,-119.61 -9.33,-8.2 -44.08,11.17 -79.55,30.92 -27.03,15.06 -54.47,30.34 -71.38,33.83 -22.75,4.7 -20.09,-24.88 -17.96,-48.5 1.53,-16.96 2.78,-30.86 -5.83,-26.84 -40.26,0.69 -69.21,111.12 -69.21,111.12z"/>
    <path id="Mask" class="fil14" d="M1672.98 991.91c109.67,-1.16 255.92,-24.39 411.97,-123.69l61.28 137.01c-107.64,107.1 -258.99,195.09 -391.32,191.36 -104.29,-2.94 -157.59,-129.4 -81.93,-204.68z"/>
   </g>
   <g style="clip-path:url(#id5)">
    <polygon class="fil15" points="1637.4,868.22 2146.23,868.22 2146.23,1196.71 1637.4,1196.71 "/>
   </g>
   <g style="clip-path:url(#id6)">
   </g>
   <g style="clip-path:url(#id7)">
    <g id="_1927851216784">
    </g>
   </g>
   <g style="clip-path:url(#id8)">
    <path id="1" class="fil16" d="M1672.98 991.91c109.67,-1.16 255.92,-24.38 411.97,-123.69l61.28 137.02c-107.64,107.1 -258.99,195.09 -391.32,191.36 -104.29,-2.93 -157.59,-129.4 -81.93,-204.69z"/>
    <g id="_1927851213280">
     <path class="fil13" d="M1565.76 174.92c23.02,18.14 45.79,35.93 60.95,66.47 3.1,6.25 41.67,32.52 32.76,45.63 -0.3,7.26 -0.31,16.34 7.3,19.27 16.62,6.01 33.71,10.85 49.87,18.01 25.77,11.43 27.72,25.81 15.94,38.04 -6.6,6.7 -16.71,12.84 -10.04,18.15 17.84,11.4 19.14,23.95 5.17,38.02 12.5,3.56 19.48,9.61 13.31,21.61 -4.57,17.68 1.62,26.83 20.17,26.19 24.49,25.82 13.57,55.52 -14.68,71.02 -22.62,12.41 -51.03,28.15 -66.35,41.16 -33.88,55.91 -39.88,115.16 -30.95,132.02 -76.16,-1.73 -145.29,-0.3 -221.45,-2.03 1.37,-28.32 5.54,-105.65 -16.88,-138.7 -64.42,-59.17 -118.38,-131.25 -160.46,-218.02 -8.9,-86.18 8.42,-151.42 62.21,-187.55 74.98,-53.48 184.56,-56.23 253.12,10.72z"/>
     <path class="fil17" d="M1554.05 424.01c-10.67,-13.72 -21.33,-27.45 -32,-41.18 -4.33,-22.38 -5.63,-43.57 6.09,-59.7 30.34,-33.25 21.6,-64.3 1.04,-94.69 -6.01,-44.15 16.85,-48.1 57.12,-27.78 9.52,5.28 13.3,7.6 22.81,12.88 15.11,-39.4 64.15,-71.22 -38.45,-129.95 -36.87,-11.52 -73.22,-10.33 -108.79,10.45 -29.9,10.92 -68.66,17.5 -119.49,30.91 -36.58,22.5 -79.57,28.04 -97.95,98.59 -12.89,50.67 -12.13,96.16 -1.12,137.77 4.47,30.02 48.49,95.44 168.8,229.21 25.21,13.67 39.73,11.64 27.95,-29.04 -8.31,-25.55 -16.62,-51.1 -24.93,-76.66 -42.57,-127.48 170.72,-77.38 131.8,63.86 69.84,15.6 152.79,14.44 194.91,-5.66 41.35,-19.74 43.34,-48.14 24.75,-80.1 -4.29,-0.95 -21.72,-1.56 -24.21,-26.7 -8.43,21.46 -2.04,30.94 8.6,28.77 1.31,4.19 -4.9,9.31 -8.37,7.01 -18.23,-12.32 -25.89,-36.06 -18.42,-58.11 3.49,-8.16 6.19,-17.03 12.67,-18.64 -4.49,-9.74 -8.34,-16.06 -16.64,-19.58 -21.09,29.34 -10.87,57.7 -3.51,93.58 -31.04,8.71 -59.27,13.55 -102.66,-3.14 -19.08,-16.09 -40.94,-26 -60.02,-42.1z"/>
    </g>
    <path id="Mask_0" class="fil18" d="M1377.19 1930.62c-104.26,-13.63 -200.07,-26.15 -256.84,-14.95 -63.7,-207.41 -10.81,-337.99 38.02,-458.54 29.43,-72.66 57.38,-141.67 57.44,-221.65 0.17,-232.92 186.72,-591.45 214.17,-591.45l7.88 0 217.52 0 24.9 0c11.19,144.14 58.96,300.2 107.02,457.26 11.23,36.68 22.47,73.41 33.27,110.06 181.9,41.4 585.82,-102.7 585.82,-102.7 0,0 101.97,211.49 94.28,301.56 -235.11,123.12 -436.61,178.02 -602.63,181.65 5.28,98.75 -6.71,192.73 -46.99,278.59 -53.97,115.05 -278.72,85.68 -473.86,60.17z"/>
    <g>
    </g>
   </g>
   <g style="clip-path:url(#id9)">
    <g>
     <path id="leaf" class="fil1" d="M465.78 1703.55c21.81,-2.66 45.08,-1.73 65.36,6.89 43.12,18.31 55.38,69.29 54.78,110.72 -0.64,44.59 -10.1,93.29 23.78,129.22 15.57,16.51 34.95,29.16 50.25,45.97 16.34,17.97 29.16,38.55 38.66,60.63 17.43,40.57 25.98,88.27 10.05,130.83 -14.04,37.47 -49.35,71.3 -41.72,113.89 7.96,44.44 52.75,78.42 80.75,111.53 31.69,37.46 60.86,85.34 65.66,134.47 4.6,47.08 -15.89,94.7 -47.33,130.29 -62.81,71.12 -157.22,105.99 -252.42,105.78 -40.42,-0.1 -86.18,-1.93 -121.06,-23.65 -10.78,-6.72 -16.46,-14.26 -22.87,-24.74 -5.75,-9.39 -13.34,-15.5 -22.13,-22.15 -19.3,-14.6 -33.24,-34.28 -42.13,-56.31 -34.54,-85.55 -6.93,-191.39 41.42,-267.36 11.46,-18 20.83,-35.32 15.28,-56.77 -5.81,-22.4 -20.09,-42.6 -32.72,-61.84 -12.48,-19.03 -26.72,-37.18 -36.48,-57.76 -10.21,-21.54 -13.09,-44.11 -11.28,-67.69 3.39,-44.3 22.51,-85.19 49.57,-120.82 26.06,-34.32 56.67,-67.15 56.74,-112.12 0.08,-47.65 -31.77,-90.05 -18.2,-138.5 5.61,-20.07 16.9,-40.66 35.08,-52.68 17.44,-11.54 40.46,-15.31 60.97,-17.82z"/>
     <path id="middle_x0020_thing" class="fil19" d="M451.53 1779.74c0.41,-6.4 8,-10.24 13.97,-8.57 7.87,2.21 7.72,9.56 7.51,16.1 -0.64,20.14 2.27,39.7 7.11,59.23 10.05,40.61 28.63,78.03 43.35,117.04 14.7,38.97 21.6,79.22 12.98,120.47 -8.13,38.89 -20.9,76.76 -29.23,115.7 -7.33,34.32 -15.14,70.51 -3.96,104.74 10.75,32.95 34.51,59.78 51.63,89.56 35.43,61.64 51.14,130.02 53.25,200.38 0.98,32.68 0.1,65.66 -7.48,97.71 -4.36,18.45 -10.21,43.39 -26.02,56.13 -7.29,5.88 -19.75,7.91 -25.89,-0.79 -5.76,-8.16 -0.71,-20.8 1.12,-29.49 7.91,-37.66 9.51,-76.13 7.62,-114.36 -1.84,-37.04 -6.22,-74.01 -17.86,-109.37 -10.81,-32.82 -27.23,-62.31 -46.56,-91.02 -19.7,-29.26 -40.18,-58.58 -48.32,-93.25 -8.27,-35.21 -1.55,-71.04 7.43,-105.58 9.5,-36.53 21.94,-72.02 34.81,-107.57 12.54,-34.63 16.98,-67.39 10.06,-103.65 -13.67,-71.61 -50.27,-138.83 -45.5,-213.41z"/>
     <path id="leaf_2" class="fil2" d="M1041.44 1788.6c27.07,8.22 53.97,21.5 73.26,42.29 41.04,44.25 28.45,111.11 5.8,159.95 -24.39,52.55 -61.35,105.4 -40.51,165.7 9.57,27.74 25.67,52.84 34.76,80.79 9.7,29.85 13.89,60.95 13.36,92.11 -0.99,57.23 -16.21,118.29 -57.52,160.45 -36.39,37.12 -95.86,58.81 -109.46,113.33 -14.19,56.88 20.5,120.58 35.9,174.47 17.44,60.98 26.4,133.03 6,193.8 -19.55,58.25 -68.89,104.05 -124.76,129.86 -111.61,51.58 -241.2,43.64 -353.12,-6.32 -47.52,-21.22 -100.4,-47.27 -129.93,-91.27 -9.13,-13.59 -11.83,-25.5 -13.82,-41.27 -1.79,-14.15 -7.48,-25.36 -14.29,-37.83 -14.98,-27.4 -20.95,-58.02 -19.74,-88.79 4.7,-119.53 93.29,-230.68 190.47,-295.56 23.02,-15.37 43.24,-31.02 48.07,-59.38 5.03,-29.59 -1.06,-61.01 -5.72,-90.45 -4.6,-29.08 -11.74,-58.05 -12.31,-87.55 -0.6,-30.89 7.98,-59.17 22.6,-86.2 27.48,-50.79 71.64,-89.3 122.37,-117.44 48.87,-27.1 102.29,-50.08 126.21,-103.39 25.34,-56.49 10.34,-123.42 51.99,-173.82 17.25,-20.87 41.43,-39.39 69.2,-44.17 26.64,-4.58 55.74,2.97 81.2,10.7z"/>
     <path id="middle_x0020_thing_2" class="fil19" d="M986.13 1882.02c3.84,-7.38 14.76,-7.96 20.89,-2.83 8.08,6.76 4.04,15.41 0.35,23.08 -11.33,23.57 -18.18,48.35 -22.77,74.1 -9.53,53.52 -7.39,107.74 -10.6,161.83 -3.23,54.03 -16.26,105.48 -48.04,149.92 -29.97,41.92 -64.86,80.2 -95.07,122.07 -26.63,36.91 -54.8,75.79 -59.67,122.33 -4.69,44.79 9.1,89.19 13.54,133.55 9.19,91.86 -8.28,181.35 -42.77,266.05 -16.02,39.34 -34.37,78.04 -60.09,112.13 -14.81,19.63 -34.78,46.18 -60.02,52.99 -11.64,3.15 -27.33,-0.99 -29.96,-14.56 -2.47,-12.72 10.1,-25.07 16.81,-34.45 29.06,-40.56 51.14,-85.43 69,-131.84 17.29,-44.96 31.58,-91.17 36.48,-139.32 4.56,-44.68 0.77,-88.33 -6.83,-132.61 -7.74,-45.12 -16.37,-90.72 -7.7,-136.19 8.79,-46.18 35.49,-85.21 64.17,-121.51 30.33,-38.4 63.57,-74.01 97.33,-109.46 32.9,-34.55 55.32,-71.14 66.24,-117.84 21.57,-92.26 13.94,-191.37 58.7,-277.46z"/>
     <path id="leaf_3" class="fil3" d="M202.72 2128.64c44.82,0 84.23,23.77 111.38,57.5 31.79,39.5 38.2,87.72 51.11,134.78 6.43,23.42 17.47,46.67 36.82,62.59 17.61,14.47 39.96,17.37 61.04,24.43 42.12,14.14 76.13,48.18 89.55,89.71 16.39,50.66 -0.96,101.76 2.02,153.1 2.75,47.16 49.21,76.57 86.6,99.17 36.86,22.29 70.08,43.15 81.17,86.58 11.77,46.06 15.72,97.46 -0.58,142.95 -27.15,75.76 -106.61,109.11 -183.38,114.29 -69.68,4.69 -157.28,-2.67 -209.62,-53.29 -31.31,-30.29 -42.65,-72.64 -41.24,-114.78 0.88,-26.2 6.06,-52.16 12.76,-77.49 4.76,-17.94 11.18,-35.81 13.01,-54.35 4.87,-49.34 -40.71,-58.82 -79.5,-72.36 -49.29,-17.22 -83.81,-49.74 -107.8,-95.05 -22.35,-42.18 -31.73,-89.54 -18.33,-135.98 6.84,-23.72 19.25,-45.23 36.08,-63.53 7.41,-8.05 17.86,-14.77 24.54,-23.23 6.24,-7.9 4.89,-18.14 2.74,-27.4 -9.95,-42.76 -40.95,-78.16 -52.02,-120.84 -10.01,-38.52 -4.09,-86.46 31.11,-111.31 15.2,-10.74 33.96,-15.39 52.55,-15.51z"/>
     <path id="middle_x0020_thing_3" class="fil19" d="M263.79 2240.05c47.5,50.63 60.42,119.33 64.21,185.92 2.12,37.34 -0.09,76.72 10.88,112.94 9.38,30.99 31.37,54.69 54.04,77.09 45.62,45.08 96.51,90.91 109.86,156.15 7.84,38.29 2.55,77.84 13.37,115.7 9.84,34.42 27.16,68.23 48.23,97.3 16.96,23.4 39.06,41.34 57.61,63.15 5.66,6.66 13.76,16.46 11.43,25.87 -2.73,11 -16.75,14.5 -26.7,12.77 -23.19,-4.04 -42.7,-26.19 -57.87,-42.3 -22.17,-23.55 -41.01,-48.88 -56.32,-77.3 -17,-31.56 -30.69,-65.05 -36.53,-100.45 -6.07,-36.73 -3.05,-75.01 -16.91,-110.27 -23.32,-59.3 -79.88,-94.31 -120.78,-140.54 -50.95,-57.6 -43.35,-129.29 -38.13,-200.14 2.87,-38.94 5.72,-82.92 -13.94,-118.47 -7.51,-13.57 -24.24,-26.21 -27.47,-41.64 -2.96,-14.14 13.17,-28.42 25.02,-15.78z"/>
    </g>
   </g>
   <g style="clip-path:url(#id10)">
    <polygon class="fil16" points="101.54,3094.96 1141.55,3094.96 1141.55,1702.81 101.54,1702.81 "/>
   </g>
   <g style="clip-path:url(#id11)">
    <polygon class="fil15" points="1091.05,644.03 2501.08,644.03 2501.08,1953.91 1091.05,1953.91 "/>
   </g>
   <g style="clip-path:url(#id12)">
   </g>
   <g style="clip-path:url(#id13)">
    <g>
    </g>
   </g>
   <g style="clip-path:url(#id14)">
    <path id="1" class="fil16" d="M1377.19 1930.62c-104.26,-13.63 -200.07,-26.16 -256.84,-14.95 -63.7,-207.4 -10.81,-337.99 38.03,-458.54 29.43,-72.66 57.38,-141.67 57.43,-221.65 0.18,-232.92 186.72,-591.44 214.17,-591.44l7.88 0 217.52 0 24.9 0c11.19,144.14 58.96,300.19 107.02,457.26 11.22,36.68 22.47,73.41 33.27,110.06 181.91,41.4 585.82,-102.7 585.82,-102.7 0,0 101.97,211.49 94.28,301.56 -235.11,123.12 -436.61,178.02 -602.63,181.65 5.28,98.75 -6.71,192.72 -46.99,278.59 -53.97,115.05 -278.73,85.68 -473.86,60.17z"/>
   </g>
  </g>
  <polygon class="fil16 str0" points="3.5,3.5 3499.21,3.5 3499.21,3219.56 3.5,3219.56 "/>
 </g>
</svg>
