<?xml version="1.0" encoding="UTF-8"?>
<!DOCTYPE svg PUBLIC "-//W3C//DTD SVG 1.1//EN" "http://www.w3.org/Graphics/SVG/1.1/DTD/svg11.dtd">
<!-- Creator: CorelDRAW 2020 (64-Bit Evaluation Version) -->
<svg xmlns="http://www.w3.org/2000/svg" xml:space="preserve" width="100.2mm" height="92.2mm" version="1.1" style="shape-rendering:geometricPrecision; text-rendering:geometricPrecision; image-rendering:optimizeQuality; fill-rule:evenodd; clip-rule:evenodd"
viewBox="0 0 18363.33 16897.2"
 xmlns:xlink="http://www.w3.org/1999/xlink"
 xmlns:xodm="http://www.corel.com/coreldraw/odm/2003">
 <defs>
  <style type="text/css">
   <![CDATA[
    .str0 {stroke:white;stroke-width:36.65;stroke-miterlimit:22.9256}
    .fil14 {fill:none}
    .fil11 {fill:#003333}
    .fil12 {fill:#181F31}
    .fil8 {fill:#1820BF}
    .fil10 {fill:#2B44FF}
    .fil0 {fill:#B9FFE7}
    .fil6 {fill:#C5CFD6}
    .fil7 {fill:#CC9933}
    .fil9 {fill:#E4E4E4}
    .fil13 {fill:#F2F2F2}
    .fil1 {fill:#56919C;fill-opacity:0.250980}
    .fil3 {fill:#89C5CC;fill-opacity:0.250980}
    .fil5 {fill:#C1DEE2;fill-opacity:0.250980}
    .fil2 {fill:#89C5CC;fill-opacity:0.501961}
    .fil4 {fill:#C1DEE2;fill-opacity:0.501961}
   ]]>
  </style>
   <clipPath id="id0">
    <path d="M18.33 18.33l18326.68 0 0 16860.54 -18326.68 0 0 -16860.54z"/>
   </clipPath>
 </defs>
 <g id="Layer_x0020_1">
  <metadata id="CorelCorpID_0Corel-Layer"/>
  <g>
  </g>
  <g style="clip-path:url(#id0)">
   <g>
    <path id="Background_x0020_Shape" class="fil0" d="M1805.69 10440.36c373.26,-4309.94 4150.15,-1854.62 6626.25,-3187.05 2476.08,-1332.4 5405.49,-7537.76 7344.25,-4498.06 1938.67,3039.64 -124.09,10387.47 -4570.71,12045.61 -4446.64,1658.14 -9773.03,-50.62 -9399.79,-4360.5z"/>
    <g id="_1927884720064">
     <path id="Fill_x0020_67" class="fil1" d="M961.67 3384.11c20.76,-446.35 49.26,-892.01 64.29,-1338.62 7.5,-221.29 13.32,-442.63 18.95,-663.96 1.21,-49.3 2.51,-98.56 3.63,-147.84 3.65,-167.45 -16.22,-181.14 152.28,-196 751.72,-66.36 1506.43,-88.35 2259.04,-148.37 907.72,-72.41 1820.13,-122.4 2730.38,-144.82 404.49,-9.97 810.72,-30.62 1215.28,-18.05 89.62,2.77 265.57,-20.54 300.89,49.13 15.23,30.11 -16.77,133.69 -20.8,168.42 -12.68,108.49 -24.52,217.39 -31.83,326.43 -43.03,643.16 -17.39,1302.53 107.14,1935.94 -292.13,-164.74 -661.24,-306.44 -1001.74,-278.35 -347.16,28.7 -606.85,229.25 -884.74,413.87 -157.15,104.43 -210.1,131.88 -366.9,30.73 -135.16,-87.18 -263.01,-186.84 -390.5,-284.69 -196.74,-150.99 -382.4,-314.65 -573.2,-472.94 -350.77,-291.01 -834.1,-705.27 -1318.59,-583.28 -346.15,87.13 -665.79,277.37 -966.2,463.54 -446.42,276.64 -850.43,615.39 -1297.36,888.84m6016.01 -2855.88c-1724.63,0 -3436.36,167.19 -5156.17,257.65 -179.64,9.44 -358.62,23.35 -537.58,40.61 -119.27,11.51 -410.98,-36.84 -489.16,65.1 -52.18,67.99 -7.35,78.18 0,142.8 9.24,81.41 3.78,177.9 1.39,264.07 -5.72,207.66 -11.78,415.32 -16.48,623 -17.81,784.91 -28.97,1569.7 2.8,2354.41 6.95,171.15 69.31,408.1 35.19,574.41 -24.7,120.41 -107.27,193.66 83.17,215.91 187.37,21.9 416.49,-33.81 604.05,-51.64 188.62,-17.94 377.22,-37.44 566.07,-53 821.11,-67.63 1650.19,-57.42 2473.48,-79.92 830.66,-22.69 1661.68,-24.12 2492.65,-24.61 347.68,-0.16 744.98,19.37 1084.24,-76.29 119.32,-33.72 138.64,-50.31 109.19,-168.68 -5.55,-22.51 -41.6,-30.81 -52.18,-71.42 -14.39,-55.25 -7,-122.48 -10.35,-179.97 -10.98,-187.92 -14.84,-376.21 -23.68,-564.22 -14.79,-314.17 -68.93,-619.09 -109.03,-930.12 -46.22,-359.15 -43.82,-723.87 -44.77,-1085.4 -0.55,-200.53 4.6,-400.4 20.71,-600.36 10.35,-128.27 73.53,-319.75 41.47,-439.36 -15.96,-59.56 -42.06,-106.79 -104.06,-132.43 -39.26,-16.24 -72.3,-3.52 -111.11,-7.64 -46.05,-4.89 -74.79,-11.34 -129.92,-23.82 -236.38,-53.59 -489.12,-49.06 -729.93,-49.06z"/>
     <path id="Fill_x0020_69" class="fil2" d="M6023.23 1382.14c-0.13,125.01 -19.65,309.45 38.01,427.14 73.07,149.31 164.52,102.63 188.73,-37.66 13.89,-80.4 13.54,-318.28 -12.28,-389.48 -36.54,-100.78 -214.46,-169.41 -214.46,0z"/>
     <path id="Fill_x0020_71" class="fil3" d="M6232.92 1430.42c-117.31,4.12 -459.06,-24.04 -538.47,70.3 -136.19,161.84 100.93,190.51 202.73,181.45 117.8,-10.5 481.79,15.08 560.7,-79.37 131.95,-158.03 -132.65,-175.75 -224.96,-172.38z"/>
    </g>
    <path id="Fill_x0020_253" class="fil4" d="M8392.77 4813.19c-0.15,254.52 -13.01,514.36 33.92,765.84 14.2,76.17 25.42,221.99 105.69,261.49 80.71,39.68 158.93,-4.89 178.96,-87.6 23.4,-96.2 -27.87,-240.23 -33.08,-341.22 -7.13,-138.04 -7.62,-276.18 -7.66,-414.35 -0.05,-99.77 32.77,-260.31 -85.05,-311.63 -87.55,-38.21 -192.78,32.8 -192.78,127.48z"/>
    <path id="Fill_x0020_255" class="fil5" d="M12416.78 4410.59c-843.28,84.69 -1698.77,102.26 -2545.15,146.41 -391.22,20.4 -864.07,-5.64 -1232.63,145.79 -68.45,28.13 -313.55,184.7 -114.56,248.44 62.02,19.85 125.04,-46.99 175.97,-69.35 84.82,-37.26 183.03,-48.79 273.49,-63.36 769.06,-123.49 1573.49,-101.97 2350.49,-159.72 199.08,-14.79 398.29,-29.98 596.95,-49.54 141.94,-13.98 440.26,-116.28 571.24,-63.96 223.88,89.42 218.62,670.39 223.02,870.19 2.33,103.33 -97.97,474.22 101.4,436.61 159.55,-30.07 101.8,-415.41 89.34,-520.81 -32.64,-276.31 -88.26,-961.36 -489.56,-920.71z"/>
    <path id="Fill_x0020_257" class="fil3" d="M12727.78 5838.75c-732.52,66.12 -1481.9,1.21 -2217.45,27.25 -385.54,13.64 -770.69,35.37 -1156.28,48.11 -166.77,5.52 -333.71,5.74 -500.54,6.96 -79.79,0.51 -442.96,48.9 -218.33,207.07 99.48,70.08 416.51,13.65 530.63,12.3 171.46,-2.02 342.8,-9.16 514.12,-15.87 396.81,-15.5 793.42,-37.04 1190.45,-47.74 379.77,-10.32 759.77,-12.5 1139.55,-22.76 188.95,-5.17 380.48,-10.96 567.78,-38.52 42.28,-6.23 179.53,-11.22 208.89,-58.32 27.76,-44.55 8.27,-124.99 -58.81,-118.48z"/>
    <path id="Fill_x0020_259" class="fil5" d="M9127.62 5288.77c-3.94,9.31 -3.94,9.31 0,0zm317.2 -96.42c11.56,4.87 11.56,4.87 0,0zm-14.84 -2.69c170.93,174.23 -91.94,382.24 -252.07,212.2 -169.98,-180.52 142.01,-211.64 252.07,-212.2m-181.31 -263.57c-588.82,104.76 -380.37,889.5 169.6,776.08 241.45,-49.76 379.53,-292.99 296.42,-526.62 -32.46,-91.32 -103.25,-191.51 -201.76,-220.25 -49.13,-14.35 -92.64,8.21 -139.43,2.91 -44.64,-5.02 -69.42,-42.13 -124.82,-32.13z"/>
    <path id="Fill_x0020_261" class="fil4" d="M11502.17 5146.94c-355.04,1.12 -710.21,16.18 -1065.24,22.94 -108.88,2.02 -388.78,-46.71 -389.19,124.99 -0.49,183.43 311.28,115.7 415.01,113.22 352.17,-8.41 705.23,-23.84 1055.96,-57.36 88.61,-8.47 395.32,6.12 395.01,-114.36 -0.35,-127.66 -340.01,-89.43 -411.56,-89.43z"/>
    <path id="Fill_x0020_263" class="fil3" d="M12350.26 6344.18c-878.16,23.57 -1755.04,31.78 -2632.5,76.73 -328.21,16.82 -655.99,29.34 -984.66,29.34 -63.3,0 -190.8,-24.54 -250.36,15.3 -161.71,108.13 22.41,200.99 127.79,206.82 720.88,39.97 1452.13,-59.6 2172.55,-82.05 421.79,-13.12 843.61,-17.04 1265.13,-38.5 114.98,-5.83 230,-12.65 344.82,-21.57 66.01,-5.09 240.63,8.93 293.96,-29.71 233.02,-168.64 -258.2,-158.47 -336.73,-156.36z"/>
    <path id="Fill_x0020_265" class="fil3" d="M8321.03 6773.58c-8.28,227.69 -9.13,451.42 20.67,677.85 11.71,89.07 17.08,190.19 121.52,212.83 94.88,20.54 142.97,-51.19 162.59,-130.71 47.96,-194.24 5.79,-473.78 5.2,-675.56 -0.22,-99.79 -0.37,-211.43 -123.63,-233.99 -94.05,-17.21 -182.77,50.75 -186.36,149.58z"/>
    <path id="Fill_x0020_267" class="fil3" d="M13281.1 7322.5c-1421.56,74.9 -2841.26,140.31 -4263.81,200.42 -110.95,4.71 -972.8,-4.71 -671.51,295.87 93.06,92.84 332.83,29.95 453.2,24.06 180.85,-8.91 361.81,-15.69 542.69,-24.87 717.05,-36.54 1436.04,-46.35 2152.56,-87.33 394.34,-22.54 787.75,-57.84 1180.04,-103.73 186.57,-21.83 418.2,-19.59 592.92,-92.71 89.93,-37.59 186.93,-220.89 13.91,-211.71z"/>
    <path id="Fill_x0020_269" class="fil3" d="M12463.72 6167.51c-108.11,107.69 -52.54,320.08 -44.39,453.16 11.2,183.12 24.85,366.37 47.7,548.5 14.88,118.32 7,302.41 70.1,404.63 73.93,119.67 236.65,106.4 303.51,-9.2 59.1,-102.26 29.16,-317.38 27.64,-430.71 -2.09,-156.71 -11.88,-313.66 -21.15,-470.04 -7.81,-130.69 21.83,-340.16 -50.07,-452.01 -73.03,-113.68 -232.03,-145.11 -333.34,-44.33z"/>
    <path id="Fill_x0020_271" class="fil2" d="M9214.49 7003.06c-12.68,9.77 -12.68,9.77 0,0zm252.47 -31.65c235.61,47.37 -145.33,322.44 -265.74,133.67 -18.77,-29.51 -28.61,-65.77 1.63,-91.41 27.51,-23.38 44.86,18.03 70.87,6.91 44.81,-19.19 145.42,-50.97 193.24,-49.17m-32.49 -225.86c-160.85,12.76 -381.98,22.69 -461.59,183.94 -106.95,216.55 75.93,428.64 287.56,461.58 203.65,31.76 507.69,-81.04 524,-318.54 13.14,-191.5 -168.99,-341.63 -349.97,-326.98z"/>
    <path id="Fill_x0020_273" class="fil3" d="M10777.35 6860.1c-166.48,2.69 -493.81,-46.53 -638.89,34.62 -143.53,80.33 -79.5,223.33 51.42,257.53 86.56,22.6 228.06,-13.85 318.15,-17.52 118.56,-4.86 237.18,-5.88 355.83,-7.55 199.49,-2.68 398.88,-0.4 598.4,-0.4 203.74,0 411.01,5.57 614.4,-9.4 257.4,-18.95 250.45,-211.67 -1.26,-235.75 -427.56,-40.92 -869.07,-28.22 -1298.06,-21.52z"/>
    <path id="Fill_x0020_275" class="fil2" d="M10352.02 9018.54c0,91.54 81.22,0 80.66,0 0.57,0 -80.66,-91.58 -80.66,0z"/>
    <path id="Fill_x0020_277" class="fil2" d="M8514.3 8281.44c5.24,266.14 8.69,532.55 20.03,798.51 3.63,84.1 -20.49,248.29 81.44,291.16 113.46,47.74 148.76,-71.22 161.82,-151.84 41.38,-255.33 0.82,-546.89 -3.19,-805.27 -1.34,-86.74 17.47,-207.51 -81.08,-250.76 -80.38,-35.32 -180.66,30.22 -179.03,118.21z"/>
    <path id="Fill_x0020_279" class="fil3" d="M12891.13 8285.62c6.73,15.87 6.73,15.87 0,0zm9.51 -2.69c5.48,2.29 27.49,11.51 0,0zm-2150.09 -215.12c-408.57,6.4 -817.42,11.23 -1225.76,28.74 -174.25,7.48 -350.55,13.53 -524.22,29.93 -123.01,11.66 -428.55,16.51 -508.35,117.02 -164.65,207.49 184.46,150.88 259.69,134.02 136.86,-30.66 276.53,-40.47 416.36,-47.87 303.34,-16 606.81,-24.52 910.56,-30.68 823.71,-16.59 1647.99,-14.02 2471.83,-17.74 79.76,-0.37 223.92,-32.46 297.57,-0.18 73.82,32.33 69.66,111.85 77.32,204.14 10.19,122.84 -70.81,356.88 -9.11,460.2 95.78,160.27 235,24.15 256.3,-92.66 29.4,-161.42 -17.21,-355.26 -62.86,-509.59 -64.36,-217.68 -153.74,-226.33 -364.32,-243.38 -246.05,-19.85 -491.15,-31.93 -738.03,-34.18 -418.91,-3.87 -838.08,-4.27 -1256.99,2.24z"/>
    <path id="Fill_x0020_281" class="fil2" d="M12366.62 9168.01c-886.24,102.9 -1797.68,42.26 -2688.61,45.89 -216.66,0.9 -433.48,2.64 -649.96,13.12 -114.3,5.53 -385.28,-26.01 -463.61,62.22 -165.09,185.91 132.3,212.94 240.87,205.28 219.52,-15.65 439.53,-22.74 659.63,-24.43 775.15,-6.01 1554.74,30.17 2329.28,-8.06 324.49,-16.05 641.75,-71.55 960.24,-133.6 70.56,-13.71 553.58,-105.56 278.16,-215.61 -162.78,-65.06 -495.04,35.22 -666.01,55.2z"/>
    <path id="Fill_x0020_284" class="fil3" d="M9779.1 8827.67c-6.18,7.94 -6.18,7.94 0,0zm-5.92 -1.39c-2.11,5.68 -8.65,19.77 0,0zm-55.9 -72.08c1.25,1.67 6.54,8.43 0,0zm-2.16 -0.55c21.35,25.47 35.68,53.88 43.09,85.24 -183.61,49.76 -254.36,-98.82 -43.09,-85.24m-11.66 -6.95c0.11,0.05 25.93,10.9 0,0zm-301.58 -221.31c-118.85,147.97 -216.97,320.44 -68.78,489.47 132.48,151.16 398.97,170.66 567.12,69.75 173.17,-103.93 158.25,-322.84 37.39,-465.7 -77.78,-92 -140.8,-89.43 -253.68,-104.44 -76.83,-10.23 -216.88,-69.97 -282.05,10.92z"/>
    <path id="Fill_x0020_286" class="fil3" d="M10630.28 8799.3c0,197.07 850.85,112.25 1002.25,112.01 126.8,-0.18 893.55,69.75 838.5,-133.03 -45.23,-166.64 -800.44,-83.79 -961.29,-84.06 -139.01,-0.18 -879.46,-95.61 -879.46,105.09z"/>
    <g id="_1927884714688">
     <path id="Seat_2" class="fil6" d="M13786.57 10182.8c420.03,0 760.52,340.49 760.52,760.5l0 4372.98c0,420.03 -340.49,760.5 -760.52,760.5l-5466.21 0c-420.03,0 -760.5,-340.47 -760.5,-760.5l0 -4372.98c0,-420.01 340.47,-760.5 760.5,-760.5l5466.21 0zm-760.52 1330.9c104.99,0 190.14,85.13 190.14,190.14l0 2851.92c0,104.99 -85.15,190.12 -190.14,190.12l-3945.18 0c-104.98,0 -190.12,-85.13 -190.12,-190.12l0 -2851.92c0,-105.01 85.15,-190.14 190.12,-190.14l3945.18 0z"/>
     <path id="SKIN" class="fil7" d="M2846.59 15839.12c937.15,-1144.37 1571.24,-1992.77 1902.29,-2545.15 566.83,-945.86 1030.75,-1787.47 1177.14,-2108.98 349.12,-766.66 -803.72,-1125.64 -1064.63,-768.05 -394.9,541.22 -1238.26,2244.34 -2530.09,5109.29l515.29 312.89z"/>
     <path id="LegLower" class="fil8" d="M4766.95 15506.4l1744.09 -4390.23c373.04,-800.31 -1428.4,-1326.36 -1702.51,-953.92 -622.39,845.57 -2101.67,4181.23 -2287.11,4433.15l2245.53 911z"/>
     <path id="SKIN_0" class="fil7" d="M9412.05 14625.97c-339.78,-495.57 -1575.51,-2162.84 -2248.57,-2852.69 -193.4,-198.24 -382.15,-388.51 -560.65,-565.82 -530.54,-527.02 -1587.09,358.8 -1057.49,838.83 1318.88,1195.45 3243.18,2809.26 3403.92,2953.14 225.34,201.67 676.29,-62.04 462.79,-373.46z"/>
     <path id="shoe" class="fil9" d="M9191.91 14421.96c32.95,-44.86 96.69,-55.53 139.26,-19.68 77.72,65.35 189.48,166.04 229.83,235.92 64.25,111.32 150.5,346.36 150.5,346.36 -129.17,74.57 -2321.73,1340.45 -2321.73,1340.45 0,0 -263.23,-246.92 -82.03,-383.34 181.23,-136.46 299.07,-230.15 299.07,-230.15l801.39 -1104.07c15.72,-21.7 46.26,-26.12 67.44,-9.77l166.5 128.2c0,0 229.18,-19.96 342.01,-85.13 68.73,-39.68 152.62,-143.59 207.75,-218.78z"/>
     <path id="shoe_2" class="fil9" d="M3117.95 15614.97c50.97,-22.4 111.52,0.27 130.49,52.62 34.6,95.41 81.04,238.52 81.04,319.18 0,128.58 -42.81,375.22 -42.81,375.22 -149.18,0 -2680.94,0 -2680.94,0 0,0 -104.52,-345.48 120.64,-373.02 225.16,-27.53 374.08,-49.74 374.08,-49.74l1246.07 -555.5c24.47,-10.92 53.07,0.53 63.3,25.29l80.09 194.3c0,0 208.43,97.28 338.71,97.28 79.34,0 203.98,-48.07 289.32,-85.62z"/>
     <path id="Leg_x0020_and_x0020_Butt" class="fil10" d="M7138.61 11335.47c0,0 2174.37,-354.24 2912.88,-484.47 1403.29,-247.43 1812.51,-1002.6 1570.56,-2650.18l-2585.56 0c-513.26,148.21 -4288.96,1833.27 -4288.96,1833.27 -452.91,224.81 -368.59,887.71 -285.82,1106.11 5.08,13.34 2290.49,3924.77 2290.49,3924.77l2115.08 -1347.45 -1732.64 -2223.28c0,0 -68.65,-138.26 3.98,-158.76z"/>
     <path id="SKIN_1" class="fil7" d="M14672.37 9911.1c-177.27,-260.48 -1202.71,-3030.08 -1202.71,-3030.08l-841.87 122.24c0,0 1355.51,2941.01 1453.42,3110.81 127.19,220.49 14.7,582.64 -61.58,828.2 -11.8,37.97 -22.74,73.2 -31.78,104.63 160.23,46.29 221.18,-45.45 285.44,-142.12 72.59,-109.19 149.38,-224.74 378.23,-155.03 88.41,26.96 173.33,61.56 256.32,95.35 286.65,116.8 550,224.06 852.45,-26.79 47.94,-39.81 88.35,-169.85 -64.07,-245.6 -379.69,-188.8 -937.17,-534.26 -1023.84,-661.61zm-9134.78 -1287.27l1434.81 -1216.45 392.14 803.15 -1454.35 725.81c-388.76,527.19 -611.1,751.21 -667.05,671.97 -47.15,-66.76 -18.67,-134.35 7.55,-196.68 20.43,-48.47 39.49,-93.78 20.38,-132.91 -43.62,-89.36 -327.48,-59.78 -595.65,-20.2 -268.19,39.6 -197.98,-85.88 -137.14,-149.67 263.72,-183.94 596.83,-345.64 999.32,-485.02z"/>
     <g>
      <path class="fil7" d="M8447.26 1483.31c-43.64,138.59 -87.2,275.05 -63.96,442.5 4.76,34.29 -79.81,249.63 -6.69,278.42 21.5,28.9 46.9,66.05 23.93,99.33 -51.31,71.03 -107.76,138.6 -153.94,213.08 -73.64,118.81 -41.44,183.12 40.96,200.33 45.74,9 104.32,5.92 91.82,46.29 -41.24,96.51 -11.49,151.58 85,170.14 -41.27,49.5 -52.93,93.8 5.86,125.68 68.1,59.64 68.32,114.41 -9.46,163.58 -28.15,174.18 99.55,265.32 258.5,249.87 127.3,-12.37 287.62,-27.23 386.71,-16.77 294.95,134.35 485.02,360.28 495.55,454.3 307.1,-219.87 594.22,-407.09 901.32,-626.94 -84.72,-112.14 -317.8,-417.24 -318.33,-615.24 98.6,-422.28 118.23,-868.28 48.2,-1341.18 -204.29,-377.86 -457.51,-596.68 -778.72,-594.41 -456.5,-9.58 -913,285.25 -1006.76,751.01z"/>
      <path class="fil11" d="M9191.01 2470.82c5.33,-86.01 10.67,-172.03 16.02,-258.04 -44.75,-103.75 -98.65,-194.19 -191.72,-227.53 -217.15,-51.42 -268.08,-203.04 -268.76,-384.93 -98.73,-197.63 -203.37,-149.93 -311.57,45.78 -24.25,48.2 -33.24,68.29 -57.47,116.5 -171.94,-119.2 -461.67,-112.53 -205.52,-639.69 118.81,-150.17 271.03,-246.86 474.77,-261.08 152.95,-38.78 330.12,-120.11 575.73,-207.2 212.68,-10.02 404.25,-107.45 676.62,130.19 194.32,171.5 318.3,359.95 389.42,561.14 65.52,135.45 68.01,526.4 -51.09,1410.33 -65.06,126.42 -130.21,158.67 -195.6,-40.85 -37.33,-127.87 -74.68,-255.73 -112.01,-383.6 -181.75,-641.09 -915.4,159.92 -361.48,629.7 -242.44,259.01 -585.43,485.97 -814.09,521.28 -224.52,34.67 -312.01,-76.09 -325.15,-258.9 14.92,-15.87 84.61,-67.09 24.56,-177.02 94.47,64.33 94.8,121.05 45.18,141.87 6.36,20.84 46.09,24.43 53.84,5.37 40.26,-101.36 5.3,-220.03 -86.89,-289.47 -37.06,-23.64 -72.92,-52.47 -103.95,-40.92 -8.82,-52.47 -10.67,-89.09 13.45,-126.67 168.35,61.25 205.7,205.94 275.76,373.46 151.47,-51 280.6,-110.07 411.71,-299.64 33.19,-119.22 95.04,-220.89 128.23,-340.09z"/>
     </g>
     <path id="Coat_x0020_Back" class="fil6" d="M9950.95 3449.01l-569.17 176.05c-707.61,1767.75 -1715.49,3129.55 -3478.75,4574.21l436.01 752.31c1549.69,-912.85 3016.64,-1622 3611.91,-2991.79 199.8,-459.74 16.33,-1961.06 0,-2510.77z"/>
     <path id="Shirt" class="fil12" d="M11742.69 8424.09c0,0 -2241.48,237.66 -3528.6,0 -106.33,-19.63 -123.12,-197.63 -73.76,-318.41 767.72,-1881.16 1238.75,-3170.04 1238.75,-4476.66 246.92,-51.92 795.03,-320.61 795.03,-320.61 946.57,1346.52 1381.65,2891.45 1568.58,5115.67z"/>
     <path id="Coat_x0020_Front" class="fil13" d="M10445.38 3195.55c-23.9,-3.35 -13.05,1.96 -35.92,0l-394.52 0c-19.83,116.59 -48.82,548.66 -91.18,1178.72 -153.87,2289.48 -483.37,7193 -1184.69,9069.52l4839.05 0c-102.1,-2133.44 -888.68,-4684.74 -1703.5,-6851.1 601.26,598.22 1303.47,1601.02 1870.97,3270.34l906.4 -232.66c-923.7,-3980.33 -3629.98,-6033.09 -4155.12,-6399.46 -5.15,-11.86 -10.23,-23.64 -15.32,-35.37l-36.18 0z"/>
    </g>
   </g>
  </g>
  <polygon class="fil14 str0" points="18.33,18.33 18345,18.33 18345,16878.87 18.33,16878.87 "/>
 </g>
</svg>
