<?xml version="1.0" encoding="UTF-8"?>
<!DOCTYPE svg PUBLIC "-//W3C//DTD SVG 1.1//EN" "http://www.w3.org/Graphics/SVG/1.1/DTD/svg11.dtd">
<!-- Creator: CorelDRAW 2020 (64-Bit Evaluation Version) -->
<svg xmlns="http://www.w3.org/2000/svg" xml:space="preserve" width="100mm" height="92mm" version="1.1" style="shape-rendering:geometricPrecision; text-rendering:geometricPrecision; image-rendering:optimizeQuality; fill-rule:evenodd; clip-rule:evenodd"
viewBox="0 0 7570.85 6965.18"
 xmlns:xlink="http://www.w3.org/1999/xlink"
 xmlns:xodm="http://www.corel.com/coreldraw/odm/2003">
 <defs>
  <style type="text/css">
   <![CDATA[
    .fil0 {fill:none}
    .fil14 {fill:#003333}
    .fil11 {fill:#191847}
    .fil15 {fill:#393F82}
    .fil3 {fill:#AFB9C5}
    .fil16 {fill:#C21B15}
    .fil7 {fill:#C5CFD6}
    .fil6 {fill:#C7D1D9}
    .fil10 {fill:#CC9933}
    .fil12 {fill:#E4E4E4}
    .fil8 {fill:#F2F2F2}
    .fil17 {fill:#FF4133}
    .fil5 {fill:#AFB9C5;fill-rule:nonzero}
    .fil4 {fill:#C5CFD6;fill-rule:nonzero}
    .fil1 {fill:#F2F2F2;fill-rule:nonzero}
    .fil13 {fill:black;fill-opacity:0.101961}
    .fil2 {fill:black;fill-rule:nonzero;fill-opacity:0.101961}
    .fil9 {fill:#56919C;fill-opacity:0.250980}
   ]]>
  </style>
 </defs>
 <g id="Layer_x0020_1">
  <metadata id="CorelCorpID_0Corel-Layer"/>
  <g id="_1882795095520">
   <rect class="fil0" width="7570.85" height="6965.18"/>
   <g id="Clock">
    <circle id="Clock_x0020_Frame" class="fil1" cx="1353.73" cy="1340.97" r="1061.65"/>
    <path id="Time" class="fil2" d="M1413.82 499.66c0,-33.18 -26.91,-60.09 -60.09,-60.09 -33.18,0 -60.09,26.91 -60.09,60.09 0,33.18 26.91,60.09 60.09,60.09 33.18,0 60.09,-26.91 60.09,-60.09z"/>
    <path id="Time_2" class="fil2" d="M572.51 1340.97c0,-33.18 -26.91,-60.09 -60.09,-60.09 -33.18,0 -60.09,26.91 -60.09,60.09 0,33.18 26.91,60.09 60.09,60.09 33.18,0 60.09,-26.91 60.09,-60.09z"/>
    <path id="Time_3" class="fil2" d="M2255.13 1340.97c0,-33.18 -26.91,-60.09 -60.09,-60.09 -33.18,0 -60.09,26.91 -60.09,60.09 0,33.18 26.91,60.09 60.09,60.09 33.18,0 60.09,-26.91 60.09,-60.09z"/>
    <path id="Time_4" class="fil2" d="M1413.82 2182.28c0,-33.18 -26.91,-60.09 -60.09,-60.09 -33.18,0 -60.09,26.91 -60.09,60.09 0,33.18 26.91,60.09 60.09,60.09 33.18,0 60.09,-26.91 60.09,-60.09z"/>
    <polygon id="Hand" class="fil3" points="1353.74,619.85 1393.79,1320.94 1313.67,1320.94 "/>
    <polygon id="Hand_2" class="fil3" points="1708.25,1695.48 1339.99,1383.88 1396.64,1327.23 "/>
    <circle id="Time_5" class="fil4" cx="1353.73" cy="1340.97" r="80.12"/>
   </g>
   <g id="Table">
    <g id="Lamp_4">
     <path class="fil5" d="M5712.79 4877.59l590.5 0c19.2,-0.01 34.75,15.55 34.75,34.73l-0.01 86.85c0.01,19.18 -15.54,34.73 -34.73,34.73l-590.52 0c-19.18,0 -34.74,-15.55 -34.74,-34.74l-0.01 -86.84c0.01,-19.18 15.57,-34.74 34.75,-34.74z"/>
     <path id="Lamp_x0020_Body" class="fil6" d="M5977.07 3609.73l30.97 0 17.37 0 30.96 0c8.99,267.8 50.79,522.51 125.34,764.19l112.89 0c148.67,0 269.2,120.54 269.2,269.2 0,148.66 -120.54,269.2 -269.2,269.2l-573.14 0c-148.68,0 -269.2,-120.54 -269.2,-269.2 0,-148.67 120.53,-269.2 269.2,-269.2l130.26 0c111.85,-362.5 125.34,-764.19 125.34,-764.19z"/>
     <path id="Shade" class="fil7" d="M5393.6 2405.77c0,0 298.53,-29.16 597.07,-29.16 298.54,0 597.08,29.16 597.08,29.16l80.27 1379.95c0,0 -338.67,32.43 -677.36,32.43 -338.67,0 -677.34,-32.43 -677.34,-32.43l80.27 -1379.95z"/>
    </g>
    <polygon id="Table_2" class="fil8" points="4913.86,6840.16 4913.86,5416 4913.86,5033.89 5278.58,5033.89 6720.13,5033.89 7084.85,5033.89 7084.85,5416 7084.85,6840.16 6720.13,6840.16 6720.13,5416 5278.58,5416 5278.58,6840.16 "/>
   </g>
   <path id="Fill_x0020_67" class="fil9" d="M4245.97 1674.9c8.58,-184.39 20.35,-368.5 26.56,-552.99 3.1,-91.42 5.5,-182.85 7.83,-274.28 0.5,-20.37 1.04,-40.72 1.5,-61.07 1.51,-69.17 -6.7,-74.83 62.91,-80.97 310.54,-27.41 622.32,-36.5 933.22,-61.29 374.98,-29.91 751.91,-50.57 1127.94,-59.82 167.1,-4.12 334.91,-12.65 502.04,-7.46 37.02,1.14 109.71,-8.49 124.3,20.3 6.29,12.44 -6.93,55.23 -8.59,69.58 -5.24,44.82 -10.13,89.81 -13.15,134.85 -17.78,265.69 -7.18,538.08 44.26,799.75 -120.68,-68.05 -273.16,-126.59 -413.82,-114.99 -143.41,11.86 -250.69,94.7 -365.49,170.97 -64.92,43.14 -86.79,54.48 -151.57,12.7 -55.84,-36.01 -108.65,-77.18 -161.32,-117.61 -81.27,-62.38 -157.97,-129.98 -236.79,-195.37 -144.91,-120.22 -344.57,-291.35 -544.71,-240.96 -143,35.99 -275.04,114.58 -399.14,191.49 -184.42,114.28 -351.32,254.22 -535.95,367.19m2485.24 -1179.78c-712.45,0 -1419.58,69.07 -2130.04,106.44 -74.21,3.9 -148.15,9.65 -222.08,16.78 -49.27,4.75 -169.78,-15.22 -202.07,26.89 -21.55,28.09 -3.04,32.3 0,58.99 3.82,33.63 1.56,73.49 0.58,109.09 -2.36,85.79 -4.87,171.57 -6.81,257.36 -7.36,324.25 -11.97,648.45 1.16,972.62 2.87,70.7 28.63,168.59 14.54,237.29 -10.21,49.74 -44.31,80 34.36,89.19 77.4,9.05 172.06,-13.97 249.54,-21.33 77.92,-7.41 155.83,-15.47 233.85,-21.89 339.2,-27.94 681.7,-23.72 1021.81,-33.02 343.15,-9.37 686.45,-9.96 1029.73,-10.17 143.63,-0.07 307.75,8 447.91,-31.52 49.29,-13.93 57.27,-20.78 45.11,-69.68 -2.29,-9.3 -17.19,-12.73 -21.55,-29.5 -5.94,-22.83 -2.89,-50.6 -4.28,-74.35 -4.53,-77.63 -6.13,-155.41 -9.78,-233.08 -6.11,-129.79 -28.47,-255.75 -45.04,-384.24 -19.09,-148.37 -18.1,-299.03 -18.5,-448.38 -0.23,-82.84 1.9,-165.41 8.56,-248.01 4.28,-52.99 30.37,-132.09 17.13,-181.5 -6.59,-24.61 -17.38,-44.12 -42.99,-54.71 -16.22,-6.71 -29.87,-1.45 -45.9,-3.16 -19.03,-2.02 -30.9,-4.69 -53.67,-9.84 -97.65,-22.14 -202.06,-20.27 -301.54,-20.27z"/>
   <ellipse id="Ballsy_x0020_Ball" class="fil4" cx="1615.53" cy="5512.61" rx="1425.92" ry="1361.11"/>
   <g>
    <path id="SKIN" class="fil10" d="M4218.33 5210.22c68.86,241.25 240.48,698.55 477.74,1223.69l225.48 -65.79c-197.27,-1208.41 -361.42,-2008.44 -455.47,-2251.94 -62.13,-160.88 -532.16,-142.03 -478.08,181.69 22.68,135.75 112.4,499.25 230.33,912.36zm-926.73 -855.9c-367.69,76.18 -1130.06,345.47 -1347.76,431.52 -136.81,54.07 -48.6,237.48 68.11,221.43 19.76,-2.71 89.71,-10.54 194.04,-22.21 335.15,-37.5 1025.32,-114.71 1548.78,-190.04 275.63,-39.67 127.36,-555.96 -158.83,-501.32 -96.28,18.37 -198.68,38.72 -304.35,60.61z"/>
    <path id="Leg_x0020_Back" class="fil11" d="M4480.51 3979.81c-37.6,-122.68 -1746.42,-558.11 -1746.42,-558.11l-140.04 0 0 130.49 1177.54 599.44c-1.56,19.34 -0.62,39.78 3.18,61.35 -8.5,444.38 181.71,776.36 369.99,1105.05 123.15,214.92 245.47,428.46 310.9,671.09l432.62 -64.53c-12.6,-32.23 -32.52,-177.56 -59.78,-376.24 -68.69,-500.99 -183.93,-1341.3 -345.58,-1563.61 -0.55,-0.78 -1.12,-1.55 -1.72,-2.32 -0.2,-0.87 -0.45,-1.74 -0.7,-2.6z"/>
    <path id="shoe" class="fil12" d="M2059.38 4767.89c-0.86,-21.67 -19.13,-38.98 -40.69,-36.7 -39.34,4.18 -97.38,12.36 -125.62,26.13 -45.02,21.96 -124.09,79.09 -124.09,79.09 25.48,52.22 457.88,938.76 457.88,938.76 0,0 138.83,-22.42 110.01,-105.95 -28.8,-83.56 -46.46,-139.49 -46.46,-139.49l-18.3 -531.2c-0.35,-10.43 -9.26,-18.5 -19.67,-17.85l-81.72 5.14c0,0 -69.64,-56.38 -91.9,-102.01 -13.54,-27.78 -18.02,-79.62 -19.44,-115.93z"/>
    <path id="shoe_2" class="fil12" d="M4639.42 6315.84c-19.85,-8.72 -43.44,0.11 -50.84,20.5 -13.48,37.17 -31.57,92.92 -31.57,124.35 0,50.09 16.69,146.19 16.69,146.19 58.11,0 1044.47,0 1044.47,0 0,0 40.73,-134.59 -47,-145.33 -87.72,-10.73 -145.73,-19.37 -145.73,-19.37l-485.47 -216.43c-9.53,-4.25 -20.68,0.21 -24.67,9.86l-31.2 75.7c0,0 -81.2,37.89 -131.97,37.89 -30.9,0 -79.46,-18.72 -112.72,-33.36z"/>
    <path id="SKIN_0" class="fil10" d="M805.14 4382.96c54.27,-110.1 529.11,-1527 529.11,-1527l405.5 1.52c0,0 -666.98,1500.94 -695.54,1571.74 -37.1,91.96 25.93,225.57 68.67,316.18 6.62,14.02 12.74,27.01 17.94,38.65 -59.31,26.54 -87.81,-5.53 -117.84,-39.35 -33.92,-38.21 -69.82,-78.62 -154.32,-39.32 -32.65,15.2 -63.55,33.15 -93.73,50.7 -104.26,60.59 -200.04,116.27 -330.33,35.87 -20.65,-12.75 -43.29,-60.73 11.4,-98.23 136.25,-93.42 332.6,-256.94 359.13,-310.77z"/>
    <path id="Shade_1" class="fil13" d="M1868.94 3551.33c37.26,-427.95 103.8,-831.67 213.79,-1211.15 -24.11,405.82 -30.8,909.25 50.28,1211.15l-264.06 0z"/>
    <g>
     <path class="fil10" d="M2937.68 518.44c35.17,56.17 70.08,111.41 79.05,187.99 1.84,15.68 63.9,101.03 34.93,122.13 -6.17,15.22 -13.12,34.55 0.84,46.59 30.81,25.47 63.49,48.82 92.42,76.38 46.15,43.99 39.32,76.08 4.93,93.14 -19.16,9.24 -45.37,14.6 -35.22,30.99 29.29,37.87 22.49,65.59 -17.98,84.87 23.91,17.11 34.14,35.32 11.85,56.15 -23.21,34.15 -17.02,58.36 22.96,71.13 32.43,73.66 -13.47,128.55 -85.41,139.99 -57.62,9.15 -130.1,21.01 -172.63,37.01 -114.77,93.18 -172.73,214.75 -166.58,257.45 -160.82,-61.79 -309.06,-111.46 -469.87,-173.24 24.51,-59.23 92.36,-220.69 69.86,-308.15 -92.03,-175.08 -151.91,-369.71 -175.31,-586.51 46.78,-190.26 133.44,-315.94 275.5,-351.82 200.41,-56.66 435.79,21.06 530.66,215.9z"/>
     <path class="fil14" d="M2722.77 1039.77c-12.23,-37.35 -24.47,-74.71 -36.7,-112.06 7.84,-50.94 21.24,-97.05 58.49,-122.46 89.95,-47.64 95.03,-120.41 74.44,-200.79 20.88,-98.58 72.55,-89.54 142.79,-15.57 16.23,18.5 22.52,26.33 38.75,44.83 62.22,-72.36 190.88,-102.7 17.25,-305.98 -69.69,-52.65 -147.99,-77.84 -239.56,-60.73 -71.98,0.45 -159.53,-15.1 -277.95,-25.35 -95.04,20 -190.79,-1 -283.73,135.18 -66.09,98.03 -99.17,195.46 -107.47,292.43 -13.36,67.32 30.43,240.18 184.53,616.7 43.24,48.33 75.7,55.09 81.65,-40.5 1.79,-60.73 3.59,-121.46 5.39,-182.2 6.6,-303.86 422.45,-34.53 231.88,236.47 136.77,86.49 314.24,147.28 419.24,136.62 103.09,-10.48 128.98,-69.42 113.79,-151.64 -8.4,-5.28 -45.05,-19.9 -31.17,-75.31 -34.31,39.25 -27.94,64.32 -3.65,67.82 -0.42,9.92 -17.54,16.07 -23.15,8.55 -29.41,-40.13 -27.6,-96.52 5.11,-137.76 13.65,-14.7 26.17,-31.54 41.19,-30 -2.14,-24.17 -5.53,-40.55 -20.49,-54.37 -67.28,46.37 -67.15,114.53 -78.84,196.53 -72.72,-5.13 -136.5,-16.37 -216.16,-85 -28.34,-48.8 -67.32,-86.59 -95.66,-135.4z"/>
    </g>
    <path id="SKIN_2" class="fil10" d="M4170.55 3884.52l-638.98 -469.2 -141.24 349.15 632.75 262.39c178.94,210.2 278.99,297.84 300.18,262.88 17.85,-29.47 3.91,-57.05 -8.95,-82.45 -10.02,-19.81 -19.37,-38.28 -12.5,-55.28 15.72,-38.86 135.93,-34.76 249.83,-26.01 113.91,8.76 80.72,-41.92 53.26,-66.94 -116.28,-69.61 -261.07,-127.78 -434.35,-174.55z"/>
    <path id="Leg_x0020_Front" class="fil15" d="M2691.89 4507.63c-107.75,-21.57 -206.96,-40.81 -291.85,-55.7 -548.41,-96.2 -708.31,-389.74 -613.76,-1030.23l1010.41 0c165.05,47.41 1022.81,407.12 1467.87,598.45 294.55,126.63 201.69,583.11 34.88,701.91 -0.9,7.28 -3.91,12.24 -9.26,14.45 -632.42,262.12 -1171.71,242.56 -1518.02,230 -145.06,-5.26 -256.24,-9.3 -326.24,9.12l-109.68 -346 355.66 -122z"/>
    <g>
     <path id="Coat_x0020_Back" class="fil16" d="M2478.85 1546.67l163.82 -11.77c546.87,575.15 694.74,1591.25 1375.65,2188.82l-197.85 201.23c-1255.49,-282.48 -1451.44,-1523.39 -1341.62,-2378.28z"/>
     <path id="Shirt" class="fil6" d="M1577.36 3501.99c0,0 968.89,95.36 1425.38,140.29 65.14,6.41 62.13,-88.84 57.36,-137.23 -54.74,-558.4 -420.82,-1190.58 -344.08,-1970.24l-404.79 -104.94c-393.91,513.46 -577.79,1175.28 -733.87,2072.12z"/>
     <path id="Coat_x0020_Front" class="fil17" d="M1378.58 3877.44c-79.21,147.56 -155.24,275.62 -224.58,372.91l-305.7 -30.09c71.78,-1066.65 554.92,-1845.27 940.42,-2305.48 -74.29,-12.71 -138.74,-50.66 -173.84,-131.88 -123.58,-285.95 -54.62,-429.9 110.81,-463.16 90.97,-18.3 172.21,8.3 269.45,40.13 79.58,26.04 169.9,55.6 285,66.95 0.04,0 0.08,0.01 0.11,0.01 11.16,1.1 21.24,2.85 30.31,5.19l135.68 21.21c0,0 369.14,1931.82 58.97,2535.11l-1126.63 -110.89z"/>
     <path id="Shade_3" class="fil13" d="M1378.58 3877.44c103.93,-193.59 213.3,-420.74 320.19,-655.91 4.5,271.01 29.43,545.22 100.89,697.36l-421.08 -41.45z"/>
    </g>
   </g>
  </g>
 </g>
</svg>
