<?xml version="1.0" encoding="UTF-8"?>
<!DOCTYPE svg PUBLIC "-//W3C//DTD SVG 1.1//EN" "http://www.w3.org/Graphics/SVG/1.1/DTD/svg11.dtd">
<!-- Creator: CorelDRAW 2020 (64-Bit Evaluation Version) -->
<svg xmlns="http://www.w3.org/2000/svg" xml:space="preserve" width="100mm" height="92mm" version="1.1" style="shape-rendering:geometricPrecision; text-rendering:geometricPrecision; image-rendering:optimizeQuality; fill-rule:evenodd; clip-rule:evenodd"
viewBox="0 0 20168.45 18554.97"
 xmlns:xlink="http://www.w3.org/1999/xlink"
 xmlns:xodm="http://www.corel.com/coreldraw/odm/2003">
 <defs>
  <style type="text/css">
   <![CDATA[
    .fil29 {fill:none}
    .fil27 {fill:#007718}
    .fil25 {fill:#008400}
    .fil24 {fill:#181658}
    .fil12 {fill:#1820BF}
    .fil20 {fill:#191847}
    .fil28 {fill:#23B04D}
    .fil13 {fill:#2B44FF}
    .fil19 {fill:#2C1B18}
    .fil21 {fill:#393F82}
    .fil26 {fill:#44BD27}
    .fil10 {fill:#4A312C}
    .fil9 {fill:#915B3C}
    .fil2 {fill:#AFB9C5}
    .fil14 {fill:#C21B15}
    .fil7 {fill:#C5CFD6}
    .fil6 {fill:#C7D1D9}
    .fil4 {fill:#CBCBCB}
    .fil18 {fill:#D4A181}
    .fil11 {fill:#E4E4E4}
    .fil22 {fill:#E87613}
    .fil8 {fill:#F2F2F2}
    .fil15 {fill:#FF4133}
    .fil23 {fill:#FFA434}
    .fil5 {fill:#AFB9C5;fill-rule:nonzero}
    .fil3 {fill:#C5CFD6;fill-rule:nonzero}
    .fil0 {fill:#F2F2F2;fill-rule:nonzero}
    .fil16 {fill:black;fill-opacity:0.101961}
    .fil1 {fill:black;fill-rule:nonzero;fill-opacity:0.101961}
    .fil17 {fill:white;fill-opacity:0.200000}
   ]]>
  </style>
   <clipPath id="id0">
    <path d="M-0 0l20168.45 0 0 18554.97 -20168.45 0 0 -18554.97z"/>
   </clipPath>
 </defs>
 <g id="Layer_x0020_1">
  <metadata id="CorelCorpID_0Corel-Layer"/>
  <g>
  </g>
  <g style="clip-path:url(#id0)">
   <g>
    <g id="_1927877692096">
     <g id="Clock">
      <circle id="Clock_x0020_Frame" class="fil0" cx="4882.92" cy="4070.53" r="3036.12"/>
      <path id="Time" class="fil1" d="M5054.76 1664.54c0,-94.89 -76.94,-171.84 -171.84,-171.84 -94.91,0 -171.86,76.94 -171.86,171.84 0,94.89 76.94,171.86 171.86,171.86 94.89,0 171.84,-76.96 171.84,-171.86z"/>
      <path id="Time_2" class="fil1" d="M2648.78 4070.54c0,-94.91 -76.96,-171.86 -171.86,-171.86 -94.89,0 -171.84,76.94 -171.84,171.86 0,94.89 76.94,171.84 171.84,171.84 94.89,0 171.86,-76.94 171.86,-171.84z"/>
      <path id="Time_3" class="fil1" d="M7460.75 4070.54c0,-94.91 -76.96,-171.86 -171.86,-171.86 -94.89,0 -171.84,76.94 -171.84,171.86 0,94.89 76.94,171.84 171.84,171.84 94.89,0 171.86,-76.94 171.86,-171.84z"/>
      <path id="Time_4" class="fil1" d="M5054.76 6476.51c0,-94.89 -76.94,-171.84 -171.84,-171.84 -94.91,0 -171.86,76.94 -171.86,171.84 0,94.89 76.94,171.86 171.86,171.86 94.89,0 171.84,-76.96 171.84,-171.86z"/>
      <polygon id="Hand" class="fil2" points="4882.92,2008.25 4997.5,4013.24 4768.37,4013.24 "/>
      <polygon id="Hand_2" class="fil2" points="5896.75,5084.36 4843.61,4193.24 5005.63,4031.23 "/>
      <circle id="Time_5" class="fil3" cx="4882.92" cy="4070.53" r="229.13"/>
     </g>
     <g id="Lamp">
      <path id="Body_x0020__x0028_Stroke_x0029_" class="fil4" d="M17609.76 986.52c-67.54,-36.14 -148.72,-36.14 -216.25,0l-2377.58 1272.61 -216.25 -404.03 2377.58 -1272.61c202.61,-108.43 446.15,-108.43 648.76,0l5699.7 3050.8c372.49,199.34 605.05,587.57 605.05,1010.12l0 18595.77 -458.29 0 0 -18595.77c0,-253.5 -139.55,-486.48 -363.07,-606.08l-5699.66 -3050.8z"/>
      <path class="fil5" d="M22246.79 23014.3l3036.12 0c94.91,-0.04 171.88,76.92 171.88,171.81l-0.02 57.32c0.02,94.87 -76.94,171.84 -171.86,171.84l-3036.12 0.02c-94.89,-0.02 -171.86,-76.98 -171.86,-171.88l0 -57.28c0,-94.91 76.96,-171.88 171.86,-171.88z"/>
      <g id="Lamp_x0020_Top">
       <path id="Lamp_2" class="fil3" d="M12765.98 1265.07c738.25,-738.31 1935.16,-738.31 2673.47,0l0 0c738.25,738.21 738.25,1935.12 0,2673.43l-1134.19 1134.21 -2673.45 -2673.47 1134.17 -1134.17z"/>
       <ellipse id="Lamp_3" class="fil0" transform="matrix(0.75909 0.75909 -0.75909 0.75909 13013.8 3705.17)" rx="1760.95" ry="346.86"/>
      </g>
     </g>
     <g id="Table">
      <g id="Lamp_4">
       <path class="fil5" d="M12272.44 13694.56l1947.71 0c63.29,-0.02 114.6,51.29 114.6,114.56l-0.04 286.43c0.04,63.25 -51.27,114.56 -114.54,114.56l-1947.73 0.02c-63.25,-0.02 -114.56,-51.33 -114.56,-114.6l0 -286.39c0,-63.29 51.31,-114.6 114.58,-114.6z"/>
       <path id="Lamp_x0020_Body" class="fil6" d="M13144.14 9512.75l102.15 0 57.28 0 102.15 0c29.65,883.28 167.48,1723.41 413.41,2520.53l372.37 0c490.36,0 887.92,397.56 887.92,887.94 0,490.36 -397.56,887.92 -887.92,887.92l-1890.43 0c-490.36,0 -887.92,-397.56 -887.92,-887.92 0,-490.38 397.56,-887.94 887.92,-887.94l429.65 0c368.9,-1195.67 413.41,-2520.53 413.41,-2520.53z"/>
       <path id="Shade" class="fil7" d="M11219.65 5541.66c0,0 984.66,-96.2 1969.37,-96.2 984.66,0 1969.35,96.2 1969.35,96.2l264.77 4551.55c0,0 -1117.07,106.95 -2234.12,106.95 -1117.07,0 -2234.14,-106.95 -2234.14,-106.95l264.77 -4551.55z"/>
      </g>
      <polygon id="Table_2" class="fil8" points="9637.31,20167.82 9637.31,15470.41 9637.31,14210.12 10840.32,14210.12 15594.99,14210.12 16797.98,14210.12 16797.98,15470.41 16797.98,20167.82 15594.99,20167.82 15594.99,15470.41 10840.32,15470.41 10840.32,20167.82 "/>
     </g>
     <g id="Master_x002f_Pose_x002f_Standing">
      <g id="Master_x002f_Pose_x002f_Standing_0">
       <g id="Head_x002f_Front">
        <g id="Head_x002f_Front_x002f_Caesar">
         <g id="Head">
          <path id="SKIN" class="fil9" d="M18566.12 4322.7c-421.98,254.34 -836.61,377.21 -1031.23,327.07 -488.02,-125.81 -532.89,-1911.18 -155.28,-2615.04 377.61,-703.86 2318.87,-1010.64 2416.72,383.93 33.96,484 -169.27,915.95 -469.56,1268.41l538.42 2509.46 -1563.94 0 264.87 -1873.83z"/>
         </g>
         <path id="Combined_x0020_Shape" class="fil10" d="M19278.72 2091.19c-902.5,6.45 -1530.4,-31.58 -1889.76,-130.35 16.38,-305.85 334.35,-651.62 1172.96,-651.62 933.01,0 1433.63,543.82 1433.63,1172.96 0,574.76 -370.03,1274.81 -651.66,1303.26 -72.91,-15.93 -135.15,-103.67 -197.01,-224.56 115.87,-54.92 197.01,-181.7 197.01,-329.33 0,-197.93 -145.88,-358.39 -325.82,-358.39 -65.35,0 -126.19,21.16 -177.2,57.58 -118.35,-190.95 -266.69,-333.75 -474.44,-318.26l130.33 -390.99 781.97 -65.14 0 -65.16z"/>
        </g>
       </g>
       <g id="Lower_x0020_Body_x002f_Standing">
        <g id="Lower_x0020_Body_x002f_Standing_x002f_Baggy_x0020_Pants">
         <polygon id="SKIN_1" class="fil9" points="19995.54,11605.19 16797.13,19700.38 14651.99,26544.16 13804.9,26544.16 17214.7,11605.19 "/>
         <path id="SKIN_2" class="fil9" d="M20639.54 11605.19c34.08,2844.7 530.77,6674.61 610.14,6851.99 79.38,177.32 5478.92,4509.99 5478.92,4509.99l-583.43 624.31c0,0 -6370.99,-3714.69 -6665.79,-4210.14 -294.82,-495.44 -1254.62,-5054.66 -2025.25,-7776.15l3185.42 0z"/>
         <g id="Left_x0020__x005b_Shoe_x005d_">
          <path id="shoe" class="fil11" d="M26634.75 22850.25c21.34,-73.25 98.52,-116.86 170.18,-90.64 130.73,47.76 321.93,125.04 406.64,196.14 135.01,113.33 356.34,375.68 356.34,375.68 -131.46,156.63 -2362.49,2815.5 -2362.49,2815.5 0,0 -454.94,-194.73 -285.46,-455.44 169.5,-260.72 277.4,-436.67 277.4,-436.67l514.68 -1798.16c10.12,-35.31 47.36,-55.24 82.37,-44.17l274.63 87.13c0,0 285.79,-133.19 400.65,-270.1 69.88,-83.3 129.3,-256.5 165.08,-379.27z"/>
         </g>
         <g id="Right_x0020__x007b_Shoe_x005d_">
          <path id="shoe_2" class="fil11" d="M14818.2 26155.39c69.84,-30.7 152.88,0.4 178.89,72.14 47.44,130.77 111.09,326.97 111.09,437.55 0,176.27 -58.71,514.44 -58.71,514.44 -204.47,0 -3675.4,0 -3675.4,0 0,0 -143.3,-473.62 165.38,-511.43 308.68,-37.74 512.84,-68.15 512.84,-68.15l1708.29 -761.58c33.56,-15.01 72.81,0.73 86.78,34.65l109.82 266.43c0,0 285.75,133.31 464.36,133.31 108.77,0 279.62,-65.89 396.65,-117.36z"/>
         </g>
         <polygon id="Pant" class="fil12" points="17845.1,25839.27 13817.67,25402.16 17063.13,11605.19 20409.7,11605.19 "/>
         <path id="Pant_3" class="fil13" d="M25895.52 21959.83l-2641.76 3126.98c0,0 -4173.78,-4558.49 -4866.69,-5948.86 -692.83,-1390.33 -1245.66,-7532.75 -1245.66,-7532.75l4061.1 0c0,0 301.96,5403.81 407.08,5655.31 105.2,251.46 4285.94,4699.33 4285.94,4699.33z"/>
        </g>
       </g>
       <g id="Upper_x0020_Body">
        <g id="Upper_x0020_Body_x002f_Jacket">
         <path id="SKIN_4" class="fil9" d="M12803.19 12371.39l1845.98 -1800.84 613.08 1060.84 -1919.57 1131.79c-481.3,758.17 -763.98,1085.77 -848.02,982.79 -70.91,-86.85 -38.4,-182.06 -8.47,-269.71 23.31,-68.29 45.02,-132 15.17,-183.67 -68.23,-118.11 -453.63,-50.52 -816.58,29.3 -363.03,79.77 -279.03,-98.52 -201.89,-191.56 343.11,-276.91 783.16,-529.89 1320.31,-758.94zm10880.78 2616.35c-190.98,-387.38 -841.29,-4163.23 -841.29,-4163.23l-1361.75 5.38c0,0 1261.25,4071.53 1361.75,4320.65 130.59,323.6 -91.22,793.77 -241.64,1112.63 -23.27,49.33 -44.81,94.99 -63.09,136 208.68,93.36 308.94,-19.5 414.62,-138.5 119.38,-134.42 245.71,-276.61 543.08,-138.34 114.86,53.49 223.59,116.63 329.77,178.41 366.88,213.22 703.94,409.16 1162.41,126.23 72.67,-44.83 152.33,-213.66 -40.14,-345.63 -479.44,-328.75 -1170.4,-904.15 -1263.73,-1093.61z"/>
         <path id="Coat_x0020_Back" class="fil14" d="M18972.76 5110.38l-563.47 -96.67c-970.18,2423.5 -2663.93,4625.55 -5081.28,6606.15l1826.7 2219.21c2417.07,-2820.07 3907.01,-5729.65 3818.05,-8728.7z"/>
         <path id="Shirt" class="fil6" d="M21429.16 12191.68l-5017.67 0c0,0 1743.74,-4239.77 1743.74,-7203.24l1513.56 -225.52c1189.53,1913.12 1525.44,4268.57 1760.36,7428.77z"/>
         <path id="Coat_x0020_Front" class="fil15" d="M23709.91 14342.09c-548.74,-6190.89 -4007.87,-9579.17 -4007.87,-9579.17l-1.17 1.07c-0.2,-0.34 -0.44,-0.73 -0.65,-1.07l-98.79 0c-177.34,6.11 -540.21,22 -540.21,22l-365.73 1045.21c-58.04,1911.48 -677.76,7704.33 -677.76,7704.33l3284.37 0c-5.61,265.6 -17.97,534.95 -37.86,807.63l2445.67 0z"/>
         <path id="Shade_5" class="fil16" d="M21301.53 13560.09c26.24,-1156.62 -76.42,-2242.67 -247.57,-3225.48 -89.55,1166.26 -276.65,2569.5 -667.43,3225.48l915 0z"/>
         <polygon id="Light" class="fil17" points="20574.78,11540.04 18952.89,10786.05 18952.89,11540.04 "/>
        </g>
       </g>
      </g>
     </g>
     <g id="Master_x002f_Pose_x002f_Sitting">
      <g id="Master_x002f_Pose_x002f_Sitting_6">
       <g id="Head_x002f_Front_7">
        <g id="Head_x002f_Front_x002f_Short_x0020_2">
         <g id="Head_8">
          <path id="SKIN_9" class="fil18" d="M9350.52 6616.78c421.98,254.36 836.61,377.23 1031.23,327.07 488.02,-125.79 532.89,-1911.16 155.28,-2615.02 -377.61,-703.86 -2318.87,-1010.62 -2416.72,383.93 -33.96,484 169.27,915.95 469.54,1268.39l-538.42 2509.48 1563.96 0 -264.87 -1873.85z"/>
         </g>
         <path id="Hair" class="fil19" d="M8469.66 6295.08c-196.26,-873.25 -755.47,-1468.55 -670.08,-1858.87 85.41,-390.32 455.26,-485.43 455.26,-485.43 0,0 191.28,-773.82 1233.85,-658.28 1042.55,115.55 1678.84,548.5 1404.09,1501.22 -252.61,0 -557.56,-91.36 -979.24,65.16 -200.68,74.5 -287.08,462.04 -287.08,462.04l-190.55 0c0,0 -277.42,-459.9 -547.07,-338 -269.63,121.88 -122.56,592.17 -122.56,592.17l-93.86 719.99 -202.75 0z"/>
        </g>
       </g>
       <g id="Lower_x0020_Body_x002f_Sitting">
        <g id="Lower_x0020_Body_x002f_Sitting_x002f_Baggy_x0020_Pants">
         <g id="Seat">
          <path id="Seat_2" class="fil7" d="M3685.4 16636.19c-575.83,0 -1042.61,466.8 -1042.61,1042.65l0 5995.13c0,575.87 466.78,1042.65 1042.61,1042.65l7493.93 0c575.85,0 1042.65,-466.78 1042.65,-1042.65l0 -5995.13c0,-575.85 -466.8,-1042.65 -1042.65,-1042.65l-7493.93 0zm1042.65 1824.64c-143.94,0 -260.66,116.69 -260.66,260.64l0 3909.88c0,143.96 116.71,260.66 260.66,260.66l5408.65 0c143.96,0 260.66,-116.69 260.66,-260.66l0 -3909.88c0,-143.94 -116.69,-260.64 -260.66,-260.64l-5408.65 0z"/>
         </g>
         <path id="SKIN_10" class="fil18" d="M18683.63 24390.77c-1284.81,-1568.9 -2154.09,-2732.02 -2607.96,-3489.28 -777.09,-1296.75 -1413.08,-2450.57 -1613.8,-2891.33 -478.64,-1051.06 1101.86,-1543.21 1459.55,-1052.97 541.4,742 1697.62,3076.9 3468.65,7004.62l-706.44 428.96z"/>
         <path id="LegLower" class="fil20" d="M16050.9 23934.64l-2391.07 -6018.81c-511.43,-1097.18 1958.26,-1818.41 2334.05,-1307.78 853.27,1159.24 2881.3,5732.28 3135.53,6077.64l-3078.51 1248.95z"/>
         <path id="SKIN_11" class="fil18" d="M9682.69 22727.58c465.81,-679.41 2159.96,-2965.14 3082.69,-3910.9 265.15,-271.77 523.94,-532.63 768.62,-775.68 727.38,-722.53 2175.83,491.87 1449.77,1149.94 -1808.12,1638.93 -4446.23,3851.39 -4666.62,4048.63 -308.96,276.49 -927.16,-85.05 -634.46,-512z"/>
         <g id="Left_x0020__x005b_shoe_x005d_">
          <path id="shoe_12" class="fil11" d="M9984.47 22447.9c-45.14,-61.53 -132.53,-76.12 -190.91,-26.97 -106.55,89.59 -259.75,227.58 -315.09,323.4 -88.1,152.59 -206.28,474.85 -206.28,474.85 177.04,102.23 3182.94,1837.71 3182.94,1837.71 0,0 360.87,-338.53 112.48,-525.55 -248.5,-187.1 -410.02,-315.54 -410.02,-315.54l-1098.66 -1513.64c-21.58,-29.71 -63.43,-35.78 -92.49,-13.35l-228.27 175.73c0,0 -314.16,-27.35 -468.86,-116.69 -94.23,-54.41 -209.25,-196.84 -284.84,-299.95z"/>
         </g>
         <g id="Right_x0020__x005b_shoe_x005d_">
          <path id="shoe_2_13" class="fil11" d="M18311.6 24083.47c-69.86,-30.68 -152.88,0.4 -178.87,72.14 -47.44,130.77 -111.11,326.97 -111.11,437.55 0,176.27 58.71,514.44 58.71,514.44 204.47,0 3675.4,0 3675.4,0 0,0 143.3,-473.62 -165.38,-511.43 -308.7,-37.74 -512.84,-68.15 -512.84,-68.15l-1708.27 -761.58c-33.58,-14.99 -72.81,0.73 -86.83,34.65l-109.8 266.43c0,0 -285.75,133.31 -464.36,133.31 -108.77,0 -279.62,-65.89 -396.65,-117.36z"/>
         </g>
         <path id="Leg_x0020_and_x0020_Butt" class="fil21" d="M12799.46 18216.44c0,0 -2980.96,-485.64 -3993.41,-664.15 -1923.85,-339.23 -2484.85,-1374.5 -2153.18,-3633.31l3544.71 0c703.66,203.2 5879.99,2513.35 5879.99,2513.35 620.89,308.23 505.28,1217 391.83,1516.41 -6.98,18.33 -3140.15,5380.7 -3140.15,5380.7l-2899.7 -1847.29 2375.38 -3048.04c0,0 94.11,-189.52 -5.47,-217.68z"/>
        </g>
       </g>
       <g id="Upper_x0020_Body_14">
        <g id="Upper_x0020_Body_x002f_Jacket_x0020_2">
         <path id="SKIN_15" class="fil18" d="M15886.5 11077.94l-2361.24 1036.96 753.94 965.89 1768.37 -1355.84c883.32,-162.26 1293,-301.62 1228.94,-418.15 -53.97,-98.24 -154.37,-103.75 -246.84,-108.87 -72.06,-3.97 -139.32,-7.68 -176.07,-54.74 -83.86,-107.48 123.15,-439.47 333.12,-746.13 209.95,-306.68 13.17,-295.61 -101.97,-258.92 -385.28,214.37 -784.65,527.63 -1198.25,939.81zm-10571.98 1587.52l-1335.31 -264.95c-905.64,2386.98 -1445.53,3694.96 -1619.73,3924.07 -127.77,168 -915.55,600.76 -1448.8,831.91 -214.03,92.71 -168.06,273.63 -105.28,331.47 395.97,364.99 764.06,237.08 1164.79,97.82 115.99,-40.32 234.74,-81.58 357.67,-112.14 318.2,-79 415.01,84.65 506.53,239.26 81.02,136.92 157.88,266.75 380.5,214.91 -10.14,-43.64 -22.59,-92.57 -36,-145.43 -86.76,-341.45 -214.77,-845.12 -24.89,-1137.7 97.43,-150.15 817.63,-1476.57 2160.52,-3979.21z"/>
         <path id="Coat_x0020_Back_16" class="fil22" d="M8943.88 7404.5l563.47 -96.69c1227.31,1190.58 1728.17,4050.87 2546.11,4429.47 773.32,357.97 1869.55,11.58 3172.6,-456.15l399.01 891.59c-1183.93,1280.88 -3706.17,2363.02 -4728.55,1745.28 -1634.57,-987.73 -2011.86,-4515.47 -1952.63,-6513.5z"/>
         <path id="Shirt_17" class="fil6" d="M6487.48 14485.79c0,0 3389.09,0 4985.82,0 227.86,0 184.92,-328.95 151.97,-494.99 -380.05,-1915.86 -1863.85,-3981.05 -1863.85,-6708.27l-1438.11 -225.5c-1189.56,1913.12 -1600.91,4268.57 -1835.83,7428.77z"/>
         <path id="Coat_x0020_Front_18" class="fil23" d="M8246.94 7057.02l-16.42 0c-3225.72,1987.8 -5175.2,5069.2 -5848.39,9244.17l1045.07 204.69c692.26,-806.56 1546.6,-2126.44 2563.01,-3959.83 -311.84,1104.38 -539.51,2237.08 -610.52,3308.17l4488.02 0c868.84,-2195.7 -1067.8,-8797.19 -1067.8,-8797.19l-309.87 0 -243.11 0z"/>
        </g>
       </g>
      </g>
     </g>
     <g id="Master_x002f_Pose_x002f_Standing_19">
      <g id="Master_x002f_Pose_x002f_Standing_20">
       <g id="Head_x002f_Front_21">
        <g id="Head_x002f_Front_x002f_Short_x0020_2_22">
         <g id="Head_23">
          <path id="SKIN_24" class="fil18" d="M1126.45 4815.28c421.98,254.34 836.61,377.23 1031.21,327.07 488.06,-125.79 532.93,-1911.18 155.3,-2615.04 -377.61,-703.84 -2318.89,-1010.62 -2416.7,383.93 -33.96,484 169.25,915.95 469.52,1268.41l-538.4 2509.46 1563.96 0 -264.89 -1873.83z"/>
         </g>
         <path id="Hair_25" class="fil24" d="M245.61 4493.57c-196.3,-873.27 -755.49,-1468.55 -670.08,-1858.87 85.37,-390.32 455.24,-485.45 455.24,-485.45 0,0 191.28,-773.82 1233.85,-658.28 1042.57,115.57 1678.86,548.52 1404.07,1501.24 -252.59,0 -557.52,-91.36 -979.2,65.14 -200.7,74.5 -287.1,462.04 -287.1,462.04l-190.55 0c0,0 -277.4,-459.9 -547.05,-338 -269.65,121.92 -122.6,592.19 -122.6,592.19l-93.86 719.99 -202.71 0z"/>
        </g>
       </g>
       <g id="Lower_x0020_Body_x002f_Standing_26">
        <g id="Lower_x0020_Body_x002f_Standing_x002f_Skinny_x0020_Jeans">
         <polygon id="Leg" class="fil25" points="-693.94,12097.76 1668.6,20388.46 3392.31,26499.14 4649.53,26499.14 2817.81,12097.76 "/>
         <path id="Leg_27" class="fil26" d="M-1325.77 12097.76c-54.6,4273.13 -240.97,6603.77 -298.33,6992.04 -57.42,388.24 -924.92,2857.99 -2602.64,7409.34l1302.4 0c2135.86,-4366.23 3328.18,-6836.03 3576.89,-7409.34 248.66,-573.35 1016.31,-2904.01 2172.38,-6992.04l-4150.71 0z"/>
         <path id="Shoe" class="fil20" d="M-4343.15 27672.1l65.16 -1368.47 1368.47 0c973.29,684.23 2541.41,1107.79 2541.41,1107.79l0 260.68 -2476.26 0 -847.12 -130.33 0 130.33 -651.66 0z"/>
         <path id="Shoe_2" class="fil20" d="M3215.92 27672.1l65.18 -1368.47 1368.43 0c973.31,684.23 2541.43,1107.79 2541.43,1107.79l0 260.68 -2476.24 0 -847.16 -130.33 0 130.33 -651.64 0z"/>
        </g>
       </g>
       <g id="Upper_x0020_Body_28">
        <g id="Upper_x0020_Body_x002f_Jacket_x0020_2_29">
         <path id="SKIN_30" class="fil18" d="M7662.42 9276.44l-2361.22 1036.94 753.96 965.89 1768.37 -1355.82c883.3,-162.26 1292.98,-301.64 1228.94,-418.15 -53.97,-98.22 -154.39,-103.77 -246.86,-108.87 -72.06,-3.99 -139.32,-7.68 -176.07,-54.76 -83.86,-107.48 123.17,-439.47 333.12,-746.13 209.95,-306.68 13.15,-295.59 -101.99,-258.92 -385.24,214.37 -784.65,527.65 -1198.25,939.83zm-10571.94 1587.5l-1335.35 -264.95c-905.6,2386.98 -1445.53,3694.96 -1619.73,3924.07 -127.75,168 -915.53,600.76 -1448.76,831.91 -214.05,92.73 -168.08,273.63 -105.32,331.49 395.97,364.97 764.08,237.08 1164.79,97.82 116.01,-40.34 234.74,-81.6 357.69,-112.16 318.2,-78.98 415.03,84.65 506.53,239.3 81.04,136.88 157.88,266.71 380.5,214.91 -10.12,-43.66 -22.57,-92.61 -35.98,-145.45 -86.8,-341.47 -214.77,-845.14 -24.91,-1137.72 97.45,-150.13 817.61,-1476.55 2160.54,-3979.21z"/>
         <path id="Coat_x0020_Back_31" class="fil27" d="M719.79 5602.98l563.49 -96.65c1227.29,1190.54 1728.15,4050.85 2546.11,4429.43 773.32,357.97 1869.57,11.58 3172.6,-456.13l398.99 891.59c-1183.89,1280.88 -3706.15,2363.02 -4728.51,1745.26 -1634.57,-987.73 -2011.9,-4515.47 -1952.67,-6513.5z"/>
         <path id="Shirt_32" class="fil6" d="M-1736.56 12684.26c0,0 3389.07,0 4985.78,0 227.88,0 184.94,-328.95 151.97,-494.99 -380.05,-1915.86 -1863.83,-3981.05 -1863.83,-6708.23l-1438.11 -225.52c-1189.56,1913.1 -1600.93,4268.55 -1835.81,7428.74z"/>
         <path id="Coat_x0020_Front_33" class="fil28" d="M22.87 5255.51l-16.44 0c-3225.72,1987.8 -5175.18,5069.18 -5848.37,9244.15l1045.05 204.71c692.28,-806.56 1546.64,-2126.46 2563.03,-3959.85 -311.84,1104.4 -539.53,2237.08 -610.52,3308.19l4488 0c868.84,-2195.72 -1067.76,-8797.19 -1067.76,-8797.19l-309.87 0 -243.13 0z"/>
        </g>
       </g>
      </g>
     </g>
    </g>
   </g>
  </g>
  <polygon class="fil29" points="-0,0 20168.45,0 20168.45,18554.97 -0,18554.97 "/>
 </g>
</svg>
