<?xml version="1.0" encoding="UTF-8"?>
<!DOCTYPE svg PUBLIC "-//W3C//DTD SVG 1.1//EN" "http://www.w3.org/Graphics/SVG/1.1/DTD/svg11.dtd">
<!-- Creator: CorelDRAW 2020 (64-Bit Evaluation Version) -->
<svg xmlns="http://www.w3.org/2000/svg" xml:space="preserve" width="100mm" height="92mm" version="1.1" style="shape-rendering:geometricPrecision; text-rendering:geometricPrecision; image-rendering:optimizeQuality; fill-rule:evenodd; clip-rule:evenodd"
viewBox="0 0 42273.29 38891.43"
 xmlns:xlink="http://www.w3.org/1999/xlink"
 xmlns:xodm="http://www.corel.com/coreldraw/odm/2003">
 <defs>
  <style type="text/css">
   <![CDATA[
    .fil14 {fill:none}
    .fil11 {fill:#003333}
    .fil2 {fill:#7A8DFF}
    .fil10 {fill:#CC9933}
    .fil1 {fill:#AED5F8;fill-rule:nonzero}
    .fil0 {fill:#FFA9C4;fill-rule:nonzero}
    .fil8 {fill:#FFEBA9;fill-rule:nonzero}
    .fil3 {fill:#0007E9;fill-rule:nonzero;fill-opacity:0.278431}
    .fil9 {fill:#2026A2;fill-opacity:0.400000}
    .fil4 {fill:#191847}
    .fil5 {fill:#393F82}
    .fil7 {fill:#C5CFD6}
    .fil12 {fill:#C7D1D9}
    .fil6 {fill:#CC9933}
    .fil13 {fill:#F2F2F2}
   ]]>
  </style>
   <clipPath id="id0">
    <path d="M-0 0l42273.29 0 0 38891.43 -42273.29 0 0 -38891.43z"/>
   </clipPath>
 </defs>
 <g id="Layer_x0020_1">
  <metadata id="CorelCorpID_0Corel-Layer"/>
  <g>
  </g>
  <g style="clip-path:url(#id0)">
   <g>
    <g id="_1927886138896">
     <circle id="Oval" class="fil0" cx="8588.13" cy="25917.95" r="3334.23"/>
     <ellipse id="Oval_2" class="fil1" cx="21210.56" cy="18336.54" rx="13495.68" ry="13455.99"/>
     <polygon id="Polygon" class="fil2" points="10890.32,6309.5 13510.12,8929.26 10890.32,11549.02 8270.6,8929.26 "/>
     <path id="Mask" class="fil3" d="M34706.29 16431.29c0,-8483.78 -6042.25,-15361.31 -13495.71,-15361.31 -7453.5,0 -13495.71,6877.53 -13495.71,15361.31 0,8483.74 6042.21,15361.23 13495.71,15361.23 7453.46,0 13495.71,-6877.48 13495.71,-15361.23z"/>
     <polygon id="Pant" class="fil4" points="25582.65,47476.79 32974.94,46705.85 27017.92,22372.84 20875.23,22372.84 "/>
     <path id="Pant_0" class="fil5" d="M10806.11 40634.82l4848.92 5514.89c0,0 7660.98,-8039.66 8932.68,-10491.77 1271.79,-2452.06 2286.56,-13285.1 2286.56,-13285.1l-7454.18 0c0,0 -554.29,9530.34 -747.31,9973.96 -192.98,443.53 -7866.68,8288.02 -7866.68,8288.02z"/>
     <path id="SKIN" class="fil6" d="M33819.77 14921.5l-3754.67 2822.93 1752.86 1320.49 2564.55 -3106.45c1501,-669.44 2169.76,-1089.81 2006.08,-1261.01 -137.81,-144.36 -318.74,-109.4 -485.26,-77.11 -129.86,25.15 -251.02,48.57 -336.41,-15.73 -195.01,-146.94 31.2,-807.38 273.47,-1425.84 242.31,-618.37 -102.81,-512.18 -291.81,-398.26 -593.39,537.93 -1169.58,1251.59 -1728.81,2140.97zm-18115.79 7405.31l-2486.94 138.02c-590.47,4490.44 -991.65,6970.32 -1203.44,7439.97 -155.35,344.44 -1370.97,1434.92 -2220.19,2067.25 -340.85,253.72 -181.9,543.25 -45.61,614.48 859.84,449.79 1459.61,67.51 2112.4,-348.63 189.05,-120.56 382.45,-243.92 587.98,-350.74 531.97,-276.26 773.94,-38.89 1002.68,185.41 202.49,198.6 394.58,386.93 768.15,199.57 -36.61,-70.34 -79.64,-148.63 -126.06,-233.26 -300.14,-546.47 -742.78,-1352.53 -530.15,-1937.89 109.07,-300.39 822.85,-2891.83 2141.18,-7774.18z"/>
     <path id="Coat_x0020_Back" class="fil7" d="M19908.9 11705.94l960.41 -415.34c2690.31,1495.5 4802.33,6173.34 6418.06,6459.32 1527.63,270.51 3328.51,-808.86 5445.18,-2187.56l1090.14 1350.46c-1557.69,2718.89 -5579.23,5690.66 -7660.6,5085.56 -3327.63,-967.47 -5505.12,-6843.5 -6253.19,-10292.45z"/>
     <circle id="Oval_3" class="fil8" cx="28355.35" cy="31554.42" r="3334.23"/>
     <polygon id="Polygon_2" class="fil9" points="28593.53,2975.28 29228.6,3610.35 28593.53,4245.42 27958.41,3610.35 "/>
     <g>
      <path class="fil10" d="M19045.3 5442.39c318.49,155.48 633.04,307.45 890.36,629.66 52.67,65.95 575.68,277.82 503.9,455.54 15.05,86.53 38.13,193.87 135.57,209.08 211.79,28.45 426.16,41.98 635.45,85.27 333.83,69.16 393.61,234.07 285.73,408.78 -60.87,96.09 -164.65,194.54 -72.2,240.2 239.99,89.03 287.5,234.11 158.4,436.01 156.83,10.06 254.78,63.75 212.51,221.34 -8.75,220.62 87.76,312.99 305.34,257.87 355.48,242.56 302.38,621.5 8.24,876.83 -235.63,204.52 -531.04,463.27 -678.82,656.12 -257.4,747.48 -176.66,1463.04 -28.03,1639.48 -904.56,174.38 -1717.78,368.12 -2622.34,542.49 -56.22,-338.19 -204.86,-1262.75 -554.29,-1596.07 -912.76,-534.38 -1734.9,-1248.37 -2454.13,-2166.08 -325.67,-995.79 -287.8,-1811.16 255.46,-2375.76 749.29,-823.86 2037.32,-1136.69 3018.86,-520.76z"/>
      <path class="fil11" d="M19544.17 8416.15c-161.15,-134.94 -322.29,-269.87 -483.48,-404.81 -108.43,-253.34 -178.01,-500.52 -80.78,-721.18 273.51,-470.54 90.76,-815.16 -229.97,-1121.72 -183.97,-506.43 76.09,-611.57 604.04,-474.48 125.97,38.05 176.62,55.84 302.59,93.89 77.74,-504.36 575.89,-1005.85 -786.92,-1437.5 -465.18,-41.85 -891.8,65.23 -1258.94,401.85 -325.38,205.53 -766.71,382.53 -1333.13,670.92 -374.75,359.49 -868.72,534.97 -905.41,1415.82 -22.74,631.77 102.64,1167.46 339.2,1631.07 129.69,343.3 817.31,1003.95 2581.33,2277.01 332.9,97.1 499.37,35.93 256.09,-414.66 -163.6,-280.74 -327.2,-561.43 -490.75,-842.17 -829.32,-1397.72 1819.61,-1351.31 1721.03,417.49 865.29,5.75 1842.61,-220.16 2288.97,-565.49 438.29,-339.12 389.13,-679.84 87.67,-1009.95 -53.1,-0.25 -260.74,37.07 -354.42,-253.68 -44.77,275.11 55.04,370.91 175.18,318.06 26.21,46.2 -34.11,122.55 -80.87,104.29 -246.96,-98.92 -398.21,-360 -366.34,-639.64 20.33,-105.3 29.55,-217.16 102.09,-252.67 -78.08,-103.65 -139.76,-168.42 -246.75,-188.83 -174.21,400.71 19.11,709.68 197.92,1114.87 -344.53,182.41 -665.8,311.72 -1221.36,225.53 -266.62,-141.4 -550.36,-202.62 -817.02,-344.02z"/>
     </g>
     <path id="Shirt" class="fil12" d="M18566.64 24925.18c0,0 6024.83,-1502.14 8863.31,-2209.79 405.1,-101.08 188.33,-645.6 58.68,-915.3 -1493.81,-3113.51 -5013.7,-5993.59 -6178.41,-10665.47l-2652.9 251.15c-1297.58,3804.55 -1022.8,8021.82 -90.68,13539.42z"/>
     <path id="Coat_x0020_Front" class="fil13" d="M18521.53 11419.62l-29.21 7.31c-4885.4,4834.88 -7034.82,10977.49 -6448.45,18427.77l1945.25 -112.57c886.22,-1688.48 1841.21,-4328.19 2865.07,-7919.35 -82.64,2030.09 -3.68,4071.34 327.62,5937.62l7978.32 -1989.25c606.79,-4146.38 -5655.57,-14596.63 -5655.57,-14596.63l-550.78 137.35 -432.24 107.75z"/>
    </g>
   </g>
  </g>
  <polygon class="fil14" points="-0,0 42273.29,0 42273.29,38891.43 -0,38891.43 "/>
 </g>
</svg>
