<?xml version="1.0" encoding="UTF-8"?>
<!DOCTYPE svg PUBLIC "-//W3C//DTD SVG 1.1//EN" "http://www.w3.org/Graphics/SVG/1.1/DTD/svg11.dtd">
<!-- Creator: CorelDRAW 2020 (64-Bit Evaluation Version) -->
<svg xmlns="http://www.w3.org/2000/svg" xml:space="preserve" width="38.4774mm" height="84.6502mm" version="1.1" style="shape-rendering:geometricPrecision; text-rendering:geometricPrecision; image-rendering:optimizeQuality; fill-rule:evenodd; clip-rule:evenodd"
viewBox="0 0 134567.38 296047.96"
 xmlns:xlink="http://www.w3.org/1999/xlink"
 xmlns:xodm="http://www.corel.com/coreldraw/odm/2003">
 <defs>
  <style type="text/css">
   <![CDATA[
    .fil2 {fill:none}
    .fil1 {fill:#003333}
    .fil0 {fill:#CC9933}
   ]]>
  </style>
   <clipPath id="id0">
    <path d="M-0 0l134567.38 0 0 296047.96 -134567.38 0 0 -296047.96z"/>
   </clipPath>
 </defs>
 <g id="Layer_x0020_1">
  <metadata id="CorelCorpID_0Corel-Layer"/>
  <g>
  </g>
  <g style="clip-path:url(#id0)">
   <g>
    <g id="_1869112710496">
     <path class="fil0" d="M48769.98 61373.24c-7234.53,12029.7 -14415.91,23860.04 -16025.02,40114.14 -329.1,3326.99 -13147.09,21639.6 -6931.32,26000.05 3339.58,4385.28 4014.21,7928.05 0,9870.81 -6427.71,5510.01 -13260.75,10579.36 -19283.47,16528.98 -9607.81,9492.05 -8038.22,16262.14 -688.27,19742.31 4093.6,1882.25 9663.77,2919.2 7575.52,6428.06 -6057.34,8132.64 -4511.88,13977 4132.07,17905.88 -4998.01,3714.49 -7095.69,7611.19 -2295.63,11937.02 5046.97,7143.95 3828.16,12293.74 -4591.27,15151.74 -6588.58,15722.5 3343.43,27173.4 18622.82,29320.74 12237.44,1719.98 27633.29,3954.41 36701.12,7179.98 18881.62,19296.41 19232.06,25427.54 22770.63,34495.01l45810.21 0c19265.63,0 38213.35,-32772.24 56071.67,-40004.33 -5418.73,-12452.87 -9941.1,-25466.01 -5510.01,-44075.89 18822.17,-37431.35 30761.99,-78878.67 34892.31,-124882.28 -10633.57,-40115.19 -29463.78,-66400.62 -59686.83,-73459.24 -42660.18,-11237.21 -92211.81,6121.69 -111564.53,47747.02z"/>
     <path class="fil1" d="M96272.19 170964.93c2448.82,-7958.13 4896.93,-15916.26 7346.1,-23874.38 -1854.62,-10758.42 -4868.6,-20472.55 -12856.11,-25711.17 -19230.66,-9746.3 -20583.42,-25139.36 -16528.29,-42239.46 -4799.36,-20798.5 -15707.82,-18688.22 -30302.44,-2755.18 -3366.86,3979.59 -6733.72,7958.13 -10100.58,11937.72 -13452.4,-15088.09 -38750.19,-23317.61 -2755.18,-67032.58 14559.65,-11415.92 31046.67,-17050.78 50503.95,-13774.15 15244.77,-179.41 33727.7,-3807.52 58768.09,-6427.71 20203.61,3873.27 40402.67,-939.03 60604.88,27547.96 14370.45,20507.87 21748.02,41015.75 23874.73,61522.57 3087.08,14205.72 -5531,50982.38 -36729.79,131310.34 -8973.05,10401.35 -15823.23,11956.25 -17447.03,-8264.14 -612.03,-12855.76 -1224.41,-25711.17 -1836.44,-38566.93 -2557.23,-64329.16 -89602.12,-5703.06 -48208.31,50963.49 -28636.32,18838.96 -65989.34,32390.68 -88267.55,30531.16 -21873.92,-1825.95 -27582.58,-14210.62 -24677.72,-31679.33 1759.15,-1152.01 8776.5,-4845.17 5624.72,-16528.63 7417.44,8180.56 5934.23,13630.06 802.28,14462.77 -678.13,5773.36 1939.26,5174.27 5854.15,2066.21 6076.23,-8608.98 5018.29,-20201.86 -2066.91,-28810.49 -2945.78,-3061.2 -6580.54,-6580.19 -9756.09,-6198.28 1836.44,-3979.24 3672.52,-7958.13 5509.31,-11937.37 14425.7,9564.44 14657.57,23999.94 17446.68,41321.41 15381.17,-1361.5 28846.86,-3986.23 45454.53,-18823.92 5815.68,-10445.06 13926.99,-18594.85 19743.01,-29039.91z"/>
    </g>
   </g>
  </g>
  <polygon class="fil2" points="-0,0 134567.38,0 134567.38,296047.96 -0,296047.96 "/>
 </g>
</svg>
