<?xml version="1.0" encoding="UTF-8"?>
<!DOCTYPE svg PUBLIC "-//W3C//DTD SVG 1.1//EN" "http://www.w3.org/Graphics/SVG/1.1/DTD/svg11.dtd">
<!-- Creator: CorelDRAW 2020 (64-Bit Evaluation Version) -->
<svg xmlns="http://www.w3.org/2000/svg" xml:space="preserve" width="300mm" height="60mm" version="1.1" style="shape-rendering:geometricPrecision; text-rendering:geometricPrecision; image-rendering:optimizeQuality; fill-rule:evenodd; clip-rule:evenodd"
viewBox="0 0 29996.66 5999.33"
 xmlns:xlink="http://www.w3.org/1999/xlink"
 xmlns:xodm="http://www.corel.com/coreldraw/odm/2003">
 <defs>
  <style type="text/css">
   <![CDATA[
    .fil12 {fill:none}
    .fil27 {fill:#003333}
    .fil5 {fill:#007718}
    .fil2 {fill:#008400}
    .fil1 {fill:#181658}
    .fil18 {fill:#181F31}
    .fil24 {fill:#1820BF}
    .fil4 {fill:#191847}
    .fil7 {fill:#23B04D}
    .fil13 {fill:#2A0752}
    .fil28 {fill:#2B44FF}
    .fil16 {fill:#342A83}
    .fil3 {fill:#44BD27}
    .fil30 {fill:#4A312C}
    .fil21 {fill:#56919C}
    .fil31 {fill:#71007C}
    .fil22 {fill:#77D692}
    .fil20 {fill:#89C5CC}
    .fil8 {fill:#915B3C}
    .fil32 {fill:#990099}
    .fil23 {fill:#A8E5BA}
    .fil19 {fill:#B28B67}
    .fil25 {fill:#C21B15}
    .fil6 {fill:#C7D1D9}
    .fil26 {fill:#CC9933}
    .fil0 {fill:#D4A181}
    .fil15 {fill:#E4E4E4}
    .fil17 {fill:#E87613}
    .fil29 {fill:#FF4133}
    .fil9 {fill:#FFA434}
    .fil10 {fill:white;fill-opacity:0.000000}
    .fil14 {fill:black;fill-opacity:0.101961}
    .fil33 {fill:white;fill-opacity:0.200000}
    .fil11 {fill:black}
   ]]>
  </style>
   <clipPath id="id0">
    <path d="M-0 0l29996.66 0 0 5999.33 -29996.66 0 0 -5999.33z"/>
   </clipPath>
          <clipPath id="id1">
           <path d="M21281.84 1549.71c13.08,-37.69 102.23,-154.45 -56.52,-265.68 -28.54,-20 -75.66,-0.06 -116.49,-12.7 -30.73,-9.47 -41.09,-52.33 -76.3,-59.82 -36.55,-7.75 -76.35,27.42 -117.65,24.34 -25.29,-1.91 -64.34,-41.36 -90.7,-43.46 -46.99,-3.8 -89.72,40.58 -135.64,43.46 -26.62,1.64 -57.51,-41.19 -83.94,-43.46 -64.31,-5.54 -122.89,24.46 -179.55,33.56 -52.24,8.38 -76.53,115.42 -115.01,140.7 -120.73,79.36 -215.32,101.57 -313.3,183.06 -116.47,96.84 -138.75,168.89 -187,233.44 -48.24,64.53 -78.04,291.94 -49.9,437.68 16.59,85.94 59.84,320.7 156.46,411.62 132.25,124.39 401.3,161.26 425.2,144.64 110.61,-76.88 358.58,-502.05 534.43,-652.33 129.32,-110.5 324.89,-341.62 405.9,-575.07z"/>
          </clipPath>
          <clipPath id="id2">
           <path d="M-0 0l29996.66 0 0 5999.33 -29996.66 0 0 -5999.33z"/>
          </clipPath>
          <clipPath id="id3">
           <path d="M21281.84 1549.71c13.08,-37.69 102.23,-154.45 -56.52,-265.68 -28.54,-20 -75.66,-0.06 -116.49,-12.7 -30.73,-9.47 -41.09,-52.33 -76.3,-59.82 -36.55,-7.75 -76.35,27.42 -117.65,24.34 -25.29,-1.91 -64.34,-41.36 -90.7,-43.46 -46.99,-3.8 -89.72,40.58 -135.64,43.46 -26.62,1.64 -57.51,-41.19 -83.94,-43.46 -64.31,-5.54 -122.89,24.46 -179.55,33.56 -52.24,8.38 -76.53,115.42 -115.01,140.7 -120.73,79.36 -215.32,101.57 -313.3,183.06 -116.47,96.84 -138.75,168.89 -187,233.44 -48.24,64.53 -78.04,291.94 -49.9,437.68 16.59,85.94 59.84,320.7 156.46,411.62 132.25,124.39 401.3,161.26 425.2,144.64 110.61,-76.88 358.58,-502.05 534.43,-652.33 129.32,-110.5 324.89,-341.62 405.9,-575.07z"/>
          </clipPath>
          <clipPath id="id4">
           <path d="M-0 0l29996.66 0 0 5999.33 -29996.66 0 0 -5999.33z"/>
          </clipPath>
         <clipPath id="id5">
          <path d="M10244.09 949.47c16.98,5.7 0,-67.32 -40.59,-94.03 -124.48,-81.89 -495.02,-203.11 -748.42,-150.5 -169.74,35.25 -381.44,123.68 -517,236.43 -122.23,101.62 -233.44,280.82 -276.71,438.26 -45.42,165.28 -62.59,395.29 0,539.51 74.57,171.76 338.65,356.86 345.64,381.43 7.98,28.05 -23.25,137.65 -46.09,253.14 -22.84,115.49 -12.46,409.49 0,457.46 19.89,76.63 126.55,114.33 173.07,119.88 257.19,30.64 443.59,349.9 521.19,431.58 0,0 517.99,520.07 723.06,452.34 35.96,-11.86 -17.96,-442.68 -53.94,-627.34 -35.99,-184.64 -388.82,-514.17 -411.41,-622.77 -13.33,-63.96 -15.55,-175.34 -16.92,-180.41 -33.29,-229.42 -27.57,-248.06 -76.09,-341.56 -48.55,-93.48 -86.19,-98.97 -74.52,-126.21 57,-133.05 240.33,-540.18 281.93,-673.31 49.57,-158.67 26.14,-106.56 77.24,-264.67 22.63,-70.03 51.42,-258.85 139.56,-229.23z"/>
         </clipPath>
         <clipPath id="id6">
          <path d="M-0 0l29996.66 0 0 5999.33 -29996.66 0 0 -5999.33z"/>
         </clipPath>
         <clipPath id="id7">
          <path d="M10244.09 949.47c16.98,5.7 0,-67.32 -40.59,-94.03 -124.48,-81.89 -495.02,-203.11 -748.42,-150.5 -169.74,35.25 -381.44,123.68 -517,236.43 -122.23,101.62 -233.44,280.82 -276.71,438.26 -45.42,165.28 -62.59,395.29 0,539.51 74.57,171.76 338.65,356.86 345.64,381.43 7.98,28.05 -23.25,137.65 -46.09,253.14 -22.84,115.49 -12.46,409.49 0,457.46 19.89,76.63 126.55,114.33 173.07,119.88 257.19,30.64 443.59,349.9 521.19,431.58 0,0 517.99,520.07 723.06,452.34 35.96,-11.86 -17.96,-442.68 -53.94,-627.34 -35.99,-184.64 -388.82,-514.17 -411.41,-622.77 -13.33,-63.96 -15.55,-175.34 -16.92,-180.41 -33.29,-229.42 -27.57,-248.06 -76.09,-341.56 -48.55,-93.48 -86.19,-98.97 -74.52,-126.21 57,-133.05 240.33,-540.18 281.93,-673.31 49.57,-158.67 26.14,-106.56 77.24,-264.67 22.63,-70.03 51.42,-258.85 139.56,-229.23z"/>
         </clipPath>
         <clipPath id="id8">
          <path d="M-0 0l29996.66 0 0 5999.33 -29996.66 0 0 -5999.33z"/>
         </clipPath>
 </defs>
 <g id="Layer_x0020_1">
  <metadata id="CorelCorpID_0Corel-Layer"/>
  <g>
  </g>
  <g style="clip-path:url(#id0)">
   <g>
    <g id="_1927860008736">
     <g id="Master_x002f_Pose_x002f_Standing">
      <g id="Master_x002f_Pose_x002f_Standing_0">
       <g id="Head_x002f_Front">
        <g id="Head_x002f_Front_x002f_Short_x0020_2">
         <g id="Head">
          <path id="SKIN" class="fil0" d="M4067.41 2171.34c194.2,117.05 385.01,173.6 474.57,150.52 224.6,-57.9 245.25,-879.54 71.46,-1203.46 -173.78,-323.9 -1067.15,-465.09 -1112.17,176.68 -15.64,222.75 77.88,421.53 216.08,583.74l-247.77 1154.85 719.73 0 -121.9 -862.33z"/>
         </g>
         <path id="Hair" class="fil1" d="M3662.04 2023.28c-90.33,-401.88 -347.68,-675.83 -308.38,-855.45 39.3,-179.63 209.51,-223.41 209.51,-223.41 0,0 88.03,-356.11 567.82,-302.95 479.8,53.18 772.61,252.43 646.16,690.88 -116.24,0 -256.57,-42.06 -450.63,29.98 -92.36,34.29 -132.13,212.63 -132.13,212.63l-87.69 0c0,0 -127.66,-211.65 -251.75,-155.55 -124.1,56.11 -56.41,272.53 -56.41,272.53l-43.2 331.34 -93.3 0z"/>
        </g>
       </g>
       <g id="Lower_x0020_Body_x002f_Standing">
        <g id="Lower_x0020_Body_x002f_Standing_x002f_Skinny_x0020_Jeans">
         <polygon id="Leg" class="fil2" points="3229.66,5522.75 4316.91,9338.14 5110.17,12150.28 5688.74,12150.28 4845.78,5522.75 "/>
         <path id="Leg_1" class="fil3" d="M2938.89 5522.75c-25.13,1966.5 -110.9,3039.07 -137.29,3217.74 -26.42,178.68 -425.65,1315.25 -1197.74,3409.79l599.36 0c982.92,-2009.34 1531.63,-3145.95 1646.1,-3409.79 114.43,-263.85 467.7,-1336.43 999.74,-3217.74l-1910.17 0z"/>
         <path id="Shoe" class="fil4" d="M1550.29 12690.08l29.99 -629.77 629.77 0c447.91,314.88 1169.56,509.81 1169.56,509.81l0 119.96 -1139.58 0 -389.84 -59.97 0 59.97 -299.9 0z"/>
         <path id="Shoe_2" class="fil4" d="M5028.99 12690.08l29.99 -629.77 629.76 0c447.91,314.88 1169.57,509.81 1169.57,509.81l0 119.96 -1139.57 0 -389.86 -59.97 0 59.97 -299.89 0z"/>
        </g>
       </g>
       <g id="Upper_x0020_Body">
        <g id="Upper_x0020_Body_x002f_Jacket_x0020_2">
         <path id="SKIN_2" class="fil0" d="M7075.27 4224.36l-1086.64 477.22 346.97 444.49 813.8 -623.95c406.5,-74.67 595.03,-138.81 565.57,-192.44 -24.84,-45.19 -71.04,-47.74 -113.61,-50.09 -33.17,-1.84 -64.11,-3.54 -81.03,-25.2 -38.59,-49.46 56.68,-202.25 153.31,-343.37 96.61,-141.13 6.05,-136.03 -46.93,-119.16 -177.29,98.65 -361.1,242.82 -551.44,432.5zm-4865.23 730.58l-614.52 -121.94c-416.76,1098.5 -665.24,1700.43 -745.41,1805.87 -58.79,77.31 -421.33,276.47 -666.72,382.85 -98.51,42.67 -77.36,125.92 -48.47,152.54 182.23,167.96 351.63,109.11 536.04,45.02 53.38,-18.57 108.03,-37.56 164.61,-51.62 146.42,-36.35 190.99,38.97 233.1,110.13 37.29,63 72.65,122.75 175.1,98.91 -4.66,-20.1 -10.38,-42.63 -16.56,-66.94 -39.95,-157.14 -98.84,-388.93 -11.46,-523.58 44.85,-69.09 376.27,-679.5 994.28,-1831.24z"/>
         <path id="Coat_x0020_Back" class="fil5" d="M3880.27 2533.83l259.31 -44.48c564.81,547.9 795.3,1864.21 1171.73,2038.44 355.87,164.73 860.37,5.33 1460.03,-209.92l183.62 410.3c-544.83,589.46 -1705.58,1087.47 -2176.07,803.18 -752.24,-454.56 -925.89,-2078.03 -898.62,-2997.54z"/>
         <path id="Shirt" class="fil6" d="M2749.84 5792.66c0,0 1559.66,0 2294.47,0 104.86,0 85.1,-151.38 69.93,-227.8 -174.9,-881.67 -857.74,-1832.09 -857.74,-3087.14l-661.83 -103.79c-547.42,880.42 -736.74,1964.4 -844.84,3418.73z"/>
         <path id="Coat_x0020_Front" class="fil7" d="M3559.53 2373.93l-7.56 0c-1484.48,914.8 -2381.62,2332.85 -2691.43,4254.18l480.94 94.2c318.58,-371.17 711.76,-978.59 1179.51,-1822.32 -143.51,508.24 -248.29,1029.51 -280.97,1522.43l2065.4 0c399.84,-1010.48 -491.4,-4048.49 -491.4,-4048.49l-142.59 0 -111.9 0z"/>
        </g>
       </g>
      </g>
     </g>
     <g id="Master_x002f_Pose_x002f_Standing_3">
      <g id="Master_x002f_Pose_x002f_Standing_4">
       <g id="Head_x002f_Front_5">
        <g id="Head_x002f_Front_x002f_Turban2">
         <g id="Head_6">
          <path id="SKIN_7" class="fil8" d="M21303.8 1733.73c175.32,326.76 154.49,1155.63 -72.09,1214.03 -90.35,23.28 -282.83,-33.77 -478.72,-151.84l122.95 869.93 -726.07 0 249.93 -1165.06c-139.38,-163.62 -233.72,-364.14 -217.96,-588.83 45.41,-647.42 946.64,-504.99 1121.96,-178.23z"/>
         </g>
         <g id="Turban">
          <path id="Path" class="fil9" d="M21281.85 1549.71c13.08,-37.69 102.22,-154.44 -56.53,-265.68 -28.53,-19.99 -75.66,-0.06 -116.49,-12.69 -30.73,-9.49 -41.09,-52.35 -76.3,-59.83 -36.55,-7.75 -76.35,27.41 -117.64,24.33 -25.31,-1.9 -64.35,-41.34 -90.69,-43.46 -47.02,-3.8 -89.74,40.6 -135.67,43.46 -26.62,1.64 -57.51,-41.19 -83.93,-43.46 -64.3,-5.52 -122.89,24.46 -179.56,33.56 -52.23,8.39 -76.52,115.42 -115,140.71 -120.73,79.38 -215.33,101.58 -313.3,183.06 -116.47,96.85 -138.75,168.9 -187,233.44 -48.24,64.53 -78.05,291.94 -49.91,437.67 16.61,85.96 59.84,320.72 156.47,411.62 132.26,124.41 401.31,161.26 425.19,144.66 110.62,-76.87 358.57,-502.07 534.44,-652.34 129.32,-110.5 324.89,-341.62 405.91,-575.07z"/>
         </g>
         <g style="clip-path:url(#id1)">
          <polygon class="fil10" points="19748.92,1191.7 21318.57,1191.7 21318.57,2780.86 19748.92,2780.86 "/>
         </g>
         <g style="clip-path:url(#id2)">
         </g>
         <g style="clip-path:url(#id3)">
          <g>
           <path id="1" class="fil11" d="M20529.08 2021.51c81.46,-250.1 229.45,-874.47 229.45,-874.47l-89.38 9.38c0,0 -70.82,398.43 -143.62,656.49 -66.54,235.96 -143.06,467.31 -203.23,649.19 -83.11,251.31 -135.01,408.2 -86.26,352.46 5.84,-6.67 11.67,-14.44 17.53,-23.31 0.55,1.17 1.39,1.86 2.53,2.05 -3.45,6.83 1.33,3.73 15.67,-9.54l0.12 -0.12c83.33,-77.24 321.76,-349.51 571.46,-800.73 114.89,-207.64 325.63,-733.69 325.63,-733.69l-83.68 -35.82c0,0 -139.18,415.62 -241.95,617.18 -180.71,354.38 -350.21,617.89 -460.42,779.45 45.66,-91.15 99.45,-213.3 166.5,-365.67 29.54,-67.1 61.64,-140.04 96.78,-218.78 107.18,-240.2 319.63,-845.72 319.63,-845.72l-89.91 0c0,0 -112.07,388.83 -211.44,637.9 -90.84,227.68 -191.14,449.77 -269.98,624.35l0 0c-1.32,2.98 -2.65,5.91 -3.97,8.84 19.88,-60.36 41.41,-127.61 65.15,-201.75 22.35,-69.83 46.66,-145.7 73.38,-227.7z"/>
          </g>
         </g>
         <g style="clip-path:url(#id4)">
          <path class="fil12" d="M21281.84 1549.71c13.08,-37.69 102.23,-154.45 -56.52,-265.68 -28.54,-20 -75.66,-0.06 -116.49,-12.7 -30.73,-9.47 -41.09,-52.33 -76.3,-59.82 -36.55,-7.75 -76.35,27.42 -117.65,24.34 -25.29,-1.91 -64.34,-41.36 -90.7,-43.46 -46.99,-3.8 -89.72,40.58 -135.64,43.46 -26.62,1.64 -57.51,-41.19 -83.94,-43.46 -64.31,-5.54 -122.89,24.46 -179.55,33.56 -52.24,8.38 -76.53,115.42 -115.01,140.7 -120.73,79.36 -215.32,101.57 -313.3,183.06 -116.47,96.84 -138.75,168.89 -187,233.44 -48.24,64.53 -78.04,291.94 -49.9,437.68 16.59,85.94 59.84,320.7 156.46,411.62 132.25,124.39 401.3,161.26 425.2,144.64 110.61,-76.88 358.58,-502.05 534.43,-652.33 129.32,-110.5 324.89,-341.62 405.9,-575.07z"/>
         </g>
        </g>
       </g>
       <g id="Lower_x0020_Body_x002f_Standing_8">
        <g id="Lower_x0020_Body_x002f_Standing_x002f_Skirt">
         <path id="Skirt_x0020_Shadow" class="fil13" d="M18982.35 9144.25c0,0 1088.62,304.5 1878.46,304.5 789.8,0 1467.26,-468.91 1467.26,-468.91 0,0 -1065.32,-312.53 -1754.66,-312.53 -689.33,0 -1591.05,476.94 -1591.05,476.94z"/>
         <path id="SKIN_9" class="fil8" d="M21489.07 9741.32c-7,-10.49 -12.92,-21.96 -17.61,-34.34 -97,-256.56 -1650.84,-3024.16 -1805.64,-3530.16l1749.4 0c117.72,384.72 647.44,2798.97 721.98,3280.66 235.24,759.8 719.53,3220.5 781.37,3390.97 65.03,179.34 -300.94,366.15 -398.44,145.68 -155.17,-350.8 -524.88,-1321.45 -689.51,-1914.15 -154.32,-555.61 -279.99,-1055.51 -341.55,-1338.68z"/>
         <path id="Shadow" class="fil14" d="M21489.07 9741.32c-6.99,-10.49 -12.93,-21.96 -17.61,-34.34 -97.01,-256.57 -1650.84,-3024.17 -1805.64,-3530.16l1749.4 0c117.72,384.71 647.44,2798.97 721.98,3280.66 235.24,759.81 719.51,3220.49 781.37,3390.96 65.04,179.35 -300.94,366.16 -398.44,145.69 -155.15,-350.81 -524.87,-1321.45 -689.51,-1914.15 -154.32,-555.6 -279.99,-1055.51 -341.55,-1338.68z"/>
         <path id="SKIN_10" class="fil8" d="M20057.81 10079.24c-710.39,179.52 -3308.82,504.13 -3487.14,555.05 -183.43,52.37 -344.26,-325.72 -117.54,-407.62 360.77,-130.33 1354.85,-431.43 1957.57,-554.31 484.79,-98.84 927.16,-179.5 1224.14,-226.71 -25.14,-834.27 -140.15,-2836.39 -64.77,-3268.82l1547.88 0c-72.29,414.66 -683.4,3440.28 -796.98,3743.14 -36.05,108.09 -143.59,155.89 -263.16,159.27l0 0z"/>
         <g id="Left_x0020__x005b_shoe_x005d_">
          <path id="shoe" class="fil15" d="M16517.45 10202.67c8.43,-34.4 -12.48,-69.85 -47.38,-75.97 -63.63,-11.12 -158.46,-24.41 -209.01,-15.51 -80.59,14.22 -230.47,68.33 -230.47,68.33 16.49,93.49 296.31,1680.39 296.31,1680.39 0,0 228.08,27.32 220.48,-116.87 -7.62,-144.15 -10.17,-239.96 -10.17,-239.96l210.47 -842.43c4.14,-16.51 -6.2,-33.22 -22.85,-36.88l-130.63 -28.73c0,0 -84,-119.9 -98.4,-201.59 -8.77,-49.7 7.55,-133.14 21.66,-190.8z"/>
         </g>
         <g id="Right_x0020__x005b_shoe_x005d_">
          <path id="shoe_2" class="fil15" d="M22492.94 12931.77c-32.43,-14.24 -70.97,0.19 -83.05,33.5 -22.02,60.71 -51.57,151.8 -51.57,203.14 0,81.83 27.26,238.82 27.26,238.82 94.94,0 1706.32,0 1706.32,0 0,0 66.52,-219.88 -76.79,-237.43 -143.3,-17.51 -238.07,-31.64 -238.07,-31.64l-793.08 -353.56c-15.58,-6.97 -33.79,0.33 -40.3,16.09l-50.97 123.68c0,0 -132.66,61.89 -215.59,61.89 -50.48,0 -129.82,-30.59 -184.15,-54.48z"/>
         </g>
         <path id="Skirt" class="fil16" d="M19575.07 6176.83c0,0 1023.15,-292.74 1936.16,0 211.78,966.19 726.34,1349.67 816.83,2831.01 -1028.6,511.09 -2299.21,-364.5 -3358.06,133.91 -302.53,-697.15 121.01,-2376.07 605.06,-2964.92z"/>
        </g>
       </g>
       <g id="Upper_x0020_Body_11">
        <g id="Upper_x0020_Body_x002f_Lab_x0020_Coat">
         <path id="SKIN_12" class="fil8" d="M17559.16 7274.52c112.82,-165.79 765.48,-1928.56 765.48,-1928.56l535.82 77.82c0,0 -862.74,1871.85 -925.07,1979.91 -80.94,140.34 -9.34,370.83 39.21,527.12 7.52,24.18 14.47,46.58 20.23,66.58 -101.98,29.47 -140.77,-28.92 -181.67,-90.45 -46.2,-69.48 -95.09,-143.03 -240.73,-98.66 -56.27,17.16 -110.33,39.18 -163.14,60.69 -182.45,74.32 -350.05,142.6 -542.55,-17.07 -30.52,-25.32 -56.22,-108.09 40.78,-156.31 241.67,-120.17 596.49,-340.04 651.65,-421.08zm5813.99 -819.32l-913.21 -774.22 -249.58 511.18 925.63 461.97c247.44,335.53 388.97,478.12 424.57,427.67 30.01,-42.5 11.89,-85.52 -4.81,-125.19 -13.02,-30.85 -25.15,-59.68 -12.98,-84.58 27.78,-56.87 208.45,-38.07 379.13,-12.86 170.68,25.2 126,-54.67 87.28,-95.26 -167.84,-117.09 -379.86,-220.01 -636.03,-308.72z"/>
         <path id="Coat_x0020_Back_13" class="fil17" d="M20564.17 3161.61l332.02 -109.81c450.38,1125.1 1122.12,2213.7 2244.37,3133.19l-277.52 478.81c-986.33,-581 -1919.98,-1032.34 -2298.87,-1904.17 -127.15,-292.61 -10.37,-1248.15 0,-1598.02z"/>
         <path id="Shirt_14" class="fil18" d="M19423.81 6328.1c0,0 1426.62,151.26 2245.84,0 67.66,-12.5 78.34,-125.8 46.94,-202.67 -488.65,-1197.31 -823.72,-2242.01 -823.72,-3073.63 -134.49,67.8 -470.74,20.32 -470.74,20.32 -602.44,857.01 -879.37,1840.34 -998.33,3255.98z"/>
         <path id="Coat_x0020_Front_15" class="fil9" d="M20249.49 3000.3c15.55,-10.48 23.79,-15.69 23.79,-15.69l-0.92 15.69 251.1 0c12.62,74.19 31.07,349.2 58.03,750.2 97.92,1457.2 307.64,4578.12 754.01,5772.47l-3079.89 0c64.98,-1357.87 565.61,-2981.68 1084.22,-4360.5 -382.69,380.76 -829.62,1019 -1190.82,2081.48l-576.9 -148.08c587.9,-2533.37 2310.38,-3839.87 2644.62,-4073.06 3.27,-7.55 6.5,-15.05 9.74,-22.5l23.02 0z"/>
        </g>
       </g>
      </g>
     </g>
     <g id="Master_x002f_Pose_x002f_Standing_16">
      <g id="Master_x002f_Pose_x002f_Standing_17">
       <g id="Head_x002f_Front_18">
        <g id="Head_x002f_Front_x002f_Hijab2">
         <g id="Head_19">
          <path id="SKIN_20" class="fil19" d="M9766.91 2181.35c205.59,123.92 407.59,183.78 502.41,159.35 237.76,-61.29 259.63,-931.14 75.66,-1274.05 -183.98,-342.92 -1129.76,-492.39 -1177.44,187.04 -16.55,235.81 82.47,446.26 228.76,617.98l-262.31 1222.61 761.96 0 -129.05 -912.94z"/>
         </g>
         <path id="Hijab" class="fil20" d="M10244.09 949.47c16.97,5.7 0,-67.31 -40.59,-94.03 -124.49,-81.89 -495.02,-203.11 -748.42,-150.5 -169.74,35.23 -381.44,123.68 -517.01,236.42 -122.22,101.64 -233.42,280.83 -276.71,438.26 -45.42,165.29 -62.59,395.3 0,539.51 74.58,171.76 338.66,356.86 345.64,381.44 7.97,28.06 -23.24,137.65 -46.08,253.14 -22.85,115.48 -12.45,409.51 0,457.46 19.9,76.64 126.56,114.32 173.08,119.88 257.16,30.63 443.59,349.9 521.17,431.59 0,0 518.01,520.06 723.06,452.34 35.98,-11.87 -17.95,-442.69 -53.92,-627.34 -35.99,-184.65 -388.83,-514.18 -411.42,-622.78 -13.32,-63.96 -15.54,-175.33 -16.93,-180.41 -33.28,-229.42 -27.56,-248.07 -76.09,-341.56 -48.54,-93.48 -86.18,-98.97 -74.51,-126.2 57,-133.07 240.33,-540.18 281.94,-673.32 49.56,-158.67 26.13,-106.56 77.23,-264.68 22.64,-70.02 51.43,-258.84 139.56,-229.22z"/>
        </g>
        <g style="clip-path:url(#id5)">
         <polygon class="fil10" points="8620.59,692.12 10390.11,692.12 10390.11,4021.05 8620.59,4021.05 "/>
        </g>
        <g style="clip-path:url(#id6)">
        </g>
        <g style="clip-path:url(#id7)">
         <g>
          <path id="1" class="fil11" d="M9532.82 1479.65c-11.99,-241.46 0,-335.78 55.69,-512.48l-34.35 0c-54.29,70.1 -99.7,284.63 -48.66,512.48l27.32 0zm-673.01 -11.38l0 -0.01 0 0c-5.99,-14.67 -12.12,-29.68 -18.47,-45.06l-21.83 10.5c68.87,251.94 152.66,446.43 440.37,609.49l22.37 -15.67c-272.08,-191.33 -330.42,-334.09 -422.44,-559.25zm407.95 -301.34c2.87,21.84 5.64,43.15 8.33,63.9l0 0c41.37,319.2 67.59,521.61 298.14,888.7l-26.12 8c-252.73,-340.44 -292.78,-618.31 -304.75,-958.64l24.4 -1.96zm-248.89 1034.62l-22.36 27.17c111.96,23.43 188.08,105.78 275.36,200.17 92.34,99.9 197.15,213.27 370.08,284.63l32.13 -19.45c-188.77,-98.14 -276.57,-195.7 -353.26,-280.86 -79.37,-88.15 -146.81,-163.06 -301.95,-211.66z"/>
         </g>
        </g>
        <g style="clip-path:url(#id8)">
         <path class="fil12" d="M10244.09 949.47c16.98,5.7 0,-67.32 -40.59,-94.03 -124.48,-81.89 -495.02,-203.11 -748.42,-150.5 -169.74,35.25 -381.44,123.68 -517,236.43 -122.23,101.62 -233.44,280.82 -276.71,438.26 -45.42,165.28 -62.59,395.29 0,539.51 74.57,171.76 338.65,356.86 345.64,381.43 7.98,28.05 -23.25,137.65 -46.09,253.14 -22.84,115.49 -12.46,409.49 0,457.46 19.89,76.63 126.55,114.33 173.07,119.88 257.19,30.64 443.59,349.9 521.19,431.58 0,0 517.99,520.07 723.06,452.34 35.96,-11.86 -17.96,-442.68 -53.94,-627.34 -35.99,-184.64 -388.82,-514.17 -411.41,-622.77 -13.33,-63.96 -15.55,-175.34 -16.92,-180.41 -33.29,-229.42 -27.57,-248.06 -76.09,-341.56 -48.55,-93.48 -86.19,-98.97 -74.52,-126.21 57,-133.05 240.33,-540.18 281.93,-673.31 49.57,-158.67 26.14,-106.56 77.24,-264.67 22.63,-70.03 51.42,-258.85 139.56,-229.23z"/>
        </g>
       </g>
       <g id="Lower_x0020_Body_x002f_Standing_22">
        <g id="Lower_x0020_Body_x002f_Standing_x002f_Skirt_23">
         <path id="Skirt_x0020_Shadow_24" class="fil21" d="M7908.76 8843.52c0,0 1142.44,319.53 1971.32,319.53 828.86,0 1539.79,-492.08 1539.79,-492.08 0,0 -1117.98,-327.98 -1841.39,-327.98 -723.41,0 -1669.71,500.52 -1669.71,500.52z"/>
         <path id="SKIN_25" class="fil19" d="M10539.4 9470.1c-7.33,-11.02 -13.56,-23.06 -18.48,-36.04 -101.78,-269.25 -1732.43,-3173.67 -1894.89,-3704.68l1835.88 0c123.54,403.75 679.43,2937.34 757.68,3442.86 246.87,797.35 755.1,3379.69 819.99,3558.59 68.26,188.21 -315.8,384.25 -418.12,152.89 -162.84,-368.15 -550.84,-1386.79 -723.61,-2008.78 -161.95,-583.09 -293.83,-1107.7 -358.44,-1404.85z"/>
         <path id="Shadow_26" class="fil14" d="M10539.41 9470.1c-7.35,-11.04 -13.56,-23.07 -18.49,-36.04 -101.78,-269.25 -1732.44,-3173.67 -1894.9,-3704.67l1835.88 0c123.55,403.74 679.44,2937.32 757.69,3442.85 246.87,797.35 755.1,3379.68 819.99,3558.58 68.26,188.21 -315.79,384.25 -418.11,152.92 -162.85,-368.18 -550.85,-1386.81 -723.62,-2008.8 -161.96,-583.09 -293.83,-1107.7 -358.43,-1404.85z"/>
         <path id="SKIN_27" class="fil19" d="M9037.39 9824.73c-745.52,188.39 -3472.4,529.05 -3659.53,582.48 -192.5,54.96 -361.29,-341.82 -123.35,-427.77 378.61,-136.76 1421.83,-452.76 2054.34,-581.72 508.75,-103.72 972.98,-188.37 1284.66,-237.92 -26.38,-875.5 -147.08,-2976.6 -67.96,-3430.41l1624.4 0c-75.89,435.17 -717.2,3610.35 -836.38,3928.19 -37.85,113.43 -150.71,163.59 -276.18,167.15l0 0z"/>
         <g id="Left_x0020__x005b_shoe_x005d__28">
          <path id="shoe_29" class="fil15" d="M5322.03 9954.25c8.83,-36.09 -13.12,-73.3 -49.72,-79.72 -66.79,-11.68 -166.3,-25.62 -219.37,-16.28 -84.57,14.92 -241.84,71.71 -241.84,71.71 17.29,98.11 310.94,1763.46 310.94,1763.46 0,0 239.37,28.67 231.38,-122.65 -8,-151.27 -10.67,-251.83 -10.67,-251.83l220.88 -884.06c4.33,-17.33 -6.52,-34.86 -23.99,-38.7l-137.09 -30.16c0,0 -88.13,-125.83 -103.25,-211.55 -9.21,-52.16 7.93,-139.72 22.74,-200.24z"/>
         </g>
         <g id="Right_x0020__x005b_shoe_x005d__30">
          <path id="shoe_2_31" class="fil15" d="M11592.9 12818.27c-34.03,-14.96 -74.47,0.19 -87.15,35.15 -23.11,63.71 -54.12,159.3 -54.12,213.18 0,85.88 28.61,250.63 28.61,250.63 99.63,0 1790.66,0 1790.66,0 0,0 69.81,-230.75 -80.58,-249.17 -150.38,-18.38 -249.86,-33.2 -249.86,-33.2l-832.27 -371.05c-16.36,-7.31 -35.48,0.35 -42.29,16.89l-53.51 129.8c0,0 -139.21,64.95 -226.23,64.95 -52.98,0 -136.22,-32.1 -193.25,-57.17z"/>
         </g>
         <path id="Skirt_32" class="fil20" d="M8530.78 5729.39c0,0 1073.72,-307.21 2031.89,0 222.23,1013.96 762.24,1416.39 857.19,2970.97 -1079.43,536.36 -2412.86,-382.52 -3524.05,140.52 -317.47,-731.61 127,-2493.52 634.96,-3111.49z"/>
        </g>
       </g>
       <g id="Upper_x0020_Body_33">
        <g id="Upper_x0020_Body_x002f_Jacket_x0020_2_34">
         <path id="SKIN_35" class="fil19" d="M12951.25 4354.83l-1150.39 505.2 367.32 470.58 861.55 -660.56c430.35,-79.05 629.95,-146.95 598.74,-203.73 -26.3,-47.85 -75.21,-50.55 -120.26,-53.03 -35.13,-1.95 -67.88,-3.75 -85.79,-26.68 -40.86,-52.36 60,-214.12 162.29,-363.52 102.3,-149.41 6.42,-144.01 -49.67,-126.15 -187.71,104.44 -382.29,257.07 -583.8,457.88zm-5150.68 773.44l-650.57 -129.1c-441.23,1162.94 -704.26,1800.19 -789.13,1911.82 -62.24,81.85 -446.05,292.7 -705.85,405.3 -104.28,45.17 -81.88,133.32 -51.29,161.5 192.91,177.82 372.25,115.51 567.47,47.66 56.53,-19.66 114.38,-39.76 174.27,-54.65 155.03,-38.48 202.2,41.25 246.79,116.59 39.47,66.69 76.91,129.95 185.37,104.71 -4.94,-21.28 -11,-45.11 -17.54,-70.87 -42.28,-166.35 -104.64,-411.74 -12.12,-554.29 47.46,-73.15 398.34,-719.38 1052.6,-1938.67z"/>
         <path id="Coat_x0020_Back_36" class="fil22" d="M9568.79 2565.11l274.52 -47.08c597.95,580.04 841.97,1973.58 1240.47,2158.03 376.75,174.4 910.86,5.64 1545.69,-222.23l194.41 434.37c-576.82,624.05 -1805.65,1151.26 -2303.75,850.3 -796.37,-481.22 -980.19,-2199.95 -951.33,-3173.39z"/>
         <path id="Shirt_37" class="fil6" d="M8372.04 6015.12c0,0 1651.18,0 2429.1,0 111.02,0 90.09,-160.26 74.04,-241.15 -185.17,-933.41 -908.08,-1939.57 -908.08,-3268.27l-700.64 -109.88c-579.56,932.08 -779.96,2079.66 -894.42,3619.3z"/>
         <path id="Coat_x0020_Front_38" class="fil23" d="M9229.25 2395.82l-8.01 0c-1571.59,968.47 -2521.36,2469.72 -2849.33,4503.77l509.15 99.73c337.27,-392.96 753.51,-1036 1248.7,-1929.24 -151.92,538.06 -262.85,1089.91 -297.45,1611.75l2186.58 0c423.29,-1069.76 -520.23,-4286.01 -520.23,-4286.01l-150.96 0 -118.45 0z"/>
        </g>
       </g>
      </g>
     </g>
     <g>
      <polygon id="Leg_39" class="fil24" points="14133.05,5552.89 15797.18,9956.23 16963.57,13201.74 17628.68,13201.74 16025.33,5552.89 "/>
      <path id="Shoe_40" class="fil4" d="M10449.63 11730.49l579.03 -440.66 467.19 556.78c53.89,629.59 416.9,1412.2 416.9,1412.2l-106.05 88.97 -845.39 -1007.5 -236.18 -389.16 -53.02 44.52 -222.48 -265.15z"/>
      <path id="Shoe_2_41" class="fil4" d="M16901.86 13824.72l34.61 -726.82 726.83 0c516.93,363.42 1349.79,588.38 1349.79,588.38l0 138.43 -1315.18 0 -449.93 -69.22 0 69.22 -346.11 0z"/>
      <path id="SKIN_42" class="fil8" d="M18171.37 5920.96l-1104.04 -810.68 -244.04 603.26 1093.28 453.37c309.17,363.19 482.05,514.6 518.66,454.21 30.85,-50.91 6.75,-98.57 -15.47,-142.45 -17.3,-34.23 -33.47,-66.13 -21.59,-95.52 27.17,-67.14 234.85,-60.05 431.65,-44.92 196.82,15.13 139.47,-72.43 92.03,-115.67 -200.91,-120.27 -451.07,-220.79 -750.49,-301.6zm-5789.68 1428.47c101.44,-205.76 446.83,-2211.18 446.83,-2211.18l723.26 2.85c0,0 -669.88,2162.48 -723.26,2294.79 -69.36,171.87 48.44,421.58 128.34,590.93 12.36,26.2 23.81,50.46 33.53,72.23 -110.85,49.58 -164.1,-10.35 -220.24,-73.56 -63.4,-71.39 -130.5,-146.9 -288.42,-73.47 -61.02,28.43 -118.77,61.95 -175.17,94.77 -194.86,113.25 -373.86,217.32 -617.37,67.04 -38.61,-23.82 -80.91,-113.49 21.31,-183.58 254.65,-174.6 621.62,-480.22 671.2,-580.83z"/>
      <path id="Coat_x0020_Back_43" class="fil25" d="M14883.91 2103.36l299.28 -51.32c1110.4,959.22 1566.5,2802.04 2927.57,3778.25l-327.58 406.09c-2361.25,-292.39 -2946.5,-2540.16 -2899.27,-4133.02z"/>
      <g>
       <path class="fil26" d="M15657.64 587.35c55.45,85.33 110.47,169.22 126.23,286.58 3.22,24.02 100.71,153.44 56.78,186.6 -9.09,23.54 -19.26,53.37 2.49,71.51 47.95,38.31 98.73,73.3 143.87,114.89 71.99,66.34 62.33,115.78 9.97,142.85 -29.19,14.67 -69.28,23.59 -53.26,48.48 45.93,57.37 36.21,100.12 -25.42,130.77 37.15,25.64 53.32,53.33 19.64,85.89 -34.76,53.03 -24.63,90.03 37.1,108.61 51.69,112.24 -17.37,197.71 -127.52,217.13 -88.23,15.55 -199.2,35.62 -264.08,61.28 -173.8,146.02 -259.64,334.15 -249.1,399.56 -248.49,-90.7 -477.37,-163.12 -725.85,-253.82 36.11,-91.58 136.09,-341.2 99.3,-474.9 -145.81,-266.42 -242.77,-563.68 -284.3,-895.92 66.9,-293.31 196.69,-488.49 413.86,-547.25 306.22,-92.17 669.59,21.07 820.29,317.74z"/>
       <path class="fil27" d="M15341.16 1393.3c-19.75,-57.03 -39.49,-114.08 -59.24,-171.11 10.72,-78.41 30.11,-149.54 86.65,-189.51 136.86,-75.46 142.77,-187.32 109.08,-310.19 29.53,-151.88 109.08,-139.35 218.84,-27.61 25.4,27.98 35.25,39.85 60.64,67.82 93.65,-112.7 290.4,-162.59 18.59,-470.21 -108.36,-79.03 -229.22,-115.69 -369.36,-87.04 -110.49,2.54 -245.3,-19.08 -427.37,-31.74 -145.39,33.16 -292.94,3.4 -432.11,214.87 -98.93,152.2 -147.2,302.64 -157.43,451.74 -18.78,103.69 52.93,367.95 299.24,942.03 67.63,73.09 117.65,82.62 124.31,-64.27 1.19,-93.29 2.38,-186.58 3.57,-279.87 2.29,-466.69 647.7,-63.93 362.12,357.04 212.22,129.26 486.24,218.01 647.17,198.92 158.01,-18.76 196.24,-109.92 170.79,-235.74 -13.04,-7.9 -69.68,-29.39 -49.79,-114.82 -51.67,61.13 -41.25,99.46 -3.86,104.2 -0.38,15.25 -26.51,25.14 -35.33,13.73 -46.18,-60.83 -44.87,-147.46 4.29,-211.63 20.58,-22.92 39.37,-49.09 62.46,-47.13 -3.9,-37.05 -9.53,-62.11 -32.86,-82.94 -102.1,72.93 -100.13,177.57 -115.97,303.76 -111.78,-5.98 -209.99,-21.6 -334.05,-124.9 -44.77,-74.2 -105.59,-131.2 -150.36,-205.4z"/>
      </g>
      <path id="Leg_44" class="fil28" d="M13759.7 5554.19c-18.09,1510.88 -5.01,3545.02 -47.16,3639.22 -42.17,94.17 -2621.86,2146.1 -2621.86,2146.1l342.81 582.95c0,0 3062.73,-1975.07 3219.29,-2238.2 156.58,-263.15 943.23,-2684.65 1352.54,-4130.07l-2245.62 0z"/>
      <path id="Shirt_45" class="fil6" d="M13579.28 5864.38c0,0 1800.01,0 2648.07,0 121.03,0 98.23,-174.71 80.71,-262.89 -201.85,-1017.55 -989.92,-2114.43 -989.92,-3562.89l-763.81 -119.79c-631.8,1016.11 -850.28,2267.14 -975.04,3945.57z"/>
      <path id="Coat_x0020_Front_46" class="fil29" d="M13281.53 6591.2c-119.02,285.85 -235.72,535.25 -345.7,726.81l-567.91 0c-61.1,-1975.6 686.85,-3495.75 1312.82,-4412.35 -138.98,-9.94 -264.45,-68.1 -343.74,-211.18 -279.18,-503.76 -178.35,-781.12 120.01,-872.28 164.06,-50.14 318.36,-15.92 503.05,25.05 151.13,33.52 322.66,71.54 536.53,71.56 0.07,0 0.13,0 0.2,0 20.73,0 39.6,1.39 56.69,4.06l253.48 14.46c0,0 1029.07,3487.67 567.61,4653.87l-2093.05 0z"/>
     </g>
     <g>
      <g id="Head_x002f_Front_x002f_Caesar">
       <g id="Head_47">
        <path id="SKIN_48" class="fil8" d="M26201.33 1858.97c215.19,129.71 426.62,192.37 525.87,166.79 248.86,-64.15 271.75,-974.6 79.19,-1333.53 -192.57,-358.93 -1182.51,-515.37 -1232.41,195.78 -17.32,246.82 86.32,467.09 239.45,646.83l-274.57 1279.7 797.53 0 -135.06 -955.56z"/>
       </g>
       <path id="Combined_x0020_Shape" class="fil30" d="M25837.94 721.02c460.23,3.29 780.43,-16.11 963.68,-66.46 -8.35,-155.98 -170.5,-332.3 -598.14,-332.3 -475.8,0 -731.08,277.33 -731.08,598.14 0,293.11 188.69,650.09 332.31,664.61 37.18,-8.13 68.91,-52.86 100.46,-114.52 -59.09,-28.01 -100.46,-92.65 -100.46,-167.93 0,-100.95 74.39,-182.77 166.15,-182.77 33.32,0 64.35,10.79 90.36,29.37 60.35,-97.38 135.99,-170.2 241.94,-162.3l-66.45 -199.38 -398.78 -33.23 0 -33.23z"/>
      </g>
      <polygon id="SKIN_49" class="fil8" points="25472.4,5572.67 27103.42,9700.79 28197.34,13190.77 28629.31,13190.77 26890.49,5572.67 "/>
      <path id="SKIN_50" class="fil8" d="M25143.99 5572.67c-17.38,1450.65 -270.67,3403.7 -311.14,3494.15 -40.48,90.43 -2793.96,2299.86 -2793.96,2299.86l297.52 318.37c0,0 3248.88,-1894.3 3399.21,-2146.96 150.33,-252.65 639.79,-2577.61 1032.78,-3965.43l-1624.41 0z"/>
      <g id="Left_x0020__x005b_Shoe_x005d_">
       <path id="shoe_51" class="fil15" d="M22086.74 11307.06c-10.87,-37.36 -50.23,-59.58 -86.78,-46.21 -66.67,24.35 -164.17,63.76 -207.36,100.02 -68.85,57.79 -181.72,191.57 -181.72,191.57 67.03,79.88 1204.76,1435.76 1204.76,1435.76 0,0 231.98,-99.29 145.56,-232.24 -86.43,-132.96 -141.45,-222.69 -141.45,-222.69l-262.46 -916.96c-5.16,-18.02 -24.16,-28.18 -42,-22.54l-140.05 44.44c0,0 -145.74,-67.92 -204.31,-137.73 -35.65,-42.48 -65.94,-130.8 -84.19,-193.41z"/>
      </g>
      <g id="Right_x0020__x007b_Shoe_x005d_">
       <path id="shoe_2_52" class="fil15" d="M28112.57 12992.52c-35.62,-15.66 -77.95,0.2 -91.22,36.79 -24.19,66.68 -56.65,166.74 -56.65,223.13 0,89.89 29.95,262.34 29.95,262.34 104.27,0 1874.26,0 1874.26,0 0,0 73.07,-241.52 -84.34,-260.8 -157.4,-19.25 -261.53,-34.76 -261.53,-34.76l-871.12 -388.37c-17.12,-7.65 -37.13,0.36 -44.27,17.67l-56 135.86c0,0 -145.71,67.98 -236.79,67.98 -55.46,0 -142.59,-33.6 -202.28,-59.84z"/>
      </g>
      <polygon id="Pant" class="fil31" points="26569.01,12831.32 28622.79,12608.41 26967.78,5572.67 25261.2,5572.67 "/>
      <path id="Pant_53" class="fil32" d="M22463.72 10852.99l1347.16 1594.6c0,0 2128.41,-2324.6 2481.76,-3033.61 353.3,-709 635.22,-3841.31 635.22,-3841.31l-2070.96 0c0,0 -153.97,2755.66 -207.58,2883.91 -53.64,128.24 -2185.61,2396.41 -2185.61,2396.41z"/>
      <g id="Upper_x0020_Body_x002f_Jacket">
       <path id="SKIN_54" class="fil8" d="M29140.13 5963.4l-941.36 -918.35 -312.64 540.98 978.88 577.15c245.44,386.64 389.59,553.69 432.45,501.18 36.16,-44.29 19.58,-92.84 4.32,-137.54 -11.89,-34.83 -22.96,-67.31 -7.74,-93.67 34.8,-60.22 231.32,-25.76 416.41,14.95 185.13,40.69 142.29,-50.23 102.95,-97.69 -174.96,-141.2 -399.37,-270.21 -673.29,-387.01zm-5548.63 1334.2c97.39,-197.55 429.01,-2123.03 429.01,-2123.03l694.43 2.74c0,0 -643.18,2076.27 -694.43,2203.31 -66.59,165.02 46.51,404.77 123.22,567.38 11.87,25.16 22.86,48.44 32.18,69.35 -106.41,47.61 -157.54,-9.95 -211.44,-70.62 -60.87,-68.55 -125.3,-141.05 -276.94,-70.55 -58.57,27.29 -114.02,59.48 -168.17,90.99 -187.09,108.73 -358.97,208.65 -592.76,64.36 -37.07,-22.86 -77.68,-108.95 20.46,-176.25 244.5,-167.64 596.84,-461.07 644.45,-557.68z"/>
       <path id="Coat_x0020_Back_55" class="fil25" d="M25993.97 2260.66l287.34 -49.29c494.74,1235.86 1358.47,2358.79 2591.18,3368.78l-931.52 1131.69c-1232.58,-1438.1 -1992.37,-2921.83 -1947,-4451.18z"/>
       <path id="Shirt_56" class="fil6" d="M24741.34 5871.75l2558.75 0c0,0 -889.21,-2162.05 -889.21,-3673.27l-771.84 -115.01c-606.6,975.59 -777.89,2176.75 -897.69,3788.28z"/>
       <path id="Coat_x0020_Front_57" class="fil29" d="M23578.26 6968.34c279.83,-3157.03 2043.81,-4884.88 2043.81,-4884.88l0.6 0.54c0.1,-0.18 0.23,-0.37 0.33,-0.54l50.37 0c90.43,3.11 275.48,11.22 275.48,11.22l186.5 533c29.6,974.76 345.62,3928.8 345.62,3928.8l-1674.85 0c2.85,135.44 9.16,272.8 19.31,411.85l-1247.17 0z"/>
       <path id="Shade_58" class="fil14" d="M24806.42 6569.58c-13.38,-589.83 38.95,-1143.66 126.26,-1644.85 45.65,594.74 141.06,1310.3 340.34,1644.85l-466.6 0z"/>
       <polygon id="Light" class="fil33" points="25177.03,5539.45 26004.09,5154.96 26004.09,5539.45 "/>
      </g>
     </g>
    </g>
   </g>
  </g>
  <polygon class="fil12" points="-0,0 29996.66,0 29996.66,5999.33 -0,5999.33 "/>
 </g>
</svg>
