<?xml version="1.0" encoding="UTF-8"?>
<!DOCTYPE svg PUBLIC "-//W3C//DTD SVG 1.1//EN" "http://www.w3.org/Graphics/SVG/1.1/DTD/svg11.dtd">
<!-- Creator: CorelDRAW 2020 (64-Bit Evaluation Version) -->
<svg xmlns="http://www.w3.org/2000/svg" xml:space="preserve" width="74.5199mm" height="91.4726mm" version="1.1" style="shape-rendering:geometricPrecision; text-rendering:geometricPrecision; image-rendering:optimizeQuality; fill-rule:evenodd; clip-rule:evenodd"
viewBox="0 0 4294.66 5271.66"
 xmlns:xlink="http://www.w3.org/1999/xlink"
 xmlns:xodm="http://www.corel.com/coreldraw/odm/2003">
 <defs>
  <style type="text/css">
   <![CDATA[
    .fil7 {fill:#003333}
    .fil2 {fill:#191847}
    .fil3 {fill:#393F82}
    .fil5 {fill:#C21B15}
    .fil1 {fill:#CC9933}
    .fil4 {fill:#E4E4E4}
    .fil8 {fill:#FF4133}
    .fil0 {fill:#C5CFD6;fill-rule:nonzero}
    .fil6 {fill:black;fill-opacity:0.101961}
   ]]>
  </style>
 </defs>
 <g id="Layer_x0020_1">
  <metadata id="CorelCorpID_0Corel-Layer"/>
  <ellipse id="Ballsy_x0020_Ball" class="fil0" cx="1308.87" cy="4150.91" rx="1174.11" ry="1120.74"/>
  <path id="SKIN" class="fil1" d="M3134.25 4091.14c56.7,198.65 198.01,575.19 393.37,1007.6l185.66 -54.17c-162.43,-995.02 -297.6,-1653.76 -375.03,-1854.26 -51.16,-132.47 -438.19,-116.95 -393.66,149.6 18.68,111.78 92.56,411.09 189.66,751.24zm-763.08 -704.75c-302.75,62.73 -930.49,284.46 -1109.75,355.32 -112.65,44.53 -40.02,195.55 56.09,182.33 16.27,-2.24 73.86,-8.68 159.77,-18.29 275.96,-30.87 844.26,-94.45 1275.28,-156.49 226.96,-32.67 104.87,-457.77 -130.78,-412.79 -79.28,15.13 -163.6,31.88 -250.6,49.91z"/>
  <path id="Leg_x0020_Back" class="fil2" d="M3350.13 3078.01c-30.95,-101.01 -1438.01,-459.55 -1438.01,-459.55l-115.31 0 0 107.45 969.59 493.58c-1.29,15.92 -0.51,32.76 2.62,50.51 -7,365.91 149.62,639.26 304.65,909.91 101.4,176.97 202.12,352.79 256,552.58l356.22 -53.14c-10.37,-26.53 -26.78,-146.2 -49.22,-309.8 -56.56,-412.52 -151.45,-1104.44 -284.55,-1287.49 -0.46,-0.64 -0.93,-1.27 -1.42,-1.91 -0.17,-0.71 -0.37,-1.43 -0.58,-2.14z"/>
  <path id="Leg_x0020_Front" class="fil3" d="M1877.36 3512.63c-88.72,-17.76 -170.41,-33.61 -240.31,-45.87 -451.56,-79.2 -583.23,-320.91 -505.37,-848.29l831.97 0c135.91,39.04 842.19,335.23 1208.65,492.77 242.53,104.27 166.08,480.14 28.72,577.95 -0.74,6 -3.22,10.08 -7.62,11.9 -520.74,215.83 -964.8,199.73 -1249.95,189.39 -119.44,-4.33 -210.99,-7.65 -268.63,7.5l-90.31 -284.9 292.86 -100.45z"/>
  <path id="shoe" class="fil4" d="M1356.55 3726.93c-0.7,-17.84 -15.75,-32.1 -33.5,-30.22 -32.39,3.44 -80.18,10.17 -103.43,21.52 -37.07,18.08 -102.18,65.12 -102.18,65.12 20.98,43 377.02,772.98 377.02,772.98 0,0 114.32,-18.45 90.59,-87.24 -23.72,-68.8 -38.26,-114.85 -38.26,-114.85l-15.06 -437.4c-0.29,-8.59 -7.62,-15.23 -16.19,-14.7l-67.29 4.23c0,0 -57.35,-46.42 -75.68,-83.99 -11.15,-22.87 -14.83,-65.56 -16.01,-95.46z"/>
  <path id="shoe_2" class="fil4" d="M3480.97 5001.51c-16.34,-7.18 -35.77,0.09 -41.86,16.88 -11.1,30.61 -26,76.52 -26,102.39 0,41.25 13.74,120.37 13.74,120.37 47.85,0 860.03,0 860.03,0 0,0 33.54,-110.82 -38.7,-119.67 -72.23,-8.83 -120,-15.95 -120,-15.95l-399.73 -178.21c-7.85,-3.5 -17.03,0.17 -20.31,8.11l-25.69 62.33c0,0 -66.86,31.2 -108.66,31.2 -25.44,0 -65.43,-15.42 -92.81,-27.47z"/>
  <path id="SKIN_0" class="fil1" d="M3252.75 1931.16l-602.04 82.12 108.02 269.73 488.5 -193.67c210.57,20.78 312.38,15.77 305.46,-15 -5.84,-25.95 -28.23,-33.78 -48.84,-41 -16.06,-5.62 -31.05,-10.87 -36.31,-24.01 -12.03,-30.01 56.42,-92.23 123.88,-148.46 67.46,-56.24 22.19,-66.59 -6.28,-65.75 -101.16,23.71 -211.95,69.06 -332.38,136.05zm-2928.95 1478.81c44.69,-90.65 435.67,-1257.34 435.67,-1257.34l333.9 1.25c0,0 -549.19,1235.89 -572.71,1294.18 -30.56,75.72 21.35,185.74 56.54,260.35 5.45,11.54 10.49,22.23 14.77,31.82 -48.84,21.85 -72.3,-4.56 -97.03,-32.4 -27.93,-31.46 -57.49,-64.73 -127.07,-32.37 -26.88,12.52 -52.32,27.29 -77.17,41.75 -85.85,49.89 -164.71,95.74 -272,29.54 -17.01,-10.49 -35.64,-50 9.39,-80.88 112.19,-76.93 273.87,-211.57 295.71,-255.89z"/>
  <path id="Clothes_x0020_Back" class="fil5" d="M1674.04 1093.65l261.43 17.42c64.4,582.5 415.09,950.43 1200.29,825.87l104.31 750.14c-733.88,94.84 -1377.51,-198.98 -1509.42,-994.5 -34.14,-205.94 -61.1,-420.25 -56.62,-598.92z"/>
  <path id="Shade" class="fil6" d="M1199.75 2725.2c30.68,-352.38 85.47,-684.8 176.03,-997.26 -19.85,334.16 -25.36,748.68 41.4,997.26l-217.43 0z"/>
  <g id="_1705146403616">
   <path class="fil1" d="M2079.75 227.9c28.97,46.25 57.7,91.73 65.09,154.79 1.51,12.91 52.61,83.18 28.76,100.57 -5.08,12.54 -10.8,28.45 0.69,38.36 25.36,20.97 52.28,40.19 76.11,62.9 38,36.22 32.38,62.64 4.05,76.68 -15.77,7.6 -37.36,12.02 -28.99,25.51 24.11,31.18 18.51,54.01 -14.81,69.88 19.68,14.09 28.11,29.08 9.76,46.23 -19.12,28.12 -14.02,48.05 18.9,58.57 26.71,60.65 -11.09,105.85 -70.33,115.27 -47.45,7.54 -107.12,17.3 -142.15,30.47 -94.5,76.73 -142.23,176.82 -137.17,211.99 -132.41,-50.87 -254.48,-91.77 -386.89,-142.64 20.19,-48.77 76.06,-181.72 57.53,-253.73 -75.77,-144.17 -125.08,-304.42 -144.35,-482.94 38.52,-156.66 109.87,-260.14 226.84,-289.69 165.02,-46.66 358.83,17.34 436.95,177.77z"/>
   <path class="fil7" d="M1902.79 657.17c-10.07,-30.76 -20.15,-61.52 -30.22,-92.28 6.45,-41.94 17.49,-79.91 48.17,-100.83 74.06,-39.23 78.24,-99.15 61.28,-165.33 17.2,-81.17 59.75,-73.73 117.58,-12.82 13.36,15.23 18.53,21.68 31.9,36.91 51.23,-59.58 157.17,-84.56 14.21,-251.95 -57.39,-43.35 -121.86,-64.1 -197.25,-50 -59.27,0.37 -131.36,-12.44 -228.86,-20.87 -78.25,16.47 -157.1,-0.82 -233.62,111.31 -54.42,80.72 -81.66,160.94 -88.49,240.79 -11.01,55.42 25.06,197.76 151.94,507.79 35.6,39.8 62.34,45.37 67.23,-33.34 1.48,-50.01 2.96,-100.01 4.44,-150.03 5.44,-250.21 347.86,-28.44 190.93,194.71 112.62,71.22 258.75,121.28 345.2,112.49 84.89,-8.63 106.21,-57.16 93.7,-124.85 -6.92,-4.36 -37.1,-16.38 -25.66,-62.02 -28.26,32.31 -23.01,52.96 -3.01,55.84 -0.34,8.17 -14.44,13.23 -19.06,7.04 -24.22,-33.03 -22.72,-79.47 4.21,-113.43 11.24,-12.1 21.55,-25.97 33.92,-24.71 -1.76,-19.9 -4.55,-33.39 -16.87,-44.77 -55.4,38.19 -55.29,94.31 -64.92,161.83 -59.88,-4.22 -112.4,-13.47 -177.99,-69.98 -23.33,-40.19 -55.43,-71.3 -78.76,-111.49z"/>
  </g>
  <path id="Clothes" class="fil8" d="M369.6 3258.89c181.51,-965.76 564.62,-1712.92 1149.32,-2241.49l25.09 0 0.85 0 0.21 0.25 396.1 90.72c0,475.8 105.85,831.32 207.62,1173.12 43.95,147.6 87.13,292.66 120.71,443.72l-1069.76 0c-15.07,173.08 -24.33,350.98 -29.15,533.69l-801 0z"/>
 </g>
</svg>
