<?xml version="1.0" encoding="UTF-8"?>
<!DOCTYPE svg PUBLIC "-//W3C//DTD SVG 1.1//EN" "http://www.w3.org/Graphics/SVG/1.1/DTD/svg11.dtd">
<!-- Creator: CorelDRAW 2020 (64-Bit Evaluation Version) -->
<svg xmlns="http://www.w3.org/2000/svg" xml:space="preserve" width="103.848mm" height="154.667mm" version="1.1" style="shape-rendering:geometricPrecision; text-rendering:geometricPrecision; image-rendering:optimizeQuality; fill-rule:evenodd; clip-rule:evenodd"
viewBox="0 0 7582.41 11292.94"
 xmlns:xlink="http://www.w3.org/1999/xlink"
 xmlns:xodm="http://www.corel.com/coreldraw/odm/2003">
 <defs>
  <style type="text/css">
   <![CDATA[
    .fil11 {fill:#003333}
    .fil2 {fill:#7A8DFF}
    .fil10 {fill:#CC9933}
    .fil1 {fill:#AED5F8;fill-rule:nonzero}
    .fil0 {fill:#FFA9C4;fill-rule:nonzero}
    .fil8 {fill:#FFEBA9;fill-rule:nonzero}
    .fil3 {fill:#0007E9;fill-rule:nonzero;fill-opacity:0.278431}
    .fil9 {fill:#2026A2;fill-opacity:0.400000}
    .fil4 {fill:#191847}
    .fil5 {fill:#393F82}
    .fil7 {fill:#C5CFD6}
    .fil12 {fill:#C7D1D9}
    .fil6 {fill:#CC9933}
    .fil13 {fill:#F2F2F2}
   ]]>
  </style>
 </defs>
 <g id="Layer_x0020_1">
  <metadata id="CorelCorpID_0Corel-Layer"/>
  <g id="_1705299783968">
   <circle id="Oval" class="fil0" cx="811.37" cy="6046.67" r="811.37"/>
   <ellipse id="Oval_2" class="fil1" cx="3883" cy="4201.76" rx="3284.13" ry="3274.47"/>
   <polygon id="Polygon" class="fil2" points="1371.61,1275.02 2009.12,1912.52 1371.61,2550.03 734.1,1912.52 "/>
   <path id="Mask" class="fil3" d="M7167.13 3738.11c0,-2064.5 -1470.35,-3738.11 -3284.13,-3738.11 -1813.78,0 -3284.13,1673.61 -3284.13,3738.11 0,2064.5 1470.35,3738.11 3284.13,3738.11 1813.78,0 3284.13,-1673.61 3284.13,-3738.11z"/>
   <polygon id="Pant" class="fil4" points="4946.93,11292.94 6745.82,11105.33 5296.21,5183.96 3801.4,5183.96 "/>
   <path id="Pant_0" class="fil5" d="M1351.11 9627.98l1179.97 1342.02c0,0 1864.27,-1956.42 2173.75,-2553.13 309.48,-596.7 556.41,-3232.9 556.41,-3232.9l-1813.94 0c0,0 -134.88,2319.2 -181.84,2427.14 -46.96,107.93 -1914.34,2016.88 -1914.34,2016.88z"/>
   <path id="SKIN" class="fil6" d="M6951.43 3370.72l-913.7 686.95 426.55 321.32 624.08 -755.93c365.26,-162.9 528,-265.2 488.18,-306.86 -33.55,-35.13 -77.57,-26.61 -118.1,-18.76 -31.59,6.12 -61.07,11.83 -81.86,-3.83 -47.45,-35.76 7.6,-196.49 66.55,-346.97 58.96,-150.48 -25.02,-124.64 -71.02,-96.93 -144.39,130.91 -284.6,304.58 -420.68,521.01zm-4408.43 1802.06l-605.2 33.59c-143.68,1092.71 -241.3,1696.2 -292.85,1810.5 -37.8,83.81 -333.62,349.18 -540.27,503.05 -82.95,61.74 -44.27,132.19 -11.1,149.54 209.22,109.44 355.18,16.41 514.04,-84.86 45.99,-29.32 93.07,-59.33 143.08,-85.32 129.44,-67.25 188.33,-9.48 244,45.11 49.28,48.34 96.01,94.16 186.93,48.55 -8.92,-17.11 -19.39,-36.17 -30.69,-56.75 -73.03,-132.98 -180.75,-329.14 -129.02,-471.58 26.56,-73.1 200.24,-703.71 521.06,-1891.82z"/>
   <path id="Coat_x0020_Back" class="fil7" d="M3566.24 2588.22l233.71 -101.07c654.68,363.92 1168.63,1502.25 1561.83,1571.86 371.74,65.81 809.98,-196.83 1325.05,-532.35l265.28 328.63c-379.03,661.64 -1357.68,1384.8 -1864.16,1237.55 -809.78,-235.44 -1339.66,-1665.33 -1521.7,-2504.63z"/>
   <circle id="Oval_3" class="fil8" cx="5621.66" cy="7418.28" r="811.37"/>
   <polygon id="Polygon_2" class="fil9" points="5679.62,463.64 5834.17,618.19 5679.62,772.74 5525.07,618.19 "/>
   <g>
    <path class="fil10" d="M3356.09 1064.01c77.5,37.83 154.05,74.81 216.66,153.22 12.81,16.05 140.09,67.6 122.62,110.85 3.67,21.06 9.29,47.17 32.99,50.88 51.55,6.92 103.71,10.21 154.64,20.76 81.24,16.82 95.79,56.96 69.53,99.47 -14.81,23.38 -40.06,47.34 -17.57,58.46 58.4,21.66 69.96,56.97 38.54,106.1 38.17,2.44 62,15.51 51.72,53.86 -2.13,53.69 21.36,76.16 74.31,62.76 86.5,59.02 73.58,151.24 2,213.38 -57.34,49.76 -129.23,112.73 -165.2,159.66 -62.63,181.89 -42.98,356.03 -6.81,398.97 -220.12,42.43 -418.02,89.58 -638.14,132.01 -13.68,-82.29 -49.85,-307.29 -134.89,-388.4 -222.11,-130.04 -422.17,-303.78 -597.2,-527.11 -79.26,-242.31 -70.04,-440.73 62.16,-578.12 182.35,-200.48 495.78,-276.62 734.64,-126.72z"/>
    <path class="fil11" d="M3477.49 1787.67c-39.22,-32.84 -78.43,-65.68 -117.66,-98.52 -26.39,-61.65 -43.32,-121.8 -19.66,-175.49 66.55,-114.51 22.09,-198.37 -55.97,-272.96 -44.77,-123.25 18.51,-148.83 146.99,-115.47 30.66,9.26 42.98,13.59 73.64,22.85 18.92,-122.73 140.14,-244.76 -191.5,-349.8 -113.2,-10.19 -217.01,15.87 -306.36,97.78 -79.18,50.01 -186.57,93.09 -324.4,163.27 -91.2,87.48 -211.4,130.18 -220.34,344.53 -5.53,153.73 24.97,284.1 82.54,396.91 31.56,83.54 198.89,244.31 628.16,554.1 81.02,23.63 121.53,8.75 62.32,-100.91 -39.81,-68.31 -79.62,-136.62 -119.42,-204.94 -201.8,-340.13 442.8,-328.84 418.81,101.59 210.57,1.4 448.4,-53.57 557.01,-137.61 106.65,-82.51 94.69,-165.43 21.33,-245.77 -12.92,-0.06 -63.45,9.02 -86.24,-61.73 -10.89,66.95 13.39,90.26 42.63,77.41 6.37,11.24 -8.31,29.82 -19.68,25.37 -60.09,-24.07 -96.9,-87.6 -89.14,-155.65 4.95,-25.62 7.19,-52.84 24.84,-61.49 -18.99,-25.22 -34,-40.98 -60.04,-45.95 -42.4,97.51 4.65,172.69 48.16,271.3 -83.84,44.39 -162.01,75.85 -297.21,54.88 -64.89,-34.4 -133.93,-49.31 -198.82,-83.7z"/>
   </g>
   <path id="Shirt" class="fil12" d="M3239.61 5805.08c0,0 1466.12,-365.54 2156.86,-537.76 98.58,-24.58 45.82,-157.08 14.29,-222.74 -363.52,-757.65 -1220.07,-1458.52 -1503.52,-2595.38l-645.57 61.11c-315.76,925.82 -248.9,1952.08 -22.07,3294.78z"/>
   <path id="Coat_x0020_Front" class="fil13" d="M3228.64 2518.54l-7.1 1.77c-1188.85,1176.56 -1711.91,2671.35 -1569.21,4484.35l473.37 -27.4c215.65,-410.89 448.05,-1053.26 697.19,-1927.15 -20.12,494.02 -0.88,990.75 79.73,1444.91l1941.51 -484.07c147.65,-1009.02 -1376.27,-3552.06 -1376.27,-3552.06l-134.04 33.43 -105.18 26.22z"/>
  </g>
 </g>
</svg>
