<?xml version="1.0" encoding="UTF-8"?>
<!DOCTYPE svg PUBLIC "-//W3C//DTD SVG 1.1//EN" "http://www.w3.org/Graphics/SVG/1.1/DTD/svg11.dtd">
<!-- Creator: CorelDRAW 2020 (64-Bit Evaluation Version) -->
<svg xmlns="http://www.w3.org/2000/svg" xml:space="preserve" width="204.258mm" height="146.844mm" version="1.1" style="shape-rendering:geometricPrecision; text-rendering:geometricPrecision; image-rendering:optimizeQuality; fill-rule:evenodd; clip-rule:evenodd"
viewBox="0 0 20460.36 14709.19"
 xmlns:xlink="http://www.w3.org/1999/xlink"
 xmlns:xodm="http://www.corel.com/coreldraw/odm/2003">
 <defs>
  <style type="text/css">
   <![CDATA[
    .fil4 {fill:none}
    .fil14 {fill:#003333}
    .fil10 {fill:#2A0752}
    .fil12 {fill:#342A83}
    .fil9 {fill:#57331F}
    .fil7 {fill:#AFB9C5}
    .fil8 {fill:#C5CFD6}
    .fil13 {fill:#CC9933}
    .fil11 {fill:#E4E4E4}
    .fil15 {fill:#E87613}
    .fil6 {fill:#F2F2F2}
    .fil16 {fill:#FFA434}
    .fil5 {fill:#AFB9C5;fill-rule:nonzero}
    .fil3 {fill:#C5CFD6;fill-rule:nonzero}
    .fil0 {fill:#C7D1D9;fill-rule:nonzero}
    .fil2 {fill:#F2F2F2;fill-rule:nonzero}
    .fil1 {fill:white;fill-rule:nonzero}
   ]]>
  </style>
     <clipPath id="id0">
      <path d="M15424.79 7420.85l3895.94 0 0 -7420.85 -3895.94 0 0 7420.85z"/>
     </clipPath>
     <clipPath id="id1">
      <path d="M2067.24 8613.49l4213.98 0 0 -8003.92 -4213.98 0 0 8003.92z"/>
     </clipPath>
     <clipPath id="id2">
      <path d="M6440.25 11820.36l8878.52 0 0 -9170.06 -8878.52 0 0 9170.06z"/>
     </clipPath>
 </defs>
 <g id="Layer_x0020_1">
  <metadata id="CorelCorpID_0Corel-Layer"/>
  <g id="Background">
   <g id="Background_x002f_Wireframe_x0020_2">
    <g>
    </g>
    <g style="clip-path:url(#id0)">
     <g>
      <path class="fil0" d="M15636.8 -0.01l3471.9 0c117.08,0 212.03,94.95 212.03,212.03l0 6996.81c0,117.07 -94.95,212.02 -212.03,212.02l-3471.9 0c-117.08,0 -212.03,-94.95 -212.03,-212.03l0.01 -6996.8c-0.01,-117.08 94.94,-212.03 212.02,-212.03z"/>
      <circle id="Touch" class="fil1" cx="17359.5" cy="6572.75" r="397.54"/>
      <circle id="Lens" class="fil1" cx="17014.96" cy="450.54" r="53"/>
      <path class="fil1" d="M17253.49 397.54l450.55 0c29.27,-0.01 53.01,23.73 53.01,53l0 0c0,29.27 -23.74,53.01 -53.01,53.01l-450.55 0c-29.27,0 -53.01,-23.74 -53.01,-53.01l0 0c0,-29.27 23.74,-53.01 53.01,-53.01z"/>
      <path class="fil1" d="M18844.35 742.08c58.23,0.38 105.33,47.7 105.33,106.01l0 1133.39c0,58.54 -47.47,106.01 -106.01,106.01l-2941.83 0c-58.54,0 -106.01,-47.47 -106.01,-106.01l0 -1134.07c0.38,-58.23 47.7,-105.33 106.01,-105.33l2942.52 0z"/>
      <path class="fil0" d="M17572.2 1145.67c43.59,0.37 78.83,35.83 78.83,79.5l0 42.77c0,43.9 -35.61,79.51 -79.51,79.51l-1457.67 0c-43.44,0 -78.76,-34.87 -79.49,-78.14l0 -44.83c0.36,-43.36 35.45,-78.45 78.81,-78.82l1459.03 0z"/>
      <path class="fil0" d="M16113.85 1481.99l926.16 0c43.9,-0.01 79.51,35.6 79.51,79.5l-0.01 42.78c0.01,43.9 -35.6,79.51 -79.5,79.51l-926.16 -0.01c-43.44,0.01 -78.76,-34.86 -79.49,-78.13l0 -44.84c0.36,-43.59 35.82,-78.83 79.49,-78.83l0 0.01z"/>
      <path id="Background_0" class="fil0" d="M18798.14 1414.73c0,-102.18 -83.34,-185.52 -185.52,-185.52 -102.18,0 -185.52,83.34 -185.52,185.52 0,102.18 83.34,185.52 185.52,185.52 102.18,0 185.52,-83.34 185.52,-185.52z"/>
      <path id="Indicator" class="fil2" d="M18692.12 1414.73c0,-43.79 -35.71,-79.5 -79.5,-79.5 -43.79,0 -79.5,35.71 -79.5,79.5 0,43.79 35.71,79.5 79.5,79.5 43.79,0 79.5,-35.71 79.5,-79.5z"/>
      <path class="fil1" d="M15901.84 2305.76l2941.83 0c58.54,0 106.01,47.47 106.01,106.01l0 787.3c0,58.54 -47.47,106.01 -106.01,106.01l-2941.83 0c-58.54,0 -106.01,-47.47 -106.01,-106.01l0 -787.98c0.38,-58.23 47.7,-105.33 106.01,-105.33z"/>
      <path class="fil0" d="M16904.41 2605.62l1466.76 0c41.4,-0.01 74.97,33.56 74.97,74.96 0,41.4 -33.57,74.97 -74.97,74.97l-1466.76 0c-41.08,0 -74.45,-33.06 -74.96,-74l0 -1.93c0.51,-40.63 33.37,-73.47 73.99,-73.98l0.96 0zm1541.72 74.96l0 0z"/>
      <path class="fil0" d="M16904.41 2855.49l935.24 0c41.4,-0.01 74.97,33.56 74.97,74.96l0 0c0,41.4 -33.57,74.97 -74.97,74.97l-935.24 0c-41.08,0 -74.45,-33.06 -74.96,-74l0 -1.93c0.51,-40.95 33.88,-73.99 74.96,-73.99l0 0.01z"/>
      <path id="Avatar" class="fil3" d="M16670.42 2805.52c0,-175.17 -142.87,-318.04 -318.04,-318.04 -175.17,0 -318.04,142.87 -318.04,318.04 0,175.17 142.87,318.04 318.04,318.04 175.17,0 318.04,-142.87 318.04,-318.04z"/>
      <path class="fil1" d="M18844.58 3524.91c58.12,0.49 105.1,47.76 105.1,106l0 787.3c0,58.54 -47.47,106.01 -106.01,106.01l-2941.83 0.01c-58.54,-0.01 -106.01,-47.48 -106.01,-106.02l0 -787.98c0.38,-57.93 47.21,-104.83 105.1,-105.32l2943.66 0z"/>
      <path class="fil0" d="M17577.04 3824.76c40.95,0.51 73.99,33.88 73.99,74.96 0,41.4 -33.57,74.97 -74.97,74.97l-1466.76 -0.01c-41.08,0.01 -74.45,-33.05 -74.96,-73.99l0 -1.93c0.51,-40.63 33.37,-73.47 73.99,-73.98l1468.69 0zm73.99 74.96l0 0z"/>
      <path class="fil0" d="M16109.32 4074.63l935.24 0c41.4,0 74.97,33.57 74.97,74.97l0 0c0,41.4 -33.57,74.97 -74.97,74.97l-935.24 -0.01c-41.08,0.01 -74.45,-33.05 -74.96,-73.99l0 -1.93c0.51,-40.95 33.88,-73.99 74.96,-73.99z"/>
      <path id="Background_3" class="fil0" d="M18798.14 4024.66c0,-102.18 -83.34,-185.52 -185.52,-185.52 -102.18,0 -185.52,83.34 -185.52,185.52 0,102.18 83.34,185.52 185.52,185.52 102.18,0 185.52,-83.34 185.52,-185.52z"/>
      <path id="Indicator_2" class="fil2" d="M18692.12 4024.66c0,-43.79 -35.71,-79.5 -79.5,-79.5 -43.79,0 -79.5,35.71 -79.5,79.5 0,43.79 35.71,79.5 79.5,79.5 43.79,0 79.5,-35.71 79.5,-79.5z"/>
      <path class="fil1" d="M18844.35 4744.05c58.23,0.38 105.33,47.7 105.33,106.01l0 787.3c0,58.54 -47.47,106.01 -106.01,106.01l-2941.83 0c-58.54,0 -106.01,-47.47 -106.01,-106.01l0 -787.98c0.38,-58.23 47.7,-105.33 106.01,-105.33l2942.52 0z"/>
      <path class="fil0" d="M18372.13 5043.9c40.95,0.51 73.99,33.88 73.99,74.96 0,41.4 -33.57,74.97 -74.97,74.97l-1466.76 0c-41.08,0 -74.45,-33.06 -74.96,-74l0 -1.93c0.51,-40.63 33.37,-73.47 73.99,-73.98l1468.69 0zm73.99 74.96l0 0z"/>
      <path class="fil0" d="M16904.41 5293.76l935.24 0c41.4,0 74.97,33.57 74.97,74.97l0 0c0,41.4 -33.57,74.97 -74.97,74.97l-935.24 0c-41.08,0 -74.45,-33.06 -74.96,-74l0 -1.93c0.51,-40.95 33.88,-73.99 74.96,-73.99z"/>
      <path id="Avatar_2" class="fil3" d="M16670.42 5243.81c0,-175.17 -142.87,-318.04 -318.04,-318.04 -175.17,0 -318.04,142.87 -318.04,318.04 0,175.17 142.87,318.04 318.04,318.04 175.17,0 318.04,-142.87 318.04,-318.04z"/>
     </g>
    </g>
    <polygon class="fil4" points="15424.79,7420.85 19320.74,7420.85 19320.74,0 15424.79,0 "/>
    <g>
    </g>
    <g style="clip-path:url(#id1)">
     <g id="_1705291880064">
      <path class="fil2" d="M2279.26 609.56l3789.94 0c117.09,0 212.04,94.95 212.04,212.03l-0.01 7579.87c0.01,117.07 -94.94,212.02 -212.02,212.02l-3789.95 0.01c-117.07,-0.01 -212.02,-94.96 -212.02,-212.04l0 -7579.86c0,-117.08 94.95,-212.03 212.03,-212.03z"/>
      <circle id="Touch_2" class="fil1" cx="4160.97" cy="7712.39" r="397.54"/>
      <circle id="Lens_2" class="fil1" cx="3816.44" cy="1086.61" r="53"/>
      <path class="fil1" d="M4054.96 1033.61l450.55 0c29.28,-0.01 53.02,23.73 53.02,53l-0.01 0c0.01,29.27 -23.73,53.01 -53,53.01l-450.56 0c-29.26,0 -53,-23.74 -53,-53.01l-0.01 0c0.01,-29.27 23.75,-53.01 53.02,-53.01z"/>
      <path class="fil1" d="M2544.29 1351.65l3259.87 0c58.55,0 106.02,47.47 106.02,106.01l-0.01 1219.14c0.01,58.54 -47.46,106.01 -106,106.01l-3259.88 0.01c-58.53,-0.01 -106,-47.48 -106,-106.02l-0.01 -609.57 0 -610.25c0.39,-58.23 47.71,-105.33 106.02,-105.33l-0.01 0z"/>
      <path class="fil0" d="M5327.79 1781.01c43.37,0.37 78.46,35.46 78.83,78.82l0 56.34c0.01,43.9 -35.6,79.51 -79.5,79.51l-1775.72 -0.01c-43.66,0.01 -79.12,-35.23 -79.49,-78.82l0 -57.02c0.37,-43.36 35.46,-78.45 78.82,-78.82l1777.06 0z"/>
      <path class="fil0" d="M3551.4 2138.79l1139.63 0c43.91,-0.01 79.52,35.6 79.52,79.5l-0.01 55.66c0.01,43.9 -35.6,79.51 -79.5,79.51l-1139.64 -0.01c-43.66,0.01 -79.12,-35.23 -79.49,-78.82l0 -57.03c0.37,-43.59 35.83,-78.83 79.5,-78.83l-0.01 0.01z"/>
      <path id="Avatar_3" class="fil3" d="M3312.89 2067.23c0,-175.17 -142.87,-318.04 -318.04,-318.04 -175.17,0 -318.04,142.87 -318.04,318.04 0,175.17 142.87,318.04 318.04,318.04 175.17,0 318.04,-142.87 318.04,-318.04z"/>
      <path class="fil1" d="M5804.85 2994.84c58.24,0.38 105.34,47.7 105.34,106.01l-0.01 901.1c0.01,58.54 -47.46,106.01 -106,106.01l-3259.88 0c-58.53,0 -106,-47.47 -106,-106.01l-0.01 -450.55 0 -451.23c0.39,-58.23 47.71,-105.33 106.02,-105.33l3260.54 0z"/>
      <path class="fil0" d="M3551.4 3328.78l1775.71 0c43.68,-0.01 79.14,35.23 79.51,78.82l0 8.63c0.01,43.9 -35.6,79.51 -79.5,79.51l-1775.72 0c-43.66,0 -79.12,-35.24 -79.49,-78.83l0 -9.32c0.37,-43.36 35.46,-78.45 78.82,-78.82l0.67 0z"/>
      <path class="fil0" d="M3551.4 3607.06l1139.63 0c43.91,0 79.52,35.61 79.52,79.51l-0.01 7.94c0.01,43.9 -35.6,79.51 -79.5,79.51l-1139.64 0c-43.66,0 -79.12,-35.24 -79.49,-78.83l0 -9.31c0.37,-43.59 35.83,-78.83 79.5,-78.83l-0.01 0z"/>
      <path id="Avatar_4" class="fil3" d="M3312.89 3551.4c0,-175.17 -142.87,-318.04 -318.04,-318.04 -175.17,0 -318.04,142.87 -318.04,318.04 0,175.17 142.87,318.04 318.04,318.04 175.17,0 318.04,-142.87 318.04,-318.04z"/>
      <path class="fil1" d="M5805.08 4320c58.13,0.49 105.11,47.76 105.11,106l-0.01 901.11c0.01,58.54 -47.46,106.01 -106,106.01l-3259.88 0c-58.53,0 -106,-47.47 -106,-106.01l-0.01 -450.56 0 -451.23c0.39,-57.93 47.22,-104.83 105.11,-105.32l3261.68 0z"/>
      <path class="fil0" d="M3551.4 4653.93l1775.71 0c43.68,-0.01 79.14,35.23 79.51,78.82l0 8.63c0.01,43.9 -35.6,79.51 -79.5,79.51l-1775.72 -0.01c-43.66,0.01 -79.12,-35.23 -79.49,-78.82l0 -9.32c0.37,-43.36 35.46,-78.45 78.82,-78.82l0.67 0z"/>
      <path class="fil0" d="M3551.4 4932.21l1139.63 0c43.91,-0.01 79.52,35.6 79.52,79.5l-0.01 7.95c0.01,43.9 -35.6,79.51 -79.5,79.51l-1139.64 0c-43.66,0 -79.12,-35.24 -79.49,-78.83l0 -9.32c0.37,-43.59 35.83,-78.83 79.5,-78.83l-0.01 0.01z"/>
      <path id="Avatar_5" class="fil5" d="M3312.89 4876.55c0,-175.17 -142.87,-318.04 -318.04,-318.04 -175.17,0 -318.04,142.87 -318.04,318.04 0,175.17 142.87,318.04 318.04,318.04 175.17,0 318.04,-142.87 318.04,-318.04z"/>
      <path class="fil1" d="M2544.29 5645.15l3259.87 0c58.55,0 106.02,47.47 106.02,106.01l-0.01 901.1c0.01,58.54 -47.46,106.01 -106,106.01l-3259.88 0.01c-58.53,-0.01 -106,-47.48 -106,-106.02l-0.01 -450.55 0 -451.23c0.39,-58.23 47.71,-105.33 106.02,-105.33l-0.01 0z"/>
      <path class="fil0" d="M5327.79 5979.09c43.37,0.37 78.46,35.46 78.83,78.82l0 8.62c0.01,43.9 -35.6,79.51 -79.5,79.51l-1775.72 0c-43.66,0 -79.12,-35.24 -79.49,-78.83l0 -9.31c0.37,-43.36 35.46,-78.45 78.82,-78.82l1777.06 0z"/>
      <path class="fil0" d="M3551.4 6257.36l1139.63 0c43.91,0 79.52,35.61 79.52,79.51l-0.01 7.95c0.01,43.9 -35.6,79.51 -79.5,79.51l-1139.64 -0.01c-43.66,0.01 -79.12,-35.23 -79.49,-78.82l0 -9.32c0.37,-43.59 35.83,-78.83 79.5,-78.83l-0.01 0z"/>
      <path id="Avatar_6" class="fil3" d="M3312.89 6201.71c0,-175.17 -142.87,-318.04 -318.04,-318.04 -175.17,0 -318.04,142.87 -318.04,318.04 0,175.17 142.87,318.04 318.04,318.04 175.17,0 318.04,-142.87 318.04,-318.04z"/>
     </g>
    </g>
    <polygon class="fil4" points="2067.24,8613.49 6281.22,8613.49 6281.22,609.57 2067.24,609.57 "/>
    <g>
    </g>
    <g style="clip-path:url(#id2)">
     <g>
      <path class="fil2" d="M6652.27 2650.29l8454.48 0c117.08,0 212.03,94.95 212.03,212.03l-0.01 8746.01c0.01,117.07 -94.94,212.02 -212.02,212.02l-8454.48 0.01c-117.07,-0.01 -212.02,-94.96 -212.02,-212.04l-0.01 -8746c0.01,-117.08 94.96,-212.03 212.04,-212.03z"/>
      <path class="fil1" d="M13251.52 3789.93l1431.17 0c117.08,0 212.03,94.95 212.03,212.03l0 1722.7c0,117.08 -94.95,212.03 -212.03,212.03l-1431.17 0c-117.08,0 -212.03,-94.95 -212.03,-212.03l0.01 -1722.7c-0.01,-117.08 94.94,-212.03 212.02,-212.03z"/>
      <circle id="Avatar_7" class="fil0" cx="13967.11" cy="4611.52" r="424.05"/>
      <path class="fil0" d="M13384.04 5141.59l1166.14 0c43.9,-0.01 79.51,35.6 79.51,79.5l0 0c0,43.9 -35.61,79.51 -79.51,79.51l-1166.14 0c-43.9,0 -79.51,-35.61 -79.51,-79.51l0.01 0c-0.01,-43.9 35.6,-79.51 79.5,-79.51z"/>
      <path class="fil0" d="M13596.06 5406.61l742.08 0c43.9,0 79.51,35.61 79.51,79.51l0 0c0,43.9 -35.61,79.51 -79.51,79.51l-742.08 -0.01c-43.9,0.01 -79.51,-35.6 -79.51,-79.5l0.01 0c-0.01,-43.9 35.6,-79.51 79.5,-79.51z"/>
      <path id="Header" class="fil3" d="M6440.24 2862.32c0,-117.09 94.94,-212.03 212.03,-212.03l8454.48 0c117.09,0 212.02,94.94 212.02,212.03l0 503.56 -8878.52 0 0 -503.56z"/>
      <circle id="buttons" class="fil2" cx="6784.78" cy="3021.34" r="106.01"/>
      <circle id="buttons_2" class="fil2" cx="7102.82" cy="3021.34" r="106.01"/>
      <circle id="buttons_3" class="fil2" cx="7420.85" cy="3021.34" r="106.01"/>
      <path class="fil1" d="M14683.47 6148.71c116.72,0.42 211.25,95.2 211.25,212.02l0 4717.54c0,117.07 -94.95,212.02 -212.03,212.02l-1431.17 0.01c-116.56,-0.01 -211.17,-94.12 -212.01,-210.48l0 -4719.88c0.41,-116.46 94.77,-210.82 211.23,-211.24l1432.73 0z"/>
      <path class="fil0" d="M14312.33 6625.76c58.23,0.38 105.33,47.7 105.33,106.01l0 477.06c0,58.53 -47.47,106 -106.01,106l-689.08 0.01c-58.24,-0.01 -105.51,-46.99 -106,-105.11l0 -478.87c0.49,-58.12 47.76,-105.1 106,-105.1l689.76 0z"/>
      <path class="fil5" d="M13622.57 7526.86l689.08 0c58.54,-0.01 106.01,47.46 106.01,106l0 450.56c0,58.53 -47.47,106 -106.01,106l-689.08 0.02c-58.24,-0.02 -105.51,-47 -106,-105.12l0 -452.36c0.49,-58.13 47.76,-105.11 106,-105.11l0 0.01z"/>
      <path class="fil0" d="M13622.57 8401.46l689.08 0c58.54,0 106.01,47.47 106.01,106.01l0 450.56c0,58.53 -47.47,106 -106.01,106l-689.08 0.01c-58.24,-0.01 -105.51,-46.99 -106,-105.11l0 -452.36c0.49,-58.13 47.76,-105.11 106,-105.11z"/>
      <path class="fil0" d="M13622.57 10150.66l689.08 0c58.54,0 106.01,47.47 106.01,106.01l0 450.56c0,58.53 -47.47,106 -106.01,106l-689.08 0.01c-58.24,-0.01 -105.51,-46.99 -106,-105.11l0 -452.36c0.49,-58.13 47.76,-105.11 106,-105.11z"/>
      <path class="fil3" d="M13622.57 9276.06l689.08 0c58.54,-0.01 106.01,47.46 106.01,106l0 450.56c0,58.53 -47.47,106 -106.01,106l-689.08 0.02c-58.24,-0.02 -105.51,-47 -106,-105.12l0 -452.36c0.49,-58.13 47.76,-105.11 106,-105.11l0 0.01z"/>
      <path class="fil1" d="M12722.38 3816.44c58.12,0.49 105.1,47.76 105.1,106l0 1033.62c0,58.54 -47.47,106.01 -106.01,106.01l-5751.17 0c-58.53,0 -106,-47.47 -106,-106.01l-0.01 -516.81 0 -517.49c0.39,-57.93 47.22,-104.83 105.11,-105.32l5752.98 0z"/>
      <path class="fil0" d="M11450 4190.13c43.59,0.37 78.83,35.83 78.83,79.5l-0.01 27.83c0.01,43.9 -35.6,79.51 -79.5,79.51l-4267 0c-43.66,0 -79.12,-35.24 -79.49,-78.83l0 -29.19c0.37,-43.36 35.46,-78.45 78.82,-78.82l4268.35 0z"/>
      <path class="fil0" d="M7182.32 4501.54l2811.88 0c43.91,-0.01 79.52,35.6 79.52,79.5l-0.02 27.84c0.02,43.67 -35.22,79.13 -78.81,79.5l-2812.57 0c-43.66,0.01 -79.12,-35.23 -79.49,-78.82l0 -29.2c0.37,-43.59 35.83,-78.83 79.5,-78.83l-0.01 0.01z"/>
      <path id="Background_11" class="fil0" d="M12375.7 4439.25c0,-102.18 -83.34,-185.52 -185.52,-185.52 -102.18,0 -185.52,83.34 -185.52,185.52 0,102.18 83.34,185.52 185.52,185.52 102.18,0 185.52,-83.34 185.52,-185.52z"/>
      <path id="Indicator_3" class="fil2" d="M12269.69 4439.25c0,-43.79 -35.71,-79.5 -79.5,-79.5 -43.79,0 -79.5,35.71 -79.5,79.5 0,43.79 35.71,79.5 79.5,79.5 43.79,0 79.5,-35.71 79.5,-79.5z"/>
      <path class="fil1" d="M12722.38 5274.11c58.12,0.49 105.1,47.76 105.1,106l0 821.6c0,58.54 -47.47,106.01 -106.01,106.01l-5751.17 0c-58.53,0 -106,-47.47 -106,-106.01l-0.01 -410.8 0 -411.47c0.39,-57.93 47.22,-104.83 105.11,-105.32l5752.98 0z"/>
      <path class="fil0" d="M11451.98 5584.19c42.49,0.36 76.85,34.93 76.85,77.51l0 0c0,42.8 -34.72,77.52 -77.52,77.52l-4270.97 0c-42.79,0 -77.51,-34.72 -77.51,-77.52l0 -0.67c0.37,-42.27 34.58,-76.48 76.85,-76.84l4272.3 0z"/>
      <path class="fil0" d="M7180.34 5842.59l2815.84 0c42.81,0 77.53,34.72 77.53,77.52l-0.01 0c0.01,42.8 -34.71,77.52 -77.51,77.52l-2815.85 0c-42.79,0 -77.51,-34.72 -77.51,-77.52l0 -0.67c0.37,-42.49 34.94,-76.85 77.52,-76.85l-0.01 0z"/>
      <path id="Background_12" class="fil0" d="M12375.7 5790.91c0,-102.18 -83.34,-185.52 -185.52,-185.52 -102.18,0 -185.52,83.34 -185.52,185.52 0,102.18 83.34,185.52 185.52,185.52 102.18,0 185.52,-83.34 185.52,-185.52z"/>
      <path id="Indicator_4" class="fil2" d="M12269.69 5790.91c0,-43.79 -35.71,-79.5 -79.5,-79.5 -43.79,0 -79.5,35.71 -79.5,79.5 0,43.79 35.71,79.5 79.5,79.5 43.79,0 79.5,-35.71 79.5,-79.5z"/>
      <path class="fil1" d="M12722.38 6519.75c58.12,0.49 105.1,47.76 105.1,106l0 821.6c0,58.53 -47.47,106 -106.01,106l-5751.17 0.02c-58.53,-0.02 -106,-47.49 -106,-106.03l-0.01 -410.79 0 -411.47c0.39,-57.93 47.22,-104.83 105.11,-105.32l5752.98 0z"/>
      <path class="fil0" d="M11451.98 6829.84c42.49,0.37 76.85,34.94 76.85,77.52l0 0c0,42.79 -34.72,77.51 -77.52,77.51l-4270.97 0.01c-42.79,-0.01 -77.51,-34.73 -77.51,-77.52l0 -0.67c0.37,-42.49 34.94,-76.85 77.52,-76.85l4271.63 0z"/>
      <path class="fil0" d="M7180.34 7088.23l2815.84 0c42.81,-0.01 77.53,34.71 77.53,77.51l-0.01 0.01c0.01,42.79 -34.71,77.51 -77.51,77.51l-2815.85 0.01c-42.79,-0.01 -77.51,-34.73 -77.51,-77.53l0 -0.66c0.37,-42.5 34.94,-76.86 77.52,-76.86l-0.01 0.01z"/>
      <path id="Background_13" class="fil0" d="M12375.7 7036.54c0,-102.17 -83.34,-185.51 -185.52,-185.51 -102.18,0 -185.52,83.34 -185.52,185.51 0,102.18 83.34,185.52 185.52,185.52 102.18,0 185.52,-83.34 185.52,-185.52z"/>
      <path id="Indicator_5" class="fil5" d="M12269.69 7036.54c0,-43.79 -35.71,-79.5 -79.5,-79.5 -43.79,0 -79.5,35.71 -79.5,79.5 0,43.79 35.71,79.5 79.5,79.5 43.79,0 79.5,-35.71 79.5,-79.5z"/>
      <path class="fil1" d="M6970.3 10256.68l5751.17 0c58.54,-0.01 106.01,47.46 106.01,106l0 821.61c0,58.53 -47.47,106 -106.01,106l-5751.17 0.01c-58.53,-0.01 -106,-47.48 -106,-106.02l-0.01 -410.79 0 -411.47c0.39,-57.94 47.22,-104.84 105.11,-105.33l0.9 0z"/>
      <path class="fil0" d="M11452.31 10566.77c42.34,0.52 76.52,35.03 76.52,77.5l0 0.01c0,42.79 -34.72,77.51 -77.52,77.51l-4270.97 0.01c-42.79,-0.01 -77.51,-34.73 -77.51,-77.53l0 -0.66c0.37,-42.05 34.22,-76.13 76.19,-76.84l4273.29 0z"/>
      <path class="fil0" d="M7180.34 10825.17l2815.84 0c42.81,-0.01 77.53,34.71 77.53,77.51l-0.01 0.01c0.01,42.79 -34.71,77.51 -77.51,77.51l-2815.85 0.01c-42.79,-0.01 -77.51,-34.73 -77.51,-77.53l0 -0.66c0.37,-42.5 34.94,-76.86 77.52,-76.86l-0.01 0.01z"/>
      <path id="Background_14" class="fil0" d="M12375.7 10773.47c0,-102.18 -83.34,-185.52 -185.52,-185.52 -102.18,0 -185.52,83.34 -185.52,185.52 0,102.18 83.34,185.52 185.52,185.52 102.18,0 185.52,-83.34 185.52,-185.52z"/>
      <path id="Indicator_6" class="fil2" d="M12269.69 10773.47c0,-43.79 -35.71,-79.5 -79.5,-79.5 -43.79,0 -79.5,35.71 -79.5,79.5 0,43.79 35.71,79.5 79.5,79.5 43.79,0 79.5,-35.71 79.5,-79.5z"/>
      <path class="fil1" d="M12722.38 9011.04c58.12,0.49 105.1,47.76 105.1,106l0 821.61c0,58.53 -47.47,106 -106.01,106l-5751.17 0.01c-58.53,-0.01 -106,-47.48 -106,-106.02l-0.01 -410.79 0 -411.47c0.39,-57.94 47.22,-104.84 105.11,-105.33l5752.98 0z"/>
      <path class="fil0" d="M7180.34 9321.12l4270.97 0c42.8,-0.01 77.52,34.71 77.52,77.51l0 0.01c0,42.79 -34.72,77.51 -77.52,77.51l-4270.97 0.01c-42.79,-0.01 -77.51,-34.73 -77.51,-77.53l0 -0.66c0.37,-42.28 34.58,-76.49 76.85,-76.85l0.66 0z"/>
      <path class="fil0" d="M7180.34 9579.53l2815.84 0c42.81,-0.01 77.53,34.71 77.53,77.51l-0.01 0.01c0.01,42.79 -34.71,77.51 -77.51,77.51l-2815.85 0.01c-42.79,-0.01 -77.51,-34.73 -77.51,-77.53l0 -0.66c0.37,-42.5 34.94,-76.86 77.52,-76.86l-0.01 0.01z"/>
      <path id="Background_15" class="fil0" d="M12375.7 9527.83c0,-102.18 -83.34,-185.52 -185.52,-185.52 -102.18,0 -185.52,83.34 -185.52,185.52 0,102.18 83.34,185.52 185.52,185.52 102.18,0 185.52,-83.34 185.52,-185.52z"/>
      <path id="Indicator_7" class="fil2" d="M12269.69 9527.83c0,-43.79 -35.71,-79.5 -79.5,-79.5 -43.79,0 -79.5,35.71 -79.5,79.5 0,43.79 35.71,79.5 79.5,79.5 43.79,0 79.5,-35.71 79.5,-79.5z"/>
      <path class="fil1" d="M12722.38 7765.39c58.12,0.49 105.1,47.76 105.1,106l0 821.6c0,58.53 -47.47,106 -106.01,106l-5751.17 0.02c-58.53,-0.02 -106,-47.49 -106,-106.03l-0.01 -410.78 0 -411.47c0.39,-57.94 47.22,-104.84 105.11,-105.33l5752.98 0z"/>
      <path class="fil0" d="M7180.34 8075.48l4270.97 0c42.8,-0.01 77.52,34.71 77.52,77.51l0 0.01c0,42.79 -34.72,77.51 -77.52,77.51l-4270.97 0.01c-42.79,-0.01 -77.51,-34.73 -77.51,-77.53l0 -0.66c0.37,-42.28 34.58,-76.49 76.85,-76.85l0.66 0z"/>
      <path class="fil0" d="M7180.34 8333.87l2815.84 0c42.81,0 77.53,34.72 77.53,77.52l-0.01 0.01c0.01,42.79 -34.71,77.51 -77.51,77.51l-2815.85 0.01c-42.79,-0.01 -77.51,-34.73 -77.51,-77.53l0 -0.66c0.37,-42.5 34.94,-76.86 77.52,-76.86l-0.01 0z"/>
      <path id="Background_16" class="fil0" d="M12375.7 8282.19c0,-102.18 -83.34,-185.52 -185.52,-185.52 -102.18,0 -185.52,83.34 -185.52,185.52 0,102.18 83.34,185.52 185.52,185.52 102.18,0 185.52,-83.34 185.52,-185.52z"/>
      <path id="Indicator_8" class="fil2" d="M12269.69 8282.19c0,-43.79 -35.71,-79.5 -79.5,-79.5 -43.79,0 -79.5,35.71 -79.5,79.5 0,43.79 35.71,79.5 79.5,79.5 43.79,0 79.5,-35.71 79.5,-79.5z"/>
     </g>
    </g>
    <polygon class="fil4" points="6440.25,11820.36 15318.77,11820.36 15318.77,2650.3 6440.25,2650.3 "/>
    <g id="Graph">
     <path class="fil0" d="M10124.17 1457.66l0 0c43.91,-0.01 79.52,35.6 79.52,79.5l-0.02 503.56c0.02,43.9 -35.59,79.51 -79.49,79.51l-0.01 0c-43.89,0 -79.5,-35.61 -79.5,-79.51l-0.01 -503.56c0.01,-43.9 35.62,-79.51 79.52,-79.51z"/>
     <path class="fil0" d="M10495.21 1033.61l0 0c43.9,-0.01 79.51,35.6 79.51,79.5l-0.01 927.61c0.01,43.9 -35.6,79.51 -79.5,79.51l0 0c-43.9,0 -79.51,-35.61 -79.51,-79.51l0 -927.61c0,-43.9 35.61,-79.51 79.51,-79.51z"/>
     <path class="fil0" d="M10866.25 821.59l0 0c43.9,-0.01 79.51,35.6 79.51,79.5l0 1139.63c0,43.9 -35.61,79.51 -79.51,79.51l0 0c-43.9,0 -79.51,-35.61 -79.51,-79.51l0.01 -1139.63c-0.01,-43.9 35.6,-79.51 79.5,-79.51z"/>
     <path class="fil0" d="M11237.29 1033.61l0 0c43.9,-0.01 79.51,35.6 79.51,79.5l-0.01 927.61c0.01,43.9 -35.6,79.51 -79.5,79.51l0 0c-43.9,0 -79.51,-35.61 -79.51,-79.51l0 -927.61c0,-43.9 35.61,-79.51 79.51,-79.51z"/>
     <path class="fil3" d="M11608.34 609.56l0 0c43.9,0 79.51,35.61 79.51,79.51l-0.01 1351.65c0.01,43.9 -35.6,79.51 -79.5,79.51l0 0c-43.9,0 -79.51,-35.61 -79.51,-79.51l0 -1351.65c0,-43.9 35.61,-79.51 79.51,-79.51z"/>
    </g>
    <g id="Chart">
     <path id="Value_6" class="fil6" d="M18492.93 10950.5c-50.91,54.06 -123.05,88.02 -203.3,88.02 -154.17,0 -279.16,-124.59 -279.16,-278.29 0,-153.69 124.99,-278.28 279.16,-278.28l0 -516.81c-438.6,0 -797.61,357.87 -797.61,795.09 0,437.23 359.01,795.09 797.61,795.09 230.39,0 438.63,-97.15 580.55,-251.72l-377.25 -353.1z"/>
     <path id="Value_7" class="fil7" d="M18287.11 9965.14l0 516.81c153.69,0 278.28,124.59 278.28,278.28l516.81 0c0,-437.22 -357.87,-795.09 -795.09,-795.09z"/>
     <path id="Value_8" class="fil8" d="M18554.71 10760.23c0,90.3 -42.54,170.55 -108.58,222.4l324.98 413.68c189.15,-148.09 311.09,-377.69 311.09,-636.07l-527.49 0z"/>
    </g>
    <g id="Chart_2">
     <path id="Value_9" class="fil6" d="M769.94 4465.87c-39.18,41.45 -94.67,67.47 -156.39,67.47 -118.6,0 -214.73,-95.52 -214.73,-213.35 0,-117.83 96.13,-213.35 214.73,-213.35l0 -396.22c-337.39,0 -613.55,274.35 -613.55,609.57 0,335.21 276.16,609.57 613.55,609.57 177.22,0 337.38,-74.5 446.57,-193l-290.18 -270.7z"/>
     <path id="Value_10" class="fil7" d="M609.57 3710.42l0 396.22c117.83,0 213.35,95.52 213.35,213.35l396.22 0c0,-335.22 -274.36,-609.57 -609.57,-609.57z"/>
     <path id="Value_11" class="fil8" d="M823.53 4319.99c0,67.71 -31.91,127.93 -81.45,166.78l243.72 310.27c141.9,-111.08 233.33,-283.27 233.33,-477.06l-395.61 0z"/>
    </g>
    <g id="Image">
     <path id="Fill_x0020_35" class="fil8" d="M19214.9 3975.08c-0.1,0.27 -0.21,0.53 -0.37,0.85 0.16,-0.27 0.37,-1.33 0.37,-0.85z"/>
     <path id="Fill_x0020_37" class="fil8" d="M19214.67 3975.48c0,0.05 -0.06,0.16 -0.06,0.26 0,-0.26 0.48,-1.06 0.06,-0.26z"/>
     <path id="Fill_x0020_39" class="fil8" d="M19216.49 3971c-0.37,1.05 -0.85,2.06 -1.27,3.13 0.21,-0.53 0.42,-0.95 0.64,-1.48 -5.52,13.78 -2.01,4.82 0.63,-1.64z"/>
     <path id="Fill_x0020_41" class="fil8" d="M19215.3 3974.21c-0.21,0.47 -0.42,1 -0.63,1.48 -1.54,2.97 0.63,-1.48 0.63,-1.48z"/>
     <path id="Fill_x0020_45" class="fil8" d="M19214.69 3975.5c0,-0.05 0,-0.05 0.05,-0.1 -0.05,0.05 -0.05,0.05 -0.05,0.1z"/>
     <path id="Fill_x0020_47" class="fil8" d="M19214.45 3975.87c-0.31,0.64 1.49,-2.43 0,0z"/>
     <path id="Fill_x0020_49" class="fil8" d="M19214.67 3975.5l0.1 -0.1c-0.05,0.05 -0.05,0.1 -0.1,0.1z"/>
     <path class="fil3" d="M18048.58 2597.29l2305.77 0c58.54,0 106.01,47.47 106.01,106.01l0 1457.67c0,58.54 -47.47,106.01 -106.01,106.01l-2305.77 0c-58.54,0 -106.01,-47.47 -106.01,-106.01l0 -1457.67c0,-58.54 47.47,-106.01 106.01,-106.01z"/>
     <polygon id="Mountains" class="fil7" points="18896.68,3074.35 18154.59,4266.98 19638.76,4266.98 "/>
     <polygon id="Mountains_2" class="fil7" points="19625.51,3392.38 18976.18,4266.98 20274.84,4266.98 "/>
     <circle id="Sun" class="fil1" cx="19903.79" cy="3153.85" r="238.52"/>
    </g>
    <g id="Image_2">
     <path id="Fill_x0020_35_2" class="fil8" d="M2067.05 12350.04c0.11,0.27 0.21,0.53 0.37,0.85 -0.16,-0.26 -0.37,-1.32 -0.37,-0.85z"/>
     <path id="Fill_x0020_37_2" class="fil8" d="M2067.29 12350.44c0,0.05 0.05,0.16 0.05,0.27 0,-0.27 -0.47,-1.06 -0.05,-0.27z"/>
     <path id="Fill_x0020_39_2" class="fil8" d="M2065.46 12345.96c0.37,1.06 0.85,2.06 1.27,3.13 -0.21,-0.53 -0.42,-0.95 -0.63,-1.48 5.51,13.78 2.01,4.83 -0.64,-1.64z"/>
     <path id="Fill_x0020_41_2" class="fil8" d="M2066.65 12349.17c0.22,0.48 0.43,1.01 0.64,1.48 1.53,2.98 -0.64,-1.48 -0.64,-1.48z"/>
     <path id="Fill_x0020_45_2" class="fil8" d="M2067.26 12350.47c0,-0.06 0,-0.06 -0.05,-0.11 0.05,0.05 0.05,0.05 0.05,0.11z"/>
     <path id="Fill_x0020_47_2" class="fil8" d="M2067.5 12350.84c0.32,0.63 -1.48,-2.44 0,0z"/>
     <path id="Fill_x0020_49_2" class="fil8" d="M2067.29 12350.47l-0.11 -0.11c0.06,0.05 0.06,0.11 0.11,0.11z"/>
     <path class="fil0" d="M3842.94 10309.68l-3551.4 0c-58.55,0.01 -106.02,47.48 -106.02,106.02l0 2279.26c0,58.54 47.47,106.01 106.01,106.01l3551.41 0.01c58.54,-0.01 106.01,-47.48 106.01,-106.02l0.01 -2279.26c-0.01,-58.54 -47.48,-106.01 -106.02,-106.01z"/>
     <polygon id="Mountains_3" class="fil7" points="2551.56,11025.27 3639.63,12800.97 1463.47,12800.97 "/>
     <polygon id="Mountains_4" class="fil8" points="1429.67,11500.92 2391.61,12800.97 467.75,12800.97 "/>
     <circle id="Sun_2" class="fil1" cx="1020.36" cy="11144.53" r="357.79"/>
    </g>
   </g>
  </g>
  <g id="Lower_x0020_Body_x002f_Sitting">
   <g id="Lower_x0020_Body_x002f_Sitting_x002f_Baggy_x0020_Pants">
    <g id="Seat">
     <path id="Seat_2" class="fil8" d="M6943.8 11263.79c-234.2,0 -424.05,189.85 -424.05,424.06l0 2438.27c0,234.22 189.85,424.06 424.05,424.06l3047.85 0c234.21,0 424.05,-189.84 424.05,-424.06l0 -2438.27c0,-234.21 -189.84,-424.06 -424.05,-424.06l-3047.85 0zm424.05 742.09c-58.55,0 -106.01,47.46 -106.01,106.01l0 1590.18c0,58.55 47.46,106.01 106.01,106.01l2199.75 0c58.55,0 106.02,-47.46 106.02,-106.01l0 -1590.18c0,-58.55 -47.47,-106.01 -106.02,-106.01l-2199.75 0z"/>
    </g>
    <path id="SKIN" class="fil9" d="M13043.71 14417.65c-522.53,-638.09 -876.08,-1111.14 -1060.68,-1419.12 -316.04,-527.4 -574.71,-996.67 -656.35,-1175.93 -194.66,-427.47 448.15,-627.64 593.62,-428.25 220.18,301.78 690.43,1251.4 1410.73,2848.85l-287.32 174.46z"/>
    <path id="LegLower" class="fil10" d="M11972.97 14232.14l-972.48 -2447.91c-207.99,-446.23 796.44,-739.56 949.29,-531.89 347.03,471.48 1171.86,2331.37 1275.24,2471.84l-1252.05 507.96z"/>
    <path id="SKIN_1" class="fil9" d="M9382.95 13741.22c189.44,-276.33 878.47,-1205.96 1253.76,-1590.6 107.84,-110.54 213.08,-216.63 312.6,-315.48 295.83,-293.86 884.94,200.05 589.65,467.7 -735.38,666.56 -1808.33,1566.39 -1897.96,1646.62 -125.65,112.45 -377.09,-34.59 -258.04,-208.23z"/>
    <g id="Left_x0020__x005b_shoe_x005d_">
     <path id="shoe" class="fil11" d="M9505.69 13627.47c-18.37,-25.02 -53.91,-30.95 -77.65,-10.97 -43.33,36.44 -105.65,92.57 -128.15,131.53 -35.83,62.06 -83.91,193.13 -83.91,193.13 72.01,41.58 1294.54,747.41 1294.54,747.41 0,0 146.78,-137.68 45.75,-213.74 -101.06,-76.1 -166.76,-128.34 -166.76,-128.34l-446.84 -615.61c-8.76,-12.08 -25.78,-14.55 -37.6,-5.43l-92.84 71.47c0,0 -127.78,-11.13 -190.69,-47.46 -38.32,-22.14 -85.1,-80.07 -115.85,-122z"/>
    </g>
    <g id="Right_x0020__x005b_shoe_x005d_">
     <path id="shoe_2" class="fil11" d="M12892.41 14292.67c-28.41,-12.48 -62.17,0.16 -72.75,29.34 -19.29,53.19 -45.19,132.98 -45.19,177.96 0,71.69 23.88,209.22 23.88,209.22 83.17,0 1494.83,0 1494.83,0 0,0 58.28,-192.63 -67.27,-208 -125.54,-15.35 -208.57,-27.72 -208.57,-27.72l-694.78 -309.74c-13.64,-6.1 -29.6,0.29 -35.3,14.09l-44.66 108.35c0,0 -116.22,54.22 -188.87,54.22 -44.22,0 -113.72,-26.8 -161.32,-47.73z"/>
    </g>
    <path id="Leg_x0020_and_x0020_Butt" class="fil12" d="M10650.57 11906.49c0,0 -1212.39,-197.51 -1624.16,-270.12 -782.45,-137.97 -1010.62,-559.02 -875.72,-1477.7l1441.66 0c286.17,82.64 2391.45,1022.21 2391.45,1022.21 252.53,125.36 205.51,494.97 159.37,616.74 -2.84,7.45 -1277.14,2188.38 -1277.14,2188.38l-1179.33 -751.31 966.09 -1239.67c0,0 38.26,-77.08 -2.22,-88.53z"/>
   </g>
  </g>
  <g>
   <path class="fil13" d="M9715.77 6123.21c49.32,81.01 98.29,160.68 109.75,270.45 2.35,22.46 89.63,145.72 47.8,175.41 -9.11,21.68 -19.39,49.19 0.36,66.69 43.63,36.99 89.99,70.99 130.9,110.97 65.26,63.78 54.91,109.57 5.38,133.37 -27.59,12.87 -65.19,20.07 -50.95,43.71 41.23,54.71 30.99,94.27 -27.26,121.13 33.9,24.9 48.22,51.15 15.95,80.56 -33.84,48.46 -25.41,83.21 31.58,102.2 45.09,105.99 -21.59,183.72 -124.74,198.8 -82.63,12.07 -186.55,27.74 -247.71,49.86 -165.92,131.29 -251.04,304.22 -243.01,365.45 -229.03,-91.3 -440.28,-165.04 -669.31,-256.34 36.15,-84.32 136.14,-314.15 105.51,-439.72 -128.56,-252.21 -210.76,-531.81 -240.36,-842.47 70.36,-271.44 196.61,-449.73 400.56,-498.53 287.82,-77.49 623.25,37.95 755.55,318.48z"/>
   <path class="fil14" d="M9398.86 6865.43c-16.84,-53.68 -33.67,-107.36 -50.52,-161.04 12.14,-72.75 32.14,-138.49 85.91,-174.18 129.57,-66.56 138.14,-170.62 110.12,-286 31.65,-140.7 105.44,-126.84 204.64,-19.73 22.9,26.77 31.74,38.08 54.64,64.85 90.33,-102.44 274.99,-143.54 30.18,-437.57 -98.8,-76.6 -210.4,-114.06 -341.74,-91.2 -103,-0.65 -228.01,-24.48 -397.3,-41.26 -136.36,26.92 -273.01,-4.85 -408.46,188.37 -96.33,139.08 -145.43,277.92 -159.04,416.55 -20.33,96.09 39.26,344.26 253.02,885.83 61,69.95 107.35,80.21 117.57,-56.48 3.67,-86.89 7.32,-173.76 10.99,-260.65 14.91,-434.72 605.18,-41.84 327.6,342.56 194.17,126.22 447.04,216.41 597.5,203.02 147.72,-13.14 185.83,-97.03 165.57,-214.95 -11.93,-7.72 -64.12,-29.28 -43.25,-108.34 -49.81,55.55 -41.15,91.54 -6.44,96.98 -0.77,14.19 -25.39,22.69 -33.29,11.82 -41.37,-57.95 -37.76,-138.61 9.79,-197.04 19.79,-20.8 38.01,-44.68 59.48,-42.21 -2.62,-34.62 -7.17,-58.13 -28.35,-78.17 -97.11,65.15 -98.15,162.69 -116.35,279.83 -103.98,-8.63 -195.05,-25.87 -307.81,-125.51 -39.68,-70.35 -94.78,-125.11 -134.47,-195.47z"/>
  </g>
  <path id="SKIN_2" class="fil13" d="M6848.34 11340.86c77.66,-157.56 465.71,-2185.4 465.71,-2185.4l580.35 2.18c0,0 -663.02,2148.11 -703.91,2249.43 -53.11,131.61 37.11,322.83 98.29,452.51 9.47,20.06 18.23,38.64 25.66,55.31 -84.88,37.97 -125.65,-7.93 -168.64,-56.33 -48.55,-54.67 -99.92,-112.5 -220.86,-56.23 -46.72,21.73 -90.93,47.41 -134.14,72.53 -149.21,86.72 -286.28,166.41 -472.76,51.34 -29.56,-18.23 -61.95,-86.9 16.32,-140.57 195.01,-133.71 476.01,-367.73 513.99,-444.78zm4887.77 -790.13l-750.78 -732.4 -249.37 431.46 780.73 460.31c195.75,308.36 310.72,441.59 344.91,399.71 28.81,-35.33 15.62,-74.04 3.45,-109.7 -9.49,-27.78 -18.34,-53.7 -6.17,-74.74 27.75,-48 184.48,-20.51 332.11,11.95 147.62,32.43 113.45,-40.08 82.08,-77.92 -139.52,-112.61 -318.52,-215.49 -536.96,-308.68z"/>
  <path id="Clothes_x0020_Back" class="fil15" d="M9082.47 7509.16l229.17 -39.32c361.03,1276.17 2215.95,2146.06 2329.8,2623.12 41.77,174.98 -84.14,263.41 -19.1,316.68l-297.9 218.07c-50.44,-58.86 -158.09,48.79 -382.89,-26.5 -224.8,-75.29 -1859.08,-1580.96 -1859.08,-3092.05z"/>
  <path id="Clothes_x0020_Front" class="fil16" d="M8674.87 7242.72c-58.41,-4.09 -109.05,39.95 -113.16,98.36l-10.85 155.24c-431.3,331.91 -1500.26,1323.71 -1778.82,3170.01 -29.26,193.96 23.66,297.82 65.94,380.82 28.92,56.78 52.87,103.79 42.12,163.19l389.86 107.6c0,-43.83 49.13,-77.21 112.52,-120.24 92.18,-62.58 214.48,-145.62 259.71,-311.13 42.87,-156.87 105.64,-352.84 180.63,-570.82 7.08,288.7 61.83,554.21 181.11,774.13 297.55,548.65 2017.11,-53.06 2196.76,-612.74 95.88,-298.66 -40.16,-549.41 -220.06,-881.04 -228.38,-420.95 -527.44,-872.06 -512.65,-1817.11l19.08 -72.69c4.08,-58.41 -39.94,-109.06 -98.36,-113.15l-713.83 -350.42z"/>
 </g>
</svg>
