<?xml version="1.0" encoding="UTF-8"?>
<!DOCTYPE svg PUBLIC "-//W3C//DTD SVG 1.1//EN" "http://www.w3.org/Graphics/SVG/1.1/DTD/svg11.dtd">
<!-- Creator: CorelDRAW 2020 (64-Bit Evaluation Version) -->
<svg xmlns="http://www.w3.org/2000/svg" xml:space="preserve" width="104.327mm" height="134.271mm" version="1.1" style="shape-rendering:geometricPrecision; text-rendering:geometricPrecision; image-rendering:optimizeQuality; fill-rule:evenodd; clip-rule:evenodd"
viewBox="0 0 6578.24 8466.28"
 xmlns:xlink="http://www.w3.org/1999/xlink"
 xmlns:xodm="http://www.corel.com/coreldraw/odm/2003">
 <defs>
  <style type="text/css">
   <![CDATA[
    .fil1 {fill:#003333}
    .fil8 {fill:#181F31}
    .fil4 {fill:#56919C}
    .fil6 {fill:#89C5CC}
    .fil0 {fill:#CC9933}
    .fil2 {fill:#CCCCCC}
    .fil5 {fill:#DCAE92}
    .fil3 {fill:#E4E4E4}
    .fil7 {fill:#E87613}
    .fil9 {fill:#FFA434}
   ]]>
  </style>
 </defs>
 <g id="Layer_x0020_1">
  <metadata id="CorelCorpID_0Corel-Layer"/>
  <g id="_1705141972784">
   <path class="fil0" d="M3438.76 218.58c38.4,45.72 76.43,90.64 94.01,157.85 3.59,13.76 69.62,82.15 46.42,104.61 -3.61,14.35 -7.4,32.45 6.56,41.46 30.66,18.87 62.74,35.62 92,56.6 46.67,33.48 44.59,62.97 16.03,82.48 -15.95,10.63 -38.66,18.69 -27.55,32.04 30.85,30.13 28.25,55.71 -5.45,77.97 23.46,12.28 34.87,27.25 17.59,48.61 -16.45,33.37 -7.9,54.19 29.36,60.59 38.13,61.67 4.04,116.37 -58.72,135.56 -50.27,15.37 -113.45,34.99 -149.4,54.58 -90.77,97.47 -127.29,213.17 -116.47,250.5 -151.2,-35.04 -289.66,-60.84 -440.85,-95.88 14.48,-55.91 54.84,-208.42 23.85,-283.65 -103.97,-144.72 -181.7,-310.88 -229.65,-501.38 17.98,-175.59 79.59,-298.53 201.85,-348.29 171.73,-75.58 391.43,-35.64 500.41,126.35z"/>
   <path class="fil1" d="M3312.13 710.55c-15.58,-31.8 -31.16,-63.6 -46.74,-95.41 0.64,-46.43 6.84,-89.23 36.9,-116.55 74.3,-53.74 69.74,-119.3 41.33,-188.44 6.32,-90.56 53.55,-88.95 125.46,-31.73 16.79,14.47 23.37,20.68 40.17,35.15 46.47,-72.33 157.48,-115.46 -22.81,-275.15 -68.76,-38.27 -141.76,-50.97 -221.32,-24.26 -64.16,9.39 -144.22,6.44 -251.14,12.1 -82.29,29.71 -170.35,22.93 -236.26,156.04 -46.72,95.71 -64.08,186.77 -59.37,274.32 -3.51,61.73 57.15,210.49 241.65,527.17 44.61,37.72 74.42,39.69 67.79,-46.33 -5.98,-54.41 -11.96,-108.82 -17.94,-163.23 -32.06,-271.93 372.6,-83.57 236.41,182.01 132.82,60.09 298.75,92.17 391.1,69.54 90.67,-22.23 106.42,-78.05 82.59,-149.5 -8.15,-3.67 -42.67,-12.13 -37.21,-63.3 -25.71,39.3 -16.9,60.87 5.21,60.96 0.87,8.9 -13.64,16.53 -19.59,10.52 -31.25,-32.13 -36.68,-82.66 -12.64,-123.54 10.34,-14.82 19.41,-31.41 33,-31.92 -4.92,-21.29 -9.99,-35.49 -25.07,-45.95 -54.23,49.77 -45.61,110.57 -45.8,185.19 -65.52,4.51 -123.83,2.45 -203.46,-48.84 -31.38,-40.01 -70.88,-68.84 -102.26,-108.85z"/>
  </g>
  <polygon id="SKIN" class="fil2" points="2771.22,3377.85 4353.23,6022.71 5539.31,8258.7 5794.77,8258.7 3807.52,3377.85 "/>
  <path id="shoe" class="fil3" d="M5442.12 8131.68c-22.83,-10.03 -49.95,0.13 -58.44,23.57 -15.5,42.74 -36.29,106.84 -36.29,142.97 0,57.59 19.17,168.06 19.17,168.06 66.81,0 1200.83,0 1200.83,0 0,0 46.82,-154.74 -54.03,-167.09 -100.86,-12.33 -167.56,-22.27 -167.56,-22.27l-558.13 -248.82c-10.96,-4.89 -23.78,0.24 -28.36,11.33l-35.88 87.03c0,0 -93.36,43.56 -151.71,43.56 -35.53,0 -91.36,-21.53 -129.59,-38.35z"/>
  <path id="Pant" class="fil4" d="M5209.89 7900.66l492.66 -149.03c0,0 -323.76,-967.91 -793.66,-2130.31 -469.88,-1162.38 -1009.28,-2243.47 -1009.28,-2243.47l-1391.46 0c0,0 599.69,1367.52 1271.51,2485.13 671.83,1117.62 1430.23,2037.67 1430.23,2037.67z"/>
  <path id="SKIN_0" class="fil5" d="M2667.26 3377.85c-149.31,929.42 -437.3,2116.87 -464.47,2153.52 -18.12,24.41 -670.41,242.98 -1956.84,655.7l55.18 225.27c1534.07,-221.34 2342.38,-393.06 2424.97,-515.16 123.87,-183.16 742.36,-1630.17 981.89,-2519.33l-1040.74 0z"/>
  <path id="Pant_1" class="fil6" d="M698.15 5992.32l97.2 362.84c1147.38,100.64 1850.43,27.9 2109.1,-218.14 258.67,-246.05 553.47,-1165.79 884.43,-2759.17l-1326.84 0c-209.69,1304.77 -326.92,1984.54 -351.68,2039.31 -24.77,54.76 -495.5,246.5 -1412.21,575.16z"/>
  <path id="shoe_2" class="fil3" d="M342.63 6147.2c5.93,-24.21 -8.79,-49.16 -33.35,-53.46 -44.79,-7.84 -111.51,-17.19 -147.09,-10.93 -56.72,10.01 -162.19,48.1 -162.19,48.1 11.6,65.79 208.53,1182.58 208.53,1182.58 0,0 160.52,19.23 155.16,-82.25 -5.36,-101.45 -7.15,-168.88 -7.15,-168.88l148.11 -592.85c2.91,-11.63 -4.36,-23.38 -16.07,-25.96l-91.94 -20.22c0,0 -59.11,-84.38 -69.24,-141.85 -6.17,-34.99 5.31,-93.71 15.24,-134.29z"/>
  <path id="SKIN_2" class="fil0" d="M1075.74 4150.36c79.4,-116.68 538.71,-1357.23 538.71,-1357.23l377.09 54.76c0,0 -607.16,1317.33 -651.01,1393.38 -56.97,98.77 -6.58,260.98 27.59,370.96 5.28,17.01 10.19,32.79 14.24,46.87 -71.77,20.73 -99.08,-20.36 -127.86,-63.66 -32.5,-48.91 -66.91,-100.67 -169.41,-69.43 -39.61,12.07 -77.64,27.57 -114.82,42.7 -128.4,52.32 -246.34,100.37 -381.82,-12.01 -21.48,-17.82 -39.57,-76.07 28.7,-110 170.07,-84.57 419.79,-239.31 458.6,-296.34zm4091.62 -576.6l-642.68 -544.87 -175.64 359.75 651.42 325.1c174.14,236.13 273.74,336.47 298.79,300.99 21.12,-29.92 8.37,-60.19 -3.39,-88.11 -9.15,-21.72 -17.69,-42 -9.14,-59.53 19.55,-40.03 146.69,-26.78 266.82,-9.04 120.12,17.73 88.67,-38.48 61.42,-67.05 -118.12,-82.39 -267.32,-154.82 -447.61,-217.25z"/>
  <path id="Coat_x0020_Back" class="fil7" d="M3190.53 1255.87l233.66 -77.27c316.95,791.8 789.69,1557.9 1579.48,2205l-195.3 336.96c-694.13,-408.88 -1351.2,-726.52 -1617.85,-1340.07 -89.48,-205.92 -7.3,-878.4 0,-1124.62z"/>
  <path id="Shirt" class="fil8" d="M2387.99 3484.31c0,0 1003.99,106.45 1580.53,0 47.62,-8.79 55.14,-88.53 33.04,-142.63 -343.88,-842.6 -579.71,-1572.26 -579.71,-2157.51 -94.62,47.71 -331.27,8.74 -331.27,8.74 -423.98,603.12 -618.85,1295.13 -702.58,2291.4z"/>
  <path id="Coat_x0020_Front" class="fil9" d="M2985.8 1150.77l-0.64 -8.41 176.71 0c8.88,52.21 21.87,245.75 40.84,527.96 68.91,1025.5 216.5,3221.87 530.65,4062.4l-2167.5 0c45.73,-955.6 398.06,-2098.37 763.03,-3068.72 -269.32,267.95 -583.85,717.12 -838.04,1464.85l-406 -104.22c413.75,-1782.86 1625.95,-2702.33 1861.16,-2866.42 2.3,-5.31 14.66,-11.63 16.94,-16.88 12.33,0 17.48,-5.18 22.85,9.46z"/>
 </g>
</svg>
