<?xml version="1.0" encoding="UTF-8"?>
<!DOCTYPE svg PUBLIC "-//W3C//DTD SVG 1.1//EN" "http://www.w3.org/Graphics/SVG/1.1/DTD/svg11.dtd">
<!-- Creator: CorelDRAW 2020 (64-Bit Evaluation Version) -->
<svg xmlns="http://www.w3.org/2000/svg" xml:space="preserve" width="84.7326mm" height="87.5904mm" version="1.1" style="shape-rendering:geometricPrecision; text-rendering:geometricPrecision; image-rendering:optimizeQuality; fill-rule:evenodd; clip-rule:evenodd"
viewBox="0 0 4963.39 5130.79"
 xmlns:xlink="http://www.w3.org/1999/xlink"
 xmlns:xodm="http://www.corel.com/coreldraw/odm/2003">
 <defs>
  <style type="text/css">
   <![CDATA[
    .fil5 {fill:#003333}
    .fil6 {fill:#181F31}
    .fil2 {fill:#1820BF}
    .fil4 {fill:#2B44FF}
    .fil0 {fill:#C5CFD6}
    .fil1 {fill:#CC9933}
    .fil3 {fill:#E4E4E4}
    .fil7 {fill:#F2F2F2}
   ]]>
  </style>
 </defs>
 <g id="Layer_x0020_1">
  <metadata id="CorelCorpID_0Corel-Layer"/>
  <g id="_1705299321328">
   <path id="Seat_2" class="fil0" d="M4305.69 3115.99c136.95,0 247.97,111.02 247.97,247.97l0 1425.87c0,136.96 -111.02,247.97 -247.97,247.97l-1782.33 0c-136.96,0 -247.97,-111.02 -247.97,-247.97l0 -1425.87c0,-136.95 111.02,-247.97 247.97,-247.97l1782.33 0zm-247.98 433.96c34.24,0 62,27.76 62,62l0 929.91c0,34.23 -27.76,61.99 -62,61.99l-1286.38 0c-34.23,0 -61.99,-27.76 -61.99,-61.99l0 -929.91c0,-34.24 27.76,-62 61.99,-62l1286.38 0z"/>
   <path id="SKIN" class="fil1" d="M738.56 4960.31c305.57,-373.14 512.32,-649.77 620.27,-829.89 184.82,-308.41 336.09,-582.83 383.82,-687.66 113.84,-249.98 -262.06,-367.03 -347.13,-250.43 -128.76,176.48 -403.75,731.8 -824.97,1665.96l168.02 102.02z"/>
   <path id="LegLower" class="fil2" d="M1364.72 4851.82l568.68 -1431.49c121.64,-260.96 -465.75,-432.48 -555.12,-311.04 -202.94,275.71 -685.28,1363.35 -745.75,1445.49l732.18 297.04z"/>
   <path id="SKIN_0" class="fil1" d="M2879.32 4564.74c-110.79,-161.59 -513.72,-705.23 -733.17,-930.16 -63.06,-64.63 -124.61,-126.67 -182.81,-184.49 -172.99,-171.84 -517.49,116.99 -344.81,273.51 430.04,389.8 1057.48,916 1109.9,962.91 73.48,65.76 220.51,-20.23 150.89,-121.77z"/>
   <path id="shoe" class="fil3" d="M2807.54 4498.22c10.74,-14.63 31.53,-18.11 45.41,-6.42 25.34,21.31 61.78,54.14 74.94,76.92 20.95,36.29 49.07,112.94 49.07,112.94 -42.11,24.32 -757.03,437.07 -757.03,437.07 0,0 -85.83,-80.51 -26.75,-125 59.1,-44.5 97.52,-75.04 97.52,-75.04l261.3 -360c5.13,-7.07 15.08,-8.51 22,-3.18l54.29 41.8c0,0 74.72,-6.51 111.51,-27.76 22.41,-12.94 49.77,-46.82 67.74,-71.34z"/>
   <path id="shoe_2" class="fil3" d="M827.04 4887.22c16.62,-7.3 36.36,0.09 42.54,17.16 11.28,31.11 26.42,77.77 26.42,104.07 0,41.92 -13.96,122.34 -13.96,122.34 -48.64,0 -874.15,0 -874.15,0 0,0 -34.08,-112.64 39.33,-121.63 73.42,-8.97 121.98,-16.21 121.98,-16.21l406.3 -181.13c7.98,-3.56 17.31,0.18 20.64,8.25l26.11 63.36c0,0 67.96,31.71 110.44,31.71 25.87,0 66.51,-15.67 94.34,-27.92z"/>
   <path id="Leg_x0020_and_x0020_Butt" class="fil4" d="M2138.03 3491.83c0,0 708.98,-115.5 949.78,-157.96 457.56,-80.68 590.99,-326.91 512.1,-864.13l-843.06 0c-167.35,48.33 -1398.48,597.77 -1398.48,597.77 -147.67,73.3 -120.18,289.45 -93.2,360.66 1.66,4.35 746.85,1279.72 746.85,1279.72l689.65 -439.35 -564.95 -724.93c0,0 -22.38,-45.08 1.3,-51.77z"/>
   <path id="SKIN_1" class="fil1" d="M4594.52 3027.39c-57.8,-84.93 -392.16,-988 -392.16,-988l-274.5 39.86c0,0 441.98,958.95 473.91,1014.32 41.47,71.9 4.79,189.98 -20.08,270.05 -3.85,12.38 -7.42,23.87 -10.36,34.12 52.24,15.1 72.12,-14.82 93.07,-46.34 23.67,-35.6 48.71,-73.28 123.32,-50.55 28.83,8.79 56.52,20.07 83.58,31.09 93.47,38.08 179.33,73.06 277.95,-8.74 15.63,-12.97 28.81,-55.38 -20.89,-80.08 -123.8,-61.56 -305.58,-174.2 -333.84,-215.73zm-2978.52 -419.73l467.84 -396.64 127.86 261.87 -474.21 236.66c-126.76,171.89 -199.26,244.94 -217.5,219.1 -15.38,-21.77 -6.09,-43.81 2.46,-64.13 6.67,-15.81 12.88,-30.58 6.65,-43.34 -14.22,-29.14 -106.78,-19.49 -194.22,-6.58 -87.44,12.91 -64.55,-28.01 -44.71,-48.81 85.99,-59.98 194.6,-112.7 325.84,-158.15z"/>
   <g>
    <path class="fil1" d="M2564.73 279.4c-14.22,45.19 -28.43,89.68 -20.85,144.28 1.55,11.18 -26.02,81.39 -2.18,90.78 7.01,9.43 15.29,21.54 7.81,32.39 -16.73,23.16 -35.14,45.19 -50.19,69.48 -24.01,38.74 -13.51,59.71 13.36,65.32 14.92,2.93 34.02,1.93 29.94,15.1 -13.44,31.47 -3.75,49.43 27.72,55.48 -13.46,16.13 -17.26,30.58 1.9,40.97 22.21,19.45 22.28,37.31 -3.08,53.34 -9.18,56.79 32.46,86.51 84.29,81.47 41.51,-4.04 93.79,-8.88 126.09,-5.47 96.17,43.81 158.15,117.48 161.58,148.13 100.13,-71.69 193.75,-132.74 293.89,-204.42 -27.62,-36.56 -103.62,-136.05 -103.8,-200.6 32.15,-137.7 38.55,-283.12 15.72,-437.31 -66.61,-123.21 -149.17,-194.56 -253.91,-193.81 -148.84,-3.13 -297.69,93.01 -328.27,244.88z"/>
    <path class="fil5" d="M2807.24 601.39c1.75,-28.05 3.49,-56.09 5.23,-84.14 -14.59,-33.83 -32.16,-63.32 -62.51,-74.19 -70.8,-16.76 -87.41,-66.2 -87.63,-125.51 -32.19,-64.44 -66.31,-48.89 -101.6,14.92 -7.9,15.72 -10.83,22.27 -18.73,37.99 -56.07,-38.86 -150.54,-36.69 -67.01,-208.58 38.74,-48.97 88.38,-80.49 154.8,-85.13 49.88,-12.65 107.65,-39.16 187.73,-67.56 69.35,-3.27 131.81,-35.03 220.62,42.45 63.37,55.92 103.79,117.37 126.98,182.97 21.36,44.16 22.17,171.64 -16.67,459.85 -21.21,41.22 -42.46,51.74 -63.77,-13.31 -12.18,-41.7 -24.35,-83.39 -36.53,-125.08 -59.26,-209.03 -298.48,52.15 -117.86,205.32 -79.06,84.45 -190.89,158.45 -265.45,169.97 -73.2,11.31 -101.73,-24.81 -106.01,-84.42 4.86,-5.17 27.58,-21.88 8.01,-57.72 30.8,20.98 30.91,39.46 14.73,46.26 2.07,6.79 15.03,7.96 17.55,1.75 13.13,-33.05 1.73,-71.74 -28.33,-94.38 -12.08,-7.71 -23.78,-17.11 -33.9,-13.35 -2.87,-17.1 -3.47,-29.04 4.39,-41.3 54.89,19.97 67.07,67.15 89.92,121.78 49.39,-16.63 91.49,-35.89 134.24,-97.71 10.82,-38.87 30.99,-72.02 41.81,-110.89z"/>
   </g>
   <path id="Coat_x0020_Back" class="fil0" d="M3055.04 920.34l-185.59 57.41c-230.72,576.4 -559.36,1020.43 -1134.29,1491.48l142.17 245.3c505.3,-297.65 983.62,-528.88 1177.72,-975.51 65.14,-149.9 5.32,-639.43 0,-818.67z"/>
   <path id="Shirt" class="fil6" d="M3639.25 2542.54c0,0 -730.87,77.49 -1150.55,0 -34.67,-6.4 -40.14,-64.44 -24.05,-103.82 250.33,-613.38 403.91,-1033.63 403.91,-1459.68 80.51,-16.93 259.23,-104.54 259.23,-104.54 308.64,439.05 450.5,942.8 511.45,1668.04z"/>
   <path id="Coat_x0020_Front" class="fil7" d="M3216.25 837.7c-7.79,-1.1 -4.26,0.64 -11.72,0l-128.64 0c-6.47,38.02 -15.92,178.9 -29.73,384.34 -50.17,746.52 -157.61,2345.37 -386.29,2957.24l1577.84 0c-33.29,-695.64 -289.77,-1527.52 -555.45,-2233.89 196.05,195.06 425.01,522.03 610.06,1066.34l295.54 -75.86c-301.19,-1297.84 -1183.61,-1967.17 -1354.84,-2086.63 -1.68,-3.87 -3.33,-7.71 -4.99,-11.53l-11.8 0z"/>
  </g>
 </g>
</svg>
