<?xml version="1.0" encoding="UTF-8"?>
<!DOCTYPE svg PUBLIC "-//W3C//DTD SVG 1.1//EN" "http://www.w3.org/Graphics/SVG/1.1/DTD/svg11.dtd">
<!-- Creator: CorelDRAW 2020 (64-Bit Evaluation Version) -->
<svg xmlns="http://www.w3.org/2000/svg" xml:space="preserve" width="106.362mm" height="140.921mm" version="1.1" style="shape-rendering:geometricPrecision; text-rendering:geometricPrecision; image-rendering:optimizeQuality; fill-rule:evenodd; clip-rule:evenodd"
viewBox="0 0 6772.2 8972.6"
 xmlns:xlink="http://www.w3.org/1999/xlink"
 xmlns:xodm="http://www.corel.com/coreldraw/odm/2003">
 <defs>
  <style type="text/css">
   <![CDATA[
    .fil16 {fill:none}
    .fil4 {fill:none;fill-rule:nonzero}
    .fil17 {fill:#003333}
    .fil11 {fill:#191847}
    .fil12 {fill:#393F82}
    .fil14 {fill:#77D692}
    .fil18 {fill:#A8E5BA}
    .fil8 {fill:#C5CFD6}
    .fil10 {fill:#C7D1D9}
    .fil13 {fill:#CC9933}
    .fil15 {fill:white;fill-opacity:0.000000}
    .fil0 {fill:white;fill-rule:nonzero;fill-opacity:0.000000}
    .fil9 {fill:black;fill-opacity:0.101961}
    .fil6 {fill:#1C9126;fill-opacity:0.400000}
    .fil5 {fill:#28AA4D;fill-opacity:0.400000}
    .fil7 {fill:#43D26C;fill-opacity:0.400000}
    .fil19 {fill:black}
    .fil1 {fill:#1C9126}
    .fil2 {fill:#28AA4D}
    .fil3 {fill:#43D26C}
   ]]>
  </style>
   <clipPath id="id0" style="clip-rule:nonzero">
    <path d="M4413.72 8692.68l2358.48 0 0 -4481.1 -2358.48 0 0 4481.1z"/>
   </clipPath>
   <clipPath id="id1" style="clip-rule:nonzero">
    <path d="M4413.72 8692.68l2358.48 0 0 -4481.1 -2358.48 0 0 4481.1z"/>
   </clipPath>
   <clipPath id="id2">
    <path d="M3232.71 4501.16c225.62,-2.39 526.46,-50.16 847.49,-254.45l126.06 281.87c-221.43,220.31 -532.78,401.33 -805.01,393.67 -214.55,-6.04 -324.18,-266.21 -168.54,-421.08z"/>
   </clipPath>
   <clipPath id="id3">
    <path d="M3232.71 4501.16c225.62,-2.39 526.46,-50.16 847.49,-254.45l126.06 281.87c-221.43,220.31 -532.78,401.33 -805.01,393.67 -214.55,-6.04 -324.18,-266.21 -168.54,-421.08z"/>
   </clipPath>
   <clipPath id="id4">
    <path d="M-0 8827.46l2139.48 0 0 -2863.87 -2139.48 0 0 2863.87z"/>
   </clipPath>
   <clipPath id="id5">
    <path d="M2624.23 6432.24c-214.49,-28.04 -411.57,-53.81 -528.36,-30.75 -131.04,-426.67 -22.23,-695.31 78.22,-943.3 60.54,-149.47 118.04,-291.43 118.16,-455.97 0.36,-479.16 384.11,-1216.7 440.58,-1216.7l16.2 0 447.47 0 51.24 0c23.01,296.52 121.27,617.56 220.15,940.66 23.1,75.46 46.23,151.02 68.44,226.41 374.2,85.16 1205.12,-211.27 1205.12,-211.27 0,0 209.77,435.08 193.94,620.36 -483.66,253.28 -898.17,366.22 -1239.69,373.68 10.86,203.15 -13.81,396.47 -96.67,573.1 -111.03,236.68 -573.38,176.25 -974.8,123.78z"/>
   </clipPath>
   <clipPath id="id6">
    <path d="M2624.23 6432.24c-214.49,-28.04 -411.57,-53.81 -528.36,-30.75 -131.04,-426.67 -22.23,-695.31 78.22,-943.3 60.54,-149.47 118.04,-291.43 118.16,-455.97 0.36,-479.16 384.11,-1216.7 440.58,-1216.7l16.2 0 447.47 0 51.24 0c23.01,296.52 121.27,617.56 220.15,940.66 23.1,75.46 46.23,151.02 68.44,226.41 374.2,85.16 1205.12,-211.27 1205.12,-211.27 0,0 209.77,435.08 193.94,620.36 -483.66,253.28 -898.17,366.22 -1239.69,373.68 10.86,203.15 -13.81,396.47 -96.67,573.1 -111.03,236.68 -573.38,176.25 -974.8,123.78z"/>
   </clipPath>
 </defs>
 <g id="Layer_x0020_1">
  <metadata id="CorelCorpID_0Corel-Layer"/>
  <g style="clip-path:url(#id0)">
   <polygon class="fil0" points="4413.72,4211.58 6772.2,4211.58 6772.2,8692.68 4413.72,8692.68 "/>
  </g>
  <g style="clip-path:url(#id1)">
   <g id="_1705146389792">
    <path id="1" class="fil1" d="M4632.26 4216.73c218.83,519.32 590.82,880.17 787.83,1420.16 116.83,320.23 165.53,668.43 168.48,1025.03 1.62,193.69 -1.77,387.51 -2.68,581.21 -0.87,188.9 -6.01,376.58 -22.07,564.25 -16.14,188.68 -34.2,375.12 -42.16,564.96 -6.2,147.91 -9.03,319.96 -59.23,454.9 -39.93,107.29 -141.39,123.01 -168.31,-7.12 -14.96,-72.34 -13.07,-153.12 -11.42,-227.46 2.1,-95.4 7.66,-190.65 10.49,-286.02 11.38,-382.71 -3.37,-765.51 4.34,-1148.38 7.53,-374.09 55.68,-747.76 2.41,-1119.34 -43.98,-306.86 -155.75,-570.35 -284.18,-822.96 -123.55,-243.02 -258.03,-480.15 -341.54,-756.6 -23.97,-79.4 -42.51,-161.67 -51.4,-247.05 3.88,-1.81 7.03,-0.34 9.44,4.41z"/>
    <path id="Thi_x0020_Succs_x0021__2" class="fil2" d="M4572.62 5241.3c43.33,31.25 67.54,76.97 96.83,122.06 36.42,56.08 79.24,106.71 115.65,162.82 75.92,117 142.64,241.19 211.84,362.92 131.4,231.07 231.16,477.35 280.57,744.67 51.23,277.04 65.03,562.99 86.52,844.17 22.78,298.01 45.74,598.18 48.75,897.33 1.35,134.03 8.6,276.31 -7.51,409.4 -10.02,82.85 -47.47,153.47 -131.87,152.79 -179.27,-1.41 -263.45,-199.74 -298.6,-362.4 -51.75,-239.49 -62.09,-493.88 -53.89,-738.81 9.91,-295.34 61.22,-586.22 83.42,-880.4 23.54,-311.44 10.24,-617.39 -96.96,-910.63 -54.16,-148.18 -117.01,-292.82 -173.47,-440.02 -24.04,-62.67 -43.72,-127.06 -76.18,-185.41 -36.11,-64.93 -80.94,-123.85 -109.23,-193.76 8.04,5.09 16.09,10.17 24.12,15.26z"/>
    <path id="Thi_x0020_Succs_x0021__3" class="fil3" d="M6637.79 4622.06c5.49,-4.87 11,-9.74 16.49,-14.61 -15.83,75.93 -44.44,137.62 -66.29,207.03 -19.66,62.4 -29.62,133.02 -42.86,201.23 -31.07,160.21 -66.98,316.8 -96.35,478.35 -58.1,319.7 -47.12,664.13 -9.01,1018.83 36,335.07 92.92,669.61 120.05,1004.59 22.49,277.82 32.14,564.28 10.7,829.35 -14.57,180.02 -62.35,394.94 -192.52,376.79 -61.28,-8.56 -93.24,-92.52 -106.13,-187.3 -20.69,-152.24 -25.02,-312.29 -33.09,-463.68 -17.99,-337.88 -21.58,-674.74 -25.13,-1009.16 -3.36,-315.52 -12.62,-637.28 5.9,-944.84 17.87,-296.8 73.73,-564.21 153.62,-810.98 42.08,-130 82.17,-263.04 129.45,-386.95 22.67,-59.43 50.37,-111.94 73.04,-171.33 18.24,-47.76 32.75,-96.78 62.13,-127.32z"/>
    <path id="Thi_x0020_Succs_x0021__4" class="fil1" d="M4627.99 6099.5c23.7,-39.74 75.88,91.34 83.83,107.83 -3.35,-8.2 -6.74,-16.39 -10.14,-24.58 47.07,78.15 90.11,159.5 116.88,249.11 26.48,88.69 49.22,179.2 74.07,268.53 46.63,167.6 106.79,330.45 149.04,499.58 41.15,164.81 51.53,326.82 41.57,497.26 -10.36,177.18 -16.69,357.06 -4.61,534.13 5.77,84.57 33.29,163.34 52.13,244.76 18.88,81.5 33.76,164.08 56.08,244.57 5.13,-10.48 5.78,24.58 5.76,27.24 -0.13,20.1 -2.95,36.96 -9.43,56.03 -16.65,49.03 -47.78,90.69 -95.17,104.21 -85.63,24.43 -165.12,-53.37 -192.74,-135.51 -39.62,-117.87 -61.46,-248.13 -80.32,-372.02 -17.32,-113.6 -21.41,-227.88 -16.27,-343.04 10.14,-227.12 51.28,-451.26 62.42,-678.3 12.11,-247.18 -36.91,-479.42 -77.97,-720.04 -19.78,-115.94 -38.68,-230.78 -77.18,-341.24 -15.58,-44.73 -35.88,-84.2 -57.19,-125.5 -12.12,-23.5 -36.62,-65.42 -20.78,-93.03z"/>
    <path id="Thi_x0020_Succs_x0021__5" class="fil3" d="M5322.74 5713.4c-9.82,283.16 -26.75,564.2 -64.56,844.4 -38.58,285.93 -82.9,570.89 -120.01,857.09 -36.13,278.57 -74,561.78 -68.97,844.25 3.72,208.05 -30.81,560.04 200.56,662.72 234.33,103.99 284.58,-340.09 299.98,-486.69 29.48,-281.23 19.93,-565.43 5.63,-848.19 -14.7,-290.21 -39.22,-578.96 -69.61,-868.11 -33.76,-321.19 -60.26,-643.82 -81.52,-965.91 -10.51,-159.32 -13.11,-318.38 -10.19,-477.73 2.73,-150.37 -2.98,-302.3 -56.52,-445.08 -2.8,2.02 -5.59,4.06 -8.39,6.09m-26.4 877.17l0 0 0 0z"/>
    <path id="Thi_x0020_Succs_x0021__6" class="fil1" d="M6448.24 6869.02c-42.15,61.31 -84.62,122.04 -124.43,186.98 -71.21,116.21 -135.6,245.44 -154.97,411.59 -40.55,347.73 -8.02,723.3 -0.17,1081.67 1.6,73.23 -7.67,144.25 21.23,213.95 26.21,63.21 75.2,111.35 121.9,111.11 99.97,-0.57 84.72,-245.06 84.87,-352.7 0.31,-188.61 -20.87,-379.14 -19.06,-567.6 1.84,-186.69 13.19,-373.9 40.3,-551.21 27.44,-179.48 67.62,-351.82 120.66,-512.63 7.36,-22.32 60.18,-194.8 10.28,-165.06m-100.61 143.92l0 0 0 0z"/>
    <path id="Thi_x0020_Succs_x0021__7" class="fil2" d="M6090.98 4755.91c-65.72,0 -65.31,327.26 -67.31,369.29 -7.14,151.7 -5.46,303.42 -9.97,455.13 -9.89,331.1 -22.04,665.11 -71.83,992.36 -26.8,176.2 -57.88,351.58 -91.32,526.43 -33.52,175.35 -78.54,350.48 -100.59,528.04 -21.19,170.71 -9.21,344.78 -6.32,516.31 2.92,172.59 8.14,345.52 30.76,516.58 5.6,42.23 12.15,84.3 19.15,126.28 5.83,34.97 2.43,78.33 12.32,111.57 15.83,53.24 83.71,70.67 129.42,62.35 123.69,-22.56 202.68,-177.66 244.93,-291.01 53.96,-144.69 82.6,-301.67 110.85,-454.16 32.01,-172.77 50.77,-348.19 59.56,-524.08 17.89,-357.48 -5.07,-715.34 -30.71,-1071.7 -14.27,-198.18 -30.73,-395.48 -55.95,-592.43 -25.1,-196.11 -57.31,-391.34 -78.28,-588.02 -15.23,-142.94 -30.24,-286.07 -40.11,-429.54 -2.36,-34.2 -4.34,-253.4 -54.61,-253.4z"/>
    <path id="Thi_x0020_Succs_x0021__8" class="fil1" d="M6008.68 7134.67c-10.72,-343.58 -148.99,-1852.74 -180.46,-2268.22 -7.87,-104.01 -83.61,-536.99 -93.43,-654.88 -26.65,33.33 -24.38,552 -24.07,671.19 0.3,117.89 -14.34,233.83 -21.86,351.08 -7.67,119.64 -184.77,1664.85 -207.77,1779.81 -45.72,228.71 -76.31,463.4 -99.91,697.27 -23,227.93 -58.74,468.4 -27.98,697.52 7.08,52.75 18.28,104.65 36.49,153.1 19.69,52.36 33.19,100.77 48.99,155.56 25.42,88.24 71.41,165.7 142.1,202.12 144.91,74.7 222.72,-94.39 262.18,-241.61 62.99,-235.11 103.43,-474.06 122.39,-720.97 20.97,-273.18 51.94,-546.9 43.35,-821.96z"/>
   </g>
  </g>
  <polygon class="fil4" points="4413.72,8692.68 6772.2,8692.68 6772.2,4211.58 4413.72,4211.58 "/>
  <path id="Leaf_x0020_Me_x0020_Alone_x0021_" class="fil5" d="M2560.23 4067.58c236.95,-17.76 501.55,176.53 615.83,378.71 92.13,163 76.62,377.05 19.71,550.23 -38.11,115.93 -121.28,281.25 -259.98,282.85 -173.54,2.02 -181.91,-215.95 -185.26,-343.39 -4.46,-169.41 -25.52,-317 -156.87,-432.48 -16.2,-14.26 -33.22,-27.6 -50.24,-40.94 -15.11,-11.84 -30.21,-23.69 -44.74,-36.15 -2.32,-2 -4.67,-3.99 -7.01,-5.99 -46.44,-39.67 -95.23,-81.34 -101.16,-146.74 -8.61,-94.77 44.02,-111.84 124.39,-94.22 2.59,0.55 9.63,3.27 19.2,6.96 41.06,15.82 128.62,49.56 112.06,9.21 -6.23,-15.19 -29.03,-27.23 -57.78,-36.25 -74.41,-8.22 -163.16,-17.77 -188.68,-12.06 -275.35,61.39 -382.54,449.04 -411.02,695.33 -3.18,27.58 -5.74,55.25 -7.97,82.96l-50.5 0c3.52,-65.51 8.14,-130.91 18.92,-195.69 40.58,-243.97 167.47,-602.27 445.75,-641.87 10.28,-1.46 48.03,-1.72 93.78,1.01 21.68,-12.31 45.96,-19.76 71.55,-21.48z"/>
  <path id="Leaf_x0020_Me_x0020_Alone_x0021__2" class="fil5" d="M1255.08 2216.23c14.03,142.44 9.68,284.45 31.4,426.67 17.36,113.66 54.08,222.78 104.15,326.29 48.15,99.56 148.04,184.31 174.02,290.66 16.55,67.78 7.28,163.11 -15.55,229.4 -27.77,80.59 -13.01,74.22 42.32,141.85 108.43,132.52 206.06,268.44 275.09,426.72 99.45,227.99 164.66,494.49 127.75,744.05 -4.71,31.69 -10.26,145.42 -54.08,153.37 0,0 8,-328.42 -12.08,-464.57 -77.47,-525.32 -455.76,-871.45 -702.08,-1317.31 -13.54,-22.98 -42.13,-77.73 -62,-113.84 -31.38,-57.04 -62.93,-165.55 -105.41,-207.83 -30.98,-30.85 -38.93,-25.74 -36.15,-6.12 4.41,31.05 35.73,98.45 45.28,117.19 19.71,38.66 41.39,79.77 61.6,113.66 92.41,157.08 195.57,328.54 291.01,490.44 -412.8,93.7 -703.51,-400.69 -814.29,-725.72 -91.27,-267.81 -200.47,-893.92 224.82,-916.83 181.02,-9.35 404.88,95.91 424.2,291.93z"/>
  <path id="Leaf_x0020_Me_x0020_Alone_x0021__3" class="fil6" d="M3120.74 1040.93c-219.42,68.46 -365.34,245 -440.33,475.75 -49.04,150.9 -54.66,305.92 -81.92,460.99 -41,233.32 -129.21,410.12 -301.6,576.35 -53.4,51.48 -92.74,104.34 -120.72,160.88 -55.52,56.47 -103.85,120.35 -139.37,198.47 -45.37,99.77 -58.2,219.45 -5.83,318.92 14.08,26.74 49.2,80.41 85.63,104.78 -136.32,289.27 -211.27,606.08 -202.82,922.48 5.11,191.01 14.46,2257.54 25.37,2448.31 2.95,51.21 19.67,135.8 44.83,49.9 23.01,-78.58 -5.85,-2077.37 -8.53,-2159.46 -12.99,-399.88 -24.09,-763.47 141.1,-1137.09 17.34,-39.15 35.7,-78 54.82,-116.52 1.13,-0.66 2.17,-1.43 3.23,-2.19 0.73,0.56 1.38,1.17 2.12,1.7 1.22,-2.15 2.88,-4.75 4.84,-7.63 5.49,-5.64 10.28,-12.77 14.84,-20.74 14.65,-20.23 31.23,-44 31.31,-57.01 0,-0.1 -0.05,-0.27 -0.05,-0.37 102.27,-166.34 219.41,-323.51 339.05,-477.63 -0.89,1.13 129.79,-176.16 109.58,-78.11 -9.74,47.24 -105.86,137.21 -144.69,187.26 -85.86,111.35 -186.72,252.42 -270.51,388.85 -11.28,6.45 -27.21,38.16 -38.73,61.77 -6.37,11.96 -12.3,24.02 -18.13,34.54 296.93,97.76 527.91,-99.15 685.42,-328.18 0.18,-0.27 0.35,-0.56 0.54,-0.83 47.93,-63.28 97.02,-126.11 158.35,-176.15 102.34,-83.47 211.95,-98.19 332.6,-139.29 329.04,-112.02 468.95,-536.94 513.37,-852.24 50.13,-355.69 -195.08,-901.13 -623.17,-866.05 -53.57,4.23 -103.78,13.92 -150.63,28.54z"/>
  <path id="Leaf_x0020_Me_x0020_Alone_x0021__4" class="fil7" d="M2665.38 35.86c-315.39,322.6 -467.77,770.06 -588.42,1190.72 -134.75,469.83 -223.77,946.92 -227.19,1435.39 -2.24,320.94 -11.12,643.87 7.93,964.43 6.77,113.85 18.31,227.9 36.67,340.52 1.52,9.25 42.59,260.71 81.91,202.12 22.34,-33.32 -42.11,-260.86 -46.98,-298.75 -27.41,-213.46 -33.78,-428.49 -32.43,-643.49 2.19,-353.99 -8.42,-706.16 28.09,-1058.84 5.44,-52.66 9.75,-107.97 22.47,-159.48 13.51,-54.77 -3.69,-30.86 40.32,-52.54 42.77,-21.08 95.61,-18.06 139.99,-44.51 176.03,-104.9 266.07,-374.34 336.15,-551.13 80.16,-202.17 128.88,-417.76 167.77,-630.51 28.58,-156.32 49.01,-311.68 60.56,-470.01 3.64,-49.9 3.86,-102.08 13.85,-151.14 2.68,-13.24 16.17,-36.65 15.68,-48.37 -1.04,-24.81 -16.27,-39.39 -17.52,-60.24 -13.21,11.68 -26.16,23.63 -38.85,35.86z"/>
  <polygon id="Seat_x0020_Stuff" class="fil8" points="1913.08,6520.43 3346.71,6520.43 3534.56,8827.45 1400.48,8827.45 "/>
  <polygon id="Seat_x0020_Stuff_2" class="fil9" points="1913.08,6520.43 2354.01,6520.43 2617.9,8827.45 1400.48,8827.45 "/>
  <path id="Fill_x0020_1" class="fil10" d="M3542.69 8316.44c0,0 232.11,-558.19 310.15,-529.33 67.99,25.11 392.13,203.05 379.35,238.14 -13.4,36.74 -97.68,146.19 -97.68,146.19 0,0 188.78,158.13 289.59,291.41 53.13,70.25 121.87,233.36 66.49,263.28 -55.39,29.92 -1015.9,-290.46 -947.88,-409.7z"/>
  <path id="Fill_x0020_3" class="fil10" d="M4722.63 8784.21c-3.82,-177.53 -1.69,-479.81 56.75,-485.22 72.16,-6.66 441.14,13.97 444.67,51.14 3.69,38.98 48.86,211.34 48.86,211.34 0,0 256.87,24 405.09,100.77 78.12,40.46 117.45,158.01 80.31,208.91 -37.13,50.9 -1041.62,176.47 -1031.46,39.5 0,0 -2.64,-52.36 -4.22,-126.44z"/>
  <path id="Fill_x0020_5" class="fil11" d="M3649.32 7962.31c110.08,227.19 377.01,247.09 546.58,247.09 64.82,0 333.31,-557.52 377.9,-630.95 242.62,-399.42 543.02,-898.53 543.02,-898.53 0,0 -505.55,-329.46 -859.46,-207.82 0,0 -718.13,1263.02 -608.05,1490.2z"/>
  <path id="Fill_x0020_7" class="fil12" d="M2273.93 5739.01c0,0 -12.62,755.49 380.78,900.37 393.4,144.88 1386.15,260.55 1977.92,108.2 -121.59,407.84 -42.66,1725.7 74.23,1943.39 37,68.92 467.17,-55.53 613.04,-127.42 145.86,-71.87 403.71,-2251.9 123.07,-2436.1 -280.64,-184.21 -2066.98,-388.44 -2066.98,-388.44l-1102.06 0z"/>
  <path id="SKIN" class="fil13" d="M4190.52 4226.26l-644.12 353.69 237.87 255.95 468.03 -429.63c246.55,-68.12 359.3,-117.96 338.24,-149.51 -17.74,-26.6 -46.37,-25.67 -72.73,-24.83 -20.54,0.66 -39.71,1.28 -51.31,-11.19 -26.46,-28.49 24.04,-128.06 75.99,-220.51 51.94,-92.44 -3.6,-84.4 -35.37,-71.1 -103.96,70.56 -209.49,169.6 -316.6,297.12zm647.61 496.28l-282.92 155.83 16.11 284.67c0,0 183.25,-132.6 340.89,-176.67 201.01,-56.19 282.35,-99.1 380.57,-224.59 52.55,-67.13 97.16,-202.1 47.14,-246.06 -19.19,-16.86 -90.69,22.97 -163.64,63.61 -55.6,30.98 -112.05,62.42 -146.83,69.6 -46.8,9.67 -41.33,-51.17 -36.95,-99.78 3.14,-34.89 5.72,-63.47 -12,-55.21 -82.82,1.43 -142.37,228.6 -142.37,228.6z"/>
  <path id="Mask" class="fil14" d="M3232.71 4501.16c225.62,-2.39 526.46,-50.16 847.49,-254.45l126.06 281.87c-221.43,220.31 -532.78,401.33 -805.01,393.67 -214.55,-6.04 -324.18,-266.21 -168.54,-421.08z"/>
  <g style="clip-path:url(#id2)">
   <polygon class="fil15" points="3159.51,4246.7 4206.26,4246.7 4206.26,4922.47 3159.51,4922.47 "/>
  </g>
  <g style="clip-path:url(#id3)">
   <g id="_1705146391232">
   </g>
  </g>
  <path id="1" class="fil16" d="M3232.71 4501.16c225.62,-2.39 526.46,-50.16 847.49,-254.45l126.06 281.87c-221.43,220.31 -532.78,401.33 -805.01,393.67 -214.55,-6.04 -324.18,-266.21 -168.54,-421.08z"/>
  <g id="_1705146391712">
   <path class="fil13" d="M3012.14 2820.47c47.35,37.31 94.19,73.9 125.38,136.74 6.38,12.86 85.71,66.91 67.39,93.88 -0.62,14.94 -0.64,33.61 15.01,39.65 34.19,12.35 69.35,22.32 102.59,37.05 53.03,23.51 57.02,53.09 32.8,78.25 -13.57,13.78 -34.38,26.42 -20.65,37.34 36.7,23.44 39.38,49.27 10.64,78.2 25.72,7.32 40.07,19.78 27.37,44.45 -9.4,36.38 3.33,55.2 41.49,53.87 50.38,53.13 27.91,114.22 -30.19,146.09 -46.54,25.52 -104.97,57.91 -136.49,84.66 -69.69,115.02 -82.03,236.91 -63.66,271.6 -156.68,-3.57 -298.87,-0.62 -455.55,-4.19 2.82,-58.25 11.38,-217.33 -34.72,-285.33 -132.53,-121.71 -243.54,-270.01 -330.1,-448.5 -18.31,-177.29 17.33,-311.5 127.98,-385.83 154.25,-110.02 379.67,-115.68 520.71,22.07z"/>
   <path class="fil17" d="M2988.05 3332.88c-21.93,-28.24 -43.88,-56.48 -65.82,-84.71 -8.91,-46.03 -11.59,-89.62 12.52,-122.81 62.41,-68.4 44.43,-132.28 2.13,-194.79 -12.36,-90.83 34.66,-98.95 117.51,-57.16 19.58,10.86 27.36,15.64 46.94,26.5 31.08,-81.06 131.96,-146.51 -79.1,-267.34 -75.84,-23.7 -150.63,-21.25 -223.8,21.5 -61.5,22.47 -141.25,36.01 -245.81,63.58 -75.25,46.29 -163.7,57.69 -201.51,202.82 -26.52,104.23 -24.95,197.81 -2.3,283.41 9.21,61.75 99.77,196.35 347.26,471.52 51.86,28.12 81.74,23.95 57.5,-59.73 -17.1,-52.57 -34.19,-105.13 -51.29,-157.69 -87.58,-262.25 351.2,-159.2 271.14,131.36 143.67,32.1 314.31,29.72 400.96,-11.64 85.07,-40.61 89.16,-99.03 50.92,-164.77 -8.82,-1.95 -44.68,-3.22 -49.8,-54.94 -17.35,44.14 -4.2,63.65 17.68,59.19 2.69,8.62 -10.09,19.15 -17.2,14.42 -37.5,-25.33 -53.25,-74.18 -37.89,-119.54 7.18,-16.78 12.73,-35.04 26.07,-38.34 -9.25,-20.04 -17.17,-33.03 -34.23,-40.27 -43.39,60.35 -22.37,118.68 -7.22,192.5 -63.85,17.93 -121.92,27.87 -211.19,-6.46 -39.25,-33.1 -84.22,-53.5 -123.47,-86.61z"/>
  </g>
  <path id="Mask_0" class="fil18" d="M2624.23 6432.24c-214.49,-28.04 -411.57,-53.81 -528.36,-30.75 -131.04,-426.67 -22.23,-695.31 78.22,-943.3 60.54,-149.47 118.04,-291.43 118.16,-455.97 0.36,-479.16 384.11,-1216.7 440.58,-1216.7l16.2 0 447.47 0 51.24 0c23.01,296.52 121.27,617.56 220.15,940.66 23.1,75.46 46.23,151.02 68.44,226.41 374.2,85.16 1205.12,-211.27 1205.12,-211.27 0,0 209.77,435.08 193.94,620.36 -483.66,253.28 -898.17,366.22 -1239.69,373.68 10.86,203.15 -13.81,396.47 -96.67,573.1 -111.03,236.68 -573.38,176.25 -974.8,123.78z"/>
  <g>
  </g>
  <g style="clip-path:url(#id4)">
   <g>
    <path id="leaf" class="fil1" d="M749.31 5965.12c44.86,-5.48 92.74,-3.56 134.45,14.17 88.71,37.68 113.93,142.53 112.7,227.76 -1.31,91.73 -20.78,191.92 48.92,265.84 32.04,33.97 71.9,59.97 103.36,94.57 33.62,36.98 60,79.3 79.53,124.73 35.86,83.46 53.46,181.59 20.67,269.14 -28.87,77.07 -101.52,146.65 -85.82,234.3 16.38,91.43 108.51,161.32 166.1,229.43 65.19,77.05 125.21,175.55 135.07,276.63 9.46,96.85 -32.69,194.81 -97.35,268.02 -129.21,146.31 -323.44,218.03 -519.28,217.59 -83.14,-0.2 -177.29,-3.96 -249.04,-48.65 -22.18,-13.84 -33.88,-29.33 -47.06,-50.88 -11.82,-19.32 -27.44,-31.89 -45.51,-45.57 -39.71,-30.03 -68.38,-70.52 -86.68,-115.84 -71.06,-175.99 -14.26,-393.73 85.21,-550.01 23.56,-37.03 42.86,-72.66 31.42,-116.8 -11.95,-46.07 -41.32,-87.62 -67.29,-127.22 -25.67,-39.14 -54.97,-76.48 -75.04,-118.8 -21.01,-44.32 -26.93,-90.75 -23.21,-139.27 6.98,-91.14 46.3,-175.24 101.97,-248.53 53.62,-70.6 116.58,-138.14 116.72,-230.65 0.15,-98.03 -65.36,-185.24 -37.44,-284.92 11.55,-41.28 34.76,-83.63 72.17,-108.37 35.87,-23.74 83.24,-31.5 125.43,-36.66z"/>
    <path id="middle_x0020_thing" class="fil19" d="M720 6121.85c0.84,-13.17 16.45,-21.08 28.74,-17.64 16.18,4.53 15.87,19.66 15.44,33.12 -1.31,41.42 4.68,81.67 14.63,121.85 20.68,83.54 58.9,160.51 89.18,240.77 30.25,80.17 44.45,162.97 26.7,247.81 -16.73,80 -43.01,157.92 -60.14,238.02 -15.09,70.6 -31.15,145.04 -8.16,215.46 22.11,67.77 71.01,122.97 106.21,184.23 72.88,126.8 105.22,267.47 109.55,412.23 2,67.22 0.2,135.06 -15.39,201 -8.97,37.95 -21.02,89.27 -53.54,115.46 -14.99,12.1 -40.63,16.27 -53.25,-1.62 -11.85,-16.8 -1.45,-42.79 2.3,-60.68 16.29,-77.46 19.57,-156.61 15.67,-235.26 -3.78,-76.18 -12.77,-152.24 -36.74,-224.98 -22.24,-67.52 -56.03,-128.17 -95.79,-187.23 -40.53,-60.19 -82.65,-120.52 -99.4,-191.83 -17.01,-72.44 -3.19,-146.14 15.29,-217.2 19.55,-75.15 45.14,-148.14 71.61,-221.28 25.79,-71.24 34.93,-138.64 20.69,-213.22 -28.12,-147.32 -103.41,-285.6 -93.6,-439.02z"/>
    <path id="leaf_2" class="fil2" d="M1933.53 6140.07c55.69,16.91 111.02,44.22 150.71,87.01 84.43,91.02 58.53,228.57 11.93,329.05 -50.17,108.12 -126.2,216.83 -83.34,340.88 19.69,57.04 52.82,108.71 71.52,166.19 19.96,61.4 28.57,125.37 27.47,189.47 -2.04,117.72 -33.34,243.34 -118.33,330.07 -74.85,76.36 -197.2,120.97 -225.19,233.13 -29.19,117.01 42.17,248.05 73.85,358.91 35.87,125.45 54.3,273.65 12.33,398.68 -40.21,119.85 -141.73,214.05 -256.65,267.15 -229.6,106.09 -496.19,89.77 -726.42,-13.01 -97.75,-43.65 -206.54,-97.25 -267.29,-187.75 -18.77,-27.96 -24.32,-52.47 -28.42,-84.92 -3.67,-29.1 -15.38,-52.16 -29.4,-77.81 -30.81,-56.37 -43.1,-119.36 -40.62,-182.67 9.67,-245.89 191.91,-474.55 391.82,-608 47.36,-31.62 88.96,-63.81 98.88,-122.15 10.35,-60.89 -2.18,-125.52 -11.76,-186.07 -9.46,-59.84 -24.16,-119.42 -25.33,-180.11 -1.23,-63.56 16.41,-121.73 46.5,-177.34 56.52,-104.48 147.37,-183.71 251.74,-241.59 100.52,-55.76 210.42,-103.01 259.62,-212.69 52.15,-116.22 21.29,-253.89 106.96,-357.58 35.48,-42.93 85.24,-81.05 142.37,-90.87 54.8,-9.42 114.66,6.1 167.05,22z"/>
    <path id="middle_x0020_thing_2" class="fil19" d="M1819.75 6332.27c7.9,-15.2 30.36,-16.38 42.98,-5.83 16.61,13.9 8.3,31.69 0.73,47.47 -23.3,48.5 -37.4,99.46 -46.84,152.44 -19.61,110.11 -15.19,221.65 -21.81,332.92 -6.62,111.16 -33.44,216.98 -98.82,308.42 -61.65,86.24 -133.41,164.98 -195.57,251.11 -54.78,75.93 -112.72,155.91 -122.74,251.65 -9.65,92.14 18.72,183.46 27.86,274.73 18.91,188.96 -17.03,373.07 -87.99,547.32 -32.96,80.91 -70.7,160.55 -123.61,230.66 -30.47,40.38 -71.55,95 -123.46,109.01 -23.94,6.49 -56.22,-2.04 -61.63,-29.95 -5.08,-26.16 20.76,-51.57 34.57,-70.85 59.79,-83.44 105.21,-175.74 141.94,-271.23 35.58,-92.49 64.97,-187.55 75.06,-286.59 9.37,-91.92 1.58,-181.72 -14.06,-272.81 -15.93,-92.82 -33.68,-186.62 -15.86,-280.15 18.08,-95 73.01,-175.29 132.01,-249.97 62.4,-79.01 130.77,-152.26 200.22,-225.19 67.68,-71.08 113.81,-146.34 136.28,-242.41 44.37,-189.79 28.67,-393.67 120.75,-570.75z"/>
    <path id="leaf_3" class="fil3" d="M208.14 6839.59c92.21,0 173.27,48.91 229.13,118.29 65.39,81.25 78.6,180.46 105.15,277.27 13.21,48.18 35.94,96.02 75.76,128.76 36.22,29.77 82.2,35.73 125.55,50.27 86.64,29.08 156.61,99.11 184.23,184.55 33.71,104.21 -1.99,209.33 4.15,314.96 5.65,97 101.23,157.51 178.14,204.01 75.83,45.86 144.14,88.78 166.98,178.11 24.22,94.74 32.34,200.49 -1.2,294.07 -55.85,155.85 -219.31,224.46 -377.25,235.11 -143.33,9.65 -323.56,-5.51 -431.21,-109.62 -64.41,-62.3 -87.74,-149.43 -84.84,-236.12 1.8,-53.89 12.47,-107.3 26.26,-159.4 9.78,-36.91 22.99,-73.67 26.76,-111.83 10,-101.5 -83.75,-120.99 -163.56,-148.86 -101.41,-35.43 -172.4,-102.33 -221.77,-195.51 -45.98,-86.78 -65.27,-184.18 -37.71,-279.73 14.08,-48.79 39.6,-93.04 74.23,-130.7 15.24,-16.56 36.73,-30.39 50.48,-47.79 12.84,-16.26 10.05,-37.32 5.62,-56.37 -20.46,-87.96 -84.22,-160.78 -107.01,-248.58 -20.58,-79.24 -8.42,-177.88 63.99,-229.01 31.29,-22.09 69.87,-31.66 108.1,-31.89z"/>
    <path id="middle_x0020_thing_3" class="fil19" d="M333.78 7068.77c97.73,104.16 124.29,245.48 132.09,382.46 4.37,76.82 -0.18,157.83 22.38,232.33 19.29,63.77 64.53,112.52 111.16,158.59 93.86,92.74 198.55,187.01 226.01,321.23 16.11,78.77 5.23,160.12 27.49,238.02 20.24,70.8 55.88,140.38 99.22,200.16 34.9,48.15 80.37,85.03 118.52,129.9 11.64,13.7 28.31,33.87 23.51,53.22 -5.62,22.64 -34.46,29.82 -54.92,26.26 -47.7,-8.31 -87.85,-53.88 -119.05,-87.01 -45.6,-48.45 -84.36,-100.56 -115.86,-159.01 -34.97,-64.93 -63.13,-133.81 -75.16,-206.64 -12.49,-75.56 -6.27,-154.29 -34.78,-226.82 -47.98,-122 -164.33,-194.02 -248.46,-289.11 -104.82,-118.5 -89.18,-265.97 -78.45,-411.74 5.9,-80.1 11.77,-170.57 -28.69,-243.7 -15.44,-27.91 -49.87,-53.94 -56.51,-85.68 -6.08,-29.08 27.11,-58.46 51.48,-32.47z"/>
   </g>
  </g>
  <polygon class="fil16" points="-0,8827.46 2139.48,8827.46 2139.48,5963.58 -0,5963.58 "/>
  <g style="clip-path:url(#id5)">
   <polygon class="fil15" points="2035.57,3785.51 4936.24,3785.51 4936.24,6480.13 2035.57,6480.13 "/>
  </g>
  <g style="clip-path:url(#id6)">
   <g>
   </g>
  </g>
  <path id="1" class="fil16" d="M2624.23 6432.24c-214.49,-28.04 -411.57,-53.81 -528.36,-30.75 -131.04,-426.67 -22.23,-695.31 78.22,-943.3 60.54,-149.47 118.04,-291.43 118.16,-455.97 0.36,-479.16 384.11,-1216.7 440.58,-1216.7l16.2 0 447.47 0 51.24 0c23.01,296.52 121.27,617.56 220.15,940.66 23.1,75.46 46.23,151.02 68.44,226.41 374.2,85.16 1205.12,-211.27 1205.12,-211.27 0,0 209.77,435.08 193.94,620.36 -483.66,253.28 -898.17,366.22 -1239.69,373.68 10.86,203.15 -13.81,396.47 -96.67,573.1 -111.03,236.68 -573.38,176.25 -974.8,123.78z"/>
 </g>
</svg>
