<?xml version="1.0" encoding="UTF-8"?>
<!DOCTYPE svg PUBLIC "-//W3C//DTD SVG 1.1//EN" "http://www.w3.org/Graphics/SVG/1.1/DTD/svg11.dtd">
<!-- Creator: CorelDRAW 2020 (64-Bit Evaluation Version) -->
<svg xmlns="http://www.w3.org/2000/svg" xml:space="preserve" width="248.948mm" height="159.548mm" version="1.1" style="shape-rendering:geometricPrecision; text-rendering:geometricPrecision; image-rendering:optimizeQuality; fill-rule:evenodd; clip-rule:evenodd"
viewBox="0 0 25349.54 16246.22"
 xmlns:xlink="http://www.w3.org/1999/xlink"
 xmlns:xodm="http://www.corel.com/coreldraw/odm/2003">
 <defs>
  <style type="text/css">
   <![CDATA[
    .fil15 {fill:#003333}
    .fil19 {fill:#181F31}
    .fil7 {fill:#1820BF}
    .fil9 {fill:#191847}
    .fil8 {fill:#2B44FF}
    .fil21 {fill:#393F82}
    .fil10 {fill:#915B3C}
    .fil11 {fill:#C21B15}
    .fil17 {fill:#C5CFD6}
    .fil12 {fill:#C7D1D9}
    .fil14 {fill:#CC9933}
    .fil18 {fill:#E4E4E4}
    .fil0 {fill:#F2F2F2}
    .fil16 {fill:#FF4133}
    .fil20 {fill:#C5CFD6;fill-rule:nonzero}
    .fil13 {fill:black;fill-opacity:0.101961}
    .fil3 {fill:#56919C;fill-opacity:0.250980}
    .fil1 {fill:#89C5CC;fill-opacity:0.250980}
    .fil6 {fill:#C1DEE2;fill-opacity:0.250980}
    .fil4 {fill:#56919C;fill-opacity:0.501961}
    .fil2 {fill:#89C5CC;fill-opacity:0.501961}
    .fil5 {fill:#C1DEE2;fill-opacity:0.501961}
   ]]>
  </style>
 </defs>
 <g id="Layer_x0020_1">
  <metadata id="CorelCorpID_0Corel-Layer"/>
  <g id="_1705148215456">
   <path id="Background_x0020_Shape" class="fil0" d="M31.11 12273.88c625.15,-2262.39 6951,-973.53 11098.14,-1672.96 4147.15,-699.41 9053.57,-3956.75 12300.73,-2361.14 3247.05,1595.59 -207.81,5452.64 -7655.38,6323.04 -7447.57,870.4 -16368.65,-26.57 -15743.5,-2288.94z"/>
   <path id="Fill_x0020_5" class="fil1" d="M2476.16 1707.3c-42.38,42.33 -25.93,192.69 -26.81,248.35 -1.37,86.64 4.04,172.47 11.26,258.8 4.88,57.82 32.22,609.36 108.36,567.01 42.91,-23.87 16,-183.42 15.92,-233.91 -0.16,-112.19 -4.85,-224.1 -12.31,-336.05 -6.95,-103.93 -11.31,-206.67 -7.33,-310.79 0.98,-25.41 24.76,-307.45 -89.09,-193.42z"/>
   <path id="Fill_x0020_7" class="fil2" d="M4321.68 1639.34c-364.06,2.88 -727.99,20.85 -1091.89,31.84 -175.12,5.32 -350.11,12.05 -525.02,21.75 -59.62,3.31 -187.46,-15.79 -237.11,15.98 -110.25,70.5 67.54,86.99 114.93,85.27 720.18,-26.11 1440.57,-60.52 2161.34,-62.13 353.58,-0.77 706.97,9.28 1060.58,7.04 135.16,-0.87 284.83,-59.11 318.96,98.23 38.52,177.51 -5.74,375.18 -17.78,553.59 -8.03,119.09 -5.17,235.72 0.18,354.71 3.45,76.22 -5.52,162.11 7.97,236.93 12.96,72.04 64.74,115.23 112.21,34.54 28.37,-48.23 14.26,-167.28 16.14,-223.13 2.54,-75.22 0.16,-150.44 0.16,-225.69 -0.03,-183.66 25.89,-366.57 22.47,-550.2 -2.21,-118.41 -8.49,-333.05 -157.83,-361.5 -164.45,-31.33 -366.6,0.16 -534.89,-1.75 -417,-4.78 -833.31,-18.73 -1250.44,-15.47z"/>
   <path id="Fill_x0020_9" class="fil1" d="M3318.51 2788.04c-137.29,0 -274.59,0.83 -411.86,3.11 -117.73,1.93 -302.82,-22.59 -412.39,19.53 -75.04,28.83 -94.94,112.59 0,134.9 103.54,24.33 259.58,-15.47 367.94,-17.38 543.22,-9.59 1091.7,-22.1 1634.19,12.29 508.34,32.17 1026.45,63.39 1535.51,29.42 42.84,-2.86 261.28,-11.56 161.59,-93.44 -58.13,-47.8 -293.85,-16.38 -369.42,-18.67 -266.56,-8.02 -533.39,-9.81 -799.87,-19.91 -263.01,-9.99 -524.85,-39.55 -787.96,-46.88 -305.65,-8.51 -611.98,-2.96 -917.74,-2.96z"/>
   <path id="face" class="fil1" d="M3181.13 2007.22c213.97,9.35 425.68,319.66 209.17,469.61 -203.11,140.74 -583.74,-13.49 -470.81,-286.36 -16.24,39.44 20.54,-42.87 21,-43.41 21.47,-25.29 60.03,-53.32 86.5,-73.25 30.28,-22.84 61.84,-47.95 98.36,-59.41 23.98,-7.51 20.21,20.75 55.77,-7.19m-104.21 -111.92c-100.14,39.09 -145.84,83.19 -214.67,163.02 -47.6,55.23 -108.3,84.3 -107.76,158.93 0.1,16.52 21.33,34.67 25,50.6 5.07,21.98 -0.8,50.16 3.21,73.52 41.43,241.13 329.09,322.41 539.67,276.88 183.41,-39.65 320.6,-215.72 278.12,-407.19 -42.79,-192.74 -328.58,-392.02 -523.56,-315.75z"/>
   <path id="Fill_x0020_13" class="fil1" d="M2987.72 2231.88c0,86.73 137.02,86.73 137.02,0 0,-85.75 -137.02,-89.44 -137.02,0z"/>
   <path id="Fill_x0020_15" class="fil2" d="M3159.15 2214.32c0,68.92 108.84,68.92 108.84,0 0,-68.13 -108.84,-71.04 -108.84,0z"/>
   <path id="Fill_x0020_17" class="fil1" d="M3192.85 2356.47c-34.87,13.39 -79.07,-14.39 -107.71,3.9 -50.68,32.47 0.13,61.81 27.29,74.85 122.34,58.7 144.08,-103.16 80.42,-78.75z"/>
   <path id="Fill_x0020_19" class="fil1" d="M5060.98 2164.24c-3.64,1.54 -16.62,7.03 0,0zm-532.69 -77.87c-91.57,20.67 -168.87,106.18 -268.34,94.73 -76.22,-8.76 -127.83,-82.34 -203.08,-93 -96.27,-13.69 -358.27,205.91 -220.52,243.58 80.36,21.98 124.95,-124.88 195.94,-132.69 56.18,-6.17 132.55,62.71 190.74,72.53 108.58,18.29 183.16,-41.52 278.48,-80.11 103.56,-41.89 162.48,-4.14 252.55,42.44 71.1,36.75 138.08,60.7 219.42,45.53 76.35,-14.23 172.29,-92.76 249.13,-84.7 75.27,7.89 128.99,86.45 206.42,93.75 31.92,2.99 79.45,13.88 74.09,-35.37 -4.29,-39.44 -48.31,-32.76 -75.84,-47.09 -70.8,-36.88 -137.03,-102.18 -222.46,-96.61 -64.28,4.21 -122.77,49.36 -182.01,70.96 -193.98,70.75 -303.04,-136.89 -494.51,-93.95z"/>
   <path id="Fill_x0020_21" class="fil3" d="M4690.32 3335.63c-374.17,3.45 -749.63,9 -1122.74,38.99 -88.48,7.11 -991.75,92.41 -990.02,98.55 3.15,11.34 119.35,28.72 118.62,31.38 -7.84,-19.4 -25.73,-27.45 -53.69,-24.08 856.67,0 1710.63,-76.71 2568.45,-62.91 215.54,3.45 431.88,2.02 647.27,8.81 53.74,1.7 187,40.22 229.22,15.95 110.84,-63.71 -90.52,-71.06 -123.85,-73.73 -422.15,-33.79 -849.93,-37.18 -1273.26,-32.95z"/>
   <path id="Fill_x0020_23" class="fil4" d="M2466.67 3517.43c-55.95,56.1 -4.44,257.86 -2.23,333.7 3.21,109.63 0.56,220.04 10.18,329.39 10.99,124.9 28.02,258 60.78,379.18 18.05,66.76 81.42,172.85 106.52,51.56 17.92,-86.67 -9.29,-201.61 -18.78,-289.87 -12.66,-118.08 -15.73,-234.61 -16.19,-353.28 -0.43,-103.37 -2.42,-207.22 -10.91,-310.27 -4.4,-53.5 -31.31,-237.97 -129.38,-140.42z"/>
   <path id="Fill_x0020_25" class="fil4" d="M3874.04 4544.97c-265.53,4.55 -531.64,10.82 -796.71,27.39 -108.66,6.82 -217.24,16.95 -325.46,28.43 -22.09,2.34 -266.58,12.26 -157.34,102.51 49.3,40.74 252.15,-15.6 319.15,-21.48 112.67,-9.86 225.31,-16.29 338.33,-21.07 261.83,-11.12 524.45,-20.94 786.54,-16.37 478.67,8.3 954.25,12.02 1433.02,1.31 68.02,-1.51 600.96,12.75 619.06,-58.03 14.57,-57.03 -176.02,-30.87 -210.77,-29.85 -127.46,3.82 -254.94,2.93 -382.46,2.28 -540.23,-2.77 -1083.57,-24.27 -1623.37,-15.13z"/>
   <path id="Fill_x0020_27" class="fil3" d="M6000.41 3422.82c8.43,236.41 48.68,472.56 61.55,709.69 5.88,108.39 12.8,216.7 18.1,325.13 1.73,35 -12.36,119.27 28.99,139.4 56.75,27.58 64.4,-28.02 75.01,-65.63 30.69,-108.66 9.92,-249.78 7.15,-361.4 -2.7,-108.06 -2.89,-216.34 -10.86,-324.22 -8.16,-110.19 -30.33,-218.33 -40.65,-328.15 -4.34,-46.44 10.89,-123.74 -38.42,-152.57 -42.62,-24.93 -102.73,6.5 -100.87,57.74z"/>
   <path id="face_2" class="fil3" d="M3390.47 3816.08c1,0.78 2,1.57 3.02,2.34 -1.03,-0.77 -2.03,-1.56 -3.02,-2.34m-225.66 -70.05c84.14,24.03 153.24,15.09 233.63,76.33 66.64,50.81 134.98,125.11 157.08,207.23 51.08,189.72 -122.05,293.72 -284.32,295.77 -166.23,2.08 -412.29,-36.47 -403.77,-249.53 6.55,-163.7 126.09,-323.44 297.38,-329.8m5.93 -107.22c-218.2,10.85 -394.21,255.91 -392.33,462.15 2.29,249.99 285.53,314.41 486.76,316.13 227.08,1.94 453.53,-154.86 392.69,-410.24 -48.76,-204.59 -277.3,-378.93 -487.13,-368.04z"/>
   <path id="Fill_x0020_31" class="fil4" d="M2951.24 3974.44c0,69.73 110.14,69.73 110.14,0 0,-68.89 -110.14,-71.85 -110.14,0z"/>
   <path id="Fill_x0020_33" class="fil3" d="M3182.26 3943.86c0,70.27 111.03,70.27 111.03,0 0,-69.46 -111.03,-72.44 -111.03,0z"/>
   <path id="Fill_x0020_35" class="fil3" d="M3054.91 4102.88c-71.69,71.55 180.13,197.02 239.55,97.48 48.79,-81.8 -57.44,-54.67 -95.09,-59.09 -40.92,-4.82 -111.07,-71.72 -144.46,-38.39z"/>
   <path id="Fill_x0020_37" class="fil3" d="M5068.36 3945.3c-6.89,2.9 -6.89,2.9 0,0zm-945.7 -116.5c-72.58,13.6 -310.79,93.98 -314,180.08 -5.88,156.53 227.41,-3.8 278.07,-24.39 137.61,-55.93 209.93,58.17 348.19,64.18 120.05,5.22 230.46,-97.53 343.56,-85.38 118.52,12.74 175.53,138.8 312.3,71.88 72.4,-35.41 70.57,-90.01 -10.66,-95.16 -49.12,-3.1 -82.85,17.19 -134.06,-3.93 -80.07,-33.03 -112.31,-86.81 -208.12,-78.26 -72.31,6.47 -137.65,47.2 -208.24,62.98 -161.59,36.11 -251.23,-121.2 -407.03,-92z"/>
   <path id="point" class="fil3" d="M5625.89 4013.27c-5.01,2.1 -5.01,2.1 0,0zm18.3 -65.17c0.8,0.35 6.27,7.94 0,0zm-83.2 -49.76c-3.13,2.42 -3.13,2.42 0,0zm1.8 -0.62c16.14,9.67 145.87,98.36 51.66,119.27 -47.85,10.59 -87.43,-85.65 -51.66,-119.27m-42.94 -98.25c-207.8,94.75 15.81,433.81 178.89,296.06 68.62,-57.98 77.65,-175.15 10.89,-235.56 -39.98,-36.18 -135.49,-85.32 -189.77,-60.51z"/>
   <path id="Fill_x0020_41" class="fil1" d="M3569.14 5135.6c-259.31,0.08 -520.88,-5.36 -779.85,10 -43.56,2.59 -209.58,-5.71 -232.04,39.84 -41.07,83.32 129.75,41.97 154.56,39.47 515.61,-51.62 1054.2,-21.9 1571.5,-7.19 423.09,12.02 843.9,19.48 1266.48,41.3 111.07,5.71 222.05,12.04 333.04,18.75 36.19,2.18 127.25,26.16 134.87,-31.63 7.07,-53.48 -106.52,-41.38 -134.89,-42.89 -225.64,-11.88 -451.11,-24.33 -676.7,-37.02 -542.93,-30.6 -1093.18,-30.73 -1636.97,-30.63z"/>
   <path id="Fill_x0020_43" class="fil2" d="M2548.92 5228.25c-48.42,48.14 -25.73,231.99 -27.08,292.75 -2.37,106.29 -7.38,212.48 -9.62,318.72 -2.34,111.05 0.92,222.61 7.46,333.51 2.75,46.56 40.99,271.57 101.14,142.79 26.88,-57.55 -0.65,-217.83 -0.24,-283.03 0.75,-118.65 7.14,-236.82 13.04,-355.33 5.09,-101.87 5.27,-203.84 9.72,-305.73 1.4,-32.49 5.25,-243.66 -94.43,-143.68z"/>
   <path id="Fill_x0020_45" class="fil2" d="M6061.32 6177.54c-252.37,25.86 -508.77,13.67 -762.07,32.76 -218.31,16.47 -436.43,23.2 -655.3,27.84 -495.61,10.45 -992.1,20.66 -1486.28,61.96 -112.62,9.4 -225.1,19.4 -338.04,24.44 -56.46,2.5 -293.47,-23.2 -311.12,36.34 -30.04,101.41 223.38,61.27 278.04,59.67 120.22,-3.44 239.86,-12.15 359.72,-21.28 503.92,-38.39 1009.72,-49.86 1514.72,-65.81 274.61,-8.68 547.34,-28.78 821.36,-47.04 136.59,-9.1 273.54,-9.41 410.11,-18.24 35.75,-2.32 162.24,2.23 187.94,-26.52 17.65,-19.74 22.12,-67.95 -19.07,-64.12z"/>
   <path id="Fill_x0020_47" class="fil1" d="M5975.78 5245.49c8.66,242.02 22.34,483.82 30.51,725.81 2.44,72.78 -19.54,203.19 20.99,267.4 65.17,103.19 116.03,-6.04 127.97,-70.34 37.67,-202.95 -2.82,-427.13 -13.36,-631.35 -3.99,-77.89 20.2,-251.28 -17.45,-321.01 -35.86,-66.41 -151.84,-59.73 -148.65,29.5z"/>
   <path id="hola_x0020_:_x0029_" class="fil2" d="M5552.1 5590.18c96.69,26.19 110.81,236.36 1.72,251.93 -162.37,23.15 -91.36,-208.6 -1.72,-251.93m-27.08 -83.6c-29.5,-0.92 -97.56,-9.05 -115.74,14.96 -15.2,20.09 0.15,62.47 -1.62,81.6 -6.38,68.38 -61.99,107.88 -37.13,188.61 16.86,54.8 62.04,106.29 117.11,125.31 290.57,100.44 287.04,-461 37.37,-410.48z"/>
   <path id="Fill_x0020_51" class="fil2" d="M2901.67 5544.3c-0.72,0.92 -1.46,1.83 -2.16,2.78 0.7,-0.95 1.44,-1.86 2.16,-2.78m228.22 -121.42c-1.13,-9.73 -2.29,-19.46 -3.42,-29.18 157.56,74.36 282.91,212.71 230.59,398.39 -39.9,141.66 -184.11,191.9 -318.47,156.94 -148.72,-38.74 -219.79,-161.32 -179.7,-311.84 18.51,-69.46 75.33,-162.79 148.75,-185.12 34.19,-10.4 109.79,16.11 122.26,-29.17m-92.14 -58.81c-39.84,2.69 -78.64,19.29 -111.16,42 30.45,-25.76 71.02,-41.09 111.16,-42m1.16 -91.49c-98.45,3.01 -162.97,62.6 -221.35,134.17 -18.33,22.46 -80.29,82.03 -72.61,112.31 6.06,23.93 21.93,58.93 55.36,32.23 -175.06,348.89 277.18,646.49 553.25,403.85 257.66,-226.42 2.02,-693.18 -314.65,-682.56z"/>
   <path id="Fill_x0020_53" class="fil2" d="M2949.47 5596.68c0,46.44 72.12,46.44 72.12,0 0,-46.47 -72.12,-46.47 -72.12,0z"/>
   <path id="Fill_x0020_55" class="fil1" d="M3072.53 5604.6c0,47.23 73.27,47.23 73.27,0 0,-47.23 -73.27,-47.23 -73.27,0z"/>
   <path id="Fill_x0020_57" class="fil1" d="M3128.39 5770.43c-34.27,2.77 -159.77,-8.87 -181.8,21.15 -36.81,50.19 21.92,51.94 50.78,57.36 26,4.88 138.99,2.13 154.91,-20.97 14.07,-20.4 10.78,-60.51 -23.89,-57.54z"/>
   <path id="Fill_x0020_59" class="fil2" d="M4640.45 5640.27c-5.9,2.45 -5.9,2.45 0,0zm-474.2 -34.67c-77.27,5.68 -142.68,50.11 -216.55,67.84 -78.83,18.94 -112.97,-15.87 -184.66,-38.66 -74.57,-23.71 -127.62,-14.33 -187.56,36.59 -33.95,28.86 -108.47,95.29 -87.23,146.56 48.6,117.33 158.63,-73.57 210.38,-82.46 80.72,-13.85 152.55,56.74 245.66,36.56 84.35,-18.3 159.2,-76.22 247.3,-76.84 73.68,-0.54 143.12,39.79 215.85,49.55 111.05,14.9 183.96,-24.55 286.61,-53.81 89.02,-25.38 151.41,8.09 235.15,36.24 38.26,12.85 165.93,59.62 142.43,-25.17 -6.65,-23.97 -174.91,-66.81 -200.99,-75.03 -91.98,-29.07 -150.22,-17.76 -237.87,15.65 -73.06,27.88 -134.54,41.46 -212.89,26.14 -86.33,-16.92 -164.83,-70.06 -255.63,-63.15z"/>
   <path id="Fill_x0020_67" class="fil3" d="M10064.72 1716.47c12.47,-268.26 29.6,-536.11 38.63,-804.52 4.5,-133.01 8,-266.02 11.39,-399.05 0.72,-29.62 1.51,-59.23 2.18,-88.85 2.19,-100.64 -9.75,-108.86 91.52,-117.79 451.78,-39.89 905.37,-53.1 1357.69,-89.18 545.55,-43.51 1093.91,-73.56 1640.99,-87.03 243.1,-6 487.24,-18.41 730.39,-10.85 53.86,1.67 159.6,-12.34 180.83,29.53 9.15,18.09 -10.08,80.35 -12.5,101.23 -7.63,65.21 -14.73,130.65 -19.13,196.19 -25.86,386.54 -10.45,782.83 64.4,1163.51 -175.58,-99.01 -397.42,-184.17 -602.06,-167.28 -208.64,17.25 -364.71,137.78 -531.73,248.73 -94.45,62.77 -126.28,79.26 -220.52,18.48 -81.23,-52.4 -158.07,-112.29 -234.69,-171.11 -118.24,-90.74 -229.83,-189.1 -344.5,-284.24 -210.82,-174.9 -501.3,-423.86 -792.49,-350.56 -208.04,52.37 -400.14,166.71 -580.7,278.6 -268.29,166.26 -511.11,369.85 -779.72,534.2m3615.67 -1716.41c-1036.52,0 -2065.29,100.48 -3098.91,154.85 -107.96,5.67 -215.53,14.03 -323.09,24.41 -71.69,6.92 -247,-22.14 -293.98,39.12 -31.36,40.86 -4.42,46.99 0,85.83 5.55,48.93 2.26,106.92 0.83,158.71 -3.44,124.81 -7.09,249.61 -9.91,374.43 -10.7,471.74 -17.41,943.4 1.69,1415.02 4.17,102.85 41.66,245.27 21.15,345.22 -14.85,72.37 -64.47,116.39 49.98,129.76 112.62,13.17 250.32,-20.31 363.04,-31.04 113.36,-10.78 226.71,-22.5 340.21,-31.85 493.49,-40.65 991.78,-34.51 1486.59,-48.03 499.22,-13.63 998.67,-14.5 1498.09,-14.8 208.96,-0.1 447.74,11.64 651.64,-45.85 71.72,-20.26 83.32,-30.23 65.63,-101.38 -3.34,-13.52 -25.01,-18.51 -31.36,-42.92 -8.65,-33.22 -4.21,-73.61 -6.22,-108.17 -6.6,-112.94 -8.92,-226.1 -14.23,-339.09 -8.89,-188.83 -41.43,-372.08 -65.53,-559.01 -27.78,-215.85 -26.34,-435.05 -26.91,-652.33 -0.33,-120.52 2.77,-240.65 12.44,-360.83 6.23,-77.08 44.19,-192.17 24.93,-264.06 -9.59,-35.79 -25.27,-64.18 -62.53,-79.59 -23.6,-9.77 -43.46,-2.12 -66.79,-4.59 -27.68,-2.94 -44.95,-6.82 -78.08,-14.33 -142.06,-32.2 -293.96,-29.48 -438.69,-29.48z"/>
   <path id="Fill_x0020_69" class="fil2" d="M13106.74 513.27c-0.08,75.13 -11.8,185.98 22.85,256.71 43.91,89.73 98.87,61.68 113.42,-22.64 8.35,-48.32 8.14,-191.29 -7.38,-234.08 -21.96,-60.57 -128.89,-101.82 -128.89,0z"/>
   <path id="Fill_x0020_71" class="fil1" d="M13232.77 542.28c-70.5,2.48 -275.91,-14.45 -323.63,42.26 -81.85,97.26 60.65,114.49 121.84,109.05 70.8,-6.3 289.56,9.07 336.98,-47.7 79.31,-94.98 -79.72,-105.63 -135.2,-103.61z"/>
   <path id="Fill_x0020_73" class="fil1" d="M10495.99 3051.88c310.04,53.86 213.59,526.61 -79.8,417.08 -102.21,-38.14 -252.81,-148.39 -196.32,-278.28 42.19,-97.04 179.75,-148.04 276.12,-138.8m-128.37 -146.97c-201.64,33.95 -339.49,252.14 -270.36,442.49 66.71,183.61 319.66,318.08 506.23,252.09 178.08,-63.01 266.94,-299.96 206.91,-473.31 -62.75,-181.1 -267.12,-250.85 -442.78,-221.27z"/>
   <path id="Fill_x0020_75" class="fil1" d="M12253.48 3107.2c-77.19,6.38 -143.9,60.43 -221.57,70.02 -72.63,8.95 -132.82,-15.92 -200.82,-35.77 -82.19,-24.01 -157.58,-34.57 -241.58,-13.23 -64.17,16.29 -127.49,59.97 -194.16,65.25 -131.21,10.35 -283.7,-139.34 -386.13,29.96 -49.12,81.18 22.2,133.47 95.64,95.62 76.57,-39.47 38.99,-53.58 133.98,-30.28 79.23,19.43 143.3,29.99 222.67,2.75 71.91,-24.65 135.03,-69.8 213.18,-74.87 76.54,-4.95 143.12,29.91 216.26,44.95 89.96,18.48 169.55,4.49 254.79,-23.72 81.06,-26.8 113.42,-41.48 195.24,-17.57 51.79,15.17 164.97,63.32 215.37,24.52 87.18,-67.06 -29.53,-76.87 -75.48,-86.4 -74.02,-15.34 -150.58,-57.52 -227.39,-51.22z"/>
   <path id="Fill_x0020_77" class="fil2" d="M14019.98 3062.12c0.62,0.49 1.23,0.98 1.83,1.44 -0.6,-0.46 -1.24,-0.95 -1.83,-1.44m-75.79 -15.83c112.7,7.24 234.56,212.54 85.24,219.81 -105.1,5.14 -222.69,-174.61 -85.24,-219.81m-15.81 -167.98c-356.33,99.49 -193.44,601.91 150.28,543.87 156.13,-26.37 209.04,-207.23 157.42,-341.13 -22.18,-57.52 -65.38,-105.99 -117.04,-139.11 -38.09,-24.41 -147.1,-75.76 -190.66,-63.63z"/>
   <path id="Image_x0020_Border" class="fil3" d="M12265.87 3927.11c313.57,-10.75 627.17,-21.53 941.07,-24.44 170.11,-1.57 339.3,1.4 509.16,11.15 75.36,4.32 150.63,8.49 226.04,11.67 12.98,0.56 30.96,-0.33 50.78,-1.29 46.67,-2.29 103.65,-5.09 130.45,9.08 149.96,79.31 -155.56,88.01 -192.69,87.4 -83.16,-1.41 -166.25,-5.53 -249.34,-9.62 -72.6,-3.58 -145.21,-7.17 -217.9,-8.97 -466.28,-11.46 -935.39,9.51 -1402.48,30.36 -107.06,4.77 -214.02,9.56 -320.81,13.93 -113.4,4.65 -226.75,7.68 -340.09,10.66 -162.05,4.32 -324.07,8.62 -486.1,17.73 -61.86,3.48 -123.72,7.15 -185.61,10.83 -88.61,5.28 -177.22,10.56 -265.88,15.22 -69.4,3.67 -138.83,7.22 -208.32,8.97 -12.52,0.3 -28.83,2.05 -46.64,3.93l0 0 0 0c-43.08,4.61 -94.91,10.13 -122.94,-1.31 -33.67,-13.77 -60.91,-33.03 -42.4,-73.88 15.68,-34.52 72.6,-30.36 114.1,-27.35 11.34,0.83 21.53,1.57 29.39,1.41 132.66,-2.57 265.02,-10.02 397.45,-18.14 48.44,-2.96 96.85,-6.01 145.27,-9.05l0.03 0 0 0 0 0 0 0c252.09,-15.84 503.94,-31.68 756.65,-36 260.36,-4.44 520.57,-13.39 780.8,-22.3zm1637.75 2063.8l90.15 -1.07c46.56,4.03 67.39,52.91 37.5,90.46 -22.9,28.78 -110.97,30.07 -168.38,30.9 -15.93,0.24 -29.48,0.46 -38.63,1.18 -149.88,12.05 -299.46,17.46 -449.79,18.92 -316.57,2.99 -631.95,16.57 -947.99,34.59 -323.52,18.45 -647.3,25.38 -971.11,32.33l-0.03 0c-238.22,5.09 -476.47,10.21 -714.6,19.89 -136.38,5.55 -272.78,9.69 -409.22,13.28 -14.65,0.38 -34.16,2.48 -56.23,4.85 -86.19,9.33 -211.4,22.85 -239.77,-45.61 -25.19,-60.73 9.81,-88.69 60.99,-101.41 -8.09,-35.97 -6.58,-86.51 -5.71,-115.47 0.24,-8.71 0.46,-15.47 0.33,-19.29 -1.29,-36.29 -2.21,-72.61 -3.11,-108.93 -1.02,-41.14 -2.02,-82.28 -3.6,-123.41 -1.44,-37.32 -2.78,-74.68 -4.12,-112.08 -5.28,-147.42 -10.56,-295.23 -21.9,-442.06 -5.25,-67.79 -13.55,-134.76 -21.85,-201.63 -13.23,-106.77 -26.45,-213.27 -27.05,-322.25 -0.11,-19.61 -1.11,-44.13 -2.21,-71.8 -5.66,-141.5 -14.6,-365.22 73.22,-433.35 154.89,-90.39 124.28,170.49 110.59,286.9 -2.23,19.24 -4.04,34.52 -4.47,43.65 -8.89,193.57 3.18,378.66 22.69,571.02 13.15,129.91 5.47,259.39 -2.24,389.09 -2.75,46.31 -5.5,92.65 -7.3,139.07 -0.89,22.95 -1.67,45.9 -2.47,68.83 -2.42,70.62 -4.88,141.17 -10.18,211.71 -0.6,7.63 -0.78,22.25 -1.03,40.95 -0.7,52.73 -1.8,137.8 -13.09,189.45 24.03,-1.05 47.37,-0.78 66.63,-0.56 12.29,0.13 22.9,0.23 31.04,0 36.96,-1.14 73.96,-2.21 110.95,-3.29 109.19,-3.21 218.42,-6.42 327.61,-10.51 257.78,-9.7 515.64,-12.93 773.49,-16.17 304.57,-3.82 609.13,-7.65 913.54,-22.12 501.71,-23.84 1005.14,-29.96 1507.38,-36.08zm93.06 -1892.59c-0.26,331.62 25.38,654.14 55.34,984.45 18.53,204.29 33.38,409.37 45.2,614.19 0.57,9.48 0.46,25.29 0.38,45.12l0 0.03c-0.61,113.26 -1.9,357.3 110.03,298.92 84.52,-44.08 52.02,-299.68 34.05,-441.12l0 0c-3.93,-31.01 -7.19,-56.54 -8.35,-73.14 -2.45,-35.37 -4.88,-70.75 -7.3,-106.09 -11.26,-164.19 -22.49,-328.26 -37.31,-492.25l-3.13 -34.6c-17.14,-189.4 -34.27,-378.68 -37.32,-569.01 -0.24,-15.73 1.27,-37.64 2.99,-62.42 4.93,-71.63 11.53,-167.04 -18.24,-205.08 -41.87,-53.53 -136.27,-37.72 -136.36,41.01z"/>
   <path id="Image_x0020_X" class="fil2" d="M12280.2 4911.29c400.51,-181.21 805.72,-364.52 1222.23,-495.05 30.1,-9.43 49.14,21.61 42.3,47.65 -7.06,26.83 -72.21,49.73 -115.42,64.93 -12.93,4.55 -23.89,8.4 -30.73,11.45 -58.17,26 -116.5,51.65 -174.83,77.33 -59.73,26.26 -119.46,52.56 -179.03,79.18 -123.87,55.33 -247.86,110.43 -371.85,165.55 -132.79,59.01 -265.56,118.01 -398.19,177.33 -5.04,2.24 -10.08,4.48 -15.09,6.74 180.36,64.09 359.67,131.04 538.21,200.01 61.02,23.58 121.84,47.63 182.64,71.7 34.41,13.63 68.78,27.24 103.24,40.76 11.21,4.39 30.74,10.38 54.21,17.54 76.45,23.33 194.73,59.46 203.48,95.93 14.23,59.44 -149.09,1.94 -210.68,-19.74 -8.19,-2.88 -14.57,-5.12 -18.51,-6.38 -90.92,-29.07 -180.75,-61.43 -270.51,-93.81l-12.42 -4.47c-71.18,-25.62 -142.23,-51.54 -213.28,-77.46 -138.8,-50.6 -277.58,-101.22 -417.13,-149.77 -19.72,-6.87 -39.47,-13.72 -59.22,-20.53 -223.94,100.57 -447.45,202.15 -670.19,305.3 -119.46,55.31 -238.24,111.95 -356.74,169.31 -25.86,12.52 -57.87,31.87 -92.67,52.89 -83.37,50.4 -182.62,110.38 -250.88,108.89 -36.62,-0.8 -61.3,-8.65 -65.12,-53.02 -3.94,-45.8 54.82,-69.8 97.07,-87.07 10.1,-4.15 19.26,-7.89 26.39,-11.46 126.63,-63.34 254.04,-125.06 381.82,-186.03 253.79,-121.02 509.96,-237.25 767.03,-351.16 1.46,-0.65 2.93,-1.29 4.42,-1.97 -142.58,-48.26 -285.53,-95.35 -428.8,-141.45 -14.31,-4.6 -43.64,-12.74 -82.2,-23.41 -182.15,-50.43 -570.16,-157.9 -552.89,-220.68 19.8,-71.8 383.59,59.44 544.62,117.55 30.2,10.89 53.27,19.2 65.61,23.15 192.55,61.34 384.56,124.44 575.57,190.42 59.09,-26.57 118.28,-53.32 177.54,-80.15z"/>
   <path id="Fill_x0020_117" class="fil1" d="M10563.99 6488.4c117.25,20.55 199.97,133.04 187.09,250.8 -17.38,159.14 -175.99,232.07 -322.52,211.33 -166.26,-23.57 -201.23,-164.13 -120.67,-299.33 17.83,-29.93 38.34,-65.76 70.77,-81.52 22.29,-10.82 50.68,-1.26 68.62,-9.99 62.91,-30.61 25.09,-79.42 116.71,-71.29m-53.37 -103.94c-143.07,18.27 -407.42,183.83 -394.03,349.46 11.62,19.21 29.07,27.06 52.38,23.57 -5.6,35.89 -3.77,71.37 5.5,106.5 13.57,45.59 40.68,82.96 77.02,112.62 74.82,61.16 177.09,76.17 270.26,65.44 173.93,-20 311.04,-138.89 320.81,-319.83 9.54,-176.61 -144.62,-361.42 -331.94,-337.77z"/>
   <path id="Fill_x0020_119" class="fil2" d="M11086.67 6106.29c-73.07,38.69 -188.63,98.17 -231.46,171.68 -45.25,77.66 1.6,162.63 96.95,125.9 75.7,-29.15 123.83,-121.82 204.59,-151.53 71.26,-26.21 99.95,-12.84 175.28,13.25 77.6,26.89 145.42,52.9 229.3,46.27 105.43,-8.28 196.75,-69.42 299.95,-83.3 86.89,-11.71 158.53,22.08 241.75,35.54 96.55,15.61 159.67,-20.94 249.99,-39.98 61.44,-12.94 169.73,39.73 214.57,20.01 100.74,-44.29 -5.87,-98.44 -61.63,-116.35 -93.99,-30.13 -151.8,-3.55 -241.19,21.47 -97.03,27.13 -138.94,6.71 -231.72,-18.22 -187.67,-50.4 -332.66,71.53 -510.55,49.37 -164.67,-20.54 -263.24,-165.53 -435.85,-74.1z"/>
   <path id="Fill_x0020_121" class="fil2" d="M13900.11 6520.81c158.75,148.82 -19.58,360.56 -194.59,241.6 -61.59,-41.84 -62.59,-109.09 -14.66,-169.25 43.87,-55.01 140.18,-76.46 209.25,-72.36l0 0zm-58.84 -120.27c-148.29,28.85 -288.17,96.91 -301.61,268.07 -13.09,166.99 158.2,244.55 302.1,233.61 323.08,-24.63 299.72,-559.71 -0.49,-501.68l0 0z"/>
   <path id="Fill_x0020_79" class="fil5" d="M19540.8 854.17c-168.2,2.29 -583.56,45.43 -645.31,185.77 -46.88,106.5 92.36,83.11 166.98,44.37 100.95,-52.43 189.49,-83.78 314.57,-99.74 476.49,-60.78 934.34,157.21 1406.28,184.76 178.76,10.46 394.51,17.25 565.18,-23.57 121.53,-29.09 137.4,-92.49 -1.32,-102.13 -117.83,-8.22 -248.26,17.65 -369.09,16.92 -499.99,-3.02 -944.44,-213.01 -1437.28,-206.38z"/>
   <path id="Fill_x0020_173" class="fil1" d="M2142.1 7518.34c-226.96,2.54 -453.8,10.92 -680.33,25.24 -215.39,13.67 -449.12,3.29 -661.01,45.05 -60.19,11.85 -141.46,66.69 -61.45,127.01 56.23,42.4 261.98,-6.36 329.11,-10.51 247.3,-15.19 494.73,-33.41 742.38,-42.14 234.45,-8.3 468.89,-11.21 703.45,-13.55 35.8,-0.36 95.24,-11.83 130.91,-1.43 51.24,14.92 39.09,18.99 42.92,84.03 6.94,117.84 5.04,236.12 2.69,354.07 -2.26,114.15 -6.47,228.27 -6.06,342.47 0.3,81.47 -25.75,243.37 15.11,314.11 58.88,101.87 119.89,-8.76 124.29,-76.43 8.43,-129.45 4.65,-260.47 4.68,-390.09 0.03,-121.64 0.92,-243.31 -3.37,-364.9 -3.13,-87.84 9.43,-241.16 -37.88,-321.01 -48.19,-81.34 -164.21,-63.8 -248.88,-67.68 -132.07,-6.06 -264.38,-5.63 -396.55,-4.26z"/>
   <path id="Fill_x0020_171" class="fil1" d="M698.06 7665.12c0.24,228.57 -26.2,455.63 -33.61,683.94 -3.4,104.99 -10.29,220.25 16.26,323.3 26.81,104.05 111.94,126.6 121.75,10.43 19.86,-235.2 15,-479.1 30.44,-716.22 5.47,-83.71 41.01,-237.11 7.84,-315.51 -29.2,-69.06 -142.81,-82.29 -142.68,14.06z"/>
   <path id="Fill_x0020_175" class="fil2" d="M2826.34 8672.66c-394.15,52.19 -806.2,33.16 -1203.18,41.38 -190.45,3.93 -380.85,4.17 -571.33,6.17 -66.49,0.67 -235.3,-24.6 -292.8,12.77 -91.55,59.49 7.76,105.4 68.39,106.71 375.88,8.22 755.98,-9.05 1131.78,-21.39 168.85,-5.55 338.26,-8.24 506.67,-22.6 103.67,-8.84 216.96,-17.41 317.64,-45.26 21.44,-5.96 68.16,-4.72 72.96,-33.98 2.96,-18.07 -2.39,-47.6 -30.12,-43.81z"/>
   <path id="Fill_x0020_177" class="fil1" d="M1187.32 9004.93c-109.54,0.65 -439.66,-50.24 -485.03,56.57 -60.47,142.47 175.48,109.23 238.93,107.58 144.14,-3.69 288.14,-4.09 432.3,-4.01 141.44,0.05 282.88,-0.87 424.3,-4.24 40.97,-0.97 136.35,16.04 159.93,-33.32 17.91,-37.48 3.74,-67.06 -29.29,-86.92 -79.51,-47.77 -286.02,-20.07 -379.07,-24.38 -120.51,-5.53 -241.43,-11.29 -362.07,-11.29z"/>
   <path id="Fill_x0020_179" class="fil2" d="M2520.04 9031.3c-62.61,3.72 -189.24,-22.09 -245.33,6.58 -63.74,32.57 -41.28,83.55 13.74,105.96 38.12,15.52 194.47,7.38 231.59,-10.59 38.68,-18.75 82.44,-107.01 0,-101.95z"/>
   <path id="Fill_x0020_181" class="fil2" d="M3206.4 7687.57c-66.87,18.35 -46.59,397.95 -48.31,458.11 -4.71,164.89 -23.25,372.26 31.53,531.06 34.94,101.22 102.05,87.48 90.61,-19.08 -10.03,-93.54 -27.27,-186.01 -34.73,-280.13 -16.84,-213.03 -39.79,-440.26 -23.87,-653.47 6.79,12.39 70.21,127.3 85.14,118.71 -4.5,2.69 -73.15,-162.35 -100.36,-155.18z"/>
   <path id="Fill_x0020_183" class="fil1" d="M3958.54 7547.74c-135.31,2.02 -270.63,4.42 -405.9,8.17 -107.58,2.98 -276.59,-14.68 -375.22,30.58 -117.47,53.86 -61.75,173.88 48.57,176.4 97.61,2.27 201.69,-19.74 300.16,-23.11 265.99,-9.13 532.47,-11.04 798.57,-13.33 240.7,-2.08 491.6,23.59 730.17,-12.56 35.37,314.22 -60.32,629.76 -27.78,947.59 5.04,49.32 2.78,119.03 65.61,130.27 79.29,14.19 82.55,-64.34 85.56,-120.57 8.57,-160.54 3.93,-321.22 15.68,-481.98 10.89,-148.99 32.33,-301.24 14.19,-450.47 -22.28,-183.6 -110.27,-168.9 -265.8,-176.52 -328.5,-16.12 -654.96,-19.3 -983.83,-14.47z"/>
   <path id="Fill_x0020_185" class="fil1" d="M3505.05 8663.47c-68.97,1.75 -183.47,-19.51 -227.65,46.61 -45.96,68.81 8.56,128.81 75.4,142.92 79.13,16.71 182.29,-6.19 264.41,-6.44 85.51,-0.27 171.05,0.7 256.56,1.02 366.62,1.44 734.8,6.99 1101.18,-8.16 51.16,-2.13 196.38,15.03 231.78,-34.06 31.44,-43.51 9.46,-82.54 -31.95,-104.72 -67.89,-36.4 -207.34,-22.55 -282.85,-25.44 -93.27,-3.55 -186.68,-4.71 -279.98,-6.17 -368.35,-5.68 -738.6,-14.68 -1106.89,-5.57z"/>
   <path id="Fill_x0020_187" class="fil1" d="M3815.17 8981.49c-137.18,2.34 -283.59,-3.69 -419.42,17.14 -119.43,18.29 -134.15,133.74 -5.58,147.26 118.17,12.42 261.42,-10.77 380.15,-18.4 42.17,-2.72 91.2,1.13 111.4,-45.51 21.1,-48.68 -19.24,-95.4 -66.54,-100.49z"/>
   <path id="Fill_x0020_189" class="fil1" d="M4852.4 8993.61c-73.22,1.83 -287.11,-29.66 -323.4,53.99 -60.38,139.24 229.19,86.35 284.74,84.3 70.03,-2.59 342.89,38.29 342.94,-73.17 0.05,-109.28 -237.22,-66.79 -304.28,-65.12z"/>
   <path id="Fill_x0020_191" class="fil3" d="M686.21 9685.57c0.18,253.31 -15.59,509.01 7.51,761.69 9.56,104.51 7.92,304.72 68.46,393.29 42.97,62.89 102.57,58.49 126.03,-17.03 15.68,-50.49 -9.4,-151.44 -12.2,-205.46 -2.7,-51.81 -5.84,-103.62 -8.25,-155.48 -6.17,-133.56 -5.66,-266.89 -3.83,-400.51 1.57,-114.64 29.15,-266.3 3.16,-376.51 -24.28,-102.72 -180.88,-126.75 -180.88,0z"/>
   <path id="Fill_x0020_193" class="fil3" d="M3232.11 9462.72c-439.49,11.02 -879.99,1.18 -1319.09,22.93 -216.55,10.72 -432.27,34.3 -647.75,57.76 -105.86,11.56 -211.66,23.47 -317.32,36.48 -31.9,3.93 -296.88,14.19 -197.21,114.96 43.51,44.02 182.01,-1.94 236.81,-8.44 106.1,-12.52 212.41,-23.43 318.65,-34.67 202.2,-21.39 404.61,-41.65 607.66,-52.89 478.19,-26.51 958.37,-18.56 1437.02,-36.21 129.5,-4.77 258.59,-8.19 388.12,-3.1 34.02,1.32 283.96,14.04 175.44,-78.29 -51.32,-43.64 -244.79,-21.12 -308.91,-22.44 -124.46,-2.56 -248.99,0.78 -373.41,3.91z"/>
   <path id="Wireframy_x0020_Stuff" class="fil3" d="M3831.23 9889.5c-2.16,-117.04 -4.34,-234.1 -9.67,-351.03 -5.6,-123.15 162.17,-141.79 211.9,-42.11 35.83,71.77 29.53,193.87 24.13,298.53 -2.18,42.17 -4.23,81.52 -3.28,113.59 2.13,73.5 7.54,149.52 13.01,226.52 13.79,193.82 28.04,394.02 -8.2,576.98 -17.62,88.91 -92.59,135.62 -142.52,87.18 -0.08,0.08 -0.13,0.19 -0.21,0.3 -18.79,27.68 -77.22,27.62 -120.27,27.56 -11.86,0 -22.55,-0.03 -30.9,0.54 -117.93,8.02 -233.66,21.56 -350.57,39.06 -232.88,34.92 -463.74,56.37 -699.13,62.19 -159.74,3.96 -319.69,5.28 -479.67,6.6 -306.38,2.57 -612.89,5.09 -918.3,26.06 -102.94,7.06 -204.35,19.18 -305.62,38.58 -8.62,1.64 -18.22,3.77 -28.4,6.03 -75.3,16.76 -184.31,41.01 -191.77,-64.22 -8.86,-124.93 261.88,-141.28 401.17,-149.7 21.28,-1.29 39.49,-2.39 53.15,-3.66 423.01,-39.34 852.64,-33.25 1277.43,-27.24 20.58,0.3 41.17,0.59 61.73,0.89 33.13,0.46 66.27,1 99.41,1.54 181.88,2.98 363.55,5.98 545.35,-5.12 82.76,-5.06 166.58,-7.68 250.55,-10.26 133.98,-4.17 268.33,-8.33 399.38,-22.52 -19.77,-76.62 -23.23,-167.04 -26.49,-252.29 -1.26,-33.16 -2.5,-65.58 -4.66,-96.04 -11.51,-162.43 -14.52,-325.18 -17.57,-487.96z"/>
   <path id="Fill_x0020_199" class="fil5" d="M4186.94 9628.7c-59.38,8.05 -108.89,58.9 -82.39,123.34 33.38,81.15 132.82,49.44 198.51,44.28 208.8,-16.35 426.81,16.33 633.1,-8.32 56.33,-6.74 138.05,-37.42 87.48,-113.13 -38.01,-56.87 -176.55,-46.9 -235.44,-52.35 -201.38,-18.64 -400.14,-13.65 -601.25,6.17z"/>
   <path id="Fill_x0020_201" class="fil6" d="M4539.34 9982.75c-80.96,5.44 -269.47,1.16 -303.61,93.29 -61.22,165.29 178.54,107.04 251.55,97.64 84.81,-10.92 284.72,18.32 329.87,-63.91 80.75,-147.05 -206.8,-131.94 -277.81,-127.03z"/>
   <path id="Fill_x0020_203" class="fil5" d="M4331.11 10345.48c-38.42,38.42 -38.47,107.04 0,145.49 47.09,47.04 149.74,37.29 211.63,40.71 86.32,4.82 334.27,50.49 377.12,-51.17 57.85,-137.16 -166.68,-134.27 -240.53,-142.06 -85.35,-9 -277.47,-63.74 -348.22,7.03z"/>
   <path id="Fill_x0020_205" class="fil1" d="M1304.98 7997.82c0,147.45 230.29,147.45 230.29,0 0,-146.67 -230.29,-148.9 -230.29,0z"/>
   <path id="Fill_x0020_207" class="fil1" d="M1741.8 7999.49c0,168.57 262.34,168.23 262.34,0 0,-168 -262.34,-169.7 -262.34,0z"/>
   <path id="Fill_x0020_209" class="fil1" d="M1477.53 8223.62c-127.49,35.21 -10.02,143.27 49.17,167.95 94.11,39.22 222.53,68.16 316.64,9.32 37.45,-23.41 67.85,-54.5 40.41,-99.92 -29.25,-48.39 -69.26,-26.86 -113.8,-22.41 -56.39,5.68 -101.97,4.8 -156.43,-13.29 -40.65,-13.49 -91.65,-53.86 -136,-41.65z"/>
   <path id="Fill_x0020_211" class="fil1" d="M3790.42 8007.15c0,99.73 154.86,99.73 154.86,0 0,-99.74 -154.86,-99.74 -154.86,0z"/>
   <path id="Fill_x0020_213" class="fil1" d="M4132.9 8022.15c0,110.82 172.05,110.84 172.05,0 0,-110.81 -172.05,-110.81 -172.05,0z"/>
   <path id="Fill_x0020_215" class="fil1" d="M4120.16 8262.63c-90.36,11.67 -351.75,38.15 -366.38,149.55 -22.54,171.86 263.84,32.76 329.21,19.27 83.27,-17.19 157.61,-12.69 240.72,-9.35 45.64,1.8 106.34,9.22 101.54,-60.3 -7.83,-114.15 -226.09,-109.3 -305.08,-99.17z"/>
   <path id="Fill_x0020_217" class="fil3" d="M1847.98 9847.5c-65.52,17.48 -151.19,130.71 -106.12,200.04 73.91,113.67 106.48,-60.86 137.4,-77.67 56.28,-30.55 101.95,81.15 160.76,22.55 92.78,-92.47 -133.63,-160.55 -192.04,-144.92z"/>
   <path id="eye" class="fil4" d="M2598.52 9763.49c-77.67,0.7 -241.66,110.68 -253.27,191.88 -6.9,48.25 25.08,94.62 77.1,95.26 70.83,0.87 93.32,-91.22 154.73,-110.48 66.22,-20.77 56.39,27.08 113.59,51.86 41.86,18.16 94.21,10.56 108.76,-40.89 27.42,-97.07 -121.07,-189.16 -200.9,-187.63z"/>
   <path id="Fill_x0020_221" class="fil4" d="M2003.92 10228.45c-124.25,72.8 80.18,228.87 151.07,248.41 106.98,29.42 322.32,-25.55 347.71,-156.24 10.07,-52.02 -22.47,-99.14 -79.85,-89.82 -47.29,7.68 -77.59,66.95 -121.38,88.21 -59.11,28.63 -111.64,26.7 -161.83,-16.43 -40.92,-35.16 -62.84,-116.63 -135.71,-74.12z"/>
   <path id="Fill_x0020_223" class="fil6" d="M2093.96 11304.26c-111,23.67 -223.86,7.78 -335.4,30.04 -113.75,22.71 -181.72,65.68 -287.38,22.38 -4.99,-2.1 -9.95,-4.2 -14.9,-6.3 -81.8,-35.21 -167.52,-45.64 -253.12,10.51 -50.68,33.23 -204.49,148.16 -185.96,218.29 40.17,152.01 213.25,-86.38 257.38,-109.6 84.17,-44.33 141.84,12.28 228.49,28.26 103.78,19.13 187.28,-35.7 285.04,-57.54 114.32,-25.55 242.94,-34.44 359.27,-48.12 45.93,-5.39 220,30.96 235.71,-26.24 26.99,-98.25 -245.49,-70.91 -289.14,-61.67z"/>
   <path id="Fill_x0020_225" class="fil5" d="M2894.86 11610.45c7.27,5.49 1.45,1.07 0,0zm310.9 -312.12c95.06,-9.65 399.09,-77.54 461.54,20.66 40.66,63.96 -23.87,300.02 -85.43,330.57 -49.22,24.39 -163.8,-2.59 -217.8,-4.5 -100.46,-3.52 -201.12,-5.09 -301.47,-11.36 -33.65,-2.1 -141.94,4.09 -168.31,-25.7 -31.15,-35.16 -29.77,-222.64 -37.1,-269.15 87.37,28.29 257.2,-31.25 348.56,-40.52m202.93 -96.3c-121.69,5.28 -243.4,14.42 -364.19,30.74 -67.33,9.11 -135.57,33.31 -197.76,44.78 -20.04,3.69 -52.59,-6.58 -77.16,5.31 -71.85,34.7 -8.94,269.36 8.38,332.03 26.62,96.32 93.57,111.92 187.41,120.97 123.58,11.98 249.69,8.22 373.67,6.71 119.49,-1.49 280.62,25 347.69,-94.89 43.35,-77.54 89.82,-258.07 52.78,-344.47 -48.73,-113.7 -230.73,-105.37 -330.81,-101.17z"/>
   <path id="quare" class="fil1" d="M4771.66 11674.95c-6.53,8.35 -6.53,8.35 0,0zm26.67 -32.17c-2.02,3.06 -11.37,12.93 0,0zm-290.27 -8.84c53.66,-10.08 107.34,-20.07 161.03,-29.88 -50.86,71.2 -104.42,41.78 -191.31,35.59 10.1,-1.91 20.2,-3.8 30.28,-5.71m-255.97 -25.19c13.6,-4.55 27.21,-9.08 40.81,-13.63 -0.43,10.35 1.8,20.05 6.66,29.07 -23.28,-2.54 -46.53,-5.22 -69.78,-8.09 7.43,-2.45 14.9,-4.9 22.31,-7.35m-118.6 -87.59c-0.78,-18.66 27.32,-5.84 43.43,-7.11 -31.04,27.32 -45.54,29.71 -43.43,7.11m424.19 -211.87c4.1,-5.22 9.51,-4.95 16.22,0.78 -7.32,2.45 -35.62,14.47 -16.22,-0.78m275.1 -32.35c0.72,0 16.01,20.61 0,0zm-7.71 -6.76c3.99,3.06 3.99,3.06 0,0zm-34.35 -4.02c56.25,9.51 51.97,75.52 0,0zm-660.82 -4.49c-11.46,9.51 -7.51,0.3 0,0zm215.1 -140.53c-95.5,5.55 -270.79,-0.03 -350.54,50.84 -104.08,66.41 -49.3,295.03 -40.01,395.26 13.77,148.12 83.47,190.31 223,205.85 166.5,18.56 337.54,22.01 504.91,17.63 150.71,-3.96 236.55,-55.8 264.17,-214.49 8.45,-48.57 29.91,-123.69 29.22,-170.18 -0.46,-32.25 -16.54,-46.96 -22.63,-74.38 -34.59,-156.18 -92.49,-174.72 -252.55,-181.51 -117.81,-5.02 -239.97,-35.08 -355.58,-29.02z"/>
   <path id="face_3" class="fil1" d="M12165.45 7168.27c276.31,5.9 589.77,158.83 546.09,482.77 -32,237.31 -237.46,429.94 -475.44,446.56 -255.77,17.85 -526.19,-178.44 -560.93,-438.85 -39.08,-292.9 220.12,-496.32 490.28,-490.48m-135.48 -131.87c-112.03,16.71 -219.07,75.56 -317.7,128.22 -37.65,20.15 -228.51,142.82 -78.79,173.3 -360.71,581.7 488.17,1122.05 965.45,743.98 214.33,-169.79 327.16,-491.68 188.61,-743.64 -143.27,-260.61 -483.08,-343.08 -757.57,-301.85z"/>
   <path id="Fill_x0020_231" class="fil2" d="M11963.92 7531.57c0,108.65 168.67,108.65 168.67,0 0,-108.66 -168.67,-108.66 -168.67,0z"/>
   <path id="Fill_x0020_233" class="fil1" d="M12276.59 7548.95c0,117.79 182.86,117.79 182.86,0 0,-117.76 -182.86,-117.76 -182.86,0z"/>
   <path id="Fill_x0020_235" class="fil1" d="M12065.59 7781.9c-24.61,89.37 255.95,135.22 265.31,31.8 4.44,-49.44 -248.19,-94.13 -265.31,-31.8z"/>
   <path id="Fill_x0020_237" class="fil1" d="M12888.01 7726.69c322.85,-38.77 655.69,-20.84 980.07,-11.57 81.19,2.36 162.34,4.63 243.55,5.98 51.61,0.87 163.1,25.64 208.15,1.48 184.48,-98.93 -177.42,-146.76 -228.66,-151.3 -322.66,-26.55 -820.6,-36.03 -1144.21,-23.51 -95.72,3.73 -116.41,185.82 -58.9,178.93z"/>
   <path id="Hola_x0020_:_x0029_" class="fil6" d="M14340.69 9331.5c2.77,-338.24 14.91,-678.79 40.91,-1016.04 10.58,-137.45 23.3,-274.71 33.81,-412.18 4.97,-64.73 27.96,-155.42 -10.08,-212.24 -39.21,-58.53 -125.24,-70.69 -177.09,-18.82 -62.06,80.33 -44.03,215.13 -51.76,312.33 -11.87,149.4 -26.18,298.72 -33.33,448.45 -13.77,289.8 -16.97,584.66 6.31,874.08 10.99,136.56 34.83,269.81 66.57,402.99 14.44,60.65 129.32,330.7 105.19,367.95 -37.43,57.77 -314.14,35.93 -374.17,37.52 -154.03,4.15 -308.1,6.84 -462.17,9.79 -131.9,2.52 -263.78,4.33 -395.72,5.49 -52.37,0.47 -360.13,-8.87 -291.84,68.79 -763.42,53.2 -1541.42,-35.62 -2300.18,-66.05 -38.34,-1.57 -101.03,-12.46 -158.92,-15.59 -6.93,-27.96 -12.63,-52.91 -14.04,-70.29 -9.97,-121.94 -12.57,-244.3 -23.39,-366.2 -19.77,-223.08 -58.13,-443.87 -80.94,-666.56 -22.78,-222.43 -20.49,-445.54 -33.76,-668.53 -2.27,-38.21 -7.64,-351.17 -86.61,-427.24 37.44,14.19 97.83,16.08 132.6,13.25 281.46,-22.69 560.87,-71.61 839.93,-113.6 79.84,-11.98 261,-3.49 327.23,-43.38 57.31,-34.55 79.99,-155.69 -19.71,-145.88 -278.27,29.79 -555,76.06 -831.06,121.59 -73.86,12.17 -147.51,25.2 -221.16,38.51 -49.18,8.9 -178.99,8.22 -217.13,37.87 -46.32,35.99 -51.23,60.48 -35.53,76.77 -21.83,-6.02 -47.99,3.43 -79.41,34.86 -59.41,77.33 -3.55,267.75 3.53,358.42 8.48,108.75 12.69,217.65 17.63,326.62 9.56,210.81 31.64,418.71 65.56,627.02 38.01,233.33 70.36,467.62 108.48,700.88 9.9,60.74 22.84,119.97 39.37,178.65 -102.68,52.49 -32.87,136.01 48.53,150.82 0.57,0.13 1.19,0.18 1.78,0.31 25.38,61.9 60.88,119.24 88.6,36.3 2.12,-6.37 3.13,-14.19 3.37,-22.99 210.3,23.8 441.48,9.02 648.52,17.47 448.48,18.34 899.73,45.83 1348.68,31.89 177.74,-5.53 355.99,-21.31 532.22,-45.02 103.27,-13.88 206.93,-30.48 308.53,-53.5 7.27,-1.65 18.34,-3.37 31.12,-5.48 2.09,-0.06 4.2,-0.13 6.17,-0.13 155.59,-2.35 311.04,-6.53 466.48,-13 130.49,-5.42 261.56,-8.22 391.61,-20.51 80.79,-7.63 251.54,-6.22 301.11,-87.47 45.11,-73.85 -30.28,-264.17 -40.99,-347.13 -18.83,-146.12 -26.04,-293.61 -24.85,-440.8z"/>
   <path id="Fill_x0020_241" class="fil1" d="M12764.04 8354.84c-124.32,10.64 -239.26,69.01 -364.72,69.75 -105.32,0.57 -208.98,-30.88 -314.87,-26.22 -124.22,5.4 -192.54,85.72 -301.34,112.62 -86.6,21.36 -141.18,-44.96 -217.38,-74.26 -96.18,-37.04 -167.25,-17.91 -249.68,38.1 -60.59,41.15 -201.87,133.53 -200.76,216.8 3.24,252.21 297.48,-96.19 356.78,-100.41 78.82,-5.61 166.88,84.22 250.74,89.34 110.86,6.78 181.93,-64.69 284.02,-90.72 103.24,-26.34 214.83,5.91 318.35,15.95 118.07,11.39 221.42,-14.91 335.65,-43.09 110.72,-27.31 205.06,-25.87 317.55,-2.94 75.91,15.49 265.05,105.51 298.28,-10.22 45.23,-157.64 -425.74,-202.08 -512.63,-194.69z"/>
   <path id="Fill_x0020_243" class="fil2" d="M12801.88 8835.82c-254.72,24.75 -511.01,46.42 -766.89,53.36 -110.84,3.03 -536.88,-44.49 -499.11,96.36 32.41,120.74 612.18,44.71 730.28,35.51 130.38,-10.11 260.51,-24.29 390.27,-40.69 45.95,-5.82 156.98,0.19 189.42,-38.35 30.93,-36.79 15.7,-112.13 -43.97,-106.18z"/>
   <path id="have_x0020_a_x0020_nice_x0020_day_x0020_:_x0029_" class="fil1" d="M11044.62 9477.21c-5.79,2.44 -5.79,2.44 0,0zm53.74 -0.74c63.5,-2 49.88,-35.48 113.22,-18.03 29.22,8.03 32.23,-3.89 54.88,24.04 44.18,54.48 2.59,173.11 -40.99,217.01 -161.3,162.56 -354.9,-215.79 -127.12,-223.02m0 -159.5c-441.59,14.85 -256.84,696.99 127.52,557.74 158.73,-57.49 258.49,-316.56 165.13,-462.18 -45.41,-70.81 -103.32,-83.42 -179.43,-88.31 -17.66,-1.14 -39.89,24.52 -50.89,23.36 -26.21,-2.76 -23.76,-32.04 -62.33,-30.61z"/>
   <path id="espero" class="fil1" d="M12154.39 9500.57c-7.88,-2.42 139.43,40.4 123.3,23.63 34.41,35.77 -11.86,120.37 -50.76,135.12 -94.23,35.77 -147.08,-110.75 -72.54,-158.76m65.36 -184.98c-138.28,19.59 -244.98,77.17 -263.89,230.93 -17.41,141.92 78.47,285.65 229.73,288.41 329.69,6.04 339.71,-561.96 34.16,-519.35z"/>
   <path id="hola" class="fil1" d="M13724.84 9506.79c19.29,252.02 -242.04,21.33 0,0zm-112.16 -269.63c-22.87,39.06 -3.37,80.51 31.13,103.23 -308.26,65.15 -238.45,529 75.24,460.48 159.52,-34.87 188.83,-202.59 165.07,-341.09 -11.32,-65.86 -175.45,-386.77 -271.44,-222.62z"/>
   <path id="Fill_x0020_251" class="fil5" d="M14849.14 9563.86c-114.1,14.36 -383.84,103.53 -381.46,199.31 3.64,149.53 232.88,-13.79 283.88,-35.75 273.91,-117.98 628.74,34.9 913.96,67.44 130.78,14.9 386.61,42.46 502.14,-19.56 205.4,-110.3 -269.66,-82.68 -330.17,-87.13 -328.87,-24.03 -656.05,-166.3 -988.35,-124.3z"/>
   <path id="Fill_x0020_253" class="fil5" d="M20895.53 8512.65c-0.08,152.97 -7.82,309.14 20.4,460.28 8.53,45.77 15.27,133.41 63.52,157.15 48.5,23.85 95.51,-2.93 107.56,-52.64 14.06,-57.82 -16.76,-144.38 -19.89,-205.08 -4.29,-82.96 -4.58,-165.99 -4.6,-249.03 -0.03,-59.97 19.69,-156.45 -51.12,-187.29 -52.61,-22.96 -115.87,19.71 -115.87,76.61z"/>
   <path id="Fill_x0020_255" class="fil6" d="M23313.99 8270.69c-506.82,50.89 -1020.97,61.45 -1529.66,87.99 -235.12,12.26 -519.31,-3.39 -740.82,87.62 -41.14,16.91 -188.45,111 -68.86,149.31 37.28,11.93 75.16,-28.24 105.77,-41.68 50.97,-22.39 110,-29.32 164.37,-38.07 462.21,-74.22 945.68,-61.29 1412.66,-95.99 119.65,-8.89 239.37,-18.02 358.78,-29.77 85.3,-8.4 264.6,-69.88 343.32,-38.44 134.55,53.74 131.4,402.91 134.03,522.99 1.41,62.09 -58.89,285.01 60.94,262.41 95.89,-18.07 61.19,-249.67 53.69,-313 -19.61,-166.07 -53.04,-577.79 -294.23,-553.36z"/>
   <path id="Fill_x0020_257" class="fil1" d="M23500.92 9129.02c-440.26,39.73 -890.64,0.72 -1332.72,16.37 -231.71,8.2 -463.19,21.26 -694.94,28.91 -100.23,3.32 -200.56,3.45 -300.83,4.19 -47.96,0.32 -266.22,29.39 -131.21,124.46 59.78,42.12 250.32,8.2 318.91,7.38 103.05,-1.21 206.03,-5.5 308.99,-9.53 238.49,-9.33 476.84,-22.26 715.46,-28.69 228.24,-6.2 456.63,-7.51 684.89,-13.69 113.56,-3.11 228.67,-6.58 341.24,-23.15 25.41,-3.75 107.9,-6.74 125.54,-35.05 16.68,-26.78 4.96,-75.12 -35.34,-71.21z"/>
   <path id="Fill_x0020_259" class="fil6" d="M21337.18 8798.47c-2.37,5.6 -2.37,5.6 0,0zm190.64 -57.95c6.94,2.93 6.94,2.93 0,0zm-8.92 -1.62c102.73,104.72 -55.26,229.73 -151.5,127.54 -102.16,-108.49 85.35,-127.19 151.5,-127.54m-108.97 -158.41c-353.88,62.96 -228.6,534.6 101.94,466.44 145.11,-29.91 228.09,-176.09 178.15,-316.51 -19.51,-54.88 -62.05,-115.09 -121.27,-132.36 -29.53,-8.62 -55.67,4.93 -83.79,1.75 -26.83,-3.02 -41.73,-25.32 -75.03,-19.32z"/>
   <path id="Fill_x0020_261" class="fil5" d="M22764.3 8713.23c-213.38,0.67 -426.84,9.72 -640.21,13.79 -65.43,1.21 -233.66,-28.07 -233.91,75.12 -0.3,110.25 187.09,69.54 249.42,68.05 211.66,-5.06 423.85,-14.33 634.64,-34.48 53.26,-5.09 237.59,3.69 237.41,-68.73 -0.21,-76.73 -204.36,-53.74 -247.36,-53.74z"/>
   <path id="Fill_x0020_263" class="fil1" d="M23274.02 9432.79c-527.79,14.16 -1054.79,19.09 -1582.15,46.12 -197.27,10.1 -394.26,17.63 -591.8,17.63 -38.04,0 -114.67,-14.74 -150.47,9.21 -97.18,64.99 13.47,120.79 76.81,124.29 433.25,24.03 872.74,-35.81 1305.72,-49.3 253.5,-7.89 507.01,-10.24 760.35,-23.15 69.11,-3.5 138.24,-7.6 207.24,-12.96 39.68,-3.06 144.62,5.37 176.68,-17.86 140.04,-101.35 -155.18,-95.24 -202.38,-93.97z"/>
   <path id="Fill_x0020_265" class="fil1" d="M20852.42 9690.86c-4.98,136.83 -5.49,271.31 12.42,407.39 7.04,53.53 10.26,114.31 73.04,127.91 57.01,12.34 85.92,-30.77 97.71,-78.56 28.83,-116.74 3.48,-284.75 3.13,-406.01 -0.13,-59.98 -0.21,-127.08 -74.3,-140.63 -56.52,-10.35 -109.84,30.5 -112,89.9z"/>
   <path id="Fill_x0020_267" class="fil1" d="M23833.46 10020.76c-854.38,45.02 -1707.62,84.33 -2562.59,120.46 -66.68,2.83 -584.66,-2.83 -403.58,177.81 55.93,55.8 200.04,18 272.38,14.47 108.69,-5.36 217.45,-9.43 326.16,-14.95 430.95,-21.96 863.07,-27.86 1293.71,-52.48 237,-13.55 473.44,-34.76 709.21,-62.35 112.13,-13.12 251.34,-11.77 356.35,-55.72 54.05,-22.6 112.35,-132.76 8.36,-127.24z"/>
   <path id="Fill_x0020_269" class="fil1" d="M23342.2 9326.61c-64.98,64.72 -31.58,192.37 -26.67,272.36 6.73,110.05 14.93,220.19 28.66,329.65 8.95,71.11 4.21,181.75 42.14,243.18 44.43,71.93 142.23,63.96 182.4,-5.53 35.53,-61.45 17.53,-190.74 16.62,-258.85 -1.26,-94.19 -7.14,-188.51 -12.72,-282.51 -4.68,-78.54 13.13,-204.44 -30.09,-271.65 -43.89,-68.33 -139.45,-87.21 -200.34,-26.65z"/>
   <path id="Fill_x0020_271" class="fil2" d="M21389.39 9828.77c-7.62,5.88 -7.62,5.88 0,0zm151.74 -19.02c141.6,28.48 -87.35,193.8 -159.71,80.34 -11.28,-17.73 -17.19,-39.53 0.98,-54.94 16.54,-14.06 26.96,10.83 42.59,4.15 26.93,-11.54 87.4,-30.64 116.14,-29.56m-19.53 -135.73c-96.67,7.66 -229.58,13.63 -277.43,110.54 -64.28,130.15 45.64,257.62 172.83,277.42 122.4,19.08 305.12,-48.7 314.93,-191.44 7.89,-115.09 -101.57,-205.32 -210.33,-196.51z"/>
   <path id="Fill_x0020_273" class="fil1" d="M22328.69 9742.85c-100.06,1.62 -296.79,-27.96 -383.98,20.8 -86.27,48.28 -47.79,134.23 30.9,154.78 52.02,13.58 137.06,-8.32 191.21,-10.53 71.26,-2.91 142.55,-3.53 213.86,-4.53 119.89,-1.61 239.73,-0.24 359.64,-0.24 122.46,0 247.03,3.35 369.26,-5.65 154.71,-11.39 150.53,-127.22 -0.75,-141.69 -256.97,-24.59 -522.32,-16.96 -780.14,-12.93z"/>
   <path id="Fill_x0020_275" class="fil2" d="M22073.06 11040.09c0,55.02 48.82,0 48.47,0 0.35,0 -48.47,-55.04 -48.47,0z"/>
   <path id="Fill_x0020_277" class="fil2" d="M20968.57 10597.09c3.15,159.95 5.22,320.06 12.04,479.91 2.19,50.55 -12.31,149.23 48.96,174.99 68.18,28.69 89.39,-42.81 97.25,-91.26 24.87,-153.45 0.49,-328.69 -1.91,-483.97 -0.8,-52.14 10.49,-124.72 -48.73,-150.71 -48.31,-21.23 -108.58,18.16 -107.6,71.04z"/>
   <path id="Fill_x0020_279" class="fil1" d="M23599.09 10599.6c4.04,9.54 4.04,9.54 0,0zm5.71 -1.62c3.29,1.37 16.52,6.92 0,0zm-1292.22 -129.29c-245.55,3.85 -491.28,6.76 -736.69,17.27 -104.72,4.5 -210.68,8.14 -315.05,17.99 -73.94,7.01 -257.57,9.92 -305.52,70.32 -98.96,124.71 110.86,90.69 156.07,80.55 82.26,-18.43 166.2,-24.33 250.24,-28.78 182.31,-9.61 364.7,-14.73 547.26,-18.43 495.06,-9.97 990.46,-8.43 1485.59,-10.66 47.93,-0.22 134.57,-19.51 178.84,-0.11 44.38,19.43 41.87,67.22 46.47,122.69 6.12,73.82 -42.56,214.49 -5.47,276.58 57.55,96.32 141.23,14.52 154.03,-55.69 17.67,-97.01 -10.35,-213.51 -37.78,-306.26 -38.68,-130.84 -92.41,-136.03 -218.96,-146.27 -147.88,-11.93 -295.2,-19.18 -443.57,-20.55 -251.77,-2.32 -503.7,-2.57 -755.46,1.34z"/>
   <path id="Fill_x0020_281" class="fil2" d="M23283.85 11129.92c-532.64,61.85 -1080.42,25.41 -1615.88,27.58 -130.21,0.54 -260.52,1.59 -390.63,7.89 -68.69,3.32 -231.55,-15.63 -278.63,37.39 -99.22,111.73 79.51,127.98 144.76,123.37 131.94,-9.41 264.17,-13.67 396.45,-14.68 465.87,-3.61 934.41,18.13 1399.91,-4.85 195.03,-9.65 385.7,-43 577.11,-80.29 42.41,-8.25 332.71,-63.45 167.18,-129.59 -97.82,-39.09 -297.52,21.18 -400.27,33.18z"/>
   <path id="Fill_x0020_284" class="fil1" d="M21728.73 10925.37c-3.72,4.78 -3.72,4.78 0,0zm-3.56 -0.83c-1.26,3.42 -5.19,11.88 0,0zm-33.59 -43.32c0.75,1 3.93,5.06 0,0zm-1.29 -0.33c12.83,15.3 21.44,32.38 25.89,51.22 -110.36,29.91 -152.87,-59.39 -25.89,-51.22m-7.01 -4.17c0.06,0.03 15.58,6.55 0,0zm-181.26 -133.02c-71.42,88.94 -130.4,192.58 -41.33,294.18 79.62,90.85 239.78,102.57 340.84,41.92 104.08,-62.47 95.11,-194.03 22.46,-279.89 -46.74,-55.29 -84.62,-53.75 -152.45,-62.78 -46.18,-6.14 -130.35,-42.05 -169.52,6.57z"/>
   <path id="Fill_x0020_286" class="fil1" d="M22240.29 10908.33c0,118.43 511.37,67.46 602.35,67.32 76.22,-0.1 537.03,41.92 503.95,-79.95 -27.19,-100.15 -481.07,-50.35 -577.74,-50.52 -83.54,-0.11 -528.56,-57.47 -528.56,63.15z"/>
   <path id="Fill_x0020_292" class="fil1" d="M12768.46 12271.98c291.45,42.32 594.61,179.39 592.07,518.64 -2.14,285.24 -241.35,588.79 -548.56,571.75 -276.43,-15.29 -536.76,-317.64 -571.38,-576.7 -17.93,-134.24 15.64,-278.74 94.59,-389.17 103.45,-144.65 267.6,-144.43 433.28,-124.51m-137.67 -184.39c-210.8,1.14 -365.03,77.4 -495.49,238.36 -46.78,57.71 -101.21,119.82 -136.82,185.22 -33.27,61.07 -27.44,216.35 86.74,143.53 -28.11,300.65 147.6,592.45 400.17,746.51 274.56,167.46 584.89,134.81 813.4,-99.92 209.16,-214.86 282.78,-577.77 129.75,-843.51 -152.92,-265.57 -507.3,-373.04 -797.74,-370.19z"/>
   <path id="Fill_x0020_294" class="fil1" d="M13262.88 12006.99c-134.96,98.93 -258.19,229.18 -360.52,361.29 -100.05,129.12 -166.19,290.35 -286.38,402.96 -60.68,-66.1 -131.76,-244.63 -252.85,-173.81 -100.47,58.77 -35.77,159.84 13.15,226.21 126.36,171.36 266.65,240.34 428.69,71.01 147.16,-153.76 230.75,-358.88 368.35,-521.49 60.37,-71.35 153.61,-142.14 201.65,-220.93 43.57,-71.41 -10.29,-220.02 -112.09,-145.24z"/>
   <path id="Wireframy_x0020_Stuff_2" class="fil2" d="M19833.74 2359.46c0.18,11.85 0.35,22.97 0.59,33.24 5.55,223.72 2.34,458.93 -15.84,682.14 -6.27,77.08 -62.34,174.74 -126.3,68.52 -28.13,-46.72 -24.17,-142.63 -21.29,-213.19 0.78,-18.94 1.49,-36.02 1.49,-49.86 -0.05,-78.72 4.06,-158.26 8.22,-238.03 8.11,-155.92 16.27,-312.66 -6.82,-465.8 -0.46,-3.1 -0.92,-6.06 -1.31,-8.94 -10.05,-67.33 -10.72,-71.99 -84.79,-70.45 -30.87,0.64 -61.75,1.48 -92.59,2.31 -30.36,0.81 -60.73,1.65 -91.09,2.27 -30.17,0.64 -60.32,1.21 -90.47,1.8 -94.57,1.8 -189.12,3.64 -283.67,7.09 -15.75,0.59 -45.2,4.28 -82.33,8.94 -74.28,9.3 -179.36,22.49 -267.77,22.41 0.02,0.38 0.05,0.75 0.08,1.14 0.05,0.69 0.1,1.36 0.1,2.07 1,48.83 -11.58,103.29 -24.21,158.04 -10.56,45.85 -21.18,91.9 -23.9,134.89 -6.5,102.36 -6.58,205.78 -6.63,309.24 -0.11,125.96 -0.19,251.91 -11.85,375.89 -0.57,6.06 -0.92,12.44 -1.27,18.91 -0.02,0.87 -0.07,1.73 -0.13,2.59 4.01,-0.62 7.89,-1.05 11.64,-1.29 63.74,-4.04 128.01,-4.39 192.18,-4.77 35.41,-0.19 70.75,-0.38 105.96,-1.21 63.25,-1.46 127.3,-1.37 191.59,-1.32 141.9,0.16 285.06,0.33 423.86,-16.03 41.01,-5.31 55.34,47.26 36.94,74.52 -16.47,24.42 -61.81,28.37 -94.99,31.26 -8.43,0.75 -16.09,1.4 -22.28,2.31 -89.54,13.26 -180.24,17.89 -270.58,21.9 -94.86,4.21 -189.82,7.33 -284.74,9.97 -22.61,0.65 -52.76,3.7 -86.19,7.06 -88.29,8.92 -199.43,20.15 -254.58,-4.8 -59.29,-26.83 -57.9,-56.61 -33.7,-79.66 -10.61,-23.36 -12.28,-57.44 -13.6,-84.12 -0.49,-10.18 -0.95,-19.29 -1.8,-26.29 -13.15,-106.17 -21.1,-211 -21.28,-318.1 -0.38,-209.77 0.05,-427.65 58.08,-630.7 -23.25,-10.18 -37.26,-25.19 -37.21,-46.8 0.27,-108.95 339.33,-103.4 500.52,-100.77 28.83,0.46 51.95,0.85 66.44,0.46 117.42,-3.06 234.85,-3.47 352.29,-2.82 24.82,0.13 52.43,-1.52 81.04,-3.19 60.86,-3.57 126.24,-7.4 178.81,4.8 138.11,32.07 141.42,252.02 143.41,384.38z"/>
   <path id="Wireframy_x0020_Stuff_3" class="fil1" d="M20697.48 1998.96c128.22,-6.79 256.51,-8.33 384.89,-8.82 135.92,-0.67 272.03,1.75 407.89,5.94l3.16 0.1c60.19,1.8 394.8,11.85 241.07,95.24 -8.97,4.88 -19.05,8.92 -30.07,12.31 6.52,38.61 7.3,78.46 6.25,97.66 -3.96,72.83 -6.58,145.75 -9.22,218.66 -1.75,49.41 -3.52,98.82 -5.73,148.21 -6.04,136.43 -11.8,272.88 -16.5,409.4 -0.59,16.76 0.3,38.66 1.29,63.09 3.26,80.75 7.63,188.97 -36.21,228.98 -38.5,35.11 -64.79,28.07 -82.52,4.21 -110.14,32 -336.33,21.61 -450.08,16.38 -27.4,-1.27 -48.28,-2.24 -59.44,-2.24 -19.94,0.03 -56.98,2.5 -103.75,5.66 -194.78,13.06 -558.34,37.5 -559.07,-58.52 -0.08,-9.25 2.91,-17.51 8.57,-24.95 -15.44,-15.73 -29.32,-38.85 -38.24,-67.7 -32,-103.57 -35.02,-215.29 -37.39,-322.68 -3.37,-151.63 -3.39,-303.44 -3.42,-455.21 -0.03,-77.97 -0.05,-155.92 -0.51,-233.8 -20.83,-27.96 -8.46,-59.95 17.5,-82.25 55.31,-47.47 192.58,-48.04 291.92,-48.47 26.73,-0.11 50.7,-0.21 69.59,-1.21zm-208.63 1169.2c123.58,-26.37 331.81,-17.88 443.35,-13.33 29.22,1.18 51.81,2.1 64.52,2.05 113.94,-0.43 227.91,1.16 341.76,5.71 11.8,0.46 29.25,0.02 49.84,-0.51 41.32,-1.03 95.24,-2.4 141.01,2.69 -0.62,-6.22 -1.03,-11.88 -1.29,-16.78 -5.12,-101.36 -1.41,-203.57 2.26,-305.22l0 0c0.78,-21.61 1.57,-43.18 2.26,-64.71 2.45,-76 5.69,-151.98 8.95,-227.93l0 0 0 -0.05c2.05,-47.83 4.06,-95.65 5.93,-143.46 0.8,-20.99 -0.41,-49.52 -1.75,-81.58l0 0c-2.78,-65.25 -6.14,-145.27 5.55,-206.75 -42.17,-0.78 -85.35,-3.77 -124.98,-6.52 -38.17,-2.65 -73.01,-5.04 -100.41,-5.07 -34.75,0 -69.51,-0.1 -104.24,-0.21l0 0 0 0 0 0c-96.29,-0.3 -192.52,-0.59 -288.81,1.32 -9.13,0.18 -18.27,0.35 -27.4,0.54l0 0 0 0c-132.58,2.56 -266.24,5.14 -397.68,22.61 -7.71,1.02 -16.97,2.98 -27.21,5.39 14.41,60.24 7.35,145.13 1.18,219.47 -3.01,36.1 -5.81,69.72 -5.84,96.83 -0.19,168.54 4.26,336.41 8.71,504.13l0 0.02 0 0c1.69,63.45 3.36,126.85 4.79,190.26 0.19,7.58 0,14.6 -0.48,21.12z"/>
   <path id="Fill_x0020_135" class="fil6" d="M19082.31 3255.13c-84.27,49.22 -38.83,246.15 -9.62,314.23 47.98,111.99 145.36,199.61 250.42,257.72 212.36,117.46 518.47,86.27 679.07,289.94 1.67,2.1 57.17,57.06 69.8,-14.11 10.38,-58.41 -93.24,-147.62 -133.41,-176.87 -114.21,-83.27 -260.67,-110.12 -392.76,-151.71 -140.88,-44.35 -295.5,-126.11 -354.55,-271.36 -20.92,-51.43 18.96,-322.89 -108.95,-247.84z"/>
   <path id="Fill_x0020_137" class="fil5" d="M21008.5 3349.81c-77.22,21.28 -26.14,127.54 -26.27,180.72 -0.13,66.38 -21.36,135.84 -62.27,188.81 -103.72,134.3 -306.83,154.43 -459.11,192.95 -110.57,27.97 -375.11,87.97 -385.45,237.52 -11.56,166.99 221.97,-36.24 241.72,-44.56 218.29,-80.08 500.68,-95.53 669.18,-271.79 69.56,-72.78 110.64,-169.87 117.19,-270.09 3.67,-56.44 4.31,-240.7 -94.99,-213.56z"/>
   <path id="Fill_x0020_139" class="fil1" d="M19413.07 4831.03c-1.81,-308.96 293.87,-495.86 561.25,-566.18 321.38,-84.68 620.75,140.52 658.63,464.44 39.99,341.86 -217.68,617.07 -557.45,632.16 -298.91,13.26 -660.52,-200.74 -662.43,-530.42zm717.89 -417.62c17.37,23.62 33.08,61.34 -1.94,81.88 -33.7,19.63 -50.52,-3.96 -67.46,-27.73 -10.69,-15.01 -21.44,-30.07 -36.5,-34.33 -39.07,-10.99 -101.84,30.1 -134.39,54.05 -13.2,9.72 -32,30.66 -53.99,55.15 -69.93,77.89 -172.08,191.64 -228.52,93.75 -225.12,388.74 336.13,679.68 655.27,532.55 350.51,-161.57 282.29,-752.25 -132.47,-755.33z"/>
   <path id="Fill_x0020_141" class="fil2" d="M19836.8 4727.6c0,70.9 112,70.9 112,0 0,-70.13 -112,-73.12 -112,0z"/>
   <path id="Fill_x0020_143" class="fil1" d="M20033.86 4714.29c0,86.86 137.24,86.86 137.24,0 0,-85.89 -137.24,-89.56 -137.24,0z"/>
   <path id="Fill_x0020_145" class="fil1" d="M19892.85 4916.7c-112.24,66.03 208.74,197.21 221.4,63.15 5.47,-57.85 -50.54,-42.25 -87.89,-46.48 -35.72,-4.09 -99.63,-36.39 -133.51,-16.67z"/>
   <path id="Fill_x0020_147" class="fil5" d="M19844.16 5385.08c4.88,168.62 2.53,337.17 34.51,503.43 6.09,31.57 10.29,146.13 35.26,169.59 61.4,57.71 62.4,-52.89 64.8,-95.29 8.51,-151.81 -7.44,-308.37 -10.95,-460.51 -0.77,-32.77 7.9,-100.57 -7.54,-132.28 -24.55,-50.3 -118.5,-65.26 -116.09,15.06z"/>
   <path id="Fill_x0020_149" class="fil6" d="M19724.11 5248.35c-246.06,276.17 -584.9,255.84 -926.25,280.03 -180.38,12.77 -362.74,39.01 -507.85,155.66 -67.51,54.29 -125.7,122.26 -164.83,199.72 -17.09,33.87 -98.17,229.27 23.6,182.93 43.18,-16.46 85.7,-145.67 113.64,-183.9 53.2,-72.8 121.29,-132.9 202.95,-171.97 157.53,-75.35 345.63,-74.06 516.44,-83.62 178.54,-10 370.18,-19.35 534.3,-96.99 77.22,-36.54 149.63,-82.07 211.76,-140.78 22.23,-20.99 69.83,-56.63 73.37,-88.72 4.06,-36.67 -31.17,-103.8 -77.13,-52.37z"/>
   <path id="Fill_x0020_151" class="fil1" d="M18481.94 6096.02c-231.14,7.73 -462,17.08 -692.81,31.71 -47.28,2.99 -205,-6.58 -164.83,90.36 32.2,77.67 224.54,26.29 288.14,22.52 240.51,-14.28 482.02,-19.24 722.04,-40.87 53.91,-4.85 297.62,-2.93 196.96,-98.47 -47.87,-45.48 -283.36,-7.49 -349.51,-5.25z"/>
   <path id="Fill_x0020_153" class="fil1" d="M17477.53 6207.5c-72.86,95.7 -39.37,328.26 -33.87,443.3 5.34,111.46 -16.32,315.27 129.19,332.57 -46.21,-6.06 35.08,2.8 48.31,3.5 29.53,1.59 59.21,2.1 88.79,2.42 68.36,0.75 136.73,-0.16 205.06,-1.54 154.78,-3.06 309.96,-7.6 464.55,-16.14 64.99,-3.6 417.49,-0.59 431.44,-68.1 17.84,-86.27 -320.14,-37.45 -380.66,-34.7 -147.34,6.76 -294.93,8.19 -442.41,10.1 -73.09,0.97 -146.26,1.7 -219.35,0.27 -30.2,-0.6 -149.72,11.79 -168.06,-8.36 -15.65,-17.13 -3.45,-174.74 -3.77,-198.86 -1.08,-78.58 -1,-157.33 1.8,-235.9 1.88,-52.88 30.47,-153.5 7.17,-203.18 -22.67,-48.31 -88.69,-64.8 -128.19,-25.39z"/>
   <path id="Fill_x0020_155" class="fil2" d="M18667.7 6211.97c4.23,175.07 5.52,353.64 46.88,524.85 13.77,56.95 33.03,174.45 90.28,203.95 60.06,30.96 111.94,-13.23 115.85,-72.78 4.96,-74.81 -35.13,-173.06 -43.35,-249.85 -9.59,-89.58 -15.17,-179.25 -18.45,-269.28 -2.48,-67.7 18.1,-169.23 -46.45,-212.87 -57.98,-39.22 -146.64,0.27 -144.76,75.97z"/>
   <path id="Fill_x0020_157" class="fil1" d="M19127.67 6169.24c-71.88,71.61 -39.76,298.32 -30.76,390.33 6.57,67.38 80.34,398.9 190.85,226.01 48.9,-76.46 -13.23,-278.66 -12.77,-367.84 0.26,-56.79 20.37,-128.59 10.67,-183.15 -12.83,-72.09 -92.79,-130.48 -157.99,-65.36z"/>
   <path id="Wireframy_x0020_Stuff_4" class="fil1" d="M19625.42 6110.13c215.91,-22.28 432.09,-38.98 649.18,-41.06 10.43,-0.08 21.39,-0.21 32.79,-0.35 148.8,-1.89 372.42,-4.75 472.56,107.01 54.56,60.86 79.26,154.97 100.82,237 4.01,15.27 7.92,30.18 11.88,44.35 3.39,12.1 7.81,25.89 12.58,40.82 22.49,70.42 52.92,165.71 22.07,224.69 -16.91,32.36 -44.15,59.95 -85.51,48.49 -9.64,-2.69 -17.21,-6.11 -23.17,-10.15 15.84,17.14 22.87,41.57 12.58,65.44 -19.88,46.18 -82.7,47.18 -132.2,47.93 -11.98,0.18 -23.22,0.38 -32.84,1.18 -164.86,13.74 -330.47,22.9 -495.92,24.36 -78.75,0.67 -157.53,0.03 -236.3,-0.59 -81.09,-0.67 -162.17,-1.35 -243.26,-0.54 -58.84,0.56 -118.78,6.17 -178.73,11.77 -75.71,7.06 -151.42,14.11 -225.05,11.1 -55.07,-2.26 -113.88,-20.28 -99.92,-91.47 11.39,-58.11 66.09,-63.17 115.09,-67.72 4.26,-0.38 8.48,-0.78 12.64,-1.21 156.04,-15.87 312.2,-21.51 469.05,-20.94 329.52,1.13 658.78,-0.57 988.3,-2.29 13.55,1.13 26.29,6.3 36.8,14.17 -11.85,-14.39 -11.64,-33.57 -11.39,-53.97 0.13,-9.24 0.24,-18.75 -0.75,-28.16 -2.03,-18.94 -3.88,-37.8 -5.71,-56.63 -6.09,-62.22 -12.15,-123.96 -24.01,-186.52 -1.8,-9.46 -3.52,-19.86 -5.33,-30.85 -10.8,-64.96 -25.09,-151.03 -76.74,-186.11 -51.94,-35.27 -153.78,-33.57 -233.15,-32.25 -21.44,0.35 -41.22,0.67 -57.95,0.23 -211.79,-5.47 -424.82,9.59 -635.63,28.76 -16.19,1.48 -32.41,2.88 -48.66,4.31 -80.2,6.98 -160.83,14.01 -239.88,28.34 -14.47,2.65 -36.56,10.35 -61.91,19.21 -67.46,23.52 -157.88,55.07 -188.62,20.31 -101.79,-115.13 345.56,-162.4 406.31,-168.69z"/>
   <path id="Line" class="fil6" d="M21922.58 5847.99c9.4,12.08 9.4,12.08 0,0zm-1461.16 -713.3c-131.15,77.08 111.57,303.26 173.4,338.23 139.13,78.72 330.34,90.61 485.67,112.72 196.63,28.04 410.6,38.37 599.56,102.78 80.5,27.45 131.66,70.29 184.39,136.13 26.7,33.39 91.03,177.17 149.6,143.12 117.93,-68.54 -199.85,-356.22 -269.87,-387.15 -159.18,-70.31 -347.33,-90 -517.55,-117.3 -158.25,-25.41 -319.9,-44.28 -474.25,-89.07 -84.87,-24.59 -145.19,-64.3 -194.11,-140.31 -30.51,-47.37 -55.51,-146.72 -136.84,-99.15z"/>
   <path id="Wireframy_x0020_Stuff_5" class="fil1" d="M22471.75 6018.21c-151.19,3.36 -302.1,15 -452.97,26.62 -84.65,6.52 -169.28,13.03 -253.92,18.1 -26.49,1.59 -53,3.01 -79.51,4.44l-0.03 0 0 0c-74.57,4.01 -149.26,8.03 -223.48,15.55 -11.28,1.13 -24.36,2.21 -38.58,3.37 -63.04,5.17 -148.98,12.23 -203.92,35.23 -50.35,-38.09 -128.08,-5.71 -129.29,62.19 -2.08,123.66 -0.95,245.14 14.14,368.05 3.5,28.53 21.53,172.96 60.75,248.15 -13.96,71.02 46.59,90.91 102.92,96.35 218.2,21.07 447.04,4.71 672.76,-11.39 114.83,-8.22 228.84,-16.35 340.24,-19.51 37.04,-1.05 74.58,-1.46 112.32,-1.88 123.18,-1.37 248.72,-2.78 367.97,-26.08 4.8,-0.95 9.94,-1.86 15.32,-2.83 47.15,-8.43 112.16,-20.1 117.12,-71.99 2.96,-31.14 -14.6,-59.65 -44,-63.66 2.02,-25.95 -1.24,-54.25 -3.64,-75.06l-0.03 0c-0.54,-4.85 -1.05,-9.3 -1.46,-13.21 -7.14,-72.14 -25.11,-143.84 -42.86,-214.61l0 0 0 0c-3.99,-15.93 -7.97,-31.79 -11.8,-47.58 -4.26,-17.51 -8.19,-38.36 -12.44,-60.8 -14.99,-79.29 -33.85,-178.9 -83.96,-225.16 -52.53,-48.49 -138.08,-46.36 -206.62,-44.64 -5.12,0.13 -10.15,0.27 -15.06,0.36zm266.05 688.46c-17.92,-46.93 -23.18,-110.38 -28.16,-170.7l0 0c-3.13,-37.85 -6.17,-74.49 -12.15,-105.01 -4.53,-22.9 -8.22,-47.04 -11.96,-71.58l0 0c-9.1,-59.62 -18.56,-121.56 -40.95,-173.8 -29.96,-69.98 -56.63,-67.31 -119.73,-60.97 -11.74,1.18 -24.73,2.47 -39.25,3.47 -64.28,4.37 -128.54,9.92 -192.79,15.5l0 0c-30.82,2.67 -61.65,5.34 -92.47,7.86 -131.88,10.83 -263.86,19.18 -395.85,27.51l0 0c-77.11,4.88 -154.25,9.72 -231.35,15.11 -60.54,4.21 -119.6,15.7 -178.41,27.16 -46.58,9.08 -93.03,18.14 -139.9,23.49 -0.68,16.03 -2.03,32.12 -3.32,47.44 -1.75,20.88 -3.37,40.33 -3.01,56.26 1.54,70.64 7.76,140.83 14.01,211.14 0.97,10.8 1.9,21.61 2.85,32.44 1.13,12.96 3.93,29.61 7.01,48.09 4.8,28.58 10.29,61.5 11.53,91.82 5.71,-0.03 11.4,0 16.97,0 7.22,0.02 14.31,0.05 21.1,-0.06 166.2,-2.9 332.27,-7.94 498.37,-14.33 21.2,-0.81 42.4,-1.65 63.6,-2.45 148.18,-5.76 296.37,-11.56 444.68,-13.26 58.92,-0.67 118.6,1.19 178.49,3.04 77.02,2.37 154.34,4.78 230.7,1.83z"/>
   <polygon id="Leg" class="fil7" points="11520.62,8918.55 12994.79,12819.29 14028.06,15694.35 14617.25,15694.35 13196.9,8918.55 "/>
   <path id="Leg_0" class="fil8" d="M11156.29 8918.55c-16.03,1338.43 -4.44,3140.39 -41.79,3223.85 -37.35,83.42 -2322.59,1901.13 -2322.59,1901.13l303.69 516.4c0,0 2713.14,-1749.62 2851.83,-1982.73 138.71,-233.11 835.57,-2378.21 1198.15,-3658.66l-1989.29 0z"/>
   <path id="Shoe" class="fil9" d="M8257.63 14391.03l512.93 -390.36 413.86 493.23c47.74,557.72 369.31,1251.01 369.31,1251.01l-93.95 78.81 -748.88 -892.5 -209.22 -344.73 -46.98 39.43 -197.08 -234.88z"/>
   <path id="Shoe_2" class="fil9" d="M13973.39 16246.22l30.66 -643.86 643.86 0c457.93,321.93 1195.73,521.23 1195.73,521.23l0 122.63 -1165.07 0 -398.58 -61.32 0 61.32 -306.6 0z"/>
   <path id="SKIN" class="fil10" d="M15097.99 9244.61l-978.01 -718.15 -216.19 534.41 968.48 401.61c273.88,321.74 427.03,455.88 459.46,402.37 27.33,-45.1 5.98,-87.32 -13.7,-126.19 -15.32,-30.32 -29.65,-58.58 -19.13,-84.61 24.07,-59.49 208.05,-53.2 382.39,-39.8 174.36,13.4 123.56,-64.16 81.52,-102.47 -177.97,-106.53 -399.59,-195.58 -664.83,-267.16zm-5128.82 1265.42c89.85,-182.28 395.82,-1958.8 395.82,-1958.8l640.7 2.53c0,0 -593.41,1915.64 -640.7,2032.85 -61.44,152.25 42.92,373.47 113.69,523.49 10.95,23.21 21.09,44.7 29.69,63.99 -98.19,43.93 -145.37,-9.16 -195.09,-65.16 -56.17,-63.25 -115.6,-130.14 -255.5,-65.09 -54.06,25.17 -105.21,54.87 -155.17,83.95 -172.62,100.32 -331.18,192.51 -546.9,59.4 -34.2,-21.11 -71.68,-100.54 18.88,-162.63 225.58,-154.67 550.67,-425.4 594.59,-514.53z"/>
   <path id="Coat_x0020_Back" class="fil11" d="M12185.77 5862.75l265.13 -45.47c983.65,849.74 1387.69,2482.21 2593.41,3347l-290.2 359.73c-2091.72,-259.02 -2610.18,-2250.21 -2568.34,-3661.26z"/>
   <path id="Shirt" class="fil12" d="M11030.05 9194.49c0,0 1594.56,0 2345.82,0 107.21,0 87.01,-154.78 71.49,-232.89 -178.81,-901.4 -876.92,-1873.08 -876.92,-3156.21l-676.64 -106.11c-559.68,900.13 -753.22,2008.36 -863.75,3495.22z"/>
   <path id="Shade" class="fil13" d="M10766.29 9838.34c138.34,-332.23 280.18,-720.02 416.68,-1120.49 50.81,441.03 135.44,883.98 276.32,1120.49l-693 0z"/>
   <g>
    <path class="fil14" d="M12799.33 4474.91c49.12,75.59 97.86,149.91 111.82,253.86 2.85,21.28 89.21,135.94 50.3,165.31 -8.04,20.85 -17.06,47.29 2.21,63.36 42.47,33.92 87.46,64.92 127.45,101.77 63.77,58.76 55.22,102.56 8.83,126.55 -25.84,12.99 -61.37,20.89 -47.18,42.95 40.69,50.83 32.08,88.69 -22.51,115.84 32.9,22.72 47.24,47.25 17.39,76.08 -30.78,46.98 -21.81,79.76 32.86,96.22 45.79,99.42 -15.39,175.13 -112.96,192.34 -78.16,13.77 -176.46,31.56 -233.94,54.28 -153.96,129.36 -230.01,296.02 -220.67,353.96 -220.13,-80.35 -422.89,-144.51 -643,-224.85 31.98,-81.13 120.56,-302.25 87.97,-420.69 -129.17,-236.02 -215.07,-499.35 -251.85,-793.66 59.26,-259.84 174.24,-432.74 366.62,-484.8 271.28,-81.64 593.17,18.67 726.66,281.48z"/>
    <path class="fil15" d="M12518.98 5188.87c-17.49,-50.53 -34.99,-101.05 -52.48,-151.58 9.49,-69.46 26.67,-132.48 76.76,-167.88 121.23,-66.85 126.48,-165.94 96.63,-274.78 26.15,-134.54 96.62,-123.44 193.85,-24.45 22.5,24.78 31.23,35.29 53.72,60.08 82.96,-99.84 257.24,-144.03 16.47,-416.54 -95.99,-70.01 -203.06,-102.48 -327.2,-77.1 -97.88,2.25 -217.3,-16.89 -378.59,-28.11 -128.79,29.38 -259.5,3 -382.79,190.34 -87.64,134.83 -130.4,268.09 -139.46,400.18 -16.64,91.86 46.89,325.95 265.07,834.5 59.91,64.74 104.23,73.19 110.13,-56.94 1.05,-82.64 2.11,-165.28 3.17,-247.92 2.03,-413.43 573.76,-56.64 320.77,316.28 187.99,114.5 430.75,193.12 573.3,176.21 139.97,-16.62 173.84,-97.37 151.29,-208.83 -11.55,-7.01 -61.73,-26.04 -44.11,-101.72 -45.77,54.16 -36.54,88.11 -3.41,92.32 -0.34,13.5 -23.49,22.26 -31.29,12.16 -40.92,-53.9 -39.75,-130.63 3.8,-187.47 18.22,-20.3 34.87,-43.49 55.33,-41.75 -3.46,-32.83 -8.44,-55.03 -29.11,-73.48 -90.44,64.61 -88.7,157.3 -102.73,269.09 -99.02,-5.29 -186.02,-19.13 -295.92,-110.64 -39.66,-65.73 -93.54,-116.22 -133.2,-181.95z"/>
   </g>
   <path id="Coat_x0020_Front" class="fil16" d="M10766.29 9838.34c-105.42,253.21 -208.82,474.16 -306.23,643.85l-503.09 0c-54.12,-1750.1 608.46,-3096.74 1162.98,-3908.71 -123.12,-8.81 -234.26,-60.33 -304.51,-187.08 -247.31,-446.26 -157.98,-691.96 106.31,-772.72 145.34,-44.42 282.03,-14.1 445.64,22.19 133.88,29.69 285.84,63.38 475.29,63.4 0.06,0 0.12,0 0.17,0 18.37,0 35.08,1.23 50.22,3.59l224.56 12.81c0,0 911.61,3089.58 502.82,4122.67l-1854.15 0z"/>
   <g>
    <path id="Seat_2" class="fil17" d="M24137.25 11739.82c252.44,0 457.08,204.63 457.08,457.07l0 2628.19c0,252.45 -204.64,457.07 -457.08,457.07l-3285.23 0c-252.45,0 -457.08,-204.62 -457.08,-457.07l0 -2628.19c0,-252.44 204.63,-457.07 457.08,-457.07l3285.23 0zm-457.08 799.88c63.1,0 114.27,51.17 114.27,114.28l0 1714.03c0,63.1 -51.17,114.27 -114.27,114.27l-2371.08 0c-63.1,0 -114.27,-51.17 -114.27,-114.27l0 -1714.03c0,-63.11 51.17,-114.28 114.27,-114.28l2371.08 0z"/>
    <path id="SKIN_1" class="fil14" d="M17562.24 15139.32c563.23,-687.79 944.32,-1197.67 1143.29,-1529.67 340.67,-568.46 619.48,-1074.28 707.47,-1267.51 209.82,-460.76 -483.04,-676.53 -639.85,-461.61 -237.34,325.28 -744.21,1348.87 -1520.61,3070.73l309.7 188.05z"/>
    <path id="LegLower" class="fil7" d="M18716.39 14939.34l1048.21 -2638.55c224.2,-481 -858.48,-797.16 -1023.22,-573.32 -374.06,508.2 -1263.12,2512.95 -1374.57,2664.36l1349.58 547.51z"/>
    <path id="SKIN_2" class="fil14" d="M21508.12 14410.2c-204.2,-297.84 -946.88,-1299.89 -1351.4,-1714.49 -116.25,-119.14 -229.67,-233.49 -336.95,-340.06 -318.86,-316.74 -953.86,215.65 -635.56,504.14 792.66,718.48 1949.17,1688.39 2045.79,1774.87 135.44,121.2 406.45,-37.29 278.13,-224.46z"/>
    <path id="shoe" class="fil18" d="M21375.83 14287.59c19.81,-26.97 58.11,-33.37 83.7,-11.83 46.71,39.27 113.87,99.79 138.13,141.78 38.62,66.9 90.44,208.17 90.44,208.17 -77.62,44.81 -1395.37,805.62 -1395.37,805.62 0,0 -158.21,-148.41 -49.3,-230.4 108.92,-82.01 179.74,-138.32 179.74,-138.32l481.64 -663.55c9.46,-13.03 27.8,-15.69 40.54,-5.87l100.06 77.05c0,0 137.73,-12 205.55,-51.17 41.31,-23.85 91.74,-86.3 124.87,-131.49z"/>
    <path id="shoe_2" class="fil18" d="M17725.33 15004.59c30.63,-13.45 67.03,0.17 78.42,31.63 20.8,57.34 48.71,143.35 48.71,191.83 0,77.28 -25.73,225.5 -25.73,225.5 -89.65,0 -1611.26,0 -1611.26,0 0,0 -62.82,-207.62 72.51,-224.19 135.33,-16.54 224.82,-29.89 224.82,-29.89l748.89 -333.87c14.7,-6.56 31.91,0.33 38.05,15.2l48.13 116.78c0,0 125.27,58.46 203.56,58.46 47.69,0 122.6,-28.89 173.89,-51.46z"/>
    <path id="Leg_x0020_and_x0020_Butt" class="fil8" d="M20141.78 12432.58c0,0 1306.81,-212.89 1750.65,-291.16 843.39,-148.71 1089.33,-602.56 943.92,-1592.78l-1553.94 0c-308.47,89.08 -2577.71,1101.81 -2577.71,1101.81 -272.19,135.12 -221.5,533.52 -171.77,664.78 3.05,8.01 1376.6,2358.81 1376.6,2358.81l1271.18 -809.83 -1041.34 -1336.21c0,0 -41.25,-83.1 2.4,-95.43z"/>
    <path id="SKIN_3" class="fil14" d="M24669.62 11576.52c-106.54,-156.55 -722.83,-1821.1 -722.83,-1821.1l-505.98 73.48c0,0 814.67,1767.57 873.52,1869.61 76.43,132.53 8.83,350.18 -37.01,497.76 -7.1,22.82 -13.67,44 -19.1,62.88 96.3,27.83 132.93,-27.32 171.56,-85.41 43.62,-65.63 89.78,-135.07 227.31,-93.17 53.13,16.21 104.18,37 154.05,57.31 172.28,70.2 330.55,134.67 512.32,-16.11 28.82,-23.91 53.1,-102.07 -38.5,-147.61 -228.19,-113.47 -563.25,-321.09 -615.34,-397.63zm-5490.07 -773.65l862.33 -731.09 235.68 482.7 -874.07 436.21c-233.65,316.84 -367.29,451.48 -400.91,403.85 -28.34,-40.13 -11.23,-80.75 4.53,-118.2 12.29,-29.14 23.75,-56.36 12.26,-79.88 -26.22,-53.7 -196.82,-35.92 -358,-12.13 -161.17,23.8 -118.98,-51.63 -82.41,-89.96 158.48,-110.55 358.68,-207.74 600.59,-291.5z"/>
    <g>
     <path class="fil14" d="M20928.28 6511.37c-26.22,83.29 -52.4,165.31 -38.44,265.94 2.86,20.6 -47.96,150.02 -4.02,167.33 12.92,17.37 28.19,39.7 14.39,59.69 -30.83,42.7 -64.77,83.31 -92.52,128.07 -44.26,71.41 -24.91,110.06 24.61,120.4 27.5,5.42 62.7,3.56 55.19,27.83 -24.78,58 -6.91,91.1 51.09,102.26 -24.8,29.74 -31.82,56.36 3.51,75.52 40.93,35.84 41.08,68.77 -5.67,98.31 -16.92,104.69 59.82,159.46 155.35,150.18 76.52,-7.44 172.87,-16.37 232.42,-10.08 177.27,80.75 291.51,216.53 297.83,273.03 184.58,-132.13 357.14,-244.66 541.71,-376.79 -50.92,-67.4 -191,-250.77 -191.32,-369.76 59.26,-253.8 71.05,-521.85 28.97,-806.07 -122.78,-227.09 -274.96,-358.6 -468.03,-357.24 -274.35,-5.76 -548.71,171.44 -605.06,451.37z"/>
     <path class="fil15" d="M21375.28 7104.86c3.22,-51.69 6.42,-103.38 9.62,-155.08 -26.89,-62.36 -59.27,-116.7 -115.22,-136.74 -130.5,-30.91 -161.12,-122.03 -161.53,-231.35 -59.33,-118.78 -122.22,-90.12 -187.26,27.51 -14.56,28.97 -19.97,41.05 -34.53,70.02 -103.34,-71.63 -277.48,-67.63 -123.53,-384.46 71.41,-90.26 162.9,-148.36 285.34,-156.91 91.93,-23.31 198.42,-72.18 346.03,-124.53 127.82,-6.02 242.96,-64.57 406.65,78.25 116.78,103.07 191.3,216.34 234.05,337.25 39.38,81.41 40.87,316.36 -30.71,847.61 -39.1,75.98 -78.26,95.37 -117.56,-24.54 -22.44,-76.86 -44.87,-153.7 -67.32,-230.56 -109.24,-385.29 -550.17,96.12 -217.25,378.47 -145.71,155.66 -351.84,292.06 -489.28,313.29 -134.95,20.84 -187.52,-45.73 -195.42,-155.6 8.96,-9.53 50.84,-40.32 14.75,-106.38 56.78,38.65 56.97,72.73 27.16,85.26 3.82,12.51 27.7,14.67 32.35,3.22 24.2,-60.92 3.18,-132.23 -52.22,-173.97 -22.27,-14.21 -43.83,-31.54 -62.48,-24.59 -5.28,-31.54 -6.4,-53.54 8.1,-76.14 101.17,36.81 123.62,123.77 165.73,224.46 91.03,-30.66 168.63,-66.16 247.44,-180.09 19.95,-71.65 57.12,-132.75 77.06,-204.4z"/>
    </g>
    <path id="Coat_x0020_Back_4" class="fil17" d="M21832.01 7692.76l-342.08 105.81c-425.28,1062.44 -1031.02,1880.88 -2090.75,2749.14l262.04 452.13c931.38,-548.63 1813.02,-974.83 2170.79,-1798.08 120.07,-276.31 9.81,-1178.62 0,-1509z"/>
    <path id="Shirt_5" class="fil19" d="M22908.86 10682.83c0,0 -1347.14,142.83 -2120.71,0 -63.91,-11.8 -74,-118.78 -44.34,-191.37 461.42,-1130.59 744.5,-1905.21 744.5,-2690.5 148.4,-31.21 477.82,-192.69 477.82,-192.69 568.89,809.26 830.37,1737.78 942.72,3074.56z"/>
    <path id="Coat_x0020_Front_6" class="fil0" d="M22129.17 7540.44c-14.36,-2.03 -7.85,1.17 -21.6,0l-237.1 0c-11.91,70.07 -29.35,329.74 -54.79,708.42 -92.48,1375.99 -290.5,4323.04 -712.01,5450.85l2908.31 0c-61.36,-1282.22 -534.11,-2815.56 -1023.82,-4117.56 361.37,359.53 783.39,962.22 1124.48,1965.5l544.75 -139.84c-555.16,-2392.2 -2181.65,-3625.93 -2497.26,-3846.12 -3.09,-7.12 -6.14,-14.2 -9.19,-21.25l-21.75 0z"/>
   </g>
   <g>
    <ellipse id="Ballsy_x0020_Ball" class="fil20" cx="2351.06" cy="13904.41" rx="2074.5" ry="1980.21"/>
    <path id="SKIN_7" class="fil14" d="M5576.26 13798.8c100.19,350.99 349.86,1016.29 695.04,1780.29l328.04 -95.72c-286.99,-1758.07 -525.82,-2921.98 -662.64,-3276.24 -90.39,-234.06 -774.22,-206.64 -695.55,264.32 33,197.49 163.53,726.34 335.1,1327.34zm-1348.26 -1245.21c-534.93,110.83 -1644.06,502.61 -1960.79,627.8 -199.04,78.67 -70.72,345.51 99.1,322.16 28.75,-3.95 130.5,-15.34 282.29,-32.31 487.59,-54.55 1491.7,-166.88 2253.26,-276.49 401,-57.72 185.28,-808.83 -231.07,-729.34 -140.07,26.74 -289.05,56.33 -442.78,88.18z"/>
    <path id="Leg_x0020_Back" class="fil9" d="M5957.7 12008.74c-54.69,-178.47 -2540.78,-811.96 -2540.78,-811.96l-203.73 0 0 189.85 1713.14 872.09c-2.27,28.13 -0.9,57.89 4.63,89.25 -12.37,646.51 264.35,1129.49 538.29,1607.69 179.16,312.68 357.12,623.34 452.32,976.33l629.39 -93.89c-18.33,-46.88 -47.31,-258.31 -86.97,-547.37 -99.93,-728.87 -267.59,-1951.39 -502.76,-2274.83 -0.8,-1.13 -1.64,-2.25 -2.5,-3.37 -0.3,-1.26 -0.65,-2.53 -1.03,-3.78z"/>
    <path id="Leg_x0020_Front" class="fil21" d="M3355.52 12776.64c-156.75,-31.38 -301.1,-59.39 -424.6,-81.04 -797.85,-139.94 -1030.49,-567.01 -892.93,-1498.83l1469.99 0c240.13,68.98 1488.03,592.3 2135.53,870.66 428.53,184.22 293.44,848.34 50.75,1021.17 -1.31,10.6 -5.68,17.81 -13.47,21.03 -920.07,381.34 -1704.67,352.89 -2208.5,334.62 -211.04,-7.66 -372.79,-13.52 -474.63,13.26l-159.57 -503.38 517.44 -177.48z"/>
    <path id="shoe_8" class="fil18" d="M2435.3 13155.28c-1.24,-31.53 -27.83,-56.72 -59.19,-53.39 -57.23,6.08 -141.66,17.97 -182.75,38.02 -65.49,31.94 -180.54,115.05 -180.54,115.05 37.08,75.98 666.14,1365.76 666.14,1365.76 0,0 201.98,-32.6 160.06,-154.13 -41.9,-121.56 -67.6,-202.93 -67.6,-202.93l-26.62 -772.82c-0.51,-15.17 -13.47,-26.91 -28.61,-25.97l-118.89 7.47c0,0 -101.33,-82.02 -133.71,-148.4 -19.69,-40.41 -26.21,-115.84 -28.29,-168.67z"/>
    <path id="shoe_2_9" class="fil18" d="M6188.88 15407.31c-28.88,-12.69 -63.2,0.16 -73.96,29.82 -19.61,54.08 -45.93,135.2 -45.93,180.92 0,72.88 24.28,212.67 24.28,212.67 84.55,0 1519.56,0 1519.56,0 0,0 59.25,-195.81 -68.38,-211.43 -127.62,-15.6 -212.02,-28.19 -212.02,-28.19l-706.28 -314.87c-13.87,-6.19 -30.09,0.31 -35.88,14.34l-45.39 110.14c0,0 -118.14,55.13 -191.99,55.13 -44.96,0 -115.6,-27.24 -163.99,-48.53z"/>
    <path id="SKIN_10" class="fil14" d="M5785.65 9982.39l-1063.73 145.09 190.85 476.58 863.12 -342.2c372.04,36.71 551.93,27.87 539.7,-26.51 -10.33,-45.85 -49.87,-59.69 -86.3,-72.44 -28.37,-9.93 -54.85,-19.2 -64.15,-42.42 -21.25,-53.03 99.69,-162.95 218.88,-262.32 119.19,-99.36 39.2,-117.65 -11.1,-116.17 -178.74,41.89 -374.49,122.02 -587.27,240.38zm-5175.08 2612.87c78.96,-160.17 769.78,-2221.56 769.78,-2221.56l589.95 2.21c0,0 -970.36,2183.65 -1011.91,2286.65 -53.99,133.79 37.72,328.18 99.9,460 9.62,20.4 18.53,39.28 26.1,56.23 -86.29,38.6 -127.74,-8.05 -171.44,-57.25 -49.36,-55.59 -101.58,-114.37 -224.52,-57.2 -47.5,22.12 -92.45,48.23 -136.36,73.76 -151.68,88.15 -291.02,169.16 -480.58,52.19 -30.05,-18.54 -62.98,-88.34 16.59,-142.9 198.23,-135.92 483.89,-373.82 522.48,-452.13z"/>
    <path id="Clothes_x0020_Back" class="fil11" d="M2996.28 8502.62l461.92 30.77c113.78,1029.2 733.41,1679.28 2120.76,1459.2l184.31 1325.39c-1296.67,167.58 -2433.88,-351.57 -2666.95,-1757.15 -60.32,-363.87 -107.96,-742.53 -100.03,-1058.22z"/>
    <path id="Shade_11" class="fil13" d="M2158.25 11385.36c54.21,-622.61 151.02,-1209.95 311.02,-1762.04 -35.08,590.41 -44.8,1322.83 73.15,1762.04l-384.17 0z"/>
    <g>
     <path class="fil14" d="M3713.1 6972.95c51.18,81.72 101.95,162.08 115.01,273.5 2.67,22.81 92.96,146.98 50.81,177.69 -8.98,22.16 -19.08,50.26 1.22,67.79 44.81,37.05 92.37,71.01 134.47,111.13 67.14,64 57.21,110.68 7.16,135.49 -27.87,13.43 -66,21.24 -51.23,45.08 42.6,55.1 32.71,95.43 -26.16,123.47 34.77,24.89 49.66,51.38 17.24,81.69 -33.78,49.69 -24.77,84.9 33.4,103.49 47.19,107.15 -19.6,187.01 -124.26,203.66 -83.83,13.32 -189.28,30.57 -251.16,53.84 -166.98,135.57 -251.3,312.42 -242.36,374.56 -233.96,-89.88 -449.64,-162.15 -683.59,-252.03 35.67,-86.18 134.38,-321.07 101.64,-448.31 -133.88,-254.73 -221,-537.88 -255.04,-853.29 68.06,-276.81 194.12,-459.63 400.8,-511.84 291.57,-82.44 634,30.64 772.04,314.09z"/>
     <path class="fil15" d="M3400.45 7731.42c-17.8,-54.35 -35.6,-108.7 -53.4,-163.04 11.4,-74.11 30.9,-141.19 85.11,-178.16 130.86,-69.31 138.24,-175.18 108.28,-292.12 30.39,-143.41 105.56,-130.27 207.76,-22.66 23.61,26.91 32.75,38.31 56.36,65.22 90.52,-105.28 277.7,-149.41 25.11,-445.17 -101.4,-76.59 -215.31,-113.25 -348.52,-88.34 -104.72,0.65 -232.09,-21.97 -404.37,-36.88 -138.26,29.1 -277.57,-1.45 -412.78,196.67 -96.14,142.62 -144.28,284.36 -156.34,425.45 -19.45,97.93 44.28,349.42 268.46,897.19 62.91,70.32 110.15,80.16 118.79,-58.91 2.62,-88.35 5.23,-176.71 7.85,-265.07 9.61,-442.08 614.61,-50.24 337.35,344.02 198.99,125.84 457.17,214.28 609.93,198.76 149.99,-15.24 187.67,-101 165.56,-220.6 -12.23,-7.7 -65.55,-28.95 -45.34,-109.58 -49.93,57.09 -40.66,93.57 -5.32,98.66 -0.6,14.43 -25.52,23.38 -33.68,12.43 -42.79,-58.37 -40.15,-140.42 7.43,-200.41 19.86,-21.38 38.07,-45.88 59.94,-43.65 -3.12,-35.16 -8.04,-59 -29.81,-79.11 -97.89,67.47 -97.69,166.63 -114.7,285.93 -105.8,-7.45 -198.59,-23.81 -314.48,-123.65 -41.23,-71.01 -97.94,-125.98 -139.17,-196.98z"/>
    </g>
    <path id="Clothes" class="fil16" d="M691.49 12328.32c320.7,-1706.38 997.6,-3026.51 2030.71,-3960.42l44.33 0 1.51 0 0.38 0.44 699.86 160.29c0,840.68 187.02,1468.83 366.83,2072.75 77.65,260.8 153.95,517.09 213.28,783.99l-1890.12 0c-26.63,305.82 -42.98,620.14 -51.5,942.95l-1415.26 0z"/>
   </g>
  </g>
 </g>
</svg>
