<svg width="181" height="180" viewBox="0 0 181 180" fill="none" xmlns="http://www.w3.org/2000/svg">
<path d="M133.62 180H8.52069C3.87304 180 0 176.148 0 171.526V8.47361C0 3.85164 3.87304 0 8.52069 0H172.479C177.127 0 181 3.85164 181 8.47361V132.882C181 158.944 159.827 180 133.62 180Z" fill="black"/>
<path d="M40 45H54.551C68.2066 45 77.8326 53.1873 77.8326 64.6937C77.8326 76.2001 68.2066 84.3874 54.551 84.3874H40V45ZM56.118 75.5363C62.9458 75.5363 67.7588 71.0001 67.7588 64.6937C67.7588 58.3873 62.8339 53.8511 56.118 53.8511H49.9618V75.5363H56.118Z" fill="white"/>
<path d="M140.023 84.9056H129.323L123.304 59.9786L114.944 84.9056H104.355L96.1069 59.9786L90.0879 84.9056H79.3875L90.8681 45H100.788L109.705 70.2624L118.511 45H128.431L140.023 84.9056Z" fill="white"/>
<path d="M40 93.7157H50.7004L56.8309 118.601L65.0792 93.7157H75.6681L83.9164 118.601L89.9354 93.7157H100.636L89.1551 133.621H79.2349L70.4294 108.288L61.5123 133.621H51.5921L40 93.7157Z" fill="white"/>
<path d="M102.854 127.573L108.462 120.898C112.387 124.124 116.761 125.904 121.583 125.904C125.284 125.904 127.19 124.458 127.19 122.233C127.19 119.897 125.284 119.34 119.564 118.005C111.041 116.114 104.649 113.778 104.649 105.88C104.649 98.315 110.817 93.1977 119.901 93.1977C126.63 93.1977 131.788 95.0889 136.05 98.6487L131.003 105.657C127.303 102.876 123.377 101.43 119.564 101.43C116.312 101.43 114.518 102.876 114.518 104.878C114.518 107.326 116.424 108.105 122.368 109.328C131.34 111.219 137.059 113.778 137.059 121.232C137.059 129.241 131.003 134.136 121.022 134.136C114.181 134.247 107.677 131.911 102.854 127.573Z" fill="white"/>
</svg>
